G75*
G70*
%OFA0B0*%
%FSLAX24Y24*%
%IPPOS*%
%LPD*%
%AMOC8*
5,1,8,0,0,1.08239X$1,22.5*
%
%ADD10C,0.0160*%
%ADD11C,0.0100*%
%ADD12C,0.0080*%
%ADD13C,0.0200*%
%ADD14C,0.0040*%
%ADD15C,0.0050*%
%ADD16R,0.0480X0.0005*%
%ADD17R,0.0300X0.0005*%
%ADD18R,0.0330X0.0005*%
%ADD19R,0.0550X0.0005*%
%ADD20R,0.0325X0.0005*%
%ADD21R,0.0590X0.0005*%
%ADD22R,0.0620X0.0005*%
%ADD23R,0.0640X0.0005*%
%ADD24R,0.0665X0.0005*%
%ADD25R,0.0680X0.0005*%
%ADD26R,0.0695X0.0005*%
%ADD27R,0.0710X0.0005*%
%ADD28R,0.0725X0.0005*%
%ADD29R,0.0740X0.0005*%
%ADD30R,0.0750X0.0005*%
%ADD31R,0.0760X0.0005*%
%ADD32R,0.0770X0.0005*%
%ADD33R,0.0780X0.0005*%
%ADD34R,0.0790X0.0005*%
%ADD35R,0.0800X0.0005*%
%ADD36R,0.0810X0.0005*%
%ADD37R,0.0815X0.0005*%
%ADD38R,0.0825X0.0005*%
%ADD39R,0.0830X0.0005*%
%ADD40R,0.0835X0.0005*%
%ADD41R,0.0845X0.0005*%
%ADD42R,0.0850X0.0005*%
%ADD43R,0.0855X0.0005*%
%ADD44R,0.0865X0.0005*%
%ADD45R,0.0870X0.0005*%
%ADD46R,0.0875X0.0005*%
%ADD47R,0.0880X0.0005*%
%ADD48R,0.0885X0.0005*%
%ADD49R,0.0890X0.0005*%
%ADD50R,0.0895X0.0005*%
%ADD51R,0.0900X0.0005*%
%ADD52R,0.0905X0.0005*%
%ADD53R,0.0910X0.0005*%
%ADD54R,0.0915X0.0005*%
%ADD55R,0.0920X0.0005*%
%ADD56R,0.0925X0.0005*%
%ADD57R,0.0335X0.0005*%
%ADD58R,0.0930X0.0005*%
%ADD59R,0.0500X0.0005*%
%ADD60R,0.0445X0.0005*%
%ADD61R,0.0420X0.0005*%
%ADD62R,0.0400X0.0005*%
%ADD63R,0.0390X0.0005*%
%ADD64R,0.0380X0.0005*%
%ADD65R,0.0370X0.0005*%
%ADD66R,0.0365X0.0005*%
%ADD67R,0.0360X0.0005*%
%ADD68R,0.0350X0.0005*%
%ADD69R,0.0345X0.0005*%
%ADD70R,0.0340X0.0005*%
%ADD71R,0.0320X0.0005*%
%ADD72R,0.0315X0.0005*%
%ADD73R,0.0310X0.0005*%
%ADD74R,0.0305X0.0005*%
%ADD75R,0.0635X0.0005*%
%ADD76R,0.0630X0.0005*%
%ADD77R,0.0625X0.0005*%
%ADD78R,0.0645X0.0005*%
%ADD79R,0.0650X0.0005*%
%ADD80R,0.0655X0.0005*%
%ADD81R,0.0660X0.0005*%
%ADD82R,0.0670X0.0005*%
%ADD83R,0.0675X0.0005*%
%ADD84R,0.0375X0.0005*%
%ADD85R,0.0385X0.0005*%
%ADD86R,0.0415X0.0005*%
%ADD87R,0.0425X0.0005*%
%ADD88R,0.0470X0.0005*%
%ADD89R,0.0960X0.0005*%
%ADD90R,0.0955X0.0005*%
%ADD91R,0.0950X0.0005*%
%ADD92R,0.0945X0.0005*%
%ADD93R,0.0940X0.0005*%
%ADD94R,0.0935X0.0005*%
%ADD95R,0.0860X0.0005*%
%ADD96R,0.0820X0.0005*%
%ADD97R,0.0805X0.0005*%
%ADD98R,0.0795X0.0005*%
%ADD99R,0.0785X0.0005*%
%ADD100R,0.0775X0.0005*%
%ADD101R,0.0735X0.0005*%
%ADD102R,0.0715X0.0005*%
%ADD103C,0.0060*%
%ADD104C,0.0120*%
%ADD105C,0.0240*%
D10*
X021655Y013861D02*
X022055Y013861D01*
X021855Y017161D02*
X021855Y017561D01*
X021655Y017361D02*
X022055Y017361D01*
X014055Y021861D02*
X013855Y021661D01*
X014055Y021861D02*
X013855Y022061D01*
X014055Y022761D02*
X013855Y022961D01*
X014055Y023161D01*
D11*
X014172Y025311D02*
X014038Y025445D01*
X014105Y025445D02*
X013905Y025445D01*
X013905Y025311D02*
X013905Y025712D01*
X014105Y025712D01*
X014172Y025645D01*
X014172Y025511D01*
X014105Y025445D01*
X014365Y025378D02*
X014432Y025311D01*
X014566Y025311D01*
X014632Y025378D01*
X014632Y025445D01*
X014566Y025511D01*
X014432Y025511D01*
X014365Y025578D01*
X014365Y025645D01*
X014432Y025712D01*
X014566Y025712D01*
X014632Y025645D01*
X014826Y025645D02*
X014893Y025712D01*
X015026Y025712D01*
X015093Y025645D01*
X015093Y025578D01*
X014826Y025311D01*
X015093Y025311D01*
X015286Y025378D02*
X015353Y025311D01*
X015486Y025311D01*
X015553Y025378D01*
X015553Y025445D01*
X015486Y025511D01*
X015420Y025511D01*
X015486Y025511D02*
X015553Y025578D01*
X015553Y025645D01*
X015486Y025712D01*
X015353Y025712D01*
X015286Y025645D01*
X015026Y025911D02*
X014893Y025911D01*
X014826Y025978D01*
X014893Y026111D02*
X015026Y026111D01*
X015093Y026045D01*
X015093Y025978D01*
X015026Y025911D01*
X014893Y026111D02*
X014826Y026178D01*
X014826Y026245D01*
X014893Y026312D01*
X015026Y026312D01*
X015093Y026245D01*
X014632Y026245D02*
X014632Y026111D01*
X014566Y026045D01*
X014365Y026045D01*
X014365Y025911D02*
X014365Y026312D01*
X014566Y026312D01*
X014632Y026245D01*
X014172Y026245D02*
X014105Y026312D01*
X013972Y026312D01*
X013905Y026245D01*
X013905Y025978D01*
X013972Y025911D01*
X014105Y025911D01*
X014172Y025978D01*
X014172Y026111D01*
X014038Y026111D01*
X015747Y025645D02*
X015813Y025712D01*
X015947Y025712D01*
X016013Y025645D01*
X016013Y025578D01*
X015747Y025311D01*
X016013Y025311D01*
X021295Y023111D02*
X021295Y022801D01*
X021555Y022801D01*
X021785Y023321D02*
X021925Y023321D01*
X022415Y023121D02*
X022415Y022801D01*
X022155Y022801D01*
X024995Y023901D02*
X024995Y024211D01*
X024995Y023901D02*
X025255Y023901D01*
X025485Y024421D02*
X025625Y024421D01*
X026115Y024221D02*
X026115Y023901D01*
X025855Y023901D01*
X027075Y020311D02*
X023055Y020311D01*
X023055Y019221D01*
X027075Y019221D01*
X027075Y020311D01*
X029185Y018072D02*
X029185Y017805D01*
X029318Y017671D01*
X029452Y017805D01*
X029452Y018072D01*
X029645Y018072D02*
X029912Y018072D01*
X029779Y018072D02*
X029779Y017671D01*
X030106Y017671D02*
X030373Y017671D01*
X030566Y017671D02*
X030566Y018072D01*
X030700Y017938D01*
X030833Y018072D01*
X030833Y017671D01*
X031027Y017671D02*
X031027Y018072D01*
X031227Y018072D01*
X031293Y018005D01*
X031293Y017871D01*
X031227Y017805D01*
X031027Y017805D01*
X030373Y018072D02*
X030106Y018072D01*
X030106Y017671D01*
X030106Y017871D02*
X030239Y017871D01*
X027423Y017645D02*
X027156Y017378D01*
X027223Y017311D01*
X027356Y017311D01*
X027423Y017378D01*
X027423Y017645D01*
X027356Y017712D01*
X027223Y017712D01*
X027156Y017645D01*
X027156Y017378D01*
X026993Y017378D02*
X026993Y017311D01*
X026926Y017311D01*
X026926Y017378D01*
X026993Y017378D01*
X026732Y017311D02*
X026465Y017311D01*
X026732Y017578D01*
X026732Y017645D01*
X026666Y017712D01*
X026532Y017712D01*
X026465Y017645D01*
X026272Y017578D02*
X026138Y017311D01*
X026005Y017578D01*
X021555Y016861D02*
X021555Y016261D01*
X021455Y016161D01*
X021455Y015961D01*
X021555Y015861D01*
X021555Y015261D01*
X021455Y015161D01*
X021455Y014961D01*
X021555Y014861D01*
X021555Y014261D01*
X021255Y013961D01*
X020655Y013961D01*
X020555Y014061D01*
X020355Y014061D01*
X020255Y013961D01*
X019655Y013961D01*
X019355Y014261D01*
X019355Y014361D01*
X017755Y014361D01*
X017755Y014761D02*
X018755Y014761D01*
X018755Y015161D02*
X017755Y015161D01*
X017755Y015561D02*
X018755Y015561D01*
X018755Y015961D02*
X017755Y015961D01*
X017755Y016361D02*
X018755Y016361D01*
X019355Y016261D02*
X019355Y016761D01*
X017755Y016761D01*
X019355Y016761D02*
X019355Y016861D01*
X019655Y017161D01*
X020355Y017161D01*
X020455Y017061D01*
X020655Y017061D01*
X020755Y017161D01*
X021255Y017161D01*
X021555Y016861D01*
X019455Y016161D02*
X019455Y015961D01*
X019355Y015861D01*
X019355Y015261D01*
X019455Y015161D01*
X019455Y014961D01*
X019355Y014861D01*
X019355Y014361D01*
X019455Y016161D02*
X019355Y016261D01*
X022269Y012136D02*
X022271Y012156D01*
X022276Y012176D01*
X022286Y012194D01*
X022298Y012211D01*
X022313Y012225D01*
X022331Y012235D01*
X022350Y012243D01*
X022370Y012247D01*
X022390Y012247D01*
X022410Y012243D01*
X022429Y012235D01*
X022447Y012225D01*
X022462Y012211D01*
X022474Y012194D01*
X022484Y012176D01*
X022489Y012156D01*
X022491Y012136D01*
X022489Y012116D01*
X022484Y012096D01*
X022474Y012078D01*
X022462Y012061D01*
X022447Y012047D01*
X022429Y012037D01*
X022410Y012029D01*
X022390Y012025D01*
X022370Y012025D01*
X022350Y012029D01*
X022331Y012037D01*
X022313Y012047D01*
X022298Y012061D01*
X022286Y012078D01*
X022276Y012096D01*
X022271Y012116D01*
X022269Y012136D01*
X020855Y010761D02*
X020855Y009361D01*
X019555Y009761D02*
X019555Y008361D01*
X018595Y010421D02*
X017315Y010421D01*
X017315Y011701D02*
X018595Y011701D01*
X016155Y006761D02*
X016155Y005361D01*
D12*
X015955Y005311D02*
X015955Y005811D01*
X015705Y006061D01*
X015955Y006311D01*
X015955Y006811D01*
X015705Y007061D01*
X015955Y007311D01*
X015955Y007811D01*
X015705Y008061D01*
X015205Y008061D01*
X014955Y007811D01*
X014955Y007311D01*
X015205Y007061D01*
X014955Y006811D01*
X014955Y006311D01*
X015205Y006061D01*
X014955Y005811D01*
X014955Y005311D01*
X015205Y005061D01*
X015705Y005061D01*
X015955Y005311D01*
X015948Y004672D02*
X016055Y004672D01*
X016109Y004618D01*
X015895Y004405D01*
X015948Y004351D01*
X016055Y004351D01*
X016109Y004405D01*
X016109Y004618D01*
X015948Y004672D02*
X015895Y004618D01*
X015895Y004405D01*
X015884Y004046D02*
X015937Y003993D01*
X015724Y003779D01*
X015777Y003726D01*
X015884Y003726D01*
X015937Y003779D01*
X015937Y003993D01*
X015884Y004046D02*
X015777Y004046D01*
X015724Y003993D01*
X015724Y003779D01*
X015569Y003726D02*
X015356Y003726D01*
X015462Y003726D02*
X015462Y004046D01*
X015356Y003939D01*
X016092Y003939D02*
X016092Y003779D01*
X016146Y003726D01*
X016306Y003726D01*
X016306Y003939D01*
X016461Y003886D02*
X016567Y003886D01*
X016461Y003726D02*
X016461Y004046D01*
X016674Y004046D01*
X016771Y004034D02*
X017361Y004034D01*
X017184Y004351D02*
X017184Y004672D01*
X017398Y004672D01*
X017291Y004511D02*
X017184Y004511D01*
X017029Y004565D02*
X017029Y004351D01*
X016869Y004351D01*
X016816Y004405D01*
X016816Y004565D01*
X016661Y004351D02*
X016447Y004351D01*
X016554Y004351D02*
X016554Y004672D01*
X016447Y004565D01*
X016317Y004405D02*
X016317Y004351D01*
X016263Y004351D01*
X016263Y004405D01*
X016317Y004405D01*
X016771Y004034D02*
X016771Y003089D01*
X017361Y003089D01*
X017154Y002272D02*
X017154Y001951D01*
X017047Y001951D02*
X017261Y001951D01*
X017416Y002005D02*
X017469Y001951D01*
X017629Y001951D01*
X017629Y002165D01*
X017784Y002111D02*
X017891Y002111D01*
X017784Y001951D02*
X017784Y002272D01*
X017998Y002272D01*
X017416Y002165D02*
X017416Y002005D01*
X017154Y002272D02*
X017047Y002165D01*
X016917Y002005D02*
X016917Y001951D01*
X016863Y001951D01*
X016863Y002005D01*
X016917Y002005D01*
X016709Y002005D02*
X016655Y001951D01*
X016548Y001951D01*
X016495Y002005D01*
X016709Y002218D01*
X016709Y002005D01*
X016709Y002218D02*
X016655Y002272D01*
X016548Y002272D01*
X016495Y002218D01*
X016495Y002005D01*
X018149Y003089D02*
X018582Y003089D01*
X018739Y003246D01*
X018739Y003876D01*
X018582Y004034D01*
X018149Y004034D01*
X018155Y005051D02*
X018048Y005051D01*
X017995Y005105D01*
X017995Y005211D02*
X018102Y005265D01*
X018155Y005265D01*
X018209Y005211D01*
X018209Y005105D01*
X018155Y005051D01*
X018363Y005105D02*
X018577Y005318D01*
X018577Y005105D01*
X018523Y005051D01*
X018417Y005051D01*
X018363Y005105D01*
X018363Y005318D01*
X018417Y005372D01*
X018523Y005372D01*
X018577Y005318D01*
X018209Y005372D02*
X017995Y005372D01*
X017995Y005211D01*
X018195Y005651D02*
X018409Y005972D01*
X018563Y005972D02*
X018777Y005972D01*
X018670Y005972D02*
X018670Y005651D01*
X018409Y005651D02*
X018195Y005972D01*
X018505Y006161D02*
X017405Y006161D01*
X016605Y007061D02*
X016605Y007711D01*
X017495Y008055D02*
X017548Y008001D01*
X017655Y008001D01*
X017709Y008055D01*
X017709Y008322D01*
X017863Y008268D02*
X017917Y008322D01*
X018023Y008322D01*
X018077Y008268D01*
X018077Y008215D01*
X017863Y008001D01*
X018077Y008001D01*
X017495Y008055D02*
X017495Y008322D01*
X017405Y008611D02*
X018505Y008611D01*
X019305Y007711D02*
X019305Y007061D01*
X020145Y007301D02*
X020359Y007301D01*
X020252Y007301D02*
X020252Y007622D01*
X020145Y007515D01*
X020513Y007568D02*
X020567Y007622D01*
X020673Y007622D01*
X020727Y007568D01*
X020513Y007355D01*
X020567Y007301D01*
X020673Y007301D01*
X020727Y007355D01*
X020727Y007568D01*
X020882Y007622D02*
X020882Y007301D01*
X020882Y007408D02*
X021095Y007622D01*
X020935Y007461D02*
X021095Y007301D01*
X020513Y007355D02*
X020513Y007568D01*
X020455Y008061D02*
X019955Y008061D01*
X019705Y008311D01*
X019705Y008811D01*
X019955Y009061D01*
X019705Y009311D01*
X019705Y009811D01*
X019955Y010061D01*
X019705Y010311D01*
X019705Y010811D01*
X019955Y011061D01*
X020455Y011061D01*
X020705Y010811D01*
X020705Y010311D01*
X020455Y010061D01*
X020705Y009811D01*
X020705Y009311D01*
X020455Y009061D01*
X020705Y008811D01*
X020705Y008311D01*
X020455Y008061D01*
X022065Y008829D02*
X022065Y012294D01*
X022223Y012451D01*
X025687Y012451D01*
X025845Y012294D01*
X025845Y008829D01*
X025687Y008671D01*
X022223Y008671D01*
X022065Y008829D01*
X022895Y011101D02*
X022895Y011422D01*
X023002Y011315D01*
X023109Y011422D01*
X023109Y011101D01*
X023263Y011155D02*
X023317Y011101D01*
X023423Y011101D01*
X023477Y011155D01*
X023632Y011155D02*
X023685Y011101D01*
X023792Y011101D01*
X023845Y011155D01*
X023845Y011422D01*
X023632Y011422D02*
X023632Y011155D01*
X023477Y011368D02*
X023423Y011422D01*
X023317Y011422D01*
X023263Y011368D01*
X023263Y011155D01*
X023301Y011751D02*
X023354Y011805D01*
X023301Y011751D02*
X023194Y011751D01*
X023141Y011805D01*
X023141Y012018D01*
X023194Y012072D01*
X023301Y012072D01*
X023354Y012018D01*
X023509Y011965D02*
X023616Y012072D01*
X023616Y011751D01*
X023722Y011751D02*
X023509Y011751D01*
X023002Y011751D02*
X022895Y011751D01*
X022948Y011751D02*
X022948Y012072D01*
X022895Y012072D02*
X023002Y012072D01*
X020645Y012001D02*
X020485Y012161D01*
X020432Y012108D02*
X020645Y012322D01*
X020432Y012322D02*
X020432Y012001D01*
X020277Y012001D02*
X020063Y012001D01*
X020063Y012322D01*
X019909Y012268D02*
X019855Y012322D01*
X019748Y012322D01*
X019695Y012268D01*
X019695Y012055D01*
X019748Y012001D01*
X019855Y012001D01*
X019909Y012055D01*
X019855Y011722D02*
X019748Y011722D01*
X019695Y011668D01*
X019695Y011615D01*
X019748Y011561D01*
X019855Y011561D01*
X019909Y011508D01*
X019909Y011455D01*
X019855Y011401D01*
X019748Y011401D01*
X019695Y011455D01*
X019909Y011668D02*
X019855Y011722D01*
X020063Y011722D02*
X020063Y011401D01*
X020277Y011401D01*
X020432Y011401D02*
X020432Y011722D01*
X020277Y011722D02*
X020063Y011722D01*
X020063Y011561D02*
X020170Y011561D01*
X020432Y011401D02*
X020645Y011401D01*
X018843Y010222D02*
X018843Y009901D01*
X018737Y009901D02*
X018950Y009901D01*
X018737Y010115D02*
X018843Y010222D01*
X018475Y010222D02*
X018475Y009901D01*
X018368Y009901D02*
X018582Y009901D01*
X018368Y010115D02*
X018475Y010222D01*
X018213Y010222D02*
X018107Y010168D01*
X018000Y010061D01*
X018160Y010061D01*
X018213Y010008D01*
X018213Y009955D01*
X018160Y009901D01*
X018053Y009901D01*
X018000Y009955D01*
X018000Y010061D01*
X017845Y010008D02*
X017845Y009955D01*
X017792Y009901D01*
X017685Y009901D01*
X017632Y009955D01*
X017632Y010008D01*
X017685Y010061D01*
X017792Y010061D01*
X017845Y010008D01*
X017792Y010061D02*
X017845Y010115D01*
X017845Y010168D01*
X017792Y010222D01*
X017685Y010222D01*
X017632Y010168D01*
X017632Y010115D01*
X017685Y010061D01*
X017477Y009955D02*
X017477Y010168D01*
X017423Y010222D01*
X017263Y010222D01*
X017263Y009901D01*
X017423Y009901D01*
X017477Y009955D01*
X017109Y009901D02*
X017109Y010115D01*
X017002Y010222D01*
X016895Y010115D01*
X016895Y009901D01*
X016895Y010061D02*
X017109Y010061D01*
X016666Y009972D02*
X016452Y009972D01*
X016452Y009651D01*
X016298Y009651D02*
X016298Y009865D01*
X016452Y009811D02*
X016559Y009811D01*
X016298Y009651D02*
X016137Y009651D01*
X016084Y009705D01*
X016084Y009865D01*
X015929Y009651D02*
X015716Y009651D01*
X015823Y009651D02*
X015823Y009972D01*
X015716Y009865D01*
X015561Y009918D02*
X015561Y009705D01*
X015508Y009651D01*
X015401Y009651D01*
X015347Y009705D01*
X015561Y009918D01*
X015508Y009972D01*
X015401Y009972D01*
X015347Y009918D01*
X015347Y009705D01*
X015217Y009705D02*
X015217Y009651D01*
X015163Y009651D01*
X015163Y009705D01*
X015217Y009705D01*
X015009Y009705D02*
X015009Y009918D01*
X014795Y009705D01*
X014848Y009651D01*
X014955Y009651D01*
X015009Y009705D01*
X015009Y009918D02*
X014955Y009972D01*
X014848Y009972D01*
X014795Y009918D01*
X014795Y009705D01*
X014902Y009447D02*
X015009Y009340D01*
X015009Y009126D01*
X015009Y009286D02*
X014795Y009286D01*
X014795Y009340D02*
X014795Y009126D01*
X014795Y009340D02*
X014902Y009447D01*
X015163Y009447D02*
X015377Y009447D01*
X015270Y009447D02*
X015270Y009126D01*
X015532Y009180D02*
X015532Y009393D01*
X015585Y009447D01*
X015692Y009447D01*
X015745Y009393D01*
X015900Y009286D02*
X016113Y009286D01*
X016060Y009126D02*
X016060Y009447D01*
X015900Y009286D01*
X015745Y009180D02*
X015692Y009126D01*
X015585Y009126D01*
X015532Y009180D01*
X014715Y008122D02*
X014608Y008122D01*
X014555Y008068D01*
X014555Y008015D01*
X014608Y007961D01*
X014715Y007961D01*
X014768Y007908D01*
X014768Y007855D01*
X014715Y007801D01*
X014608Y007801D01*
X014555Y007855D01*
X014400Y007961D02*
X014347Y007908D01*
X014187Y007908D01*
X014187Y007801D02*
X014187Y008122D01*
X014347Y008122D01*
X014400Y008068D01*
X014400Y007961D01*
X014715Y008122D02*
X014768Y008068D01*
X014032Y008068D02*
X014032Y007961D01*
X013978Y007908D01*
X013818Y007908D01*
X013818Y007801D02*
X013818Y008122D01*
X013978Y008122D01*
X014032Y008068D01*
X013663Y007801D02*
X013450Y007801D01*
X013557Y007801D02*
X013557Y008122D01*
X013450Y008015D01*
X013295Y008068D02*
X013242Y008122D01*
X013135Y008122D01*
X013082Y008068D01*
X013082Y008015D01*
X013135Y007961D01*
X013242Y007961D01*
X013295Y007908D01*
X013295Y007855D01*
X013242Y007801D01*
X013135Y007801D01*
X013082Y007855D01*
X012927Y007961D02*
X012873Y007908D01*
X012713Y007908D01*
X012713Y007801D02*
X012713Y008122D01*
X012873Y008122D01*
X012927Y008068D01*
X012927Y007961D01*
X012559Y007961D02*
X012559Y007855D01*
X012505Y007801D01*
X012398Y007801D01*
X012345Y007855D01*
X012345Y008068D01*
X012398Y008122D01*
X012505Y008122D01*
X012559Y008068D01*
X012559Y007961D02*
X012452Y007961D01*
X009865Y006093D02*
X009705Y006093D01*
X009651Y006040D01*
X009651Y005879D01*
X009865Y005879D01*
X009865Y005725D02*
X009705Y005725D01*
X009651Y005671D01*
X009651Y005511D01*
X009865Y005511D01*
X009812Y005356D02*
X009705Y005356D01*
X009651Y005303D01*
X009651Y005196D01*
X009705Y005143D01*
X009812Y005143D01*
X009865Y005196D01*
X009865Y005303D01*
X009812Y005356D01*
X009812Y004988D02*
X009865Y004935D01*
X009865Y004828D01*
X009812Y004775D01*
X009598Y004775D01*
X009545Y004828D01*
X009545Y004935D01*
X009598Y004988D01*
X009598Y004251D02*
X009545Y004198D01*
X009545Y004091D01*
X009598Y004038D01*
X009812Y004038D01*
X009865Y004091D01*
X009865Y004198D01*
X009812Y004251D01*
X009865Y003883D02*
X009545Y003883D01*
X009545Y003670D02*
X009865Y003883D01*
X009865Y003670D02*
X009545Y003670D01*
X009598Y003515D02*
X009651Y003515D01*
X009705Y003461D01*
X009705Y003301D01*
X009865Y003301D02*
X009865Y003461D01*
X009812Y003515D01*
X009758Y003515D01*
X009705Y003461D01*
X009598Y003515D02*
X009545Y003461D01*
X009545Y003301D01*
X009865Y003301D01*
X009865Y010101D02*
X009545Y010101D01*
X009545Y010261D01*
X009598Y010315D01*
X009651Y010315D01*
X009705Y010261D01*
X009705Y010101D01*
X009865Y010101D02*
X009865Y010261D01*
X009812Y010315D01*
X009758Y010315D01*
X009705Y010261D01*
X009865Y010470D02*
X009545Y010470D01*
X009865Y010683D01*
X009545Y010683D01*
X009598Y010838D02*
X009812Y010838D01*
X009865Y010891D01*
X009865Y010998D01*
X009812Y011051D01*
X009598Y011051D02*
X009545Y010998D01*
X009545Y010891D01*
X009598Y010838D01*
X009598Y011575D02*
X009812Y011575D01*
X009865Y011628D01*
X009865Y011735D01*
X009812Y011788D01*
X009812Y011943D02*
X009865Y011996D01*
X009865Y012103D01*
X009812Y012156D01*
X009705Y012156D01*
X009651Y012103D01*
X009651Y011996D01*
X009705Y011943D01*
X009812Y011943D01*
X009598Y011788D02*
X009545Y011735D01*
X009545Y011628D01*
X009598Y011575D01*
X009651Y012311D02*
X009651Y012471D01*
X009705Y012525D01*
X009865Y012525D01*
X009865Y012679D02*
X009651Y012679D01*
X009651Y012840D01*
X009705Y012893D01*
X009865Y012893D01*
X009865Y012311D02*
X009651Y012311D01*
X009655Y015798D02*
X013757Y015798D01*
X013757Y027424D01*
X017195Y025265D02*
X017302Y025372D01*
X017302Y025051D01*
X017195Y025051D02*
X017409Y025051D01*
X017563Y025105D02*
X017777Y025318D01*
X017777Y025105D01*
X017723Y025051D01*
X017617Y025051D01*
X017563Y025105D01*
X017563Y025318D01*
X017617Y025372D01*
X017723Y025372D01*
X017777Y025318D01*
X017932Y025318D02*
X017985Y025372D01*
X018092Y025372D01*
X018145Y025318D01*
X017932Y025105D01*
X017985Y025051D01*
X018092Y025051D01*
X018145Y025105D01*
X018145Y025318D01*
X018300Y025265D02*
X018460Y025265D01*
X018513Y025211D01*
X018513Y025051D01*
X018668Y025051D02*
X018668Y025372D01*
X018882Y025372D01*
X018775Y025211D02*
X018668Y025211D01*
X018300Y025265D02*
X018300Y025051D01*
X017932Y025105D02*
X017932Y025318D01*
X016850Y024468D02*
X016797Y024522D01*
X016690Y024522D01*
X016637Y024468D01*
X016482Y024468D02*
X016482Y024415D01*
X016428Y024361D01*
X016482Y024308D01*
X016482Y024255D01*
X016428Y024201D01*
X016322Y024201D01*
X016268Y024255D01*
X016375Y024361D02*
X016428Y024361D01*
X016482Y024468D02*
X016428Y024522D01*
X016322Y024522D01*
X016268Y024468D01*
X016113Y024468D02*
X016060Y024522D01*
X015953Y024522D01*
X015900Y024468D01*
X015745Y024522D02*
X015532Y024201D01*
X015377Y024201D02*
X015377Y024415D01*
X015270Y024522D01*
X015163Y024415D01*
X015163Y024201D01*
X015009Y024201D02*
X015009Y024522D01*
X014902Y024415D01*
X014795Y024522D01*
X014795Y024201D01*
X014989Y023881D02*
X014989Y020041D01*
X014988Y020041D02*
X014993Y020017D01*
X015001Y019994D01*
X015012Y019973D01*
X015026Y019953D01*
X015043Y019935D01*
X015062Y019920D01*
X015083Y019907D01*
X015105Y019898D01*
X015129Y019892D01*
X015153Y019890D01*
X015178Y019891D01*
X015183Y019891D02*
X015515Y019891D01*
X015515Y019911D02*
X015517Y019941D01*
X015522Y019971D01*
X015531Y020000D01*
X015544Y020027D01*
X015559Y020053D01*
X015578Y020077D01*
X015599Y020098D01*
X015623Y020117D01*
X015649Y020132D01*
X015676Y020145D01*
X015705Y020154D01*
X015735Y020159D01*
X015765Y020161D01*
X015795Y020159D01*
X015825Y020154D01*
X015854Y020145D01*
X015881Y020132D01*
X015907Y020117D01*
X015931Y020098D01*
X015952Y020077D01*
X015971Y020053D01*
X015986Y020027D01*
X015999Y020000D01*
X016008Y019971D01*
X016013Y019941D01*
X016015Y019911D01*
X016015Y019891D02*
X016411Y019891D01*
X016431Y019896D01*
X016450Y019904D01*
X016468Y019915D01*
X016484Y019928D01*
X016497Y019944D01*
X016508Y019961D01*
X016516Y019980D01*
X016521Y020000D01*
X016523Y020021D01*
X016522Y020042D01*
X016521Y020041D02*
X016521Y023921D01*
X016522Y023921D02*
X016517Y023941D01*
X016509Y023960D01*
X016498Y023978D01*
X016485Y023994D01*
X016469Y024007D01*
X016452Y024018D01*
X016433Y024026D01*
X016413Y024031D01*
X016392Y024033D01*
X016371Y024032D01*
X016371Y024031D02*
X015139Y024031D01*
X015116Y024029D01*
X015093Y024024D01*
X015071Y024015D01*
X015051Y024002D01*
X015033Y023987D01*
X015018Y023969D01*
X015005Y023949D01*
X014996Y023927D01*
X014991Y023904D01*
X014989Y023881D01*
X015495Y023822D02*
X015495Y023555D01*
X015548Y023501D01*
X015655Y023501D01*
X015709Y023555D01*
X015709Y023822D01*
X015863Y023715D02*
X015970Y023822D01*
X015970Y023501D01*
X015863Y023501D02*
X016077Y023501D01*
X016113Y024201D02*
X015900Y024201D01*
X016113Y024415D01*
X016113Y024468D01*
X015745Y024201D02*
X015532Y024522D01*
X015377Y024361D02*
X015163Y024361D01*
X016637Y024201D02*
X016850Y024415D01*
X016850Y024468D01*
X016850Y024201D02*
X016637Y024201D01*
X018345Y024115D02*
X018452Y024222D01*
X018452Y023901D01*
X018345Y023901D02*
X018559Y023901D01*
X018713Y023955D02*
X018767Y023901D01*
X018927Y023901D01*
X018927Y024115D01*
X019082Y024061D02*
X019188Y024061D01*
X019082Y023901D02*
X019082Y024222D01*
X019295Y024222D01*
X018713Y024115D02*
X018713Y023955D01*
X018452Y022522D02*
X018345Y022415D01*
X018452Y022522D02*
X018452Y022201D01*
X018345Y022201D02*
X018559Y022201D01*
X018713Y022255D02*
X018767Y022201D01*
X018927Y022201D01*
X018927Y022415D01*
X019082Y022361D02*
X019188Y022361D01*
X019082Y022201D02*
X019082Y022522D01*
X019295Y022522D01*
X018713Y022415D02*
X018713Y022255D01*
X018952Y021122D02*
X018952Y020801D01*
X018845Y020801D02*
X019059Y020801D01*
X019213Y020855D02*
X019213Y021015D01*
X019213Y020855D02*
X019267Y020801D01*
X019427Y020801D01*
X019427Y021015D01*
X019582Y020961D02*
X019688Y020961D01*
X019582Y020801D02*
X019582Y021122D01*
X019795Y021122D01*
X018952Y021122D02*
X018845Y021015D01*
X020462Y022801D02*
X020408Y022855D01*
X020408Y023068D01*
X020462Y023122D01*
X020569Y023122D01*
X020622Y023068D01*
X020622Y022855D01*
X020569Y022801D01*
X020462Y022801D01*
X020515Y022908D02*
X020622Y022801D01*
X020777Y022855D02*
X020830Y022801D01*
X020937Y022801D01*
X020990Y022855D01*
X020990Y022908D01*
X020937Y022961D01*
X020883Y022961D01*
X020937Y022961D02*
X020990Y023015D01*
X020990Y023068D01*
X020937Y023122D01*
X020830Y023122D01*
X020777Y023068D01*
X022520Y022322D02*
X022520Y022001D01*
X022680Y022001D01*
X022734Y022055D01*
X022734Y022108D01*
X022680Y022161D01*
X022520Y022161D01*
X022680Y022161D02*
X022734Y022215D01*
X022734Y022268D01*
X022680Y022322D01*
X022520Y022322D01*
X022888Y022322D02*
X022995Y022215D01*
X023102Y022322D01*
X023102Y022001D01*
X023257Y022001D02*
X023257Y022322D01*
X023417Y022322D01*
X023470Y022268D01*
X023470Y022161D01*
X023417Y022108D01*
X023257Y022108D01*
X023282Y021822D02*
X023282Y021501D01*
X023282Y021608D02*
X023495Y021822D01*
X023625Y022001D02*
X023625Y022322D01*
X023785Y022322D01*
X023838Y022268D01*
X023838Y022161D01*
X023785Y022108D01*
X023625Y022108D01*
X023732Y022108D02*
X023838Y022001D01*
X023993Y022161D02*
X024207Y022161D01*
X024153Y022001D02*
X024153Y022322D01*
X023993Y022161D01*
X023335Y021661D02*
X023495Y021501D01*
X023127Y021555D02*
X023127Y021768D01*
X022913Y021555D01*
X022967Y021501D01*
X023073Y021501D01*
X023127Y021555D01*
X023127Y021768D02*
X023073Y021822D01*
X022967Y021822D01*
X022913Y021768D01*
X022913Y021555D01*
X022759Y021501D02*
X022545Y021501D01*
X022652Y021501D02*
X022652Y021822D01*
X022545Y021715D01*
X022888Y022001D02*
X022888Y022322D01*
X023048Y020822D02*
X022995Y020768D01*
X022995Y020555D01*
X023048Y020501D01*
X023155Y020501D01*
X023209Y020555D01*
X023209Y020661D01*
X023102Y020661D01*
X023209Y020768D02*
X023155Y020822D01*
X023048Y020822D01*
X023363Y020822D02*
X023363Y020501D01*
X023577Y020501D02*
X023363Y020822D01*
X023577Y020822D02*
X023577Y020501D01*
X023732Y020501D02*
X023892Y020501D01*
X023945Y020555D01*
X023945Y020768D01*
X023892Y020822D01*
X023732Y020822D01*
X023732Y020501D01*
X024495Y020501D02*
X024709Y020501D01*
X024602Y020501D02*
X024602Y020822D01*
X024495Y020715D01*
X025395Y020768D02*
X025448Y020822D01*
X025555Y020822D01*
X025609Y020768D01*
X025609Y020715D01*
X025395Y020501D01*
X025609Y020501D01*
X026395Y020555D02*
X026448Y020501D01*
X026555Y020501D01*
X026609Y020555D01*
X026609Y020608D01*
X026555Y020661D01*
X026502Y020661D01*
X026555Y020661D02*
X026609Y020715D01*
X026609Y020768D01*
X026555Y020822D01*
X026448Y020822D01*
X026395Y020768D01*
X026540Y022101D02*
X026754Y022101D01*
X026647Y022101D02*
X026647Y022422D01*
X026540Y022315D01*
X026610Y022601D02*
X026610Y022922D01*
X026503Y022815D01*
X026397Y022922D01*
X026397Y022601D01*
X026242Y022655D02*
X026189Y022601D01*
X026028Y022601D01*
X026028Y022922D01*
X026189Y022922D01*
X026242Y022868D01*
X026242Y022815D01*
X026189Y022761D01*
X026028Y022761D01*
X026189Y022761D02*
X026242Y022708D01*
X026242Y022655D01*
X026765Y022708D02*
X026925Y022708D01*
X026979Y022761D01*
X026979Y022868D01*
X026925Y022922D01*
X026765Y022922D01*
X026765Y022601D01*
X026962Y022422D02*
X027069Y022422D01*
X027122Y022368D01*
X026908Y022155D01*
X026962Y022101D01*
X027069Y022101D01*
X027122Y022155D01*
X027122Y022368D01*
X027277Y022422D02*
X027277Y022101D01*
X027277Y022208D02*
X027490Y022422D01*
X027502Y022601D02*
X027715Y022815D01*
X027715Y022868D01*
X027662Y022922D01*
X027555Y022922D01*
X027502Y022868D01*
X027347Y022868D02*
X027347Y022761D01*
X027294Y022708D01*
X027133Y022708D01*
X027133Y022601D02*
X027133Y022922D01*
X027294Y022922D01*
X027347Y022868D01*
X027240Y022708D02*
X027347Y022601D01*
X027502Y022601D02*
X027715Y022601D01*
X027330Y022261D02*
X027490Y022101D01*
X026908Y022155D02*
X026908Y022368D01*
X026962Y022422D01*
X026890Y023901D02*
X026677Y023901D01*
X026890Y024115D01*
X026890Y024168D01*
X026837Y024222D01*
X026730Y024222D01*
X026677Y024168D01*
X026522Y024168D02*
X026522Y023955D01*
X026469Y023901D01*
X026362Y023901D01*
X026308Y023955D01*
X026308Y024168D01*
X026362Y024222D01*
X026469Y024222D01*
X026522Y024168D01*
X026415Y024008D02*
X026522Y023901D01*
X028073Y024317D02*
X028073Y018805D01*
X031955Y018805D01*
X031877Y017464D02*
X031770Y017464D01*
X031823Y017464D02*
X031823Y017197D01*
X031770Y017144D01*
X031717Y017144D01*
X031663Y017197D01*
X031509Y017197D02*
X031455Y017144D01*
X031348Y017144D01*
X031295Y017197D01*
X031348Y017304D02*
X031455Y017304D01*
X031509Y017251D01*
X031509Y017197D01*
X031348Y017304D02*
X031295Y017357D01*
X031295Y017411D01*
X031348Y017464D01*
X031455Y017464D01*
X031509Y017411D01*
X032032Y017411D02*
X032085Y017464D01*
X032192Y017464D01*
X032245Y017411D01*
X032245Y017357D01*
X032032Y017144D01*
X032245Y017144D01*
X031849Y016876D02*
X031849Y016246D01*
X031848Y016246D02*
X031843Y016230D01*
X031835Y016214D01*
X031825Y016200D01*
X031813Y016188D01*
X031798Y016178D01*
X031782Y016171D01*
X031765Y016167D01*
X031748Y016166D01*
X031730Y016168D01*
X031696Y015922D02*
X031696Y015601D01*
X031589Y015601D02*
X031803Y015601D01*
X031770Y015455D02*
X031140Y015455D01*
X031124Y015450D01*
X031108Y015442D01*
X031094Y015432D01*
X031082Y015420D01*
X031072Y015405D01*
X031065Y015389D01*
X031061Y015372D01*
X031060Y015355D01*
X031062Y015337D01*
X031013Y015601D02*
X030906Y015601D01*
X030852Y015655D01*
X030906Y015761D02*
X031013Y015761D01*
X031066Y015708D01*
X031066Y015655D01*
X031013Y015601D01*
X030906Y015761D02*
X030852Y015815D01*
X030852Y015868D01*
X030906Y015922D01*
X031013Y015922D01*
X031066Y015868D01*
X031221Y015655D02*
X031274Y015601D01*
X031328Y015601D01*
X031381Y015655D01*
X031381Y015922D01*
X031328Y015922D02*
X031434Y015922D01*
X031589Y015815D02*
X031696Y015922D01*
X031180Y016168D02*
X031160Y016166D01*
X031141Y016168D01*
X031122Y016174D01*
X031105Y016183D01*
X031089Y016195D01*
X031077Y016210D01*
X031068Y016228D01*
X031062Y016246D01*
X031061Y016246D02*
X031061Y016876D01*
X031062Y016877D02*
X031068Y016895D01*
X031077Y016913D01*
X031089Y016928D01*
X031105Y016940D01*
X031122Y016949D01*
X031141Y016955D01*
X031160Y016957D01*
X031180Y016955D01*
X031730Y016955D02*
X031748Y016957D01*
X031765Y016956D01*
X031782Y016952D01*
X031798Y016945D01*
X031813Y016935D01*
X031825Y016923D01*
X031835Y016909D01*
X031843Y016893D01*
X031848Y016877D01*
X031770Y015455D02*
X031786Y015450D01*
X031802Y015442D01*
X031816Y015432D01*
X031828Y015420D01*
X031838Y015405D01*
X031845Y015389D01*
X031849Y015372D01*
X031850Y015355D01*
X031848Y015337D01*
X031848Y014786D02*
X031850Y014768D01*
X031849Y014751D01*
X031845Y014734D01*
X031838Y014718D01*
X031828Y014703D01*
X031816Y014691D01*
X031802Y014681D01*
X031786Y014673D01*
X031770Y014668D01*
X031140Y014668D01*
X031124Y014673D01*
X031108Y014681D01*
X031094Y014691D01*
X031082Y014703D01*
X031072Y014718D01*
X031065Y014734D01*
X031061Y014751D01*
X031060Y014768D01*
X031062Y014786D01*
X031163Y014297D02*
X031163Y013976D01*
X031377Y013976D01*
X031532Y013976D02*
X031532Y014297D01*
X031745Y014297D01*
X031900Y014297D02*
X031900Y013976D01*
X032060Y013976D01*
X032113Y014030D01*
X032113Y014243D01*
X032060Y014297D01*
X031900Y014297D01*
X031638Y014136D02*
X031532Y014136D01*
X031532Y013976D02*
X031745Y013976D01*
X032195Y013718D02*
X032248Y013772D01*
X032355Y013772D01*
X032409Y013718D01*
X032409Y013665D01*
X032195Y013451D01*
X032409Y013451D01*
X032563Y013505D02*
X032777Y013718D01*
X032777Y013505D01*
X032723Y013451D01*
X032617Y013451D01*
X032563Y013505D01*
X032563Y013718D01*
X032617Y013772D01*
X032723Y013772D01*
X032777Y013718D01*
X032552Y012942D02*
X032338Y012942D01*
X032445Y012942D02*
X032445Y012621D01*
X032183Y012675D02*
X032183Y012942D01*
X031970Y012942D02*
X031970Y012675D01*
X032023Y012621D01*
X032130Y012621D01*
X032183Y012675D01*
X031815Y012675D02*
X031815Y012888D01*
X031762Y012942D01*
X031655Y012942D01*
X031602Y012888D01*
X031602Y012675D01*
X031655Y012621D01*
X031762Y012621D01*
X031815Y012675D01*
X031805Y012461D02*
X031305Y012461D01*
X031055Y012211D01*
X031055Y011711D01*
X031305Y011461D01*
X031805Y011461D01*
X032055Y011711D01*
X032055Y012211D01*
X031805Y012461D01*
X031447Y012675D02*
X031447Y012888D01*
X031393Y012942D01*
X031233Y012942D01*
X031233Y012621D01*
X031393Y012621D01*
X031447Y012675D01*
X031079Y012781D02*
X031025Y012728D01*
X030865Y012728D01*
X030865Y012621D02*
X030865Y012942D01*
X031025Y012942D01*
X031079Y012888D01*
X031079Y012781D01*
X031009Y013976D02*
X030902Y014083D01*
X030955Y014083D02*
X030795Y014083D01*
X030795Y013976D02*
X030795Y014297D01*
X030955Y014297D01*
X031009Y014243D01*
X031009Y014136D01*
X030955Y014083D01*
X029450Y014180D02*
X029397Y014126D01*
X029290Y014126D01*
X029237Y014180D01*
X029450Y014393D01*
X029450Y014180D01*
X029450Y014393D02*
X029397Y014447D01*
X029290Y014447D01*
X029237Y014393D01*
X029237Y014180D01*
X029082Y014180D02*
X029082Y014393D01*
X028868Y014180D01*
X028922Y014126D01*
X029028Y014126D01*
X029082Y014180D01*
X029082Y014393D02*
X029028Y014447D01*
X028922Y014447D01*
X028868Y014393D01*
X028868Y014180D01*
X028713Y014126D02*
X028500Y014126D01*
X028713Y014340D01*
X028713Y014393D01*
X028660Y014447D01*
X028553Y014447D01*
X028500Y014393D01*
X028345Y014447D02*
X028132Y014447D01*
X028132Y014126D01*
X027977Y014126D02*
X027763Y014126D01*
X027763Y014447D01*
X027977Y014447D01*
X027870Y014286D02*
X027763Y014286D01*
X027609Y014286D02*
X027555Y014233D01*
X027395Y014233D01*
X027395Y014126D02*
X027395Y014447D01*
X027555Y014447D01*
X027609Y014393D01*
X027609Y014286D01*
X027502Y014233D02*
X027609Y014126D01*
X028132Y014286D02*
X028238Y014286D01*
X028294Y014776D02*
X028401Y014776D01*
X028454Y014830D01*
X028609Y014830D02*
X028662Y014776D01*
X028769Y014776D01*
X028822Y014830D01*
X028822Y014883D01*
X028769Y014936D01*
X028716Y014936D01*
X028769Y014936D02*
X028822Y014990D01*
X028822Y015043D01*
X028769Y015097D01*
X028662Y015097D01*
X028609Y015043D01*
X028454Y015043D02*
X028401Y015097D01*
X028294Y015097D01*
X028241Y015043D01*
X028241Y014830D01*
X028294Y014776D01*
X028102Y014776D02*
X027995Y014776D01*
X028048Y014776D02*
X028048Y015097D01*
X027995Y015097D02*
X028102Y015097D01*
X026788Y014368D02*
X026788Y014315D01*
X026734Y014261D01*
X026788Y014208D01*
X026788Y014155D01*
X026734Y014101D01*
X026628Y014101D01*
X026574Y014155D01*
X026681Y014261D02*
X026734Y014261D01*
X026788Y014368D02*
X026734Y014422D01*
X026628Y014422D01*
X026574Y014368D01*
X026419Y014422D02*
X026313Y014422D01*
X026366Y014422D02*
X026366Y014155D01*
X026313Y014101D01*
X026259Y014101D01*
X026206Y014155D01*
X026051Y014155D02*
X025998Y014101D01*
X025891Y014101D01*
X025838Y014155D01*
X025891Y014261D02*
X025998Y014261D01*
X026051Y014208D01*
X026051Y014155D01*
X025891Y014261D02*
X025838Y014315D01*
X025838Y014368D01*
X025891Y014422D01*
X025998Y014422D01*
X026051Y014368D01*
X026140Y013955D02*
X026770Y013955D01*
X026786Y013950D01*
X026802Y013942D01*
X026816Y013932D01*
X026828Y013920D01*
X026838Y013905D01*
X026845Y013889D01*
X026849Y013872D01*
X026850Y013855D01*
X026848Y013837D01*
X026848Y013286D02*
X026850Y013268D01*
X026849Y013251D01*
X026845Y013234D01*
X026838Y013218D01*
X026828Y013203D01*
X026816Y013191D01*
X026802Y013181D01*
X026786Y013173D01*
X026770Y013168D01*
X026140Y013168D01*
X026124Y013173D01*
X026108Y013181D01*
X026094Y013191D01*
X026082Y013203D01*
X026072Y013218D01*
X026065Y013234D01*
X026061Y013251D01*
X026060Y013268D01*
X026062Y013286D01*
X026062Y013837D02*
X026060Y013855D01*
X026061Y013872D01*
X026065Y013889D01*
X026072Y013905D01*
X026082Y013920D01*
X026094Y013932D01*
X026108Y013942D01*
X026124Y013950D01*
X026140Y013955D01*
X027434Y013311D02*
X027434Y013098D01*
X027488Y013044D01*
X027595Y013044D01*
X027648Y013098D01*
X027648Y013311D01*
X027595Y013365D01*
X027488Y013365D01*
X027434Y013311D01*
X027541Y013151D02*
X027648Y013044D01*
X027803Y013044D02*
X028016Y013044D01*
X027909Y013044D02*
X027909Y013365D01*
X027803Y013258D01*
X027716Y012794D02*
X028031Y012794D01*
X028031Y012676D01*
X028031Y012046D02*
X028031Y011928D01*
X027716Y011928D01*
X028670Y011968D02*
X028670Y011755D01*
X028723Y011701D01*
X028830Y011701D01*
X028884Y011755D01*
X029038Y011701D02*
X029038Y012022D01*
X029252Y012022D01*
X029407Y012022D02*
X029567Y012022D01*
X029620Y011968D01*
X029620Y011915D01*
X029567Y011861D01*
X029407Y011861D01*
X029407Y011701D02*
X029407Y012022D01*
X029567Y011861D02*
X029620Y011808D01*
X029620Y011755D01*
X029567Y011701D01*
X029407Y011701D01*
X029145Y011861D02*
X029038Y011861D01*
X028884Y011968D02*
X028830Y012022D01*
X028723Y012022D01*
X028670Y011968D01*
X029395Y012301D02*
X029395Y012408D01*
X029395Y012355D02*
X029715Y012355D01*
X029715Y012408D02*
X029715Y012301D01*
X029662Y012547D02*
X029715Y012600D01*
X029715Y012707D01*
X029662Y012760D01*
X029662Y012915D02*
X029715Y012968D01*
X029715Y013075D01*
X029662Y013129D01*
X029555Y013129D01*
X029501Y013075D01*
X029501Y013022D01*
X029555Y012915D01*
X029395Y012915D01*
X029395Y013129D01*
X029448Y012760D02*
X029395Y012707D01*
X029395Y012600D01*
X029448Y012547D01*
X029662Y012547D01*
X030452Y011522D02*
X030345Y011415D01*
X030452Y011522D02*
X030452Y011201D01*
X030345Y011201D02*
X030559Y011201D01*
X030713Y011201D02*
X030713Y011522D01*
X030767Y011361D02*
X030927Y011201D01*
X030902Y011022D02*
X030688Y011022D01*
X030688Y010701D01*
X030534Y010701D02*
X030427Y010808D01*
X030480Y010808D02*
X030320Y010808D01*
X030320Y010701D02*
X030320Y011022D01*
X030480Y011022D01*
X030534Y010968D01*
X030534Y010861D01*
X030480Y010808D01*
X030688Y010861D02*
X030795Y010861D01*
X031057Y010861D02*
X031217Y010861D01*
X031270Y010808D01*
X031270Y010755D01*
X031217Y010701D01*
X031057Y010701D01*
X031057Y011022D01*
X031217Y011022D01*
X031270Y010968D01*
X031270Y010915D01*
X031217Y010861D01*
X031695Y011051D02*
X031909Y011051D01*
X031802Y011051D02*
X031802Y011372D01*
X031695Y011265D01*
X032063Y011265D02*
X032063Y011105D01*
X032117Y011051D01*
X032277Y011051D01*
X032277Y011265D01*
X032432Y011211D02*
X032538Y011211D01*
X032432Y011051D02*
X032432Y011372D01*
X032645Y011372D01*
X031685Y010201D02*
X031575Y010201D01*
X031566Y010201D02*
X030543Y010201D01*
X030655Y010201D02*
X030425Y010201D01*
X030644Y009934D02*
X030646Y009954D01*
X030652Y009972D01*
X030661Y009990D01*
X030673Y010005D01*
X030688Y010017D01*
X030706Y010026D01*
X030724Y010032D01*
X030744Y010034D01*
X030764Y010032D01*
X030782Y010026D01*
X030800Y010017D01*
X030815Y010005D01*
X030827Y009990D01*
X030836Y009972D01*
X030842Y009954D01*
X030844Y009934D01*
X030842Y009914D01*
X030836Y009896D01*
X030827Y009878D01*
X030815Y009863D01*
X030800Y009851D01*
X030782Y009842D01*
X030764Y009836D01*
X030744Y009834D01*
X030724Y009836D01*
X030706Y009842D01*
X030688Y009851D01*
X030673Y009863D01*
X030661Y009878D01*
X030652Y009896D01*
X030646Y009914D01*
X030644Y009934D01*
X030648Y009422D02*
X030648Y009101D01*
X030595Y009101D02*
X030702Y009101D01*
X030841Y009155D02*
X030841Y009368D01*
X030894Y009422D01*
X031001Y009422D01*
X031054Y009368D01*
X031209Y009261D02*
X031422Y009261D01*
X031369Y009101D02*
X031369Y009422D01*
X031209Y009261D01*
X031054Y009155D02*
X031001Y009101D01*
X030894Y009101D01*
X030841Y009155D01*
X030702Y009422D02*
X030595Y009422D01*
X030565Y008921D02*
X030425Y008921D01*
X030543Y008922D02*
X031566Y008922D01*
X031575Y008921D02*
X031685Y008921D01*
X031722Y008822D02*
X031828Y008822D01*
X031882Y008768D01*
X031882Y008715D01*
X031828Y008661D01*
X031722Y008661D01*
X031668Y008715D01*
X031668Y008768D01*
X031722Y008822D01*
X031722Y008661D02*
X031668Y008608D01*
X031668Y008555D01*
X031722Y008501D01*
X031828Y008501D01*
X031882Y008555D01*
X031882Y008608D01*
X031828Y008661D01*
X032037Y008715D02*
X032143Y008822D01*
X032143Y008501D01*
X032037Y008501D02*
X032250Y008501D01*
X031513Y008555D02*
X031460Y008501D01*
X031353Y008501D01*
X031300Y008555D01*
X031407Y008661D02*
X031460Y008661D01*
X031513Y008608D01*
X031513Y008555D01*
X031460Y008661D02*
X031513Y008715D01*
X031513Y008768D01*
X031460Y008822D01*
X031353Y008822D01*
X031300Y008768D01*
X031145Y008715D02*
X031145Y008501D01*
X031145Y008661D02*
X030932Y008661D01*
X030932Y008715D02*
X031038Y008822D01*
X031145Y008715D01*
X030932Y008715D02*
X030932Y008501D01*
X030777Y008661D02*
X030777Y008768D01*
X030723Y008822D01*
X030563Y008822D01*
X030563Y008501D01*
X030563Y008608D02*
X030723Y008608D01*
X030777Y008661D01*
X030409Y008555D02*
X030409Y008768D01*
X030355Y008822D01*
X030248Y008822D01*
X030195Y008768D01*
X030195Y008555D01*
X030248Y008501D01*
X030355Y008501D01*
X030409Y008555D01*
X029813Y008611D02*
X029600Y008611D01*
X029600Y008451D02*
X029600Y008772D01*
X029445Y008665D02*
X029445Y008451D01*
X029285Y008451D01*
X029232Y008505D01*
X029232Y008665D01*
X029077Y008718D02*
X029023Y008772D01*
X028917Y008772D01*
X028863Y008718D01*
X028863Y008505D01*
X029077Y008718D01*
X029077Y008505D01*
X029023Y008451D01*
X028917Y008451D01*
X028863Y008505D01*
X028709Y008451D02*
X028495Y008451D01*
X028602Y008451D02*
X028602Y008772D01*
X028495Y008665D01*
X027795Y008468D02*
X027795Y008255D01*
X027742Y008201D01*
X027635Y008201D01*
X027582Y008255D01*
X027795Y008468D01*
X027742Y008522D01*
X027635Y008522D01*
X027582Y008468D01*
X027582Y008255D01*
X027427Y008255D02*
X027373Y008201D01*
X027267Y008201D01*
X027213Y008255D01*
X027320Y008361D02*
X027373Y008361D01*
X027427Y008308D01*
X027427Y008255D01*
X027373Y008361D02*
X027427Y008415D01*
X027427Y008468D01*
X027373Y008522D01*
X027267Y008522D01*
X027213Y008468D01*
X027059Y008468D02*
X027059Y008415D01*
X027005Y008361D01*
X027059Y008308D01*
X027059Y008255D01*
X027005Y008201D01*
X026898Y008201D01*
X026845Y008255D01*
X026952Y008361D02*
X027005Y008361D01*
X027059Y008468D02*
X027005Y008522D01*
X026898Y008522D01*
X026845Y008468D01*
X026129Y007372D02*
X025916Y007372D01*
X025916Y007051D01*
X025761Y007051D02*
X025761Y007265D01*
X025916Y007211D02*
X026023Y007211D01*
X025761Y007051D02*
X025601Y007051D01*
X025547Y007105D01*
X025547Y007265D01*
X025393Y007051D02*
X025179Y007051D01*
X025286Y007051D02*
X025286Y007372D01*
X025179Y007265D01*
X025048Y007105D02*
X025048Y007051D01*
X024995Y007051D01*
X024995Y007105D01*
X025048Y007105D01*
X024093Y006360D02*
X024093Y004825D01*
X023666Y006001D02*
X023666Y006322D01*
X023879Y006322D01*
X023773Y006161D02*
X023666Y006161D01*
X023511Y006215D02*
X023511Y006001D01*
X023351Y006001D01*
X023297Y006055D01*
X023297Y006215D01*
X023143Y006001D02*
X022929Y006001D01*
X023036Y006001D02*
X023036Y006322D01*
X022929Y006215D01*
X022798Y006055D02*
X022745Y006055D01*
X022745Y006001D01*
X022798Y006001D01*
X022798Y006055D01*
X024093Y006360D02*
X028817Y006360D01*
X028817Y004825D01*
X030510Y005168D02*
X030510Y005955D01*
X031061Y005955D01*
X031337Y005837D02*
X031337Y005561D01*
X031573Y005797D01*
X031573Y005325D01*
X031337Y005561D01*
X031337Y005286D01*
X031061Y005168D02*
X030510Y005168D01*
X030510Y004455D02*
X031061Y004455D01*
X031337Y004337D02*
X031337Y004061D01*
X031573Y004297D01*
X031573Y003825D01*
X031337Y004061D01*
X031337Y003786D01*
X031061Y003668D02*
X030510Y003668D01*
X030510Y004455D01*
X031695Y004601D02*
X031695Y004815D01*
X031802Y004922D01*
X031909Y004815D01*
X031909Y004601D01*
X031849Y004455D02*
X032400Y004455D01*
X032400Y003668D01*
X031849Y003668D01*
X031877Y003422D02*
X031663Y003422D01*
X031663Y003101D01*
X031877Y003101D01*
X031849Y002955D02*
X032400Y002955D01*
X032400Y002168D01*
X031849Y002168D01*
X031573Y002325D02*
X031573Y002797D01*
X031337Y002561D01*
X031573Y002325D01*
X031337Y002286D02*
X031337Y002561D01*
X031337Y002837D01*
X031348Y003101D02*
X031295Y003155D01*
X031348Y003101D02*
X031455Y003101D01*
X031509Y003155D01*
X031509Y003208D01*
X031455Y003261D01*
X031348Y003261D01*
X031295Y003315D01*
X031295Y003368D01*
X031348Y003422D01*
X031455Y003422D01*
X031509Y003368D01*
X031663Y003261D02*
X031770Y003261D01*
X032032Y003101D02*
X032032Y003422D01*
X032245Y003101D01*
X032245Y003422D01*
X032400Y003422D02*
X032560Y003422D01*
X032613Y003368D01*
X032613Y003155D01*
X032560Y003101D01*
X032400Y003101D01*
X032400Y003422D01*
X032538Y004601D02*
X032538Y004922D01*
X032432Y004922D02*
X032645Y004922D01*
X032400Y005168D02*
X032400Y005955D01*
X031849Y005955D01*
X031909Y006101D02*
X031695Y006101D01*
X031695Y006422D01*
X031909Y006422D01*
X032063Y006422D02*
X032223Y006422D01*
X032277Y006368D01*
X032277Y006261D01*
X032223Y006208D01*
X032063Y006208D01*
X032063Y006101D02*
X032063Y006422D01*
X032170Y006208D02*
X032277Y006101D01*
X032432Y006101D02*
X032432Y006422D01*
X032592Y006422D01*
X032645Y006368D01*
X032645Y006261D01*
X032592Y006208D01*
X032432Y006208D01*
X032538Y006208D02*
X032645Y006101D01*
X031802Y006261D02*
X031695Y006261D01*
X031849Y005168D02*
X032400Y005168D01*
X032223Y004922D02*
X032117Y004922D01*
X032063Y004868D01*
X032063Y004655D01*
X032117Y004601D01*
X032223Y004601D01*
X032277Y004655D01*
X032277Y004868D02*
X032223Y004922D01*
X031909Y004761D02*
X031695Y004761D01*
X031061Y002955D02*
X030510Y002955D01*
X030510Y002168D01*
X031061Y002168D01*
X028817Y002175D02*
X028817Y003171D01*
X028062Y002468D02*
X028062Y002415D01*
X028009Y002361D01*
X027848Y002361D01*
X027848Y002201D02*
X027848Y002522D01*
X028009Y002522D01*
X028062Y002468D01*
X028009Y002361D02*
X028062Y002308D01*
X028062Y002255D01*
X028009Y002201D01*
X027848Y002201D01*
X027694Y002255D02*
X027694Y002308D01*
X027640Y002361D01*
X027534Y002361D01*
X027480Y002415D01*
X027480Y002468D01*
X027534Y002522D01*
X027640Y002522D01*
X027694Y002468D01*
X027694Y002255D02*
X027640Y002201D01*
X027534Y002201D01*
X027480Y002255D01*
X027325Y002255D02*
X027325Y002522D01*
X027112Y002522D02*
X027112Y002255D01*
X027165Y002201D01*
X027272Y002201D01*
X027325Y002255D01*
X026589Y002308D02*
X026375Y002308D01*
X026375Y002255D02*
X026375Y002361D01*
X026429Y002415D01*
X026535Y002415D01*
X026589Y002361D01*
X026589Y002308D01*
X026535Y002201D02*
X026429Y002201D01*
X026375Y002255D01*
X026228Y002415D02*
X026175Y002415D01*
X026068Y002308D01*
X026068Y002201D02*
X026068Y002415D01*
X025913Y002361D02*
X025913Y002201D01*
X025753Y002201D01*
X025700Y002255D01*
X025753Y002308D01*
X025913Y002308D01*
X025913Y002361D02*
X025860Y002415D01*
X025753Y002415D01*
X025545Y002415D02*
X025545Y002201D01*
X025385Y002201D01*
X025332Y002255D01*
X025332Y002415D01*
X025177Y002415D02*
X025017Y002415D01*
X024963Y002361D01*
X024963Y002255D01*
X025017Y002201D01*
X025177Y002201D01*
X025177Y002095D02*
X025177Y002415D01*
X024809Y002468D02*
X024755Y002522D01*
X024648Y002522D01*
X024595Y002468D01*
X024595Y002415D01*
X024648Y002361D01*
X024755Y002361D01*
X024809Y002308D01*
X024809Y002255D01*
X024755Y002201D01*
X024648Y002201D01*
X024595Y002255D01*
X024093Y002175D02*
X024093Y003171D01*
X022807Y003201D02*
X022700Y003201D01*
X022753Y003201D02*
X022753Y003522D01*
X022700Y003522D02*
X022807Y003522D01*
X022545Y003468D02*
X022545Y003255D01*
X022492Y003201D01*
X022332Y003201D01*
X022332Y003522D01*
X022492Y003522D01*
X022545Y003468D01*
X022177Y003522D02*
X021963Y003522D01*
X022070Y003522D02*
X022070Y003201D01*
X022195Y003022D02*
X022195Y002755D01*
X022248Y002701D01*
X022355Y002701D01*
X022409Y002755D01*
X022409Y003022D01*
X022563Y002968D02*
X022617Y003022D01*
X022723Y003022D01*
X022777Y002968D01*
X022777Y002915D01*
X022723Y002861D01*
X022777Y002808D01*
X022777Y002755D01*
X022723Y002701D01*
X022617Y002701D01*
X022563Y002755D01*
X022670Y002861D02*
X022723Y002861D01*
X021809Y003522D02*
X021595Y003522D01*
X021595Y003201D01*
X021595Y003361D02*
X021702Y003361D01*
X019513Y005651D02*
X019300Y005651D01*
X019300Y005972D01*
X019145Y005865D02*
X019145Y005651D01*
X019145Y005811D02*
X018932Y005811D01*
X018932Y005865D02*
X019038Y005972D01*
X019145Y005865D01*
X018932Y005865D02*
X018932Y005651D01*
X018322Y010901D02*
X018109Y010901D01*
X018322Y011115D01*
X018322Y011168D01*
X018269Y011222D01*
X018162Y011222D01*
X018109Y011168D01*
X017954Y011168D02*
X017901Y011222D01*
X017794Y011222D01*
X017741Y011168D01*
X017741Y010955D01*
X017794Y010901D01*
X017901Y010901D01*
X017954Y010955D01*
X017602Y010901D02*
X017495Y010901D01*
X017548Y010901D02*
X017548Y011222D01*
X017495Y011222D02*
X017602Y011222D01*
X017449Y011473D02*
X017451Y011492D01*
X017457Y011511D01*
X017466Y011528D01*
X017479Y011543D01*
X017494Y011554D01*
X017512Y011563D01*
X017530Y011568D01*
X017550Y011569D01*
X017569Y011566D01*
X017587Y011559D01*
X017604Y011549D01*
X017618Y011536D01*
X017629Y011520D01*
X017637Y011502D01*
X017641Y011483D01*
X017641Y011463D01*
X017637Y011444D01*
X017629Y011426D01*
X017618Y011410D01*
X017604Y011397D01*
X017587Y011387D01*
X017569Y011380D01*
X017550Y011377D01*
X017530Y011378D01*
X017512Y011383D01*
X017494Y011392D01*
X017479Y011403D01*
X017466Y011418D01*
X017457Y011435D01*
X017451Y011454D01*
X017449Y011473D01*
X015727Y011855D02*
X015673Y011801D01*
X015567Y011801D01*
X015513Y011855D01*
X015727Y012068D01*
X015727Y011855D01*
X015727Y012068D02*
X015673Y012122D01*
X015567Y012122D01*
X015513Y012068D01*
X015513Y011855D01*
X015359Y011855D02*
X015305Y011801D01*
X015198Y011801D01*
X015145Y011855D01*
X015145Y011961D02*
X015252Y012015D01*
X015305Y012015D01*
X015359Y011961D01*
X015359Y011855D01*
X015145Y011961D02*
X015145Y012122D01*
X015359Y012122D01*
X015535Y013001D02*
X015482Y013055D01*
X015535Y013001D02*
X015642Y013001D01*
X015695Y013055D01*
X015695Y013108D01*
X015642Y013161D01*
X015535Y013161D01*
X015482Y013215D01*
X015482Y013268D01*
X015535Y013322D01*
X015642Y013322D01*
X015695Y013268D01*
X015850Y013215D02*
X015957Y013322D01*
X015957Y013001D01*
X016063Y013001D02*
X015850Y013001D01*
X016218Y013055D02*
X016218Y013268D01*
X016272Y013322D01*
X016378Y013322D01*
X016432Y013268D01*
X016218Y013055D01*
X016272Y013001D01*
X016378Y013001D01*
X016432Y013055D01*
X016432Y013268D01*
X016587Y013322D02*
X016693Y013215D01*
X016800Y013322D01*
X016800Y013001D01*
X016955Y013001D02*
X016955Y013322D01*
X016955Y013161D02*
X017168Y013161D01*
X017168Y013001D02*
X017168Y013322D01*
X017323Y013322D02*
X017537Y013322D01*
X017537Y013268D01*
X017323Y013055D01*
X017323Y013001D01*
X017537Y013001D01*
X016587Y013001D02*
X016587Y013322D01*
X015327Y013268D02*
X015327Y013161D01*
X015273Y013108D01*
X015113Y013108D01*
X015113Y013001D02*
X015113Y013322D01*
X015273Y013322D01*
X015327Y013268D01*
X014959Y013268D02*
X014905Y013322D01*
X014798Y013322D01*
X014745Y013268D01*
X014745Y013055D01*
X014798Y013001D01*
X014905Y013001D01*
X014959Y013055D01*
X014959Y013161D01*
X014852Y013161D01*
X018445Y017351D02*
X018552Y017351D01*
X018498Y017351D02*
X018498Y017672D01*
X018445Y017672D02*
X018552Y017672D01*
X018691Y017618D02*
X018691Y017565D01*
X018744Y017511D01*
X018851Y017511D01*
X018904Y017458D01*
X018904Y017405D01*
X018851Y017351D01*
X018744Y017351D01*
X018691Y017405D01*
X018691Y017618D02*
X018744Y017672D01*
X018851Y017672D01*
X018904Y017618D01*
X019059Y017672D02*
X019219Y017672D01*
X019272Y017618D01*
X019272Y017511D01*
X019219Y017458D01*
X019059Y017458D01*
X019059Y017351D02*
X019059Y017672D01*
X019055Y017995D02*
X019109Y018048D01*
X019109Y018315D01*
X018948Y018315D01*
X018895Y018261D01*
X018895Y018155D01*
X018948Y018101D01*
X019109Y018101D01*
X019055Y017995D02*
X019002Y017995D01*
X019263Y018101D02*
X019370Y018101D01*
X019317Y018101D02*
X019317Y018315D01*
X019263Y018315D01*
X019317Y018422D02*
X019317Y018475D01*
X019509Y018315D02*
X019616Y018315D01*
X019562Y018368D02*
X019562Y018155D01*
X019616Y018101D01*
X019754Y018101D02*
X019754Y018422D01*
X019808Y018315D02*
X019915Y018315D01*
X019968Y018261D01*
X019968Y018101D01*
X020123Y018155D02*
X020176Y018101D01*
X020336Y018101D01*
X020336Y018315D01*
X020491Y018315D02*
X020651Y018315D01*
X020705Y018261D01*
X020705Y018155D01*
X020651Y018101D01*
X020491Y018101D01*
X020491Y018422D01*
X020123Y018315D02*
X020123Y018155D01*
X019808Y018315D02*
X019754Y018261D01*
X019795Y017672D02*
X019956Y017672D01*
X020009Y017618D01*
X020009Y017511D01*
X019956Y017458D01*
X019795Y017458D01*
X019795Y017351D02*
X019795Y017672D01*
X020164Y017618D02*
X020164Y017405D01*
X020217Y017351D01*
X020324Y017351D01*
X020377Y017405D01*
X020377Y017511D01*
X020271Y017511D01*
X020377Y017618D02*
X020324Y017672D01*
X020217Y017672D01*
X020164Y017618D01*
X020532Y017672D02*
X020532Y017351D01*
X020746Y017351D02*
X020746Y017672D01*
X020639Y017565D01*
X020532Y017672D01*
X020900Y017672D02*
X020900Y017351D01*
X020900Y017458D02*
X021061Y017458D01*
X021114Y017511D01*
X021114Y017618D01*
X021061Y017672D01*
X020900Y017672D01*
X021007Y017458D02*
X021114Y017351D01*
X021097Y018101D02*
X021044Y018155D01*
X021044Y018261D01*
X021097Y018315D01*
X021257Y018315D01*
X021412Y018261D02*
X021412Y018155D01*
X021465Y018101D01*
X021572Y018101D01*
X021625Y018155D01*
X021625Y018261D01*
X021572Y018315D01*
X021465Y018315D01*
X021412Y018261D01*
X021257Y018101D02*
X021097Y018101D01*
X020913Y018101D02*
X020859Y018101D01*
X020859Y018155D01*
X020913Y018155D01*
X020913Y018101D01*
X021780Y018101D02*
X021780Y018315D01*
X021834Y018315D01*
X021887Y018261D01*
X021940Y018315D01*
X021994Y018261D01*
X021994Y018101D01*
X021887Y018101D02*
X021887Y018261D01*
X022148Y018101D02*
X022362Y018422D01*
X022517Y018261D02*
X022570Y018315D01*
X022730Y018315D01*
X022730Y018422D02*
X022730Y018101D01*
X022570Y018101D01*
X022517Y018155D01*
X022517Y018261D01*
X022885Y018208D02*
X023045Y018315D01*
X023192Y018315D02*
X023245Y018315D01*
X023245Y018101D01*
X023192Y018101D02*
X023299Y018101D01*
X023438Y018101D02*
X023438Y018315D01*
X023544Y018315D02*
X023598Y018315D01*
X023544Y018315D02*
X023438Y018208D01*
X023245Y018422D02*
X023245Y018475D01*
X022885Y018422D02*
X022885Y018101D01*
X022885Y018208D02*
X023045Y018101D01*
X023744Y018101D02*
X023744Y018422D01*
X023905Y018315D02*
X023744Y018208D01*
X023905Y018101D01*
X024051Y018101D02*
X024212Y018101D01*
X024265Y018155D01*
X024265Y018261D01*
X024212Y018315D01*
X024051Y018315D01*
X024051Y018422D02*
X024051Y018101D01*
X024420Y018155D02*
X024473Y018101D01*
X024633Y018101D01*
X024633Y018048D02*
X024633Y018315D01*
X024420Y018315D02*
X024420Y018155D01*
X024526Y017995D02*
X024580Y017995D01*
X024633Y018048D01*
X024788Y018101D02*
X025002Y018422D01*
X025156Y018315D02*
X025263Y018315D01*
X025210Y018368D02*
X025210Y018155D01*
X025263Y018101D01*
X025402Y018101D02*
X025509Y018101D01*
X025455Y018101D02*
X025455Y018315D01*
X025402Y018315D01*
X025455Y018422D02*
X025455Y018475D01*
X025497Y018751D02*
X025390Y018751D01*
X025337Y018805D01*
X025390Y018911D02*
X025497Y018911D01*
X025550Y018858D01*
X025550Y018805D01*
X025497Y018751D01*
X025390Y018911D02*
X025337Y018965D01*
X025337Y019018D01*
X025390Y019072D01*
X025497Y019072D01*
X025550Y019018D01*
X025705Y019072D02*
X025812Y019072D01*
X025758Y019072D02*
X025758Y018751D01*
X025705Y018751D02*
X025812Y018751D01*
X025950Y018805D02*
X026004Y018751D01*
X026111Y018751D01*
X026164Y018805D01*
X026164Y019018D01*
X026111Y019072D01*
X026004Y019072D01*
X025950Y019018D01*
X025950Y018805D01*
X026319Y018751D02*
X026319Y019072D01*
X026532Y018751D01*
X026532Y019072D01*
X026376Y018368D02*
X026376Y018155D01*
X026429Y018101D01*
X026568Y018155D02*
X026622Y018101D01*
X026728Y018101D01*
X026782Y018155D01*
X026782Y018261D01*
X026728Y018315D01*
X026622Y018315D01*
X026568Y018261D01*
X026568Y018155D01*
X026429Y018315D02*
X026323Y018315D01*
X026176Y018315D02*
X026016Y018208D01*
X026176Y018101D01*
X026016Y018101D02*
X026016Y018422D01*
X025861Y018315D02*
X025701Y018315D01*
X025647Y018261D01*
X025647Y018155D01*
X025701Y018101D01*
X025861Y018101D01*
X025182Y018751D02*
X025182Y019072D01*
X024968Y019072D02*
X024968Y018751D01*
X024813Y018751D02*
X024600Y018751D01*
X024600Y019072D01*
X024813Y019072D01*
X024968Y019072D02*
X025182Y018751D01*
X024707Y018911D02*
X024600Y018911D01*
X024445Y019072D02*
X024232Y019072D01*
X024338Y019072D02*
X024338Y018751D01*
X024077Y018751D02*
X023863Y019072D01*
X023709Y019072D02*
X023495Y019072D01*
X023495Y018751D01*
X023709Y018751D01*
X023863Y018751D02*
X024077Y019072D01*
X023602Y018911D02*
X023495Y018911D01*
X026937Y018261D02*
X026937Y018155D01*
X026990Y018101D01*
X027150Y018101D01*
X027305Y018101D02*
X027305Y018422D01*
X027150Y018315D02*
X026990Y018315D01*
X026937Y018261D01*
X027305Y018208D02*
X027465Y018315D01*
X027305Y018208D02*
X027465Y018101D01*
X027920Y017621D02*
X027920Y017121D01*
X028170Y016871D01*
X028670Y016871D01*
X028920Y017121D01*
X028920Y017621D01*
X028670Y017871D01*
X028170Y017871D01*
X027920Y017621D01*
X028025Y016271D02*
X028027Y016294D01*
X028033Y016316D01*
X028042Y016338D01*
X028055Y016357D01*
X028070Y016374D01*
X028088Y016388D01*
X028109Y016399D01*
X028131Y016407D01*
X028153Y016411D01*
X028177Y016411D01*
X028199Y016407D01*
X028221Y016399D01*
X028242Y016388D01*
X028260Y016374D01*
X028275Y016357D01*
X028288Y016338D01*
X028297Y016316D01*
X028303Y016294D01*
X028305Y016271D01*
X028303Y016248D01*
X028297Y016226D01*
X028288Y016204D01*
X028275Y016185D01*
X028260Y016168D01*
X028242Y016154D01*
X028221Y016143D01*
X028199Y016135D01*
X028177Y016131D01*
X028153Y016131D01*
X028131Y016135D01*
X028109Y016143D01*
X028088Y016154D01*
X028070Y016168D01*
X028055Y016185D01*
X028042Y016204D01*
X028033Y016226D01*
X028027Y016248D01*
X028025Y016271D01*
X030927Y011522D02*
X030713Y011308D01*
X028398Y010772D02*
X028184Y010772D01*
X028184Y010451D01*
X028029Y010451D02*
X028029Y010665D01*
X028184Y010611D02*
X028291Y010611D01*
X028029Y010451D02*
X027869Y010451D01*
X027816Y010505D01*
X027816Y010665D01*
X027661Y010451D02*
X027447Y010451D01*
X027554Y010451D02*
X027554Y010772D01*
X027447Y010665D01*
X027317Y010505D02*
X027317Y010451D01*
X027263Y010451D01*
X027263Y010505D01*
X027317Y010505D01*
X027109Y010505D02*
X027055Y010451D01*
X026948Y010451D01*
X026895Y010505D01*
X027109Y010718D01*
X027109Y010505D01*
X027109Y010718D02*
X027055Y010772D01*
X026948Y010772D01*
X026895Y010718D01*
X026895Y010505D01*
X029813Y008772D02*
X029813Y008451D01*
X029767Y007422D02*
X029820Y007368D01*
X029820Y007261D01*
X029767Y007208D01*
X029607Y007208D01*
X029713Y007208D02*
X029820Y007101D01*
X029975Y007101D02*
X030188Y007315D01*
X030188Y007368D01*
X030135Y007422D01*
X030028Y007422D01*
X029975Y007368D01*
X029767Y007422D02*
X029607Y007422D01*
X029607Y007101D01*
X029345Y007101D02*
X029345Y007422D01*
X029238Y007422D02*
X029452Y007422D01*
X029975Y007101D02*
X030188Y007101D01*
X029084Y007101D02*
X029084Y007315D01*
X028977Y007422D01*
X028870Y007315D01*
X028870Y007101D01*
X028870Y007261D02*
X029084Y007261D01*
X028842Y006922D02*
X028735Y006922D01*
X028682Y006868D01*
X028682Y006655D01*
X028895Y006868D01*
X028895Y006655D01*
X028842Y006601D01*
X028735Y006601D01*
X028682Y006655D01*
X028527Y006655D02*
X028473Y006601D01*
X028367Y006601D01*
X028313Y006655D01*
X028420Y006761D02*
X028473Y006761D01*
X028527Y006708D01*
X028527Y006655D01*
X028473Y006761D02*
X028527Y006815D01*
X028527Y006868D01*
X028473Y006922D01*
X028367Y006922D01*
X028313Y006868D01*
X028159Y006868D02*
X028159Y006815D01*
X028105Y006761D01*
X028159Y006708D01*
X028159Y006655D01*
X028105Y006601D01*
X027998Y006601D01*
X027945Y006655D01*
X028052Y006761D02*
X028105Y006761D01*
X028159Y006868D02*
X028105Y006922D01*
X027998Y006922D01*
X027945Y006868D01*
X027095Y006868D02*
X026882Y006655D01*
X026935Y006601D01*
X027042Y006601D01*
X027095Y006655D01*
X027095Y006868D01*
X027042Y006922D01*
X026935Y006922D01*
X026882Y006868D01*
X026882Y006655D01*
X026727Y006655D02*
X026673Y006601D01*
X026567Y006601D01*
X026513Y006655D01*
X026620Y006761D02*
X026673Y006761D01*
X026727Y006708D01*
X026727Y006655D01*
X026673Y006761D02*
X026727Y006815D01*
X026727Y006868D01*
X026673Y006922D01*
X026567Y006922D01*
X026513Y006868D01*
X026359Y006868D02*
X026359Y006815D01*
X026305Y006761D01*
X026359Y006708D01*
X026359Y006655D01*
X026305Y006601D01*
X026198Y006601D01*
X026145Y006655D01*
X026252Y006761D02*
X026305Y006761D01*
X026359Y006868D02*
X026305Y006922D01*
X026198Y006922D01*
X026145Y006868D01*
X028842Y006922D02*
X028895Y006868D01*
X017332Y017651D02*
X017332Y017972D01*
X017545Y017972D01*
X017438Y017811D02*
X017332Y017811D01*
X017177Y017865D02*
X017177Y017651D01*
X017017Y017651D01*
X016963Y017705D01*
X016963Y017865D01*
X016809Y017651D02*
X016595Y017651D01*
X016702Y017651D02*
X016702Y017972D01*
X016595Y017865D01*
X016595Y018751D02*
X016809Y018751D01*
X016702Y018751D02*
X016702Y019072D01*
X016595Y018965D01*
X016963Y018965D02*
X016963Y018805D01*
X017017Y018751D01*
X017177Y018751D01*
X017177Y018965D01*
X017332Y018911D02*
X017438Y018911D01*
X017332Y018751D02*
X017332Y019072D01*
X017545Y019072D01*
X020695Y024601D02*
X020855Y024601D01*
X020909Y024655D01*
X020909Y024708D01*
X020855Y024761D01*
X020695Y024761D01*
X020695Y024601D02*
X020695Y024922D01*
X020855Y024922D01*
X020909Y024868D01*
X020909Y024815D01*
X020855Y024761D01*
X021063Y024601D02*
X021063Y024922D01*
X021170Y024815D01*
X021277Y024922D01*
X021277Y024601D01*
X021432Y024601D02*
X021432Y024922D01*
X021645Y024922D01*
X021800Y024868D02*
X021853Y024922D01*
X021960Y024922D01*
X022013Y024868D01*
X022013Y024815D01*
X021800Y024601D01*
X022013Y024601D01*
X022168Y024655D02*
X022168Y024708D01*
X022222Y024761D01*
X022328Y024761D01*
X022382Y024708D01*
X022382Y024655D01*
X022328Y024601D01*
X022222Y024601D01*
X022168Y024655D01*
X022222Y024761D02*
X022168Y024815D01*
X022168Y024868D01*
X022222Y024922D01*
X022328Y024922D01*
X022382Y024868D01*
X022382Y024815D01*
X022328Y024761D01*
X022537Y024655D02*
X022537Y024868D01*
X022590Y024922D01*
X022697Y024922D01*
X022750Y024868D01*
X022537Y024655D01*
X022590Y024601D01*
X022697Y024601D01*
X022750Y024655D01*
X022750Y024868D01*
X023645Y024915D02*
X023752Y025022D01*
X023752Y024701D01*
X023645Y024701D02*
X023859Y024701D01*
X024013Y024755D02*
X024227Y024968D01*
X024227Y024755D01*
X024173Y024701D01*
X024067Y024701D01*
X024013Y024755D01*
X024013Y024968D01*
X024067Y025022D01*
X024173Y025022D01*
X024227Y024968D01*
X024382Y025022D02*
X024382Y024701D01*
X024382Y024808D02*
X024595Y025022D01*
X024435Y024861D02*
X024595Y024701D01*
X024095Y026501D02*
X023935Y026661D01*
X023882Y026608D02*
X024095Y026822D01*
X023882Y026822D02*
X023882Y026501D01*
X023727Y026555D02*
X023673Y026501D01*
X023567Y026501D01*
X023513Y026555D01*
X023727Y026768D01*
X023727Y026555D01*
X023727Y026768D02*
X023673Y026822D01*
X023567Y026822D01*
X023513Y026768D01*
X023513Y026555D01*
X023359Y026501D02*
X023145Y026501D01*
X023252Y026501D02*
X023252Y026822D01*
X023145Y026715D01*
X023120Y027001D02*
X023280Y027001D01*
X023334Y027055D01*
X023334Y027108D01*
X023280Y027161D01*
X023120Y027161D01*
X023120Y027001D02*
X023120Y027322D01*
X023280Y027322D01*
X023334Y027268D01*
X023334Y027215D01*
X023280Y027161D01*
X023488Y027001D02*
X023488Y027322D01*
X023595Y027215D01*
X023702Y027322D01*
X023702Y027001D01*
X023857Y027001D02*
X023857Y027322D01*
X024017Y027322D01*
X024070Y027268D01*
X024070Y027161D01*
X024017Y027108D01*
X023857Y027108D01*
X024225Y027108D02*
X024385Y027108D01*
X024438Y027161D01*
X024438Y027268D01*
X024385Y027322D01*
X024225Y027322D01*
X024225Y027001D01*
X024332Y027108D02*
X024438Y027001D01*
X024593Y027055D02*
X024647Y027001D01*
X024753Y027001D01*
X024807Y027055D01*
X024807Y027108D01*
X024753Y027161D01*
X024700Y027161D01*
X024753Y027161D02*
X024807Y027215D01*
X024807Y027268D01*
X024753Y027322D01*
X024647Y027322D01*
X024593Y027268D01*
X021772Y026053D02*
X021338Y026053D01*
X020468Y026751D02*
X020468Y027072D01*
X020682Y027072D01*
X020575Y026911D02*
X020468Y026911D01*
X020313Y026911D02*
X020313Y026751D01*
X020313Y026911D02*
X020260Y026965D01*
X020100Y026965D01*
X020100Y026751D01*
X019945Y026805D02*
X019892Y026751D01*
X019785Y026751D01*
X019732Y026805D01*
X019945Y027018D01*
X019945Y026805D01*
X019945Y027018D02*
X019892Y027072D01*
X019785Y027072D01*
X019732Y027018D01*
X019732Y026805D01*
X019577Y026805D02*
X019523Y026751D01*
X019417Y026751D01*
X019363Y026805D01*
X019577Y027018D01*
X019577Y026805D01*
X019577Y027018D02*
X019523Y027072D01*
X019417Y027072D01*
X019363Y027018D01*
X019363Y026805D01*
X019209Y026751D02*
X018995Y026751D01*
X019102Y026751D02*
X019102Y027072D01*
X018995Y026965D01*
X018977Y027226D02*
X018977Y027547D01*
X018870Y027440D01*
X018763Y027547D01*
X018763Y027226D01*
X018609Y027280D02*
X018555Y027226D01*
X018395Y027226D01*
X018395Y027547D01*
X018555Y027547D01*
X018609Y027493D01*
X018609Y027440D01*
X018555Y027386D01*
X018395Y027386D01*
X018555Y027386D02*
X018609Y027333D01*
X018609Y027280D01*
X019132Y027333D02*
X019292Y027333D01*
X019345Y027386D01*
X019345Y027493D01*
X019292Y027547D01*
X019132Y027547D01*
X019132Y027226D01*
X019500Y027280D02*
X019500Y027493D01*
X019553Y027547D01*
X019660Y027547D01*
X019713Y027493D01*
X019868Y027493D02*
X019922Y027547D01*
X020028Y027547D01*
X020082Y027493D01*
X020082Y027440D01*
X019868Y027226D01*
X020082Y027226D01*
X019713Y027280D02*
X019660Y027226D01*
X019553Y027226D01*
X019500Y027280D01*
X021338Y025069D02*
X021772Y025069D01*
X021538Y024761D02*
X021432Y024761D01*
X021432Y024601D02*
X021645Y024601D01*
X027566Y025489D02*
X027726Y025489D01*
X027780Y025542D01*
X027780Y025595D01*
X027726Y025649D01*
X027566Y025649D01*
X027566Y025489D02*
X027566Y025809D01*
X027726Y025809D01*
X027780Y025756D01*
X027780Y025702D01*
X027726Y025649D01*
X027935Y025809D02*
X028041Y025702D01*
X028148Y025809D01*
X028148Y025489D01*
X028303Y025489D02*
X028303Y025809D01*
X028463Y025809D01*
X028516Y025756D01*
X028516Y025649D01*
X028463Y025595D01*
X028303Y025595D01*
X028671Y025489D02*
X028885Y025489D01*
X028778Y025489D02*
X028778Y025809D01*
X028671Y025702D01*
X029040Y025702D02*
X029093Y025649D01*
X029200Y025649D01*
X029253Y025595D01*
X029253Y025542D01*
X029200Y025489D01*
X029093Y025489D01*
X029040Y025542D01*
X029040Y025595D01*
X029093Y025649D01*
X029040Y025702D02*
X029040Y025756D01*
X029093Y025809D01*
X029200Y025809D01*
X029253Y025756D01*
X029253Y025702D01*
X029200Y025649D01*
X029408Y025542D02*
X029408Y025756D01*
X029461Y025809D01*
X029568Y025809D01*
X029621Y025756D01*
X029408Y025542D01*
X029461Y025489D01*
X029568Y025489D01*
X029621Y025542D01*
X029621Y025756D01*
X030395Y025368D02*
X030395Y025315D01*
X030448Y025261D01*
X030555Y025261D01*
X030609Y025208D01*
X030609Y025155D01*
X030555Y025101D01*
X030448Y025101D01*
X030395Y025155D01*
X030395Y025368D02*
X030448Y025422D01*
X030555Y025422D01*
X030609Y025368D01*
X030763Y025422D02*
X030763Y025101D01*
X030977Y025101D01*
X031132Y025101D02*
X031132Y025422D01*
X031345Y025101D01*
X031345Y025422D01*
X031500Y025368D02*
X031500Y025315D01*
X031553Y025261D01*
X031660Y025261D01*
X031713Y025208D01*
X031713Y025155D01*
X031660Y025101D01*
X031553Y025101D01*
X031500Y025155D01*
X031500Y025368D02*
X031553Y025422D01*
X031660Y025422D01*
X031713Y025368D01*
X031868Y025368D02*
X031922Y025422D01*
X032028Y025422D01*
X032082Y025368D01*
X032082Y025155D01*
X032028Y025101D01*
X031922Y025101D01*
X031868Y025155D01*
X031868Y025368D01*
X032237Y025422D02*
X032237Y025101D01*
X032237Y025208D02*
X032397Y025208D01*
X032450Y025261D01*
X032450Y025368D01*
X032397Y025422D01*
X032237Y025422D01*
X032343Y025208D02*
X032450Y025101D01*
X032082Y024822D02*
X031868Y024608D01*
X031922Y024661D02*
X032082Y024501D01*
X031868Y024501D02*
X031868Y024822D01*
X031713Y024768D02*
X031660Y024822D01*
X031553Y024822D01*
X031500Y024768D01*
X031500Y024555D01*
X031553Y024501D01*
X031660Y024501D01*
X031713Y024555D01*
X031955Y024317D02*
X028073Y024317D01*
X028995Y024022D02*
X029102Y023915D01*
X029209Y024022D01*
X029209Y023701D01*
X029363Y023701D02*
X029470Y023701D01*
X029417Y023701D02*
X029417Y024022D01*
X029470Y024022D02*
X029363Y024022D01*
X029609Y024022D02*
X029609Y023701D01*
X029822Y023701D02*
X029609Y024022D01*
X029822Y024022D02*
X029822Y023701D01*
X029977Y023701D02*
X030084Y023701D01*
X030031Y023701D02*
X030031Y024022D01*
X030084Y024022D02*
X029977Y024022D01*
X030395Y024501D02*
X030555Y024501D01*
X030609Y024555D01*
X030609Y024608D01*
X030555Y024661D01*
X030395Y024661D01*
X030395Y024501D02*
X030395Y024822D01*
X030555Y024822D01*
X030609Y024768D01*
X030609Y024715D01*
X030555Y024661D01*
X030763Y024501D02*
X030763Y024822D01*
X030763Y024501D02*
X030977Y024501D01*
X031132Y024555D02*
X031185Y024501D01*
X031292Y024501D01*
X031345Y024555D01*
X031345Y024768D01*
X031292Y024822D01*
X031185Y024822D01*
X031132Y024768D01*
X031132Y024555D01*
X031066Y024022D02*
X030959Y024022D01*
X031013Y024022D02*
X031013Y023701D01*
X031066Y023701D02*
X030959Y023701D01*
X030805Y023755D02*
X030805Y023968D01*
X030751Y024022D01*
X030591Y024022D01*
X030591Y023701D01*
X030751Y023701D01*
X030805Y023755D01*
X031205Y023701D02*
X031205Y024022D01*
X031418Y023701D01*
X031418Y024022D01*
X031573Y023861D02*
X031787Y023861D01*
X031942Y023861D02*
X032102Y023861D01*
X032155Y023808D01*
X032155Y023755D01*
X032102Y023701D01*
X031995Y023701D01*
X031942Y023755D01*
X031942Y023861D01*
X032048Y023968D01*
X032155Y024022D01*
X030870Y025261D02*
X030763Y025261D01*
X030763Y025422D02*
X030977Y025422D01*
X030232Y026751D02*
X030232Y027072D01*
X030445Y027072D01*
X030338Y026911D02*
X030232Y026911D01*
X030077Y026965D02*
X030077Y026751D01*
X029917Y026751D01*
X029863Y026805D01*
X029863Y026965D01*
X029709Y026751D02*
X029495Y026751D01*
X029602Y026751D02*
X029602Y027072D01*
X029495Y026965D01*
X029453Y027226D02*
X029400Y027280D01*
X029400Y027493D01*
X029453Y027547D01*
X029560Y027547D01*
X029613Y027493D01*
X029768Y027493D02*
X029822Y027547D01*
X029928Y027547D01*
X029982Y027493D01*
X029982Y027440D01*
X029928Y027386D01*
X029982Y027333D01*
X029982Y027280D01*
X029928Y027226D01*
X029822Y027226D01*
X029768Y027280D01*
X029875Y027386D02*
X029928Y027386D01*
X029613Y027280D02*
X029560Y027226D01*
X029453Y027226D01*
X029245Y027386D02*
X029192Y027333D01*
X029032Y027333D01*
X029032Y027226D02*
X029032Y027547D01*
X029192Y027547D01*
X029245Y027493D01*
X029245Y027386D01*
X028877Y027547D02*
X028877Y027226D01*
X028663Y027226D02*
X028663Y027547D01*
X028770Y027440D01*
X028877Y027547D01*
X028509Y027493D02*
X028509Y027440D01*
X028455Y027386D01*
X028295Y027386D01*
X028295Y027226D02*
X028295Y027547D01*
X028455Y027547D01*
X028509Y027493D01*
X028455Y027386D02*
X028509Y027333D01*
X028509Y027280D01*
X028455Y027226D01*
X028295Y027226D01*
X027935Y025809D02*
X027935Y025489D01*
X028995Y024022D02*
X028995Y023701D01*
X010871Y023445D02*
X010871Y023338D01*
X010817Y023285D01*
X010710Y023285D01*
X010657Y023338D01*
X010657Y023445D01*
X010710Y023499D01*
X010764Y023499D01*
X010764Y023285D01*
X010871Y023146D02*
X010871Y023039D01*
X010871Y023093D02*
X010550Y023093D01*
X010550Y023039D01*
X010710Y022885D02*
X010657Y022831D01*
X010657Y022725D01*
X010764Y022725D02*
X010764Y022885D01*
X010710Y022885D02*
X010871Y022885D01*
X010871Y022725D01*
X010817Y022671D01*
X010764Y022725D01*
X010871Y022516D02*
X010550Y022516D01*
X010657Y022410D01*
X010550Y022303D01*
X010871Y022303D01*
X010817Y021780D02*
X010604Y021780D01*
X010550Y021726D01*
X010550Y021620D01*
X010604Y021566D01*
X010657Y021566D01*
X010710Y021620D01*
X010710Y021780D01*
X010817Y021780D02*
X010871Y021726D01*
X010871Y021620D01*
X010817Y021566D01*
X010817Y021411D02*
X010871Y021358D01*
X010871Y021198D01*
X010550Y021198D01*
X010550Y021358D01*
X010604Y021411D01*
X010657Y021411D01*
X010710Y021358D01*
X010710Y021198D01*
X010710Y021358D02*
X010764Y021411D01*
X010817Y021411D01*
X010817Y021043D02*
X010604Y021043D01*
X010550Y020990D01*
X010550Y020830D01*
X010871Y020830D01*
X010871Y020990D01*
X010817Y021043D01*
D13*
X027655Y006261D02*
X027655Y006061D01*
X027855Y006061D01*
X027655Y006061D02*
X027655Y005861D01*
X027655Y006061D02*
X027455Y006061D01*
X027455Y004761D02*
X027855Y004761D01*
D14*
X016435Y005381D02*
X016275Y005381D01*
X016275Y005461D01*
X016302Y005488D01*
X016355Y005488D01*
X016382Y005461D01*
X016382Y005381D01*
X016435Y005565D02*
X016382Y005619D01*
X016435Y005672D01*
X016275Y005672D01*
X016275Y005750D02*
X016275Y005830D01*
X016302Y005856D01*
X016355Y005856D01*
X016382Y005830D01*
X016382Y005750D01*
X016382Y005803D02*
X016435Y005856D01*
X016435Y005750D02*
X016275Y005750D01*
X016275Y005565D02*
X016435Y005565D01*
X016435Y006118D02*
X016275Y006225D01*
X016275Y006302D02*
X016275Y006409D01*
X016275Y006355D02*
X016435Y006355D01*
X016435Y006225D02*
X016275Y006118D01*
X016328Y006486D02*
X016275Y006540D01*
X016328Y006593D01*
X016435Y006593D01*
X016435Y006670D02*
X016435Y006777D01*
X016435Y006670D02*
X016275Y006670D01*
X016355Y006593D02*
X016355Y006486D01*
X016328Y006486D02*
X016435Y006486D01*
D15*
X014575Y001811D02*
X009625Y001811D01*
X014575Y001811D02*
X014575Y007711D01*
X009625Y007711D01*
X009625Y008611D02*
X014575Y008611D01*
X014575Y014511D01*
X009625Y014511D01*
X019240Y009549D02*
X019430Y009549D01*
X019430Y009676D01*
X019430Y009455D02*
X019303Y009455D01*
X019240Y009392D01*
X019303Y009328D01*
X019430Y009328D01*
X019335Y009328D02*
X019335Y009455D01*
X019240Y009234D02*
X019240Y009107D01*
X019240Y009171D02*
X019430Y009171D01*
X019430Y009013D02*
X019240Y008886D01*
X019240Y009013D02*
X019430Y008886D01*
X020940Y009618D02*
X020972Y009586D01*
X021098Y009586D01*
X021130Y009618D01*
X021130Y009681D01*
X021098Y009713D01*
X021035Y009713D01*
X021035Y009650D01*
X020972Y009713D02*
X020940Y009681D01*
X020940Y009618D01*
X020940Y009807D02*
X020940Y009902D01*
X020972Y009934D01*
X021035Y009934D01*
X021067Y009902D01*
X021067Y009807D01*
X021130Y009807D02*
X020940Y009807D01*
X020972Y010028D02*
X021003Y010028D01*
X021035Y010060D01*
X021035Y010123D01*
X021067Y010155D01*
X021098Y010155D01*
X021130Y010123D01*
X021130Y010060D01*
X021098Y010028D01*
X020972Y010028D02*
X020940Y010060D01*
X020940Y010123D01*
X020972Y010155D01*
X017507Y006400D02*
X017507Y006321D01*
X017468Y006361D02*
X017470Y006373D01*
X017475Y006384D01*
X017484Y006393D01*
X017495Y006398D01*
X017507Y006400D01*
X017519Y006398D01*
X017530Y006393D01*
X017539Y006384D01*
X017544Y006373D01*
X017546Y006361D01*
X017544Y006349D01*
X017539Y006338D01*
X017530Y006329D01*
X017519Y006324D01*
X017507Y006322D01*
X017495Y006324D01*
X017484Y006329D01*
X017475Y006338D01*
X017470Y006349D01*
X017468Y006361D01*
X017419Y006361D02*
X017421Y006379D01*
X017427Y006397D01*
X017436Y006413D01*
X017448Y006426D01*
X017463Y006437D01*
X017480Y006445D01*
X017498Y006449D01*
X017516Y006449D01*
X017534Y006445D01*
X017551Y006437D01*
X017566Y006426D01*
X017578Y006413D01*
X017587Y006397D01*
X017593Y006379D01*
X017595Y006361D01*
X017593Y006343D01*
X017587Y006325D01*
X017578Y006309D01*
X017566Y006296D01*
X017551Y006285D01*
X017534Y006277D01*
X017516Y006273D01*
X017498Y006273D01*
X017480Y006277D01*
X017463Y006285D01*
X017448Y006296D01*
X017436Y006309D01*
X017427Y006325D01*
X017421Y006343D01*
X017419Y006361D01*
X017389Y006361D02*
X017391Y006382D01*
X017397Y006402D01*
X017406Y006422D01*
X017418Y006439D01*
X017433Y006453D01*
X017451Y006465D01*
X017471Y006473D01*
X017491Y006478D01*
X017512Y006479D01*
X017533Y006476D01*
X017553Y006470D01*
X017572Y006459D01*
X017589Y006446D01*
X017602Y006430D01*
X017613Y006412D01*
X017621Y006392D01*
X017625Y006372D01*
X017625Y006350D01*
X017621Y006330D01*
X017613Y006310D01*
X017602Y006292D01*
X017589Y006276D01*
X017572Y006263D01*
X017553Y006252D01*
X017533Y006246D01*
X017512Y006243D01*
X017491Y006244D01*
X017471Y006249D01*
X017451Y006257D01*
X017433Y006269D01*
X017418Y006283D01*
X017406Y006300D01*
X017397Y006320D01*
X017391Y006340D01*
X017389Y006361D01*
X017905Y003961D02*
X017905Y003161D01*
X029240Y012171D02*
X029870Y012171D01*
X029358Y013234D02*
X029338Y013234D01*
X029338Y013253D01*
X029358Y013253D01*
X029358Y013234D01*
X029240Y013352D02*
X029870Y013352D01*
X021710Y025916D02*
X021712Y025925D01*
X021717Y025932D01*
X021725Y025937D01*
X021734Y025938D01*
X021743Y025935D01*
X021750Y025929D01*
X021754Y025921D01*
X021754Y025911D01*
X021750Y025903D01*
X021743Y025897D01*
X021734Y025894D01*
X021725Y025895D01*
X021717Y025900D01*
X021712Y025907D01*
X021710Y025916D01*
X026417Y025974D02*
X027893Y025974D01*
X027893Y027549D01*
X026417Y027549D01*
X026417Y025974D01*
D16*
X023588Y017071D03*
X023593Y014991D03*
D17*
X023683Y015191D03*
X023683Y015196D03*
X023683Y015201D03*
X023683Y015206D03*
X023683Y015211D03*
X023683Y015216D03*
X023683Y015221D03*
X023683Y015226D03*
X023683Y015231D03*
X023683Y015236D03*
X023683Y015241D03*
X023683Y015246D03*
X023683Y015251D03*
X023683Y015256D03*
X023683Y015261D03*
X023683Y015266D03*
X023683Y015271D03*
X023683Y015276D03*
X023683Y015281D03*
X023683Y015286D03*
X023683Y015291D03*
X023683Y015296D03*
X023683Y015301D03*
X023683Y015306D03*
X023683Y015311D03*
X023683Y015316D03*
X023683Y015321D03*
X023683Y015326D03*
X023683Y015331D03*
X023683Y015336D03*
X023683Y015341D03*
X023683Y015346D03*
X023683Y015351D03*
X023683Y015356D03*
X023683Y015361D03*
X023683Y015366D03*
X023683Y015371D03*
X023683Y015376D03*
X023683Y015381D03*
X023683Y015386D03*
X023683Y015391D03*
X023683Y015396D03*
X023683Y015401D03*
X023683Y015406D03*
X023683Y015411D03*
X023683Y015416D03*
X023683Y015421D03*
X023683Y015426D03*
X023683Y015431D03*
X023683Y015436D03*
X023683Y015441D03*
X023683Y015446D03*
X023683Y015451D03*
X023683Y015456D03*
X023683Y015461D03*
X023683Y015466D03*
X023683Y015471D03*
X023683Y015476D03*
X023683Y015481D03*
X023683Y015486D03*
X023683Y015491D03*
X023683Y015496D03*
X023683Y015501D03*
X023683Y015506D03*
X023683Y015511D03*
X023683Y015516D03*
X023683Y015521D03*
X023683Y015526D03*
X023683Y015531D03*
X023683Y015536D03*
X023683Y015541D03*
X023683Y015546D03*
X023683Y015551D03*
X023683Y015556D03*
X023683Y015561D03*
X023683Y015566D03*
X023683Y015571D03*
X023683Y015576D03*
X023683Y015581D03*
X023683Y015586D03*
X023683Y015591D03*
X023683Y015596D03*
X023683Y015601D03*
X023683Y015606D03*
X023683Y015611D03*
X023683Y015616D03*
X023683Y015621D03*
X023683Y015626D03*
X023683Y015631D03*
X023683Y015636D03*
X023683Y015641D03*
X023683Y015646D03*
X023683Y015651D03*
X023683Y015656D03*
X023683Y015661D03*
X023683Y015666D03*
X023683Y015671D03*
X023683Y015676D03*
X023683Y015681D03*
X023683Y015686D03*
X023683Y015691D03*
X023683Y015696D03*
X023683Y015701D03*
X023683Y015706D03*
X023683Y015711D03*
X023683Y015716D03*
X023683Y015721D03*
X023683Y015726D03*
X023683Y015731D03*
X023683Y015736D03*
X023683Y015741D03*
X023683Y015746D03*
X023683Y015751D03*
X023683Y015756D03*
X023683Y015761D03*
X023683Y015766D03*
X023683Y015771D03*
X023683Y015776D03*
X023683Y015781D03*
X023683Y015786D03*
X023683Y015791D03*
X024053Y015791D03*
X024053Y015786D03*
X024053Y015781D03*
X024053Y015776D03*
X024053Y015771D03*
X024053Y015766D03*
X024053Y015761D03*
X024053Y015756D03*
X024053Y015751D03*
X024053Y015746D03*
X024053Y015741D03*
X024053Y015736D03*
X024053Y015731D03*
X024053Y015726D03*
X024053Y015721D03*
X024053Y015716D03*
X024053Y015711D03*
X024053Y015706D03*
X024053Y015701D03*
X024053Y015696D03*
X024053Y015691D03*
X024053Y015686D03*
X024053Y015681D03*
X024053Y015676D03*
X024053Y015671D03*
X024053Y015666D03*
X024053Y015661D03*
X024053Y015656D03*
X024053Y015651D03*
X024053Y015646D03*
X024053Y015641D03*
X024053Y015636D03*
X024053Y015631D03*
X024053Y015626D03*
X024053Y015621D03*
X024053Y015616D03*
X024053Y015611D03*
X024053Y015606D03*
X024053Y015601D03*
X024053Y015596D03*
X024053Y015591D03*
X024053Y015586D03*
X024053Y015581D03*
X024053Y015576D03*
X024053Y015571D03*
X024053Y015566D03*
X024053Y015561D03*
X024053Y015556D03*
X024053Y015551D03*
X024053Y015546D03*
X024053Y015541D03*
X024053Y015536D03*
X024053Y015531D03*
X024053Y015441D03*
X024053Y015436D03*
X024053Y015431D03*
X024053Y015426D03*
X024053Y015421D03*
X024053Y015416D03*
X024053Y015411D03*
X024053Y015406D03*
X024053Y015401D03*
X024053Y015396D03*
X024053Y015391D03*
X024053Y015386D03*
X024053Y015381D03*
X024053Y015376D03*
X024053Y015371D03*
X024053Y015366D03*
X024053Y015361D03*
X024053Y015356D03*
X024053Y015351D03*
X024053Y015346D03*
X024053Y015341D03*
X024053Y015336D03*
X024053Y015331D03*
X024053Y015326D03*
X024053Y015321D03*
X024053Y015316D03*
X024053Y015311D03*
X024053Y015306D03*
X024053Y015301D03*
X024053Y015296D03*
X024053Y015291D03*
X024053Y015286D03*
X024053Y015281D03*
X024053Y015276D03*
X024053Y015271D03*
X024053Y015266D03*
X024053Y015261D03*
X024053Y015256D03*
X024053Y015251D03*
X024053Y015246D03*
X024053Y015241D03*
X024053Y015236D03*
X024053Y015231D03*
X024053Y015226D03*
X024053Y015221D03*
X024053Y015216D03*
X024053Y015211D03*
X024053Y015206D03*
X024053Y015201D03*
X024053Y015196D03*
X024053Y015191D03*
X024053Y015186D03*
X024053Y015181D03*
X024053Y015176D03*
X024053Y015171D03*
X024053Y015166D03*
X024053Y015161D03*
X024053Y015156D03*
X024053Y015151D03*
X024053Y015146D03*
X024053Y015141D03*
X024053Y015136D03*
X024053Y015131D03*
X024053Y015126D03*
X024053Y015121D03*
X024053Y015116D03*
X024053Y015111D03*
X024053Y015106D03*
X024053Y015101D03*
X024053Y015096D03*
X024053Y015091D03*
X024053Y015086D03*
X024053Y015081D03*
X024053Y015076D03*
X024053Y015071D03*
X024053Y015066D03*
X024053Y015061D03*
X024053Y015056D03*
X024053Y015051D03*
X024053Y015046D03*
X024053Y015041D03*
X024053Y015036D03*
X024053Y015031D03*
X024053Y015026D03*
X024053Y015021D03*
X024053Y015016D03*
X024053Y015011D03*
X024053Y015006D03*
X024053Y015001D03*
X024053Y014996D03*
X024053Y014991D03*
X024053Y015796D03*
X024053Y015801D03*
X024053Y015806D03*
X024053Y015811D03*
X024053Y015816D03*
X024053Y015821D03*
X024053Y015826D03*
X024053Y015831D03*
X024053Y015836D03*
X024053Y015841D03*
X024053Y015846D03*
X024053Y015851D03*
X024053Y015856D03*
X024053Y015861D03*
X024053Y015866D03*
X024053Y015871D03*
X024053Y015876D03*
X024053Y015881D03*
X024053Y015886D03*
X024053Y015891D03*
X024053Y015896D03*
X024053Y015901D03*
X024053Y015906D03*
X024053Y015911D03*
X024053Y015916D03*
X024053Y015921D03*
X024053Y015926D03*
X024053Y015931D03*
X024053Y015936D03*
X024053Y015941D03*
X024053Y015946D03*
X024053Y015951D03*
X024053Y015956D03*
X024053Y015961D03*
X024053Y015966D03*
X024053Y015971D03*
X024053Y015976D03*
X024053Y015981D03*
X024053Y015986D03*
X024053Y015991D03*
X024053Y015996D03*
X024053Y016001D03*
X024048Y016061D03*
X024048Y016066D03*
X024048Y016071D03*
X024048Y016076D03*
X024048Y016081D03*
X024048Y016086D03*
X024048Y016091D03*
X024048Y016096D03*
X024048Y016101D03*
X024048Y016106D03*
X024048Y016111D03*
X024048Y016116D03*
X024048Y016121D03*
X024048Y016126D03*
X024048Y016131D03*
X024048Y016136D03*
X024048Y016141D03*
X024048Y016146D03*
X024048Y016151D03*
X024048Y016156D03*
X024048Y016161D03*
X024048Y016166D03*
X024048Y016171D03*
X024048Y016176D03*
X024048Y016181D03*
X024048Y016186D03*
X024048Y016191D03*
X024048Y016196D03*
X024048Y016201D03*
X024048Y016206D03*
X024048Y016211D03*
X024048Y016216D03*
X024048Y016221D03*
X024048Y016226D03*
X024048Y016231D03*
X024048Y016236D03*
X024048Y016241D03*
X024048Y016246D03*
X024048Y016251D03*
X024048Y016256D03*
X024048Y016261D03*
X024048Y016266D03*
X024048Y016271D03*
X024048Y016276D03*
X024048Y016281D03*
X024048Y016286D03*
X024048Y016291D03*
X024048Y016296D03*
X024048Y016301D03*
X024048Y016306D03*
X024048Y016311D03*
X024048Y016316D03*
X024048Y016321D03*
X024048Y016326D03*
X024048Y016331D03*
X024048Y016336D03*
X024048Y016341D03*
X024048Y016346D03*
X024048Y016351D03*
X024048Y016356D03*
X024048Y016361D03*
X024048Y016366D03*
X024048Y016371D03*
X024048Y016376D03*
X024048Y016381D03*
X024048Y016386D03*
X024048Y016391D03*
X024048Y016396D03*
X024048Y016401D03*
X024048Y016406D03*
X024048Y016411D03*
X024048Y016416D03*
X024048Y016421D03*
X024048Y016426D03*
X024048Y016431D03*
X024048Y016436D03*
X024048Y016441D03*
X024048Y016446D03*
X024048Y016451D03*
X024048Y016456D03*
X024048Y016461D03*
X024048Y016466D03*
X024048Y016471D03*
X024048Y016476D03*
X024048Y016481D03*
X024048Y016486D03*
X024048Y016491D03*
X024048Y016496D03*
X024048Y016501D03*
X024048Y016506D03*
X024048Y016511D03*
X024048Y016516D03*
X024048Y016521D03*
X024048Y016526D03*
X024048Y016531D03*
X024048Y016621D03*
X024048Y016626D03*
X024048Y016631D03*
X024048Y016636D03*
X024048Y016641D03*
X024048Y016646D03*
X024048Y016651D03*
X024048Y016656D03*
X024048Y016661D03*
X024048Y016666D03*
X024048Y016671D03*
X024048Y016676D03*
X024048Y016681D03*
X024048Y016686D03*
X024048Y016691D03*
X024048Y016696D03*
X024048Y016701D03*
X024048Y016706D03*
X024048Y016711D03*
X024048Y016716D03*
X024048Y016721D03*
X024048Y016726D03*
X024048Y016731D03*
X024048Y016736D03*
X024048Y016741D03*
X024048Y016746D03*
X024048Y016751D03*
X024048Y016756D03*
X024048Y016761D03*
X024048Y016766D03*
X024048Y016771D03*
X024048Y016776D03*
X024048Y016781D03*
X024048Y016786D03*
X024048Y016791D03*
X024048Y016796D03*
X024048Y016801D03*
X024048Y016806D03*
X024048Y016811D03*
X024048Y016816D03*
X024048Y016821D03*
X024048Y016826D03*
X024048Y016831D03*
X024048Y016836D03*
X024048Y016841D03*
X024048Y016846D03*
X024048Y016851D03*
X024048Y016856D03*
X024048Y016861D03*
X024048Y016866D03*
X024048Y016871D03*
X024048Y016876D03*
X024048Y016881D03*
X024048Y016886D03*
X024048Y016891D03*
X024048Y016896D03*
X024048Y016901D03*
X024048Y016906D03*
X024048Y016911D03*
X024048Y016916D03*
X024048Y016921D03*
X024048Y016926D03*
X024048Y016931D03*
X024048Y016936D03*
X024048Y016941D03*
X024048Y016946D03*
X024048Y016951D03*
X024048Y016956D03*
X024048Y016961D03*
X024048Y016966D03*
X024048Y016971D03*
X024048Y016976D03*
X024048Y016981D03*
X024048Y016986D03*
X024048Y016991D03*
X024048Y016996D03*
X024048Y017001D03*
X024048Y017006D03*
X024048Y017011D03*
X024048Y017016D03*
X024048Y017021D03*
X024048Y017026D03*
X024048Y017031D03*
X024048Y017036D03*
X024048Y017041D03*
X024048Y017046D03*
X024048Y017051D03*
X024048Y017056D03*
X024048Y017061D03*
X024048Y017066D03*
X024048Y017071D03*
X023678Y016866D03*
X023678Y016861D03*
X023678Y016856D03*
X023678Y016851D03*
X023678Y016846D03*
X023678Y016841D03*
X023678Y016836D03*
X023678Y016831D03*
X023678Y016826D03*
X023678Y016821D03*
X023678Y016816D03*
X023678Y016811D03*
X023678Y016806D03*
X023678Y016801D03*
X023678Y016796D03*
X023678Y016791D03*
X023678Y016786D03*
X023678Y016781D03*
X023678Y016776D03*
X023678Y016771D03*
X023678Y016766D03*
X023678Y016761D03*
X023678Y016756D03*
X023678Y016751D03*
X023678Y016746D03*
X023678Y016741D03*
X023678Y016736D03*
X023678Y016731D03*
X023678Y016726D03*
X023678Y016721D03*
X023678Y016716D03*
X023678Y016711D03*
X023678Y016706D03*
X023678Y016701D03*
X023678Y016696D03*
X023678Y016691D03*
X023678Y016686D03*
X023678Y016681D03*
X023678Y016676D03*
X023678Y016671D03*
X023678Y016666D03*
X023678Y016661D03*
X023678Y016656D03*
X023678Y016651D03*
X023678Y016646D03*
X023678Y016641D03*
X023678Y016636D03*
X023678Y016631D03*
X023678Y016626D03*
X023678Y016621D03*
X023678Y016616D03*
X023678Y016611D03*
X023678Y016606D03*
X023678Y016601D03*
X023678Y016596D03*
X023678Y016591D03*
X023678Y016586D03*
X023678Y016581D03*
X023678Y016576D03*
X023678Y016571D03*
X023678Y016566D03*
X023678Y016561D03*
X023678Y016556D03*
X023678Y016551D03*
X023678Y016546D03*
X023678Y016541D03*
X023678Y016536D03*
X023678Y016531D03*
X023678Y016526D03*
X023678Y016521D03*
X023678Y016516D03*
X023678Y016511D03*
X023678Y016506D03*
X023678Y016501D03*
X023678Y016496D03*
X023678Y016491D03*
X023678Y016486D03*
X023678Y016481D03*
X023678Y016476D03*
X023678Y016471D03*
X023678Y016466D03*
X023678Y016461D03*
X023678Y016456D03*
X023678Y016451D03*
X023678Y016446D03*
X023678Y016441D03*
X023678Y016436D03*
X023678Y016431D03*
X023678Y016426D03*
X023678Y016421D03*
X023678Y016416D03*
X023678Y016411D03*
X023678Y016406D03*
X023678Y016401D03*
X023678Y016396D03*
X023678Y016391D03*
X023678Y016386D03*
X023678Y016381D03*
X023678Y016376D03*
X023678Y016371D03*
X023678Y016366D03*
X023678Y016361D03*
X023678Y016356D03*
X023678Y016351D03*
X023678Y016346D03*
X023678Y016341D03*
X023678Y016336D03*
X023678Y016331D03*
X023678Y016326D03*
X023678Y016321D03*
X023678Y016316D03*
X023678Y016311D03*
X023678Y016306D03*
X023678Y016301D03*
X023678Y016296D03*
X023678Y016291D03*
X023678Y016286D03*
X023678Y016281D03*
X023678Y016276D03*
X023678Y016271D03*
D18*
X022988Y016351D03*
X022983Y016361D03*
X022978Y016366D03*
X023008Y016791D03*
X022993Y015711D03*
X022988Y015701D03*
X022983Y015696D03*
X023013Y015271D03*
X024418Y015391D03*
X024438Y015366D03*
X024453Y015346D03*
X024458Y015341D03*
X024473Y015321D03*
X024478Y015316D03*
X024493Y015296D03*
X024498Y015291D03*
X024503Y015286D03*
X024513Y015271D03*
X024518Y015266D03*
X024523Y015261D03*
X024533Y015246D03*
X024538Y015241D03*
X024543Y015236D03*
X024553Y015221D03*
X024558Y015216D03*
X024563Y015211D03*
X024573Y015196D03*
X024578Y015191D03*
X024583Y015186D03*
X024588Y015181D03*
X024593Y015171D03*
X024598Y015166D03*
X024603Y015161D03*
X024608Y015156D03*
X024608Y015151D03*
X024613Y015146D03*
X024618Y015141D03*
X024623Y015136D03*
X024628Y015131D03*
X024628Y015126D03*
X024633Y015121D03*
X024638Y015116D03*
X024643Y015111D03*
X024648Y015106D03*
X024653Y015096D03*
X024658Y015091D03*
X024663Y015086D03*
X024668Y015081D03*
X024673Y015071D03*
X024678Y015066D03*
X024683Y015061D03*
X024688Y015056D03*
X024693Y015046D03*
X024698Y015041D03*
X024703Y015036D03*
X024708Y015031D03*
X024713Y015021D03*
X024718Y015016D03*
X024723Y015011D03*
X024728Y015006D03*
X024738Y014991D03*
X024413Y016671D03*
X024433Y016696D03*
X024448Y016716D03*
X024453Y016721D03*
X024468Y016741D03*
X024473Y016746D03*
X024488Y016766D03*
X024493Y016771D03*
X024498Y016776D03*
X024508Y016791D03*
X024513Y016796D03*
X024518Y016801D03*
X024528Y016816D03*
X024533Y016821D03*
X024538Y016826D03*
X024548Y016841D03*
X024553Y016846D03*
X024558Y016851D03*
X024568Y016866D03*
X024573Y016871D03*
X024578Y016876D03*
X024583Y016881D03*
X024588Y016891D03*
X024593Y016896D03*
X024598Y016901D03*
X024603Y016906D03*
X024603Y016911D03*
X024608Y016916D03*
X024613Y016921D03*
X024618Y016926D03*
X024623Y016931D03*
X024623Y016936D03*
X024628Y016941D03*
X024633Y016946D03*
X024638Y016951D03*
X024643Y016956D03*
X024648Y016966D03*
X024653Y016971D03*
X024658Y016976D03*
X024663Y016981D03*
X024668Y016991D03*
X024673Y016996D03*
X024678Y017001D03*
X024683Y017006D03*
X024688Y017016D03*
X024693Y017021D03*
X024698Y017026D03*
X024703Y017031D03*
X024708Y017041D03*
X024713Y017046D03*
X024718Y017051D03*
X024723Y017056D03*
X024733Y017071D03*
D19*
X023553Y017066D03*
X023558Y014996D03*
D20*
X023010Y015276D03*
X023005Y015281D03*
X023005Y015286D03*
X023000Y015291D03*
X022975Y015676D03*
X022980Y015686D03*
X022980Y015691D03*
X022975Y016371D03*
X022975Y016376D03*
X022970Y016386D03*
X022995Y016771D03*
X023000Y016776D03*
X023000Y016781D03*
X023005Y016786D03*
X024645Y016961D03*
X024665Y016986D03*
X024685Y017011D03*
X024705Y017036D03*
X024725Y017061D03*
X024730Y017066D03*
X024650Y015101D03*
X024670Y015076D03*
X024690Y015051D03*
X024710Y015026D03*
X024730Y015001D03*
X024735Y014996D03*
D21*
X023538Y015001D03*
X023538Y016001D03*
X023533Y016061D03*
X023533Y017061D03*
D22*
X023518Y017056D03*
X023523Y015006D03*
D23*
X023513Y015011D03*
X024223Y015446D03*
X024223Y015481D03*
X024223Y015486D03*
X024218Y016576D03*
X024218Y016581D03*
X024218Y016616D03*
X023508Y017051D03*
D24*
X023495Y017046D03*
X024230Y016546D03*
X024235Y015516D03*
X023500Y015016D03*
D25*
X023493Y015021D03*
X023488Y017041D03*
D26*
X023480Y017036D03*
X023480Y016076D03*
X023485Y015986D03*
X023485Y015026D03*
D27*
X023478Y015031D03*
X023473Y017031D03*
D28*
X023465Y017026D03*
X023470Y015036D03*
D29*
X023463Y015041D03*
X023458Y017021D03*
D30*
X023453Y017016D03*
X023453Y016091D03*
X023458Y015971D03*
X023458Y015046D03*
D31*
X023453Y015051D03*
X023453Y015966D03*
X023448Y016096D03*
X023448Y017011D03*
D32*
X023443Y017006D03*
X023448Y015056D03*
D33*
X023443Y015061D03*
X023438Y017001D03*
D34*
X023433Y016996D03*
X023438Y015066D03*
D35*
X023433Y015071D03*
X023428Y016991D03*
D36*
X023423Y016986D03*
X023428Y015076D03*
D37*
X023425Y015081D03*
X023425Y015941D03*
X023420Y016121D03*
X023420Y016981D03*
D38*
X023415Y016976D03*
X023420Y015086D03*
D39*
X023418Y015091D03*
X023418Y015931D03*
X023413Y016131D03*
X023413Y016971D03*
D40*
X023410Y016966D03*
X023410Y016136D03*
X023415Y015926D03*
X023415Y015096D03*
D41*
X023410Y015101D03*
X023410Y015921D03*
X023405Y016141D03*
X023405Y016961D03*
D42*
X023403Y016956D03*
X023403Y016146D03*
X023408Y015916D03*
X023408Y015106D03*
D43*
X023405Y015111D03*
X023405Y015911D03*
X023400Y016151D03*
X023400Y016951D03*
D44*
X023395Y016946D03*
X023400Y015116D03*
D45*
X023398Y015121D03*
X023398Y015901D03*
X023393Y016161D03*
X023393Y016941D03*
D46*
X023390Y016936D03*
X023390Y016166D03*
X023395Y015896D03*
X023395Y015126D03*
D47*
X023393Y015131D03*
X023393Y015891D03*
X023388Y016171D03*
X023388Y016931D03*
D48*
X023385Y016926D03*
X023385Y016176D03*
X023390Y015886D03*
X023390Y015136D03*
D49*
X023388Y015141D03*
X023388Y015881D03*
X023383Y016181D03*
X023383Y016921D03*
D50*
X023380Y016916D03*
X023380Y016186D03*
X023385Y015876D03*
X023385Y015146D03*
D51*
X023383Y015151D03*
X023383Y015871D03*
X023378Y016191D03*
X023378Y016911D03*
D52*
X023375Y016906D03*
X023375Y016196D03*
X023380Y015866D03*
X023380Y015156D03*
D53*
X023378Y015161D03*
X023378Y015861D03*
X023373Y016201D03*
X023373Y016901D03*
D54*
X023370Y016896D03*
X023370Y016206D03*
X023375Y015856D03*
X023375Y015166D03*
D55*
X023373Y015171D03*
X023373Y015851D03*
X023368Y016211D03*
X023368Y016891D03*
D56*
X023365Y016886D03*
X023365Y016881D03*
X023365Y016221D03*
X023365Y016216D03*
X023370Y015846D03*
X023370Y015841D03*
X023370Y015181D03*
X023370Y015176D03*
D57*
X023025Y015256D03*
X023020Y015261D03*
X023015Y015266D03*
X022990Y015706D03*
X022995Y015716D03*
X022990Y016346D03*
X022985Y016356D03*
X023010Y016796D03*
X023015Y016801D03*
X023020Y016806D03*
X024370Y016621D03*
X024375Y016626D03*
X024380Y016631D03*
X024385Y016636D03*
X024390Y016641D03*
X024390Y016646D03*
X024395Y016651D03*
X024400Y016656D03*
X024405Y016661D03*
X024410Y016666D03*
X024415Y016676D03*
X024420Y016681D03*
X024425Y016686D03*
X024430Y016691D03*
X024435Y016701D03*
X024440Y016706D03*
X024445Y016711D03*
X024455Y016726D03*
X024460Y016731D03*
X024465Y016736D03*
X024475Y016751D03*
X024480Y016756D03*
X024485Y016761D03*
X024500Y016781D03*
X024505Y016786D03*
X024520Y016806D03*
X024525Y016811D03*
X024540Y016831D03*
X024545Y016836D03*
X024560Y016856D03*
X024565Y016861D03*
X024585Y016886D03*
X024375Y015441D03*
X024380Y015436D03*
X024385Y015431D03*
X024390Y015426D03*
X024395Y015421D03*
X024395Y015416D03*
X024400Y015411D03*
X024405Y015406D03*
X024410Y015401D03*
X024415Y015396D03*
X024420Y015386D03*
X024425Y015381D03*
X024430Y015376D03*
X024435Y015371D03*
X024440Y015361D03*
X024445Y015356D03*
X024450Y015351D03*
X024460Y015336D03*
X024465Y015331D03*
X024470Y015326D03*
X024480Y015311D03*
X024485Y015306D03*
X024490Y015301D03*
X024505Y015281D03*
X024510Y015276D03*
X024525Y015256D03*
X024530Y015251D03*
X024545Y015231D03*
X024550Y015226D03*
X024565Y015206D03*
X024570Y015201D03*
X024590Y015176D03*
D58*
X023368Y015186D03*
X023368Y015836D03*
X023363Y016226D03*
X023363Y016876D03*
D59*
X023148Y015191D03*
D60*
X023115Y015196D03*
X023085Y015786D03*
X023080Y016276D03*
X023110Y016866D03*
D61*
X023093Y016861D03*
X023098Y015201D03*
D62*
X023088Y015206D03*
X023058Y015771D03*
X023053Y016291D03*
X023083Y016856D03*
D63*
X023073Y016851D03*
X023043Y016296D03*
X023048Y015766D03*
X023078Y015211D03*
D64*
X023068Y015216D03*
X023063Y016846D03*
D65*
X023058Y016841D03*
X023023Y016311D03*
X023028Y015751D03*
X023063Y015221D03*
X024398Y015531D03*
X024403Y015541D03*
X024408Y015546D03*
X024413Y015551D03*
X024418Y015556D03*
X024423Y015561D03*
X024423Y015566D03*
X024428Y015571D03*
X024433Y015576D03*
X024438Y015581D03*
X024443Y015586D03*
X024443Y015591D03*
X024448Y015596D03*
X024453Y015601D03*
X024458Y015606D03*
X024463Y015611D03*
X024468Y015616D03*
X024468Y015621D03*
X024473Y015626D03*
X024478Y015631D03*
X024483Y015636D03*
X024488Y015641D03*
X024488Y015646D03*
X024493Y015651D03*
X024498Y015656D03*
X024503Y015661D03*
X024508Y015666D03*
X024508Y015671D03*
X024513Y015676D03*
X024518Y015681D03*
X024523Y015686D03*
X024528Y015691D03*
X024533Y015696D03*
X024533Y015701D03*
X024538Y015706D03*
X024543Y015711D03*
X024548Y015716D03*
X024553Y015721D03*
X024553Y015726D03*
X024558Y015731D03*
X024563Y015736D03*
X024568Y015741D03*
X024573Y015746D03*
X024578Y015751D03*
X024578Y015756D03*
X024583Y015761D03*
X024588Y015766D03*
X024593Y015771D03*
X024598Y015776D03*
X024598Y015781D03*
X024603Y015786D03*
X024608Y015791D03*
X024613Y015796D03*
X024618Y015801D03*
X024623Y015811D03*
X024628Y015816D03*
X024633Y015821D03*
X024638Y015826D03*
X024643Y015831D03*
X024643Y015836D03*
X024648Y015841D03*
X024653Y015846D03*
X024658Y015851D03*
X024663Y015856D03*
X024668Y015866D03*
X024673Y015871D03*
X024678Y015876D03*
X024683Y015881D03*
X024688Y015886D03*
X024688Y015891D03*
X024693Y015896D03*
X024698Y015901D03*
X024703Y015906D03*
X024708Y015911D03*
X024713Y015921D03*
X024718Y015926D03*
X024723Y015931D03*
X024728Y015936D03*
X024733Y015946D03*
X024738Y015951D03*
X024743Y015956D03*
X024748Y015961D03*
X024753Y015966D03*
X024758Y015976D03*
X024763Y015981D03*
X024768Y015986D03*
X024773Y015991D03*
X024778Y016001D03*
X024773Y016061D03*
X024768Y016071D03*
X024763Y016076D03*
X024758Y016081D03*
X024753Y016086D03*
X024748Y016096D03*
X024743Y016101D03*
X024738Y016106D03*
X024733Y016111D03*
X024728Y016116D03*
X024723Y016126D03*
X024718Y016131D03*
X024713Y016136D03*
X024708Y016141D03*
X024703Y016151D03*
X024698Y016156D03*
X024693Y016161D03*
X024688Y016166D03*
X024683Y016171D03*
X024683Y016176D03*
X024678Y016181D03*
X024673Y016186D03*
X024668Y016191D03*
X024663Y016196D03*
X024658Y016206D03*
X024653Y016211D03*
X024648Y016216D03*
X024643Y016221D03*
X024638Y016226D03*
X024638Y016231D03*
X024633Y016236D03*
X024628Y016241D03*
X024623Y016246D03*
X024618Y016251D03*
X024613Y016261D03*
X024608Y016266D03*
X024603Y016271D03*
X024598Y016276D03*
X024593Y016281D03*
X024593Y016286D03*
X024588Y016291D03*
X024583Y016296D03*
X024578Y016301D03*
X024573Y016306D03*
X024573Y016311D03*
X024568Y016316D03*
X024563Y016321D03*
X024558Y016326D03*
X024553Y016331D03*
X024548Y016336D03*
X024548Y016341D03*
X024543Y016346D03*
X024538Y016351D03*
X024533Y016356D03*
X024528Y016361D03*
X024528Y016366D03*
X024523Y016371D03*
X024518Y016376D03*
X024513Y016381D03*
X024508Y016386D03*
X024503Y016391D03*
X024503Y016396D03*
X024498Y016401D03*
X024493Y016406D03*
X024488Y016411D03*
X024483Y016416D03*
X024483Y016421D03*
X024478Y016426D03*
X024473Y016431D03*
X024468Y016436D03*
X024463Y016441D03*
X024463Y016446D03*
X024458Y016451D03*
X024453Y016456D03*
X024448Y016461D03*
X024443Y016466D03*
X024438Y016471D03*
X024438Y016476D03*
X024433Y016481D03*
X024428Y016486D03*
X024423Y016491D03*
X024418Y016496D03*
X024418Y016501D03*
X024413Y016506D03*
X024408Y016511D03*
X024403Y016516D03*
X024398Y016521D03*
X024393Y016531D03*
D66*
X024615Y016256D03*
X024660Y016201D03*
X024705Y016146D03*
X024725Y016121D03*
X024750Y016091D03*
X024770Y016066D03*
X024775Y015996D03*
X024755Y015971D03*
X024730Y015941D03*
X024710Y015916D03*
X024665Y015861D03*
X024620Y015806D03*
X023055Y015226D03*
X023050Y016836D03*
D67*
X023043Y016831D03*
X023013Y016321D03*
X023018Y016316D03*
X023023Y015746D03*
X023018Y015741D03*
X023048Y015231D03*
D68*
X023043Y015236D03*
X023038Y015241D03*
X023008Y015731D03*
X023013Y015736D03*
X023008Y016326D03*
X023003Y016331D03*
X023033Y016821D03*
X023038Y016826D03*
D69*
X023030Y016816D03*
X023035Y015246D03*
D70*
X023028Y015251D03*
X022998Y015721D03*
X023003Y015726D03*
X022998Y016336D03*
X022993Y016341D03*
X023023Y016811D03*
D71*
X022993Y016766D03*
X022988Y016761D03*
X022988Y016756D03*
X022963Y016406D03*
X022963Y016401D03*
X022968Y016396D03*
X022968Y016391D03*
X022973Y016381D03*
X022978Y015681D03*
X022973Y015671D03*
X022973Y015666D03*
X022968Y015661D03*
X022968Y015656D03*
X022993Y015306D03*
X022993Y015301D03*
X022998Y015296D03*
D72*
X022990Y015311D03*
X022985Y015316D03*
X022985Y015321D03*
X022980Y015326D03*
X022980Y015331D03*
X022975Y015341D03*
X022955Y015601D03*
X022955Y015606D03*
X022960Y015621D03*
X022960Y015626D03*
X022960Y015631D03*
X022960Y015636D03*
X022965Y015641D03*
X022965Y015646D03*
X022965Y015651D03*
X022960Y016411D03*
X022960Y016416D03*
X022960Y016421D03*
X022955Y016426D03*
X022955Y016431D03*
X022955Y016436D03*
X022955Y016441D03*
X022950Y016456D03*
X022950Y016461D03*
X022970Y016721D03*
X022975Y016731D03*
X022975Y016736D03*
X022980Y016741D03*
X022980Y016746D03*
X022985Y016751D03*
D73*
X022973Y016726D03*
X022968Y016716D03*
X022968Y016711D03*
X022963Y016701D03*
X022963Y016696D03*
X022958Y016686D03*
X022958Y016681D03*
X022958Y016676D03*
X022953Y016661D03*
X022953Y016656D03*
X022948Y016631D03*
X022948Y016626D03*
X022948Y016621D03*
X022943Y016586D03*
X022943Y016581D03*
X022943Y016576D03*
X022943Y016571D03*
X022943Y016566D03*
X022943Y016561D03*
X022943Y016556D03*
X022943Y016551D03*
X022943Y016546D03*
X022943Y016541D03*
X022943Y016536D03*
X022943Y016531D03*
X022943Y016526D03*
X022943Y016521D03*
X022943Y016516D03*
X022943Y016511D03*
X022943Y016506D03*
X022948Y016501D03*
X022948Y016496D03*
X022948Y016491D03*
X022948Y016486D03*
X022948Y016481D03*
X022948Y016476D03*
X022948Y016471D03*
X022948Y016466D03*
X022953Y016451D03*
X022953Y016446D03*
X022958Y015616D03*
X022958Y015611D03*
X022953Y015596D03*
X022953Y015591D03*
X022953Y015586D03*
X022953Y015581D03*
X022953Y015576D03*
X022953Y015571D03*
X022953Y015566D03*
X022953Y015561D03*
X022948Y015556D03*
X022948Y015551D03*
X022948Y015546D03*
X022948Y015541D03*
X022948Y015536D03*
X022948Y015531D03*
X022948Y015526D03*
X022948Y015521D03*
X022948Y015516D03*
X022948Y015511D03*
X022948Y015506D03*
X022948Y015501D03*
X022948Y015496D03*
X022948Y015491D03*
X022948Y015486D03*
X022948Y015481D03*
X022948Y015476D03*
X022953Y015441D03*
X022953Y015436D03*
X022953Y015431D03*
X022958Y015406D03*
X022958Y015401D03*
X022963Y015386D03*
X022963Y015381D03*
X022963Y015376D03*
X022968Y015366D03*
X022968Y015361D03*
X022973Y015351D03*
X022973Y015346D03*
X022978Y015336D03*
D74*
X022970Y015356D03*
X022965Y015371D03*
X022960Y015391D03*
X022960Y015396D03*
X022955Y015411D03*
X022955Y015416D03*
X022955Y015421D03*
X022955Y015426D03*
X022950Y015446D03*
X022950Y015451D03*
X022950Y015456D03*
X022950Y015461D03*
X022950Y015466D03*
X022950Y015471D03*
X022945Y016591D03*
X022945Y016596D03*
X022945Y016601D03*
X022945Y016606D03*
X022945Y016611D03*
X022945Y016616D03*
X022950Y016636D03*
X022950Y016641D03*
X022950Y016646D03*
X022950Y016651D03*
X022955Y016666D03*
X022955Y016671D03*
X022960Y016691D03*
X022965Y016706D03*
D75*
X024215Y016611D03*
X024215Y016586D03*
X024220Y015476D03*
X024220Y015451D03*
D76*
X024218Y015456D03*
X024218Y015471D03*
X024213Y016591D03*
X024213Y016606D03*
D77*
X024210Y016601D03*
X024210Y016596D03*
X024215Y015466D03*
X024215Y015461D03*
D78*
X024225Y015491D03*
X023510Y015996D03*
X023505Y016066D03*
X024220Y016571D03*
D79*
X024223Y016566D03*
X024228Y015496D03*
D80*
X024230Y015501D03*
X024225Y016561D03*
D81*
X024228Y016556D03*
X024228Y016551D03*
X024233Y015511D03*
X024233Y015506D03*
D82*
X024238Y015521D03*
X024233Y016541D03*
D83*
X024235Y016536D03*
X023490Y016071D03*
X023495Y015991D03*
X024240Y015526D03*
D84*
X024400Y015536D03*
X024395Y016526D03*
X023030Y016306D03*
X023035Y015756D03*
D85*
X023040Y015761D03*
X023035Y016301D03*
D86*
X023060Y016286D03*
X023065Y015776D03*
D87*
X023075Y015781D03*
X023070Y016281D03*
D88*
X023098Y016271D03*
X023103Y015791D03*
D89*
X023353Y015796D03*
X023353Y015801D03*
X023348Y016261D03*
X023348Y016266D03*
D90*
X023350Y016256D03*
X023355Y015806D03*
D91*
X023358Y015811D03*
X023353Y016251D03*
D92*
X023355Y016246D03*
X023355Y016241D03*
X023360Y015821D03*
X023360Y015816D03*
D93*
X023363Y015826D03*
X023358Y016236D03*
D94*
X023360Y016231D03*
X023365Y015831D03*
X023360Y016871D03*
D95*
X023398Y016156D03*
X023403Y015906D03*
D96*
X023423Y015936D03*
X023418Y016126D03*
D97*
X023425Y016116D03*
X023430Y015946D03*
D98*
X023435Y015951D03*
X023430Y016111D03*
D99*
X023435Y016106D03*
X023440Y015956D03*
D100*
X023445Y015961D03*
X023440Y016101D03*
D101*
X023460Y016086D03*
X023465Y015976D03*
D102*
X023475Y015981D03*
X023470Y016081D03*
D103*
X027745Y016511D02*
X029165Y016511D01*
X029165Y014611D02*
X027745Y014611D01*
X031337Y013797D02*
X031573Y013797D01*
X031573Y013325D02*
X031337Y013325D01*
X030191Y011179D02*
X030191Y010943D01*
X029719Y010943D02*
X029719Y011179D01*
X029191Y011179D02*
X029191Y010943D01*
X028719Y010943D02*
X028719Y011179D01*
X028073Y010297D02*
X027837Y010297D01*
X027837Y009825D02*
X028073Y009825D01*
X028073Y009297D02*
X027837Y009297D01*
X027837Y008825D02*
X028073Y008825D01*
X028219Y007679D02*
X028219Y007443D01*
X028691Y007443D02*
X028691Y007679D01*
X027691Y007679D02*
X027691Y007443D01*
X027219Y007443D02*
X027219Y007679D01*
X026691Y007679D02*
X026691Y007443D01*
X026219Y007443D02*
X026219Y007679D01*
X024473Y007297D02*
X024237Y007297D01*
X024237Y006825D02*
X024473Y006825D01*
X022591Y006579D02*
X022591Y006343D01*
X022119Y006343D02*
X022119Y006579D01*
X021691Y007043D02*
X021691Y007279D01*
X021219Y007279D02*
X021219Y007043D01*
X022437Y004329D02*
X022439Y004355D01*
X022445Y004381D01*
X022454Y004406D01*
X022467Y004429D01*
X022483Y004450D01*
X022502Y004468D01*
X022524Y004484D01*
X022547Y004496D01*
X022572Y004504D01*
X022598Y004509D01*
X022625Y004510D01*
X022651Y004507D01*
X022676Y004500D01*
X022701Y004490D01*
X022723Y004476D01*
X022744Y004459D01*
X022761Y004440D01*
X022776Y004418D01*
X022787Y004394D01*
X022795Y004368D01*
X022799Y004342D01*
X022799Y004316D01*
X022795Y004290D01*
X022787Y004264D01*
X022776Y004240D01*
X022761Y004218D01*
X022744Y004199D01*
X022723Y004182D01*
X022701Y004168D01*
X022676Y004158D01*
X022651Y004151D01*
X022625Y004148D01*
X022598Y004149D01*
X022572Y004154D01*
X022547Y004162D01*
X022524Y004174D01*
X022502Y004190D01*
X022483Y004208D01*
X022467Y004229D01*
X022454Y004252D01*
X022445Y004277D01*
X022439Y004303D01*
X022437Y004329D01*
X018173Y004225D02*
X017937Y004225D01*
X017937Y004697D02*
X018173Y004697D01*
X017473Y004925D02*
X017237Y004925D01*
X017237Y005397D02*
X017473Y005397D01*
X017637Y002897D02*
X017873Y002897D01*
X017873Y002425D02*
X017637Y002425D01*
X016873Y009025D02*
X016637Y009025D01*
X016637Y009497D02*
X016873Y009497D01*
X017443Y010422D02*
X018466Y010422D01*
X018466Y011701D02*
X017443Y011701D01*
X015691Y011179D02*
X015691Y010943D01*
X015219Y010943D02*
X015219Y011179D01*
X015737Y017625D02*
X015973Y017625D01*
X015973Y018097D02*
X015737Y018097D01*
X015737Y018525D02*
X015973Y018525D01*
X015973Y018997D02*
X015737Y018997D01*
X018119Y020443D02*
X018119Y020679D01*
X018591Y020679D02*
X018591Y020443D01*
X018091Y021943D02*
X018091Y022179D01*
X017619Y022179D02*
X017619Y021943D01*
X017619Y023543D02*
X017619Y023779D01*
X018091Y023779D02*
X018091Y023543D01*
X019437Y025025D02*
X019673Y025025D01*
X019673Y025497D02*
X019437Y025497D01*
X019437Y026125D02*
X019673Y026125D01*
X019673Y026597D02*
X019437Y026597D01*
X023219Y025879D02*
X023219Y025643D01*
X023691Y025643D02*
X023691Y025879D01*
X024119Y025879D02*
X024119Y025643D01*
X024591Y025643D02*
X024591Y025879D01*
X023391Y023079D02*
X023391Y022843D01*
X022919Y022843D02*
X022919Y023079D01*
X025319Y022879D02*
X025319Y022643D01*
X025791Y022643D02*
X025791Y022879D01*
X028537Y026525D02*
X028773Y026525D01*
X028773Y026997D02*
X028537Y026997D01*
X031937Y010897D02*
X032173Y010897D01*
X032173Y010425D02*
X031937Y010425D01*
D104*
X022938Y004609D02*
X022938Y002513D01*
X018972Y002513D01*
X018972Y004609D01*
X022938Y004609D01*
D105*
X027401Y026466D02*
X027403Y026479D01*
X027408Y026491D01*
X027417Y026502D01*
X027427Y026510D01*
X027440Y026514D01*
X027453Y026515D01*
X027466Y026512D01*
X027478Y026506D01*
X027488Y026497D01*
X027495Y026486D01*
X027499Y026473D01*
X027499Y026459D01*
X027495Y026446D01*
X027488Y026435D01*
X027478Y026426D01*
X027466Y026420D01*
X027453Y026417D01*
X027440Y026418D01*
X027427Y026422D01*
X027417Y026430D01*
X027408Y026441D01*
X027403Y026453D01*
X027401Y026466D01*
X027403Y026479D01*
X027408Y026491D01*
X027417Y026502D01*
X027427Y026510D01*
X027440Y026514D01*
X027453Y026515D01*
X027466Y026512D01*
X027478Y026506D01*
X027488Y026497D01*
X027495Y026486D01*
X027499Y026473D01*
X027499Y026459D01*
X027495Y026446D01*
X027488Y026435D01*
X027478Y026426D01*
X027466Y026420D01*
X027453Y026417D01*
X027440Y026418D01*
X027427Y026422D01*
X027417Y026430D01*
X027408Y026441D01*
X027403Y026453D01*
X027401Y026466D01*
M02*
