G75*
G70*
%OFA0B0*%
%FSLAX24Y24*%
%IPPOS*%
%LPD*%
%AMOC8*
5,1,8,0,0,1.08239X$1,22.5*
%
%ADD10R,0.0356X0.0356*%
%ADD11R,0.0395X0.0552*%
%ADD12R,0.0395X0.0297*%
%ADD13C,0.0674*%
%ADD14C,0.1346*%
%ADD15R,0.0552X0.0395*%
%ADD16R,0.0552X0.0316*%
%ADD17C,0.0635*%
%ADD18R,0.0671X0.0277*%
%ADD19R,0.0277X0.0671*%
%ADD20R,0.0217X0.0630*%
%ADD21C,0.0740*%
%ADD22C,0.1380*%
%ADD23R,0.0631X0.0710*%
%ADD24R,0.0820X0.0820*%
%ADD25OC8,0.0820*%
%ADD26R,0.0789X0.0867*%
%ADD27C,0.0820*%
%ADD28R,0.0474X0.0237*%
%ADD29R,0.0552X0.0198*%
%ADD30R,0.0950X0.0320*%
%ADD31R,0.0330X0.0580*%
%ADD32R,0.0580X0.0330*%
%ADD33R,0.0474X0.0631*%
%ADD34R,0.0552X0.0631*%
%ADD35C,0.2080*%
%ADD36R,0.0277X0.0218*%
%ADD37R,0.0277X0.0316*%
%ADD38R,0.0316X0.0277*%
D10*
X027391Y012105D03*
X027391Y012617D03*
X028119Y012361D03*
D11*
X028309Y010061D03*
X027601Y010061D03*
X027601Y009061D03*
X028309Y009061D03*
X031701Y010661D03*
X032409Y010661D03*
X031809Y013561D03*
X031101Y013561D03*
X024709Y007061D03*
X024001Y007061D03*
X018409Y004461D03*
X017701Y004461D03*
X017709Y005161D03*
X017001Y005161D03*
X017401Y002661D03*
X018109Y002661D03*
X017109Y009261D03*
X016401Y009261D03*
X016209Y017861D03*
X015501Y017861D03*
X015501Y018761D03*
X016209Y018761D03*
X019201Y025261D03*
X019909Y025261D03*
X019909Y026361D03*
X019201Y026361D03*
X028301Y026761D03*
X029009Y026761D03*
D12*
X029083Y013135D03*
X029083Y012761D03*
X029083Y012387D03*
X030027Y012387D03*
X030027Y012761D03*
X030027Y013135D03*
D13*
X029609Y020223D03*
X029609Y021049D03*
X028624Y020223D03*
X029609Y022073D03*
X029609Y022900D03*
X028624Y022900D03*
D14*
X011405Y002761D03*
X011405Y006761D03*
X011405Y009561D03*
X011405Y013561D03*
X031105Y021561D03*
D15*
X025555Y022407D03*
X025555Y023116D03*
X023155Y023316D03*
X023155Y022607D03*
X023455Y025407D03*
X023455Y026116D03*
X024355Y026116D03*
X024355Y025407D03*
X018355Y020916D03*
X017855Y021707D03*
X017855Y022416D03*
X017855Y023307D03*
X017855Y024016D03*
X018355Y020207D03*
X015455Y011416D03*
X015455Y010707D03*
X021455Y007516D03*
X021455Y006807D03*
X022355Y006816D03*
X022355Y006107D03*
X026455Y007207D03*
X026455Y007916D03*
X027455Y007916D03*
X027455Y007207D03*
X028455Y007207D03*
X028455Y007916D03*
X028955Y010707D03*
X028955Y011416D03*
X029955Y011416D03*
X029955Y010707D03*
D16*
X016857Y020211D03*
X016857Y020711D03*
X016857Y021211D03*
X016857Y021711D03*
X016857Y022211D03*
X016857Y022711D03*
X016857Y023211D03*
X016857Y023711D03*
X014653Y023711D03*
X014653Y023211D03*
X014653Y022711D03*
X014653Y022211D03*
X014653Y021711D03*
X014653Y021211D03*
X014653Y020711D03*
X014653Y020211D03*
D17*
X013682Y011561D02*
X013128Y011561D01*
X013128Y010561D02*
X013682Y010561D01*
X013682Y004761D02*
X013128Y004761D01*
X013128Y003761D02*
X013682Y003761D01*
D18*
X021672Y008986D03*
X021672Y009301D03*
X021672Y009616D03*
X021672Y009931D03*
X021672Y010246D03*
X021672Y010561D03*
X021672Y010876D03*
X021672Y011191D03*
X021672Y011506D03*
X021672Y011821D03*
X021672Y012136D03*
X026238Y012136D03*
X026238Y011821D03*
X026238Y011506D03*
X026238Y011191D03*
X026238Y010876D03*
X026238Y010561D03*
X026238Y010246D03*
X026238Y009931D03*
X026238Y009616D03*
X026238Y009301D03*
X026238Y008986D03*
D19*
X025530Y008278D03*
X025215Y008278D03*
X024900Y008278D03*
X024585Y008278D03*
X024270Y008278D03*
X023955Y008278D03*
X023640Y008278D03*
X023325Y008278D03*
X023010Y008278D03*
X022695Y008278D03*
X022380Y008278D03*
X022380Y012845D03*
X022695Y012845D03*
X023010Y012845D03*
X023325Y012845D03*
X023640Y012845D03*
X023955Y012845D03*
X024270Y012845D03*
X024585Y012845D03*
X024900Y012845D03*
X025215Y012845D03*
X025530Y012845D03*
D20*
X022618Y005001D03*
X022362Y005001D03*
X022107Y005001D03*
X021851Y005001D03*
X021595Y005001D03*
X021339Y005001D03*
X021083Y005001D03*
X020827Y005001D03*
X020571Y005001D03*
X020315Y005001D03*
X020059Y005001D03*
X019803Y005001D03*
X019548Y005001D03*
X019292Y005001D03*
X019292Y002122D03*
X019548Y002122D03*
X019803Y002122D03*
X020059Y002122D03*
X020315Y002122D03*
X020571Y002122D03*
X020827Y002122D03*
X021083Y002122D03*
X021339Y002122D03*
X021595Y002122D03*
X021851Y002122D03*
X022107Y002122D03*
X022362Y002122D03*
X022618Y002122D03*
D21*
X025963Y005061D03*
X025963Y005841D03*
X026947Y005841D03*
X026947Y005061D03*
D22*
X028825Y003991D03*
X031255Y007561D03*
X024085Y003991D03*
X015655Y002961D03*
X016855Y026461D03*
X031455Y026561D03*
D23*
X018306Y003561D03*
X017204Y003561D03*
D24*
X019955Y016561D03*
X023555Y019811D03*
X013214Y019680D03*
D25*
X019955Y015561D03*
X020955Y015561D03*
X020955Y016561D03*
X020955Y014561D03*
X019955Y014561D03*
D26*
X018955Y008215D03*
X018955Y006561D03*
X016955Y006561D03*
X016955Y008215D03*
D27*
X015405Y007561D03*
X015505Y006561D03*
X015405Y005561D03*
X020255Y008561D03*
X020155Y009561D03*
X020255Y010561D03*
X028420Y017371D03*
X026555Y019711D03*
X025555Y019811D03*
X024555Y019711D03*
X031555Y011961D03*
X013214Y020771D03*
X012096Y020227D03*
X012096Y021318D03*
X013214Y021861D03*
X012096Y022405D03*
X013214Y022952D03*
X012096Y023495D03*
X013214Y024042D03*
D28*
X017064Y011446D03*
X017064Y011190D03*
X017064Y010934D03*
X017064Y010678D03*
X018846Y010678D03*
X018846Y010934D03*
X018846Y011190D03*
X018846Y011446D03*
D29*
X030223Y009946D03*
X030223Y009690D03*
X030223Y009434D03*
X030223Y009178D03*
X031886Y009178D03*
X031886Y009434D03*
X031886Y009690D03*
X031886Y009946D03*
D30*
X029485Y014811D03*
X029485Y015311D03*
X029485Y015811D03*
X029485Y016311D03*
X027425Y016311D03*
X027425Y015811D03*
X027425Y015311D03*
X027425Y014811D03*
D31*
X026632Y013561D03*
X026278Y013561D03*
X031278Y015061D03*
X031632Y015061D03*
D32*
X031455Y016384D03*
X031455Y016738D03*
D33*
X025555Y023728D03*
X025181Y024594D03*
X025929Y024594D03*
X022229Y023494D03*
X021481Y023494D03*
X021855Y022628D03*
D34*
X030864Y005561D03*
X032046Y005561D03*
X032046Y004061D03*
X030864Y004061D03*
X030864Y002561D03*
X032046Y002561D03*
D35*
X012655Y016940D03*
X012655Y026783D03*
D36*
X021151Y025945D03*
X021151Y025689D03*
X021151Y025433D03*
X021151Y025177D03*
X021959Y025177D03*
X021959Y025433D03*
X021959Y025689D03*
X021959Y025945D03*
D37*
X026584Y026171D03*
X026584Y026761D03*
X026584Y027352D03*
X027726Y027352D03*
X027726Y026761D03*
X027726Y026171D03*
D38*
X027155Y026171D03*
M02*
