G75*
G70*
%OFA0B0*%
%FSLAX24Y24*%
%IPPOS*%
%LPD*%
%AMOC8*
5,1,8,0,0,1.08239X$1,22.5*
%
%ADD10C,0.0594*%
%ADD11C,0.1266*%
%ADD12R,0.0740X0.0740*%
%ADD13C,0.0740*%
%ADD14C,0.2000*%
%ADD15C,0.0555*%
%ADD16C,0.0660*%
%ADD17C,0.1300*%
%ADD18OC8,0.0740*%
%ADD19C,0.0100*%
%ADD20C,0.0436*%
%ADD21C,0.0200*%
%ADD22C,0.0150*%
%ADD23C,0.0160*%
D10*
X028624Y020223D03*
X029609Y020223D03*
X029609Y021049D03*
X029609Y022073D03*
X029609Y022900D03*
X028624Y022900D03*
D11*
X031105Y021561D03*
X011405Y013561D03*
X011405Y009561D03*
X011405Y006761D03*
X011405Y002761D03*
D12*
X019955Y016561D03*
X011014Y019380D03*
D13*
X009896Y019927D03*
X011014Y020471D03*
X009896Y021018D03*
X011014Y021561D03*
X009896Y022105D03*
X011014Y022652D03*
X009896Y023195D03*
X011014Y023742D03*
X017405Y023561D03*
X017505Y022561D03*
X017405Y021561D03*
X017505Y020561D03*
X017405Y019561D03*
X023455Y019061D03*
X024455Y017061D03*
X025455Y015061D03*
X026955Y018061D03*
X031555Y011961D03*
X020255Y010561D03*
X020155Y009561D03*
X020255Y008561D03*
X015405Y007561D03*
X015505Y006561D03*
X015405Y005561D03*
X017505Y024561D03*
X017405Y025561D03*
D14*
X010455Y026483D03*
X010455Y016640D03*
D15*
X013128Y011561D02*
X013682Y011561D01*
X013682Y010561D02*
X013128Y010561D01*
X013128Y004761D02*
X013682Y004761D01*
X013682Y003761D02*
X013128Y003761D01*
D16*
X025963Y005061D03*
X025963Y005841D03*
X026947Y005841D03*
X026947Y005061D03*
D17*
X028825Y003991D03*
X024085Y003991D03*
D18*
X020955Y014561D03*
X019955Y014561D03*
X019955Y015561D03*
X020955Y015561D03*
X020955Y016561D03*
D19*
X009245Y016172D02*
X009245Y001851D01*
X011190Y001851D01*
X010882Y001979D01*
X010622Y002238D01*
X010482Y002578D01*
X010482Y002945D01*
X010622Y003284D01*
X010882Y003544D01*
X011221Y003684D01*
X011589Y003684D01*
X011928Y003544D01*
X012188Y003284D01*
X012328Y002945D01*
X012328Y002578D01*
X012188Y002238D01*
X011928Y001979D01*
X011620Y001851D01*
X018146Y001851D01*
X018124Y001873D01*
X018047Y002060D01*
X018047Y002262D01*
X018124Y002449D01*
X018267Y002592D01*
X018454Y002669D01*
X018656Y002669D01*
X018843Y002592D01*
X018898Y002537D01*
X018847Y002660D01*
X018847Y002796D01*
X017782Y002796D01*
X017648Y002852D01*
X017494Y003006D01*
X017434Y003031D01*
X016872Y003592D01*
X016966Y003429D01*
X016966Y003429D01*
X017031Y003061D01*
X017031Y003061D01*
X016966Y002693D01*
X016966Y002693D01*
X016780Y002369D01*
X016780Y002369D01*
X016780Y002369D01*
X016493Y002129D01*
X016493Y002129D01*
X016142Y002001D01*
X015768Y002001D01*
X015417Y002129D01*
X015417Y002129D01*
X015130Y002369D01*
X015130Y002369D01*
X014944Y002693D01*
X014879Y003061D01*
X014944Y003429D01*
X015083Y003671D01*
X014984Y003671D01*
X014943Y003631D01*
X014756Y003553D01*
X014554Y003553D01*
X014367Y003631D01*
X014224Y003773D01*
X014147Y003960D01*
X014147Y004162D01*
X014224Y004349D01*
X014367Y004492D01*
X014554Y004569D01*
X014756Y004569D01*
X014943Y004492D01*
X014984Y004451D01*
X017033Y004451D01*
X017176Y004392D01*
X017286Y004282D01*
X017986Y003582D01*
X018009Y003526D01*
X019577Y003526D01*
X019567Y003531D01*
X019424Y003673D01*
X019347Y003860D01*
X019347Y004062D01*
X019424Y004249D01*
X019567Y004392D01*
X019682Y004439D01*
X020165Y004923D01*
X020165Y006553D01*
X020143Y006531D01*
X019956Y006453D01*
X019863Y006453D01*
X018062Y004652D01*
X017928Y004596D01*
X016709Y004596D01*
X016643Y004531D01*
X016456Y004453D01*
X016254Y004453D01*
X016067Y004531D01*
X015924Y004673D01*
X015847Y004860D01*
X015847Y005062D01*
X015852Y005075D01*
X015779Y005002D01*
X015536Y004901D01*
X015274Y004901D01*
X015031Y005002D01*
X014845Y005187D01*
X014745Y005430D01*
X014745Y005693D01*
X014845Y005935D01*
X015022Y006111D01*
X014945Y006187D01*
X014845Y006430D01*
X014845Y006693D01*
X014945Y006935D01*
X015022Y007011D01*
X014845Y007187D01*
X014745Y007430D01*
X014745Y007693D01*
X014845Y007935D01*
X015031Y008121D01*
X015274Y008221D01*
X015536Y008221D01*
X015779Y008121D01*
X015965Y007935D01*
X016065Y007693D01*
X016065Y007430D01*
X015965Y007187D01*
X015888Y007111D01*
X016065Y006935D01*
X016165Y006693D01*
X016165Y006430D01*
X016065Y006187D01*
X015888Y006011D01*
X015965Y005935D01*
X016065Y005693D01*
X016065Y005430D01*
X016037Y005361D01*
X016067Y005392D01*
X016254Y005469D01*
X016456Y005469D01*
X016643Y005392D01*
X016709Y005326D01*
X017704Y005326D01*
X019347Y006969D01*
X019347Y007062D01*
X019424Y007249D01*
X019567Y007392D01*
X019571Y007394D01*
X019524Y007440D01*
X018324Y008640D01*
X018265Y008784D01*
X018265Y012633D01*
X018224Y012673D01*
X018147Y012860D01*
X018147Y013062D01*
X018224Y013249D01*
X018367Y013392D01*
X018554Y013469D01*
X018595Y013469D01*
X018134Y013931D01*
X018024Y014040D01*
X017965Y014184D01*
X017965Y015139D01*
X018024Y015282D01*
X019295Y016553D01*
X019295Y016989D01*
X019339Y017096D01*
X019421Y017177D01*
X019527Y017221D01*
X020383Y017221D01*
X020489Y017177D01*
X020563Y017103D01*
X020682Y017221D01*
X021228Y017221D01*
X021615Y016835D01*
X021615Y016288D01*
X021388Y016061D01*
X021615Y015835D01*
X021615Y015288D01*
X021289Y014962D01*
X021475Y014777D01*
X021475Y014611D01*
X021005Y014611D01*
X021005Y014511D01*
X021005Y014041D01*
X021170Y014041D01*
X021475Y014346D01*
X021475Y014511D01*
X021005Y014511D01*
X020905Y014511D01*
X020905Y014041D01*
X020740Y014041D01*
X020554Y014227D01*
X020356Y014029D01*
X020454Y014069D01*
X020656Y014069D01*
X020843Y013992D01*
X020986Y013849D01*
X021063Y013662D01*
X021063Y013569D01*
X021156Y013569D01*
X021343Y013492D01*
X021486Y013349D01*
X021563Y013162D01*
X021563Y012960D01*
X021486Y012773D01*
X021343Y012631D01*
X021156Y012553D01*
X020954Y012553D01*
X020767Y012631D01*
X020726Y012671D01*
X019477Y012671D01*
X019334Y012731D01*
X019163Y012902D01*
X019163Y012860D01*
X019086Y012673D01*
X019045Y012633D01*
X019045Y009023D01*
X019595Y008473D01*
X019595Y008693D01*
X019695Y008935D01*
X019772Y009011D01*
X019595Y009187D01*
X019495Y009430D01*
X019495Y009693D01*
X019595Y009935D01*
X019772Y010111D01*
X019695Y010187D01*
X019595Y010430D01*
X019595Y010693D01*
X019695Y010935D01*
X019881Y011121D01*
X020124Y011221D01*
X020386Y011221D01*
X020629Y011121D01*
X020815Y010935D01*
X020915Y010693D01*
X020915Y010430D01*
X020815Y010187D01*
X020638Y010011D01*
X020715Y009935D01*
X020815Y009693D01*
X020815Y009569D01*
X020956Y009569D01*
X021143Y009492D01*
X021286Y009349D01*
X021363Y009162D01*
X021363Y009086D01*
X022047Y009769D01*
X022047Y009862D01*
X022102Y009996D01*
X022024Y010073D01*
X021947Y010260D01*
X021947Y010462D01*
X022024Y010649D01*
X022167Y010792D01*
X022354Y010869D01*
X022412Y010869D01*
X022565Y011023D01*
X022565Y013333D01*
X022524Y013373D01*
X022447Y013560D01*
X022447Y013762D01*
X022524Y013949D01*
X022586Y014011D01*
X022524Y014073D01*
X022447Y014260D01*
X022447Y014462D01*
X022524Y014649D01*
X022667Y014792D01*
X022854Y014869D01*
X023056Y014869D01*
X023243Y014792D01*
X023355Y014680D01*
X023467Y014792D01*
X023654Y014869D01*
X023856Y014869D01*
X024043Y014792D01*
X024186Y014649D01*
X024263Y014462D01*
X024263Y014405D01*
X024576Y014092D01*
X024686Y013982D01*
X024745Y013839D01*
X024745Y012569D01*
X024856Y012569D01*
X025043Y012492D01*
X025120Y012415D01*
X025176Y012392D01*
X025286Y012282D01*
X025686Y011882D01*
X025745Y011739D01*
X025745Y011590D01*
X025786Y011549D01*
X025863Y011362D01*
X025863Y011160D01*
X025786Y010973D01*
X025643Y010831D01*
X025456Y010753D01*
X025254Y010753D01*
X025067Y010831D01*
X024924Y010973D01*
X024847Y011160D01*
X024847Y011362D01*
X024922Y011543D01*
X024895Y011569D01*
X024856Y011553D01*
X024745Y011553D01*
X024745Y010390D01*
X024786Y010349D01*
X024863Y010162D01*
X024863Y009960D01*
X024851Y009931D01*
X024929Y009931D01*
X025065Y009875D01*
X025070Y009869D01*
X025256Y009869D01*
X025443Y009792D01*
X025586Y009649D01*
X025663Y009462D01*
X025663Y009260D01*
X025586Y009073D01*
X025443Y008931D01*
X025256Y008853D01*
X025054Y008853D01*
X024867Y008931D01*
X024724Y009073D01*
X024675Y009191D01*
X023981Y009191D01*
X023845Y009248D01*
X023741Y009352D01*
X023582Y009511D01*
X023534Y009531D01*
X023520Y009545D01*
X023520Y007215D01*
X023586Y007149D01*
X023663Y006962D01*
X023663Y006760D01*
X023586Y006573D01*
X023443Y006431D01*
X023256Y006353D01*
X023054Y006353D01*
X022867Y006431D01*
X022724Y006573D01*
X022647Y006760D01*
X022647Y006962D01*
X022724Y007149D01*
X022790Y007215D01*
X022790Y009309D01*
X022656Y009253D01*
X022563Y009253D01*
X021920Y008610D01*
X021920Y008469D01*
X022056Y008469D01*
X022243Y008392D01*
X022386Y008249D01*
X022463Y008062D01*
X022790Y008062D01*
X022790Y007964D02*
X022463Y007964D01*
X022463Y008062D02*
X022463Y007860D01*
X022386Y007673D01*
X022320Y007608D01*
X022320Y003889D01*
X022264Y003755D01*
X022120Y003610D01*
X022120Y003189D01*
X022064Y003055D01*
X021536Y002526D01*
X024904Y002526D01*
X024990Y002612D01*
X024990Y003720D01*
X024882Y003459D01*
X024617Y003194D01*
X024272Y003051D01*
X023898Y003051D01*
X023553Y003194D01*
X023288Y003459D01*
X023145Y003804D01*
X023145Y004178D01*
X023288Y004524D01*
X023553Y004788D01*
X023898Y004931D01*
X024272Y004931D01*
X024617Y004788D01*
X024882Y004524D01*
X024990Y004263D01*
X024990Y005306D01*
X025046Y005440D01*
X025343Y005737D01*
X025343Y005965D01*
X025437Y006192D01*
X025612Y006367D01*
X025840Y006461D01*
X026086Y006461D01*
X026314Y006367D01*
X026455Y006226D01*
X026596Y006367D01*
X026824Y006461D01*
X027070Y006461D01*
X027298Y006367D01*
X027473Y006192D01*
X027567Y005965D01*
X027567Y005718D01*
X027473Y005490D01*
X027332Y005349D01*
X027358Y005313D01*
X027392Y005246D01*
X027415Y005174D01*
X027427Y005101D01*
X026987Y005101D01*
X026987Y005021D01*
X026987Y004582D01*
X027060Y004593D01*
X027131Y004616D01*
X027199Y004651D01*
X027260Y004695D01*
X027313Y004749D01*
X027358Y004810D01*
X027392Y004877D01*
X027415Y004949D01*
X027427Y005021D01*
X026987Y005021D01*
X026907Y005021D01*
X026907Y004582D01*
X026835Y004593D01*
X026763Y004616D01*
X026696Y004651D01*
X026634Y004695D01*
X026581Y004749D01*
X026537Y004810D01*
X026533Y004817D01*
X026488Y004710D01*
X026314Y004536D01*
X026086Y004441D01*
X026020Y004441D01*
X026020Y002289D01*
X025964Y002155D01*
X025862Y002052D01*
X025661Y001851D01*
X032665Y001851D01*
X032665Y027762D01*
X030405Y027771D01*
X010630Y027771D01*
X010953Y027685D01*
X011247Y027515D01*
X011487Y027275D01*
X011657Y026980D01*
X011745Y026652D01*
X011745Y026313D01*
X011657Y025985D01*
X011487Y025690D01*
X011247Y025450D01*
X010953Y025280D01*
X010625Y025193D01*
X010285Y025193D01*
X009957Y025280D01*
X009663Y025450D01*
X009423Y025690D01*
X009253Y025985D01*
X009245Y026014D01*
X009245Y023348D01*
X009336Y023569D01*
X009522Y023755D01*
X009765Y023855D01*
X010027Y023855D01*
X010270Y023755D01*
X010455Y023569D01*
X010556Y023326D01*
X010556Y023127D01*
X010640Y023211D01*
X010789Y023273D01*
X010742Y023298D01*
X010675Y023346D01*
X010617Y023404D01*
X010569Y023470D01*
X010532Y023543D01*
X010507Y023621D01*
X010495Y023692D01*
X010964Y023692D01*
X010964Y023792D01*
X010495Y023792D01*
X010507Y023864D01*
X010532Y023942D01*
X010569Y024015D01*
X010617Y024081D01*
X010675Y024139D01*
X010742Y024187D01*
X010814Y024224D01*
X010892Y024250D01*
X010964Y024261D01*
X010964Y023792D01*
X011064Y023792D01*
X011533Y023792D01*
X011521Y023864D01*
X011496Y023942D01*
X011459Y024015D01*
X011411Y024081D01*
X011353Y024139D01*
X011287Y024187D01*
X011214Y024224D01*
X011136Y024250D01*
X011064Y024261D01*
X011064Y023792D01*
X011064Y023692D01*
X011533Y023692D01*
X011521Y023621D01*
X011496Y023543D01*
X011459Y023470D01*
X011411Y023404D01*
X011353Y023346D01*
X011287Y023298D01*
X011239Y023273D01*
X011388Y023211D01*
X011574Y023026D01*
X011674Y022783D01*
X011674Y022521D01*
X011574Y022278D01*
X011402Y022107D01*
X011574Y021935D01*
X011674Y021693D01*
X011674Y021430D01*
X011574Y021187D01*
X011402Y021016D01*
X011574Y020845D01*
X011674Y020602D01*
X011674Y020339D01*
X011644Y020266D01*
X012589Y021211D01*
X012446Y021355D01*
X012390Y021489D01*
X012390Y022234D01*
X012446Y022368D01*
X012646Y022568D01*
X012646Y022568D01*
X012723Y022645D01*
X012724Y022649D01*
X012867Y022792D01*
X013054Y022869D01*
X013256Y022869D01*
X013443Y022792D01*
X013586Y022649D01*
X013663Y022462D01*
X013663Y022260D01*
X013608Y022127D01*
X013686Y022049D01*
X013763Y021862D01*
X013763Y021660D01*
X013686Y021473D01*
X013620Y021408D01*
X013620Y020889D01*
X013564Y020755D01*
X013462Y020652D01*
X012320Y019510D01*
X012320Y018315D01*
X012386Y018249D01*
X012463Y018062D01*
X012463Y017860D01*
X012386Y017673D01*
X012243Y017531D01*
X012236Y017528D01*
X012263Y017462D01*
X012263Y017260D01*
X012186Y017073D01*
X012043Y016931D01*
X011856Y016853D01*
X011733Y016853D01*
X011745Y016810D01*
X011745Y016470D01*
X011657Y016142D01*
X011487Y015848D01*
X011247Y015608D01*
X010953Y015438D01*
X010625Y015350D01*
X010285Y015350D01*
X009957Y015438D01*
X009663Y015608D01*
X009423Y015848D01*
X009253Y016142D01*
X009245Y016172D01*
X009245Y016139D02*
X009255Y016139D01*
X009245Y016041D02*
X009311Y016041D01*
X009368Y015942D02*
X009245Y015942D01*
X009245Y015844D02*
X009427Y015844D01*
X009525Y015745D02*
X009245Y015745D01*
X009245Y015647D02*
X009624Y015647D01*
X009766Y015548D02*
X009245Y015548D01*
X009245Y015450D02*
X009936Y015450D01*
X010280Y015351D02*
X009245Y015351D01*
X009245Y015253D02*
X018012Y015253D01*
X017971Y015154D02*
X009245Y015154D01*
X009245Y015056D02*
X017965Y015056D01*
X017965Y014957D02*
X009245Y014957D01*
X009245Y014859D02*
X017965Y014859D01*
X017965Y014760D02*
X009245Y014760D01*
X009245Y014662D02*
X017965Y014662D01*
X017965Y014563D02*
X009245Y014563D01*
X009245Y014465D02*
X011174Y014465D01*
X011221Y014484D02*
X010882Y014344D01*
X010622Y014084D01*
X010482Y013745D01*
X010482Y013378D01*
X010622Y013038D01*
X010882Y012779D01*
X011221Y012638D01*
X011589Y012638D01*
X011928Y012779D01*
X012188Y013038D01*
X012328Y013378D01*
X012328Y013745D01*
X012188Y014084D01*
X011928Y014344D01*
X011589Y014484D01*
X011221Y014484D01*
X010936Y014366D02*
X009245Y014366D01*
X009245Y014268D02*
X010806Y014268D01*
X010708Y014169D02*
X009245Y014169D01*
X009245Y014071D02*
X010617Y014071D01*
X010576Y013972D02*
X009245Y013972D01*
X009245Y013874D02*
X010535Y013874D01*
X010495Y013775D02*
X009245Y013775D01*
X009245Y013677D02*
X010482Y013677D01*
X010482Y013578D02*
X009245Y013578D01*
X009245Y013480D02*
X010482Y013480D01*
X010482Y013381D02*
X009245Y013381D01*
X009245Y013283D02*
X010521Y013283D01*
X010562Y013184D02*
X009245Y013184D01*
X009245Y013086D02*
X010603Y013086D01*
X010674Y012987D02*
X009245Y012987D01*
X009245Y012889D02*
X010772Y012889D01*
X010871Y012790D02*
X009245Y012790D01*
X009245Y012692D02*
X011092Y012692D01*
X011718Y012692D02*
X018217Y012692D01*
X018176Y012790D02*
X011939Y012790D01*
X012038Y012889D02*
X018147Y012889D01*
X018147Y012987D02*
X012136Y012987D01*
X012207Y013086D02*
X018157Y013086D01*
X018197Y013184D02*
X012248Y013184D01*
X012289Y013283D02*
X018258Y013283D01*
X018356Y013381D02*
X012328Y013381D01*
X012328Y013480D02*
X018585Y013480D01*
X018486Y013578D02*
X012328Y013578D01*
X012328Y013677D02*
X018388Y013677D01*
X018289Y013775D02*
X012315Y013775D01*
X012275Y013874D02*
X018191Y013874D01*
X018092Y013972D02*
X012234Y013972D01*
X012193Y014071D02*
X018012Y014071D01*
X017971Y014169D02*
X012102Y014169D01*
X012004Y014268D02*
X017965Y014268D01*
X017965Y014366D02*
X011874Y014366D01*
X011636Y014465D02*
X017965Y014465D01*
X018093Y015351D02*
X010630Y015351D01*
X010974Y015450D02*
X018192Y015450D01*
X018290Y015548D02*
X011144Y015548D01*
X011286Y015647D02*
X018389Y015647D01*
X018487Y015745D02*
X011385Y015745D01*
X011483Y015844D02*
X018586Y015844D01*
X018684Y015942D02*
X011542Y015942D01*
X011599Y016041D02*
X018783Y016041D01*
X018881Y016139D02*
X011655Y016139D01*
X011683Y016238D02*
X018980Y016238D01*
X019078Y016336D02*
X011709Y016336D01*
X011736Y016435D02*
X019177Y016435D01*
X019275Y016533D02*
X011745Y016533D01*
X011745Y016632D02*
X019295Y016632D01*
X019295Y016730D02*
X011745Y016730D01*
X011740Y016829D02*
X019295Y016829D01*
X019295Y016927D02*
X012035Y016927D01*
X012138Y017026D02*
X019310Y017026D01*
X019368Y017124D02*
X012207Y017124D01*
X012248Y017223D02*
X023808Y017223D01*
X023795Y017193D02*
X023795Y016930D01*
X023895Y016687D01*
X024081Y016502D01*
X024324Y016401D01*
X024586Y016401D01*
X024829Y016502D01*
X025015Y016687D01*
X025115Y016930D01*
X025115Y017193D01*
X025015Y017435D01*
X024829Y017621D01*
X024586Y017721D01*
X024324Y017721D01*
X024081Y017621D01*
X023895Y017435D01*
X023795Y017193D01*
X023795Y017124D02*
X021325Y017124D01*
X021424Y017026D02*
X023795Y017026D01*
X023796Y016927D02*
X021522Y016927D01*
X021615Y016829D02*
X023837Y016829D01*
X023878Y016730D02*
X021615Y016730D01*
X021615Y016632D02*
X023951Y016632D01*
X024050Y016533D02*
X021615Y016533D01*
X021615Y016435D02*
X024243Y016435D01*
X024667Y016435D02*
X028790Y016435D01*
X028790Y016533D02*
X024860Y016533D01*
X024959Y016632D02*
X028790Y016632D01*
X028790Y016730D02*
X025032Y016730D01*
X025073Y016829D02*
X028790Y016829D01*
X028790Y016927D02*
X025114Y016927D01*
X025115Y017026D02*
X028790Y017026D01*
X028790Y017124D02*
X025115Y017124D01*
X025102Y017223D02*
X028790Y017223D01*
X028790Y017321D02*
X025062Y017321D01*
X025021Y017420D02*
X026779Y017420D01*
X026824Y017401D02*
X027086Y017401D01*
X027329Y017502D01*
X027515Y017687D01*
X027615Y017930D01*
X027615Y018193D01*
X027515Y018435D01*
X027329Y018621D01*
X027086Y018721D01*
X026824Y018721D01*
X026581Y018621D01*
X026395Y018435D01*
X026295Y018193D01*
X026295Y017930D01*
X026395Y017687D01*
X026581Y017502D01*
X026824Y017401D01*
X026565Y017518D02*
X024931Y017518D01*
X024833Y017617D02*
X026466Y017617D01*
X026384Y017715D02*
X024601Y017715D01*
X024309Y017715D02*
X012403Y017715D01*
X012444Y017814D02*
X026343Y017814D01*
X026302Y017912D02*
X012463Y017912D01*
X012463Y018011D02*
X026295Y018011D01*
X026295Y018109D02*
X020392Y018109D01*
X020443Y018131D02*
X020586Y018273D01*
X020663Y018460D01*
X020663Y018518D01*
X020998Y018853D01*
X021156Y018853D01*
X021343Y018931D01*
X021486Y019073D01*
X021563Y019260D01*
X021563Y019462D01*
X021486Y019649D01*
X021343Y019792D01*
X021156Y019869D01*
X020954Y019869D01*
X020767Y019792D01*
X020624Y019649D01*
X020577Y019535D01*
X020112Y019069D01*
X020054Y019069D01*
X019867Y018992D01*
X019724Y018849D01*
X019647Y018662D01*
X019647Y018460D01*
X019724Y018273D01*
X019867Y018131D01*
X020054Y018053D01*
X020256Y018053D01*
X020443Y018131D01*
X020520Y018208D02*
X026301Y018208D01*
X026342Y018306D02*
X020599Y018306D01*
X020640Y018405D02*
X023315Y018405D01*
X023324Y018401D02*
X023586Y018401D01*
X023829Y018502D01*
X024015Y018687D01*
X024115Y018930D01*
X024115Y019193D01*
X028790Y019193D01*
X028790Y019291D02*
X024074Y019291D01*
X024115Y019193D02*
X024015Y019435D01*
X023829Y019621D01*
X023586Y019721D01*
X023324Y019721D01*
X023081Y019621D01*
X022895Y019435D01*
X022795Y019193D01*
X021535Y019193D01*
X021563Y019291D02*
X022836Y019291D01*
X022795Y019193D02*
X022795Y018930D01*
X022895Y018687D01*
X023081Y018502D01*
X023324Y018401D01*
X023080Y018503D02*
X020663Y018503D01*
X020747Y018602D02*
X022981Y018602D01*
X022890Y018700D02*
X020846Y018700D01*
X020944Y018799D02*
X022849Y018799D01*
X022809Y018897D02*
X021263Y018897D01*
X021408Y018996D02*
X022795Y018996D01*
X022795Y019094D02*
X021494Y019094D01*
X021563Y019390D02*
X022877Y019390D01*
X022949Y019488D02*
X021552Y019488D01*
X021512Y019587D02*
X023047Y019587D01*
X023237Y019685D02*
X021450Y019685D01*
X021351Y019784D02*
X028537Y019784D01*
X028520Y019787D02*
X028586Y019776D01*
X028586Y020184D01*
X028663Y020184D01*
X028663Y019776D01*
X028729Y019787D01*
X028790Y019806D01*
X028790Y010569D01*
X028754Y010569D01*
X028567Y010492D01*
X028424Y010349D01*
X028347Y010162D01*
X028347Y009960D01*
X028424Y009773D01*
X028567Y009631D01*
X028754Y009553D01*
X028956Y009553D01*
X029143Y009631D01*
X029286Y009773D01*
X029363Y009960D01*
X029363Y010053D01*
X029464Y010155D01*
X029520Y010289D01*
X029520Y013409D01*
X029654Y013353D01*
X029856Y013353D01*
X030043Y013431D01*
X030186Y013573D01*
X030263Y013760D01*
X030263Y013962D01*
X030186Y014149D01*
X030120Y014215D01*
X030120Y019210D01*
X030462Y019552D01*
X030564Y019655D01*
X030620Y019789D01*
X030620Y020476D01*
X030564Y020610D01*
X030196Y020978D01*
X030196Y021166D01*
X030106Y021382D01*
X029941Y021547D01*
X029907Y021561D01*
X029941Y021575D01*
X030106Y021740D01*
X030196Y021956D01*
X030196Y022190D01*
X030106Y022406D01*
X030026Y022486D01*
X030106Y022567D01*
X030196Y022783D01*
X030196Y023017D01*
X030106Y023232D01*
X029941Y023398D01*
X029725Y023487D01*
X029492Y023487D01*
X029276Y023398D01*
X029111Y023232D01*
X029041Y023064D01*
X029039Y023071D01*
X029007Y023134D01*
X028965Y023191D01*
X028916Y023241D01*
X028859Y023282D01*
X028796Y023314D01*
X028729Y023336D01*
X028663Y023346D01*
X028663Y022938D01*
X028586Y022938D01*
X028586Y022861D01*
X028663Y022861D01*
X028663Y022485D01*
X028646Y022468D01*
X028590Y022334D01*
X028590Y020589D01*
X028646Y020455D01*
X028663Y020437D01*
X028663Y020261D01*
X028586Y020261D01*
X028586Y020184D01*
X028178Y020184D01*
X028188Y020118D01*
X028210Y020051D01*
X028242Y019988D01*
X028283Y019931D01*
X028333Y019882D01*
X028390Y019840D01*
X028453Y019808D01*
X028520Y019787D01*
X028586Y019784D02*
X028663Y019784D01*
X028712Y019784D02*
X028790Y019784D01*
X028790Y019685D02*
X023673Y019685D01*
X023863Y019587D02*
X028790Y019587D01*
X028790Y019488D02*
X023961Y019488D01*
X024033Y019390D02*
X028790Y019390D01*
X028790Y019094D02*
X024115Y019094D01*
X024115Y018996D02*
X028790Y018996D01*
X028790Y018897D02*
X024101Y018897D01*
X024061Y018799D02*
X028790Y018799D01*
X028790Y018700D02*
X027137Y018700D01*
X027348Y018602D02*
X028790Y018602D01*
X028790Y018503D02*
X027446Y018503D01*
X027527Y018405D02*
X028790Y018405D01*
X028790Y018306D02*
X027568Y018306D01*
X027609Y018208D02*
X028790Y018208D01*
X028790Y018109D02*
X027615Y018109D01*
X027615Y018011D02*
X028790Y018011D01*
X028790Y017912D02*
X027608Y017912D01*
X027567Y017814D02*
X028790Y017814D01*
X028790Y017715D02*
X027526Y017715D01*
X027444Y017617D02*
X028790Y017617D01*
X028790Y017518D02*
X027345Y017518D01*
X027131Y017420D02*
X028790Y017420D01*
X028790Y016336D02*
X021615Y016336D01*
X021565Y016238D02*
X028790Y016238D01*
X028790Y016139D02*
X021466Y016139D01*
X021409Y016041D02*
X028790Y016041D01*
X028790Y015942D02*
X021507Y015942D01*
X021606Y015844D02*
X028790Y015844D01*
X028790Y015745D02*
X021615Y015745D01*
X021615Y015647D02*
X025144Y015647D01*
X025081Y015621D02*
X024895Y015435D01*
X024795Y015193D01*
X024795Y014930D01*
X024895Y014687D01*
X025081Y014502D01*
X025324Y014401D01*
X025586Y014401D01*
X025829Y014502D01*
X026015Y014687D01*
X026115Y014930D01*
X026115Y015193D01*
X026015Y015435D01*
X025829Y015621D01*
X025586Y015721D01*
X025324Y015721D01*
X025081Y015621D01*
X025009Y015548D02*
X021615Y015548D01*
X021615Y015450D02*
X024910Y015450D01*
X024861Y015351D02*
X021615Y015351D01*
X021580Y015253D02*
X024820Y015253D01*
X024795Y015154D02*
X021481Y015154D01*
X021383Y015056D02*
X024795Y015056D01*
X024795Y014957D02*
X021294Y014957D01*
X021393Y014859D02*
X022828Y014859D01*
X022635Y014760D02*
X021475Y014760D01*
X021475Y014662D02*
X022537Y014662D01*
X022489Y014563D02*
X021005Y014563D01*
X021005Y014465D02*
X020905Y014465D01*
X020905Y014366D02*
X021005Y014366D01*
X021005Y014268D02*
X020905Y014268D01*
X020905Y014169D02*
X021005Y014169D01*
X021005Y014071D02*
X020905Y014071D01*
X020863Y013972D02*
X022547Y013972D01*
X022527Y014071D02*
X021200Y014071D01*
X021298Y014169D02*
X022485Y014169D01*
X022447Y014268D02*
X021397Y014268D01*
X021475Y014366D02*
X022447Y014366D01*
X022448Y014465D02*
X021475Y014465D01*
X020961Y013874D02*
X022493Y013874D01*
X022452Y013775D02*
X021016Y013775D01*
X021057Y013677D02*
X022447Y013677D01*
X022447Y013578D02*
X021063Y013578D01*
X021355Y013480D02*
X022480Y013480D01*
X022521Y013381D02*
X021454Y013381D01*
X021513Y013283D02*
X022565Y013283D01*
X022565Y013184D02*
X021554Y013184D01*
X021563Y013086D02*
X022565Y013086D01*
X022565Y012987D02*
X021563Y012987D01*
X021534Y012889D02*
X022565Y012889D01*
X022565Y012790D02*
X021493Y012790D01*
X021404Y012692D02*
X022565Y012692D01*
X022565Y012593D02*
X021253Y012593D01*
X020857Y012593D02*
X019045Y012593D01*
X019045Y012495D02*
X022565Y012495D01*
X022565Y012396D02*
X019045Y012396D01*
X019045Y012298D02*
X022565Y012298D01*
X022565Y012199D02*
X019045Y012199D01*
X019045Y012101D02*
X022565Y012101D01*
X022565Y012002D02*
X019045Y012002D01*
X019045Y011904D02*
X022565Y011904D01*
X022565Y011805D02*
X019045Y011805D01*
X019045Y011707D02*
X022565Y011707D01*
X022565Y011608D02*
X019045Y011608D01*
X019045Y011510D02*
X022565Y011510D01*
X022565Y011411D02*
X019045Y011411D01*
X019045Y011313D02*
X022565Y011313D01*
X022565Y011214D02*
X020403Y011214D01*
X020634Y011116D02*
X022565Y011116D01*
X022559Y011017D02*
X020732Y011017D01*
X020821Y010919D02*
X022461Y010919D01*
X022235Y010820D02*
X020862Y010820D01*
X020903Y010722D02*
X022097Y010722D01*
X022014Y010623D02*
X020915Y010623D01*
X020915Y010525D02*
X021973Y010525D01*
X021947Y010426D02*
X020913Y010426D01*
X020873Y010328D02*
X021947Y010328D01*
X021960Y010229D02*
X020832Y010229D01*
X020758Y010131D02*
X022000Y010131D01*
X022065Y010032D02*
X020659Y010032D01*
X020715Y009934D02*
X022076Y009934D01*
X022047Y009835D02*
X020756Y009835D01*
X020797Y009737D02*
X022014Y009737D01*
X021916Y009638D02*
X020815Y009638D01*
X021028Y009540D02*
X021817Y009540D01*
X021719Y009441D02*
X021194Y009441D01*
X021288Y009343D02*
X021620Y009343D01*
X021522Y009244D02*
X021329Y009244D01*
X021363Y009146D02*
X021423Y009146D01*
X021963Y008653D02*
X022790Y008653D01*
X022790Y008555D02*
X021920Y008555D01*
X022088Y008456D02*
X022790Y008456D01*
X022790Y008358D02*
X022277Y008358D01*
X022376Y008259D02*
X022790Y008259D01*
X022790Y008161D02*
X022422Y008161D01*
X022463Y007865D02*
X022790Y007865D01*
X022790Y007767D02*
X022424Y007767D01*
X022381Y007668D02*
X022790Y007668D01*
X022790Y007570D02*
X022320Y007570D01*
X022320Y007471D02*
X022790Y007471D01*
X022790Y007373D02*
X022320Y007373D01*
X022320Y007274D02*
X022790Y007274D01*
X022751Y007176D02*
X022320Y007176D01*
X022320Y007077D02*
X022695Y007077D01*
X022654Y006979D02*
X022320Y006979D01*
X022320Y006880D02*
X022647Y006880D01*
X022647Y006782D02*
X022320Y006782D01*
X022320Y006683D02*
X022679Y006683D01*
X022720Y006585D02*
X022320Y006585D01*
X022320Y006486D02*
X022811Y006486D01*
X022970Y006388D02*
X022320Y006388D01*
X022320Y006289D02*
X025534Y006289D01*
X025437Y006191D02*
X022320Y006191D01*
X022320Y006092D02*
X025396Y006092D01*
X025355Y005994D02*
X022320Y005994D01*
X022320Y005895D02*
X025343Y005895D01*
X025343Y005797D02*
X022320Y005797D01*
X022320Y005698D02*
X025304Y005698D01*
X025205Y005600D02*
X022320Y005600D01*
X022320Y005501D02*
X025107Y005501D01*
X025030Y005403D02*
X022320Y005403D01*
X022320Y005304D02*
X024990Y005304D01*
X024990Y005206D02*
X022320Y005206D01*
X022320Y005107D02*
X024990Y005107D01*
X024990Y005009D02*
X022320Y005009D01*
X022320Y004910D02*
X023847Y004910D01*
X023610Y004812D02*
X022320Y004812D01*
X022320Y004713D02*
X023478Y004713D01*
X023379Y004615D02*
X022320Y004615D01*
X022320Y004516D02*
X023285Y004516D01*
X023244Y004418D02*
X022320Y004418D01*
X022320Y004319D02*
X023203Y004319D01*
X023163Y004221D02*
X022320Y004221D01*
X022320Y004122D02*
X023145Y004122D01*
X023145Y004024D02*
X022320Y004024D01*
X022320Y003925D02*
X023145Y003925D01*
X023145Y003827D02*
X022294Y003827D01*
X022238Y003728D02*
X023176Y003728D01*
X023217Y003630D02*
X022140Y003630D01*
X022120Y003531D02*
X023258Y003531D01*
X023314Y003433D02*
X022120Y003433D01*
X022120Y003334D02*
X023413Y003334D01*
X023511Y003236D02*
X022120Y003236D01*
X022099Y003137D02*
X023690Y003137D01*
X024480Y003137D02*
X024990Y003137D01*
X024990Y003039D02*
X022049Y003039D01*
X021950Y002940D02*
X024990Y002940D01*
X024990Y002842D02*
X021852Y002842D01*
X021753Y002743D02*
X024990Y002743D01*
X024990Y002645D02*
X021655Y002645D01*
X021556Y002546D02*
X024924Y002546D01*
X024990Y003236D02*
X024659Y003236D01*
X024757Y003334D02*
X024990Y003334D01*
X024990Y003433D02*
X024856Y003433D01*
X024912Y003531D02*
X024990Y003531D01*
X024990Y003630D02*
X024953Y003630D01*
X024967Y004319D02*
X024990Y004319D01*
X024990Y004418D02*
X024926Y004418D01*
X024885Y004516D02*
X024990Y004516D01*
X024990Y004615D02*
X024791Y004615D01*
X024692Y004713D02*
X024990Y004713D01*
X024990Y004812D02*
X024560Y004812D01*
X024323Y004910D02*
X024990Y004910D01*
X026020Y004418D02*
X027984Y004418D01*
X028025Y004516D02*
X026267Y004516D01*
X026393Y004615D02*
X026768Y004615D01*
X026907Y004615D02*
X026987Y004615D01*
X026987Y004713D02*
X026907Y004713D01*
X026907Y004812D02*
X026987Y004812D01*
X026987Y004910D02*
X026907Y004910D01*
X026907Y005009D02*
X026987Y005009D01*
X027278Y004713D02*
X028218Y004713D01*
X028293Y004788D02*
X028028Y004524D01*
X027885Y004178D01*
X027885Y003804D01*
X028028Y003459D01*
X028293Y003194D01*
X028638Y003051D01*
X029012Y003051D01*
X029357Y003194D01*
X029622Y003459D01*
X029765Y003804D01*
X029765Y004178D01*
X029622Y004524D01*
X029357Y004788D01*
X029012Y004931D01*
X028638Y004931D01*
X028293Y004788D01*
X028350Y004812D02*
X027359Y004812D01*
X027403Y004910D02*
X028587Y004910D01*
X028119Y004615D02*
X027126Y004615D01*
X027425Y005009D02*
X032665Y005009D01*
X032665Y005107D02*
X027426Y005107D01*
X027405Y005206D02*
X032665Y005206D01*
X032665Y005304D02*
X027362Y005304D01*
X027385Y005403D02*
X032665Y005403D01*
X032665Y005501D02*
X027477Y005501D01*
X027518Y005600D02*
X032665Y005600D01*
X032665Y005698D02*
X027559Y005698D01*
X027567Y005797D02*
X032665Y005797D01*
X032665Y005895D02*
X027567Y005895D01*
X027555Y005994D02*
X032665Y005994D01*
X032665Y006092D02*
X027514Y006092D01*
X027473Y006191D02*
X032665Y006191D01*
X032665Y006289D02*
X027376Y006289D01*
X027248Y006388D02*
X032665Y006388D01*
X032665Y006486D02*
X023499Y006486D01*
X023590Y006585D02*
X030839Y006585D01*
X030717Y006629D02*
X031068Y006501D01*
X031189Y006501D01*
X031442Y006501D01*
X031793Y006629D01*
X031793Y006629D01*
X032080Y006869D01*
X032080Y006869D01*
X032080Y006869D01*
X032266Y007193D01*
X032331Y007561D01*
X032266Y007929D01*
X032080Y008253D01*
X031793Y008493D01*
X031442Y008621D01*
X031068Y008621D01*
X030717Y008493D01*
X030430Y008253D01*
X030244Y007929D01*
X030179Y007561D01*
X030244Y007193D01*
X030430Y006869D01*
X030717Y006629D01*
X030717Y006629D01*
X030652Y006683D02*
X023631Y006683D01*
X023663Y006782D02*
X030535Y006782D01*
X030430Y006869D02*
X030430Y006869D01*
X030424Y006880D02*
X023663Y006880D01*
X023656Y006979D02*
X030367Y006979D01*
X030310Y007077D02*
X023615Y007077D01*
X023559Y007176D02*
X030254Y007176D01*
X030244Y007193D02*
X030244Y007193D01*
X030229Y007274D02*
X023520Y007274D01*
X023520Y007373D02*
X030212Y007373D01*
X030195Y007471D02*
X023520Y007471D01*
X023520Y007570D02*
X030180Y007570D01*
X030179Y007561D02*
X030179Y007561D01*
X030198Y007668D02*
X023520Y007668D01*
X023520Y007767D02*
X030215Y007767D01*
X030232Y007865D02*
X023520Y007865D01*
X023520Y007964D02*
X030263Y007964D01*
X030244Y007929D02*
X030244Y007929D01*
X030320Y008062D02*
X023520Y008062D01*
X023520Y008161D02*
X030377Y008161D01*
X030430Y008253D02*
X030430Y008253D01*
X030430Y008253D01*
X030438Y008259D02*
X023520Y008259D01*
X023520Y008358D02*
X030555Y008358D01*
X030673Y008456D02*
X023520Y008456D01*
X023520Y008555D02*
X030885Y008555D01*
X030717Y008493D02*
X030717Y008493D01*
X031625Y008555D02*
X032665Y008555D01*
X032665Y008653D02*
X023520Y008653D01*
X023520Y008752D02*
X032665Y008752D01*
X032665Y008850D02*
X023520Y008850D01*
X023520Y008949D02*
X024849Y008949D01*
X024750Y009047D02*
X023520Y009047D01*
X023520Y009146D02*
X024694Y009146D01*
X025461Y008949D02*
X032665Y008949D01*
X032665Y009047D02*
X025560Y009047D01*
X025616Y009146D02*
X032665Y009146D01*
X032665Y009244D02*
X025657Y009244D01*
X025663Y009343D02*
X032665Y009343D01*
X032665Y009441D02*
X025663Y009441D01*
X025631Y009540D02*
X032665Y009540D01*
X032665Y009638D02*
X029151Y009638D01*
X029249Y009737D02*
X032665Y009737D01*
X032665Y009835D02*
X029311Y009835D01*
X029352Y009934D02*
X032665Y009934D01*
X032665Y010032D02*
X029363Y010032D01*
X029441Y010131D02*
X032665Y010131D01*
X032665Y010229D02*
X029495Y010229D01*
X029520Y010328D02*
X032665Y010328D01*
X032665Y010426D02*
X029520Y010426D01*
X029520Y010525D02*
X032665Y010525D01*
X032665Y010623D02*
X029520Y010623D01*
X029520Y010722D02*
X032665Y010722D01*
X032665Y010820D02*
X029520Y010820D01*
X029520Y010919D02*
X032665Y010919D01*
X032665Y011017D02*
X029520Y011017D01*
X029520Y011116D02*
X032665Y011116D01*
X032665Y011214D02*
X029520Y011214D01*
X029520Y011313D02*
X031396Y011313D01*
X031424Y011301D02*
X031686Y011301D01*
X031929Y011402D01*
X032115Y011587D01*
X032215Y011830D01*
X032215Y012093D01*
X032115Y012335D01*
X031929Y012521D01*
X031686Y012621D01*
X031424Y012621D01*
X031181Y012521D01*
X030995Y012335D01*
X030895Y012093D01*
X030895Y011830D01*
X030995Y011587D01*
X031181Y011402D01*
X031424Y011301D01*
X031172Y011411D02*
X029520Y011411D01*
X029520Y011510D02*
X031073Y011510D01*
X030987Y011608D02*
X029520Y011608D01*
X029520Y011707D02*
X030946Y011707D01*
X030905Y011805D02*
X029520Y011805D01*
X029520Y011904D02*
X030895Y011904D01*
X030895Y012002D02*
X029520Y012002D01*
X029520Y012101D02*
X030898Y012101D01*
X030939Y012199D02*
X029520Y012199D01*
X029520Y012298D02*
X030980Y012298D01*
X031057Y012396D02*
X029520Y012396D01*
X029520Y012495D02*
X031155Y012495D01*
X031356Y012593D02*
X029520Y012593D01*
X029520Y012692D02*
X032665Y012692D01*
X032665Y012790D02*
X029520Y012790D01*
X029520Y012889D02*
X032665Y012889D01*
X032665Y012987D02*
X029520Y012987D01*
X029520Y013086D02*
X032665Y013086D01*
X032665Y013184D02*
X029520Y013184D01*
X029520Y013283D02*
X032665Y013283D01*
X032665Y013381D02*
X029924Y013381D01*
X030092Y013480D02*
X032665Y013480D01*
X032665Y013578D02*
X030188Y013578D01*
X030229Y013677D02*
X032665Y013677D01*
X032665Y013775D02*
X030263Y013775D01*
X030263Y013874D02*
X032665Y013874D01*
X032665Y013972D02*
X030259Y013972D01*
X030218Y014071D02*
X032665Y014071D01*
X032665Y014169D02*
X030166Y014169D01*
X030120Y014268D02*
X032665Y014268D01*
X032665Y014366D02*
X030120Y014366D01*
X030120Y014465D02*
X032665Y014465D01*
X032665Y014563D02*
X030120Y014563D01*
X030120Y014662D02*
X032665Y014662D01*
X032665Y014760D02*
X030120Y014760D01*
X030120Y014859D02*
X032665Y014859D01*
X032665Y014957D02*
X030120Y014957D01*
X030120Y015056D02*
X032665Y015056D01*
X032665Y015154D02*
X030120Y015154D01*
X030120Y015253D02*
X032665Y015253D01*
X032665Y015351D02*
X030120Y015351D01*
X030120Y015450D02*
X032665Y015450D01*
X032665Y015548D02*
X030120Y015548D01*
X030120Y015647D02*
X032665Y015647D01*
X032665Y015745D02*
X030120Y015745D01*
X030120Y015844D02*
X032665Y015844D01*
X032665Y015942D02*
X030120Y015942D01*
X030120Y016041D02*
X032665Y016041D01*
X032665Y016139D02*
X030120Y016139D01*
X030120Y016238D02*
X032665Y016238D01*
X032665Y016336D02*
X030120Y016336D01*
X030120Y016435D02*
X032665Y016435D01*
X032665Y016533D02*
X030120Y016533D01*
X030120Y016632D02*
X032665Y016632D01*
X032665Y016730D02*
X030120Y016730D01*
X030120Y016829D02*
X032665Y016829D01*
X032665Y016927D02*
X030120Y016927D01*
X030120Y017026D02*
X032665Y017026D01*
X032665Y017124D02*
X030120Y017124D01*
X030120Y017223D02*
X032665Y017223D01*
X032665Y017321D02*
X030120Y017321D01*
X030120Y017420D02*
X032665Y017420D01*
X032665Y017518D02*
X030120Y017518D01*
X030120Y017617D02*
X032665Y017617D01*
X032665Y017715D02*
X030120Y017715D01*
X030120Y017814D02*
X032665Y017814D01*
X032665Y017912D02*
X030120Y017912D01*
X030120Y018011D02*
X032665Y018011D01*
X032665Y018109D02*
X030120Y018109D01*
X030120Y018208D02*
X032665Y018208D01*
X032665Y018306D02*
X030120Y018306D01*
X030120Y018405D02*
X032665Y018405D01*
X032665Y018503D02*
X030120Y018503D01*
X030120Y018602D02*
X032665Y018602D01*
X032665Y018700D02*
X030120Y018700D01*
X030120Y018799D02*
X032665Y018799D01*
X032665Y018897D02*
X030120Y018897D01*
X030120Y018996D02*
X032665Y018996D01*
X032665Y019094D02*
X030120Y019094D01*
X030120Y019193D02*
X032665Y019193D01*
X032665Y019291D02*
X030201Y019291D01*
X030300Y019390D02*
X032665Y019390D01*
X032665Y019488D02*
X030398Y019488D01*
X030497Y019587D02*
X032665Y019587D01*
X032665Y019685D02*
X030577Y019685D01*
X030618Y019784D02*
X032665Y019784D01*
X032665Y019882D02*
X030620Y019882D01*
X030620Y019981D02*
X032665Y019981D01*
X032665Y020079D02*
X030620Y020079D01*
X030620Y020178D02*
X032665Y020178D01*
X032665Y020276D02*
X030620Y020276D01*
X030620Y020375D02*
X032665Y020375D01*
X032665Y020473D02*
X030620Y020473D01*
X030580Y020572D02*
X032665Y020572D01*
X032665Y020670D02*
X031366Y020670D01*
X031288Y020638D02*
X031627Y020779D01*
X031887Y021038D01*
X032028Y021378D01*
X032028Y021745D01*
X031887Y022084D01*
X031627Y022344D01*
X031288Y022484D01*
X030921Y022484D01*
X030582Y022344D01*
X030322Y022084D01*
X030182Y021745D01*
X030182Y021378D01*
X030322Y021038D01*
X030582Y020779D01*
X030921Y020638D01*
X031288Y020638D01*
X031604Y020769D02*
X032665Y020769D01*
X032665Y020867D02*
X031716Y020867D01*
X031815Y020966D02*
X032665Y020966D01*
X032665Y021064D02*
X031898Y021064D01*
X031939Y021163D02*
X032665Y021163D01*
X032665Y021261D02*
X031979Y021261D01*
X032020Y021360D02*
X032665Y021360D01*
X032665Y021458D02*
X032028Y021458D01*
X032028Y021557D02*
X032665Y021557D01*
X032665Y021655D02*
X032028Y021655D01*
X032024Y021754D02*
X032665Y021754D01*
X032665Y021852D02*
X031983Y021852D01*
X031942Y021951D02*
X032665Y021951D01*
X032665Y022049D02*
X031902Y022049D01*
X031823Y022148D02*
X032665Y022148D01*
X032665Y022246D02*
X031725Y022246D01*
X031625Y022345D02*
X032665Y022345D01*
X032665Y022443D02*
X031387Y022443D01*
X030822Y022443D02*
X030069Y022443D01*
X030081Y022542D02*
X032665Y022542D01*
X032665Y022640D02*
X030137Y022640D01*
X030177Y022739D02*
X032665Y022739D01*
X032665Y022837D02*
X030196Y022837D01*
X030196Y022936D02*
X032665Y022936D01*
X032665Y023034D02*
X030188Y023034D01*
X030148Y023133D02*
X032665Y023133D01*
X032665Y023231D02*
X030107Y023231D01*
X030009Y023330D02*
X032665Y023330D01*
X032665Y023428D02*
X029867Y023428D01*
X029350Y023428D02*
X022639Y023428D01*
X022541Y023527D02*
X032665Y023527D01*
X032665Y023625D02*
X022442Y023625D01*
X022344Y023724D02*
X032665Y023724D01*
X032665Y023822D02*
X022245Y023822D01*
X022186Y023882D02*
X022076Y023992D01*
X022020Y024015D01*
X021943Y024092D01*
X021756Y024169D01*
X021554Y024169D01*
X021515Y024153D01*
X020976Y024692D01*
X020833Y024751D01*
X019977Y024751D01*
X019834Y024692D01*
X019724Y024582D01*
X019093Y023951D01*
X017948Y023951D01*
X017888Y024011D01*
X018065Y024187D01*
X018165Y024430D01*
X018165Y024693D01*
X018065Y024935D01*
X017888Y025111D01*
X017965Y025187D01*
X018065Y025430D01*
X018065Y025693D01*
X017965Y025935D01*
X017779Y026121D01*
X017536Y026221D01*
X017274Y026221D01*
X017031Y026121D01*
X016845Y025935D01*
X016745Y025693D01*
X016745Y025430D01*
X016845Y025187D01*
X017022Y025011D01*
X016945Y024935D01*
X016845Y024693D01*
X016845Y024430D01*
X016945Y024187D01*
X017022Y024111D01*
X016845Y023935D01*
X016745Y023693D01*
X016745Y023430D01*
X016845Y023187D01*
X017022Y023011D01*
X016945Y022935D01*
X016845Y022693D01*
X016845Y022430D01*
X016945Y022187D01*
X017022Y022111D01*
X016845Y021935D01*
X016745Y021693D01*
X016745Y021430D01*
X016845Y021187D01*
X017022Y021011D01*
X016945Y020935D01*
X016845Y020693D01*
X016845Y020430D01*
X016945Y020187D01*
X017129Y020004D01*
X017066Y019958D01*
X017008Y019900D01*
X016960Y019834D01*
X016923Y019761D01*
X016898Y019683D01*
X016886Y019611D01*
X017355Y019611D01*
X017355Y019511D01*
X017455Y019511D01*
X017455Y019043D01*
X017527Y019054D01*
X017605Y019079D01*
X017678Y019117D01*
X017744Y019165D01*
X017802Y019223D01*
X017850Y019289D01*
X017887Y019362D01*
X017912Y019439D01*
X017924Y019511D01*
X017455Y019511D01*
X017455Y019611D01*
X017924Y019611D01*
X017912Y019683D01*
X017887Y019761D01*
X017850Y019834D01*
X017802Y019900D01*
X017752Y019949D01*
X017879Y020002D01*
X018065Y020187D01*
X018165Y020430D01*
X018165Y020693D01*
X018065Y020935D01*
X017888Y021111D01*
X017965Y021187D01*
X018065Y021430D01*
X018065Y021693D01*
X017965Y021935D01*
X017888Y022011D01*
X018065Y022187D01*
X018165Y022430D01*
X018165Y022693D01*
X018065Y022935D01*
X017888Y023111D01*
X017948Y023171D01*
X019333Y023171D01*
X019476Y023231D01*
X019893Y023648D01*
X019924Y023573D01*
X020067Y023431D01*
X020254Y023353D01*
X020265Y023353D01*
X020265Y022990D01*
X020224Y022949D01*
X020147Y022762D01*
X020147Y022560D01*
X020224Y022373D01*
X020367Y022231D01*
X020554Y022153D01*
X020756Y022153D01*
X020943Y022231D01*
X021086Y022373D01*
X021163Y022560D01*
X021163Y022762D01*
X021086Y022949D01*
X021045Y022990D01*
X021045Y023520D01*
X021124Y023440D01*
X021234Y023331D01*
X021290Y023307D01*
X021367Y023231D01*
X021554Y023153D01*
X021756Y023153D01*
X021795Y023169D01*
X022947Y022018D01*
X022947Y021960D01*
X023024Y021773D01*
X023167Y021631D01*
X023354Y021553D01*
X023556Y021553D01*
X023743Y021631D01*
X023886Y021773D01*
X023963Y021960D01*
X023963Y022162D01*
X023886Y022349D01*
X023743Y022492D01*
X023556Y022569D01*
X023498Y022569D01*
X022186Y023882D01*
X022147Y023921D02*
X032665Y023921D01*
X032665Y024019D02*
X022016Y024019D01*
X021881Y024118D02*
X032665Y024118D01*
X032665Y024216D02*
X021451Y024216D01*
X021353Y024315D02*
X032665Y024315D01*
X032665Y024413D02*
X021254Y024413D01*
X021156Y024512D02*
X032665Y024512D01*
X032665Y024610D02*
X021057Y024610D01*
X020935Y024709D02*
X032665Y024709D01*
X032665Y024807D02*
X018117Y024807D01*
X018158Y024709D02*
X019875Y024709D01*
X019753Y024610D02*
X018165Y024610D01*
X018165Y024512D02*
X019654Y024512D01*
X019556Y024413D02*
X018158Y024413D01*
X018117Y024315D02*
X019457Y024315D01*
X019359Y024216D02*
X018076Y024216D01*
X017995Y024118D02*
X019260Y024118D01*
X019162Y024019D02*
X017896Y024019D01*
X017910Y023133D02*
X020265Y023133D01*
X020265Y023231D02*
X019477Y023231D01*
X019575Y023330D02*
X020265Y023330D01*
X020072Y023428D02*
X019674Y023428D01*
X019772Y023527D02*
X019971Y023527D01*
X019903Y023625D02*
X019871Y023625D01*
X020265Y023034D02*
X017965Y023034D01*
X018064Y022936D02*
X020219Y022936D01*
X020178Y022837D02*
X018105Y022837D01*
X018146Y022739D02*
X020147Y022739D01*
X020147Y022640D02*
X018165Y022640D01*
X018165Y022542D02*
X020155Y022542D01*
X020195Y022443D02*
X018165Y022443D01*
X018130Y022345D02*
X020253Y022345D01*
X020351Y022246D02*
X018089Y022246D01*
X018025Y022148D02*
X022817Y022148D01*
X022718Y022246D02*
X020959Y022246D01*
X021057Y022345D02*
X022620Y022345D01*
X022521Y022443D02*
X021115Y022443D01*
X021155Y022542D02*
X022423Y022542D01*
X022324Y022640D02*
X021163Y022640D01*
X021163Y022739D02*
X022226Y022739D01*
X022127Y022837D02*
X021132Y022837D01*
X021091Y022936D02*
X022029Y022936D01*
X021930Y023034D02*
X021045Y023034D01*
X021045Y023133D02*
X021832Y023133D01*
X021366Y023231D02*
X021045Y023231D01*
X021045Y023330D02*
X021236Y023330D01*
X021136Y023428D02*
X021045Y023428D01*
X022738Y023330D02*
X028501Y023330D01*
X028520Y023336D02*
X028453Y023314D01*
X028390Y023282D01*
X028333Y023241D01*
X028283Y023191D01*
X028242Y023134D01*
X028210Y023071D01*
X028188Y023005D01*
X028178Y022938D01*
X028586Y022938D01*
X028586Y023346D01*
X028520Y023336D01*
X028586Y023330D02*
X028663Y023330D01*
X028748Y023330D02*
X029208Y023330D01*
X029110Y023231D02*
X028925Y023231D01*
X029007Y023133D02*
X029070Y023133D01*
X028663Y023133D02*
X028586Y023133D01*
X028586Y023231D02*
X028663Y023231D01*
X028663Y023034D02*
X028586Y023034D01*
X028586Y022936D02*
X023132Y022936D01*
X023033Y023034D02*
X028198Y023034D01*
X028241Y023133D02*
X022935Y023133D01*
X022836Y023231D02*
X028323Y023231D01*
X028178Y022861D02*
X028188Y022795D01*
X028210Y022728D01*
X028242Y022665D01*
X028283Y022609D01*
X028333Y022559D01*
X028390Y022517D01*
X028453Y022485D01*
X028520Y022464D01*
X028586Y022453D01*
X028586Y022861D01*
X028178Y022861D01*
X028181Y022837D02*
X023230Y022837D01*
X023329Y022739D02*
X028206Y022739D01*
X028260Y022640D02*
X023427Y022640D01*
X023623Y022542D02*
X028356Y022542D01*
X028586Y022542D02*
X028663Y022542D01*
X028663Y022640D02*
X028586Y022640D01*
X028586Y022739D02*
X028663Y022739D01*
X028663Y022837D02*
X028586Y022837D01*
X028635Y022443D02*
X023792Y022443D01*
X023888Y022345D02*
X028595Y022345D01*
X028590Y022246D02*
X023928Y022246D01*
X023963Y022148D02*
X028590Y022148D01*
X028590Y022049D02*
X023963Y022049D01*
X023959Y021951D02*
X028590Y021951D01*
X028590Y021852D02*
X023918Y021852D01*
X023866Y021754D02*
X028590Y021754D01*
X028590Y021655D02*
X023768Y021655D01*
X023565Y021557D02*
X028590Y021557D01*
X028590Y021458D02*
X018065Y021458D01*
X018065Y021557D02*
X023345Y021557D01*
X023142Y021655D02*
X018065Y021655D01*
X018040Y021754D02*
X023044Y021754D01*
X022992Y021852D02*
X017999Y021852D01*
X017949Y021951D02*
X022951Y021951D01*
X022915Y022049D02*
X017926Y022049D01*
X018036Y021360D02*
X028590Y021360D01*
X028590Y021261D02*
X017995Y021261D01*
X017940Y021163D02*
X028590Y021163D01*
X028590Y021064D02*
X017935Y021064D01*
X018034Y020966D02*
X028590Y020966D01*
X028590Y020867D02*
X018093Y020867D01*
X018133Y020769D02*
X028590Y020769D01*
X028590Y020670D02*
X018165Y020670D01*
X018165Y020572D02*
X028344Y020572D01*
X028333Y020564D02*
X028283Y020514D01*
X028242Y020457D01*
X028210Y020394D01*
X028188Y020327D01*
X028178Y020261D01*
X028586Y020261D01*
X028586Y020669D01*
X028520Y020659D01*
X028453Y020637D01*
X028390Y020605D01*
X028333Y020564D01*
X028254Y020473D02*
X018165Y020473D01*
X018142Y020375D02*
X028204Y020375D01*
X028180Y020276D02*
X018101Y020276D01*
X018055Y020178D02*
X028179Y020178D01*
X028201Y020079D02*
X017956Y020079D01*
X017828Y019981D02*
X028247Y019981D01*
X028332Y019882D02*
X017815Y019882D01*
X017875Y019784D02*
X020759Y019784D01*
X020660Y019685D02*
X017911Y019685D01*
X017920Y019488D02*
X020531Y019488D01*
X020598Y019587D02*
X017455Y019587D01*
X017455Y019488D02*
X017355Y019488D01*
X017355Y019511D02*
X017355Y019043D01*
X017283Y019054D01*
X017205Y019079D01*
X017132Y019117D01*
X017066Y019165D01*
X017008Y019223D01*
X016960Y019289D01*
X016923Y019362D01*
X016898Y019439D01*
X016886Y019511D01*
X017355Y019511D01*
X017355Y019587D02*
X012397Y019587D01*
X012320Y019488D02*
X016890Y019488D01*
X016914Y019390D02*
X012320Y019390D01*
X012320Y019291D02*
X016959Y019291D01*
X017038Y019193D02*
X012320Y019193D01*
X012320Y019094D02*
X017176Y019094D01*
X017355Y019094D02*
X017455Y019094D01*
X017455Y019193D02*
X017355Y019193D01*
X017355Y019291D02*
X017455Y019291D01*
X017455Y019390D02*
X017355Y019390D01*
X017634Y019094D02*
X020137Y019094D01*
X020235Y019193D02*
X017772Y019193D01*
X017851Y019291D02*
X020334Y019291D01*
X020432Y019390D02*
X017896Y019390D01*
X017098Y019981D02*
X012791Y019981D01*
X012889Y020079D02*
X017054Y020079D01*
X016955Y020178D02*
X012988Y020178D01*
X013086Y020276D02*
X016909Y020276D01*
X016868Y020375D02*
X013185Y020375D01*
X013283Y020473D02*
X016845Y020473D01*
X016845Y020572D02*
X013382Y020572D01*
X013480Y020670D02*
X016845Y020670D01*
X016877Y020769D02*
X013570Y020769D01*
X013611Y020867D02*
X016917Y020867D01*
X016976Y020966D02*
X013620Y020966D01*
X013620Y021064D02*
X016969Y021064D01*
X016870Y021163D02*
X013620Y021163D01*
X013620Y021261D02*
X016815Y021261D01*
X016774Y021360D02*
X013620Y021360D01*
X013671Y021458D02*
X016745Y021458D01*
X016745Y021557D02*
X013720Y021557D01*
X013761Y021655D02*
X016745Y021655D01*
X016770Y021754D02*
X013763Y021754D01*
X013763Y021852D02*
X016811Y021852D01*
X016861Y021951D02*
X013726Y021951D01*
X013686Y022049D02*
X016960Y022049D01*
X016985Y022148D02*
X013617Y022148D01*
X013657Y022246D02*
X016921Y022246D01*
X016880Y022345D02*
X013663Y022345D01*
X013663Y022443D02*
X016845Y022443D01*
X016845Y022542D02*
X013630Y022542D01*
X013589Y022640D02*
X016845Y022640D01*
X016864Y022739D02*
X013496Y022739D01*
X013333Y022837D02*
X016905Y022837D01*
X016946Y022936D02*
X011611Y022936D01*
X011652Y022837D02*
X012977Y022837D01*
X012814Y022739D02*
X011674Y022739D01*
X011674Y022640D02*
X012718Y022640D01*
X012619Y022542D02*
X011674Y022542D01*
X011642Y022443D02*
X012521Y022443D01*
X012436Y022345D02*
X011601Y022345D01*
X011542Y022246D02*
X012395Y022246D01*
X012390Y022148D02*
X011443Y022148D01*
X011459Y022049D02*
X012390Y022049D01*
X012390Y021951D02*
X011558Y021951D01*
X011608Y021852D02*
X012390Y021852D01*
X012390Y021754D02*
X011649Y021754D01*
X011674Y021655D02*
X012390Y021655D01*
X012390Y021557D02*
X011674Y021557D01*
X011674Y021458D02*
X012403Y021458D01*
X012443Y021360D02*
X011645Y021360D01*
X011604Y021261D02*
X012539Y021261D01*
X012540Y021163D02*
X011549Y021163D01*
X011450Y021064D02*
X012442Y021064D01*
X012343Y020966D02*
X011452Y020966D01*
X011551Y020867D02*
X012245Y020867D01*
X012146Y020769D02*
X011605Y020769D01*
X011646Y020670D02*
X012048Y020670D01*
X011949Y020572D02*
X011674Y020572D01*
X011674Y020473D02*
X011851Y020473D01*
X011752Y020375D02*
X011674Y020375D01*
X011654Y020276D02*
X011648Y020276D01*
X012495Y019685D02*
X016899Y019685D01*
X016935Y019784D02*
X012594Y019784D01*
X012692Y019882D02*
X016995Y019882D01*
X019703Y018799D02*
X012320Y018799D01*
X012320Y018897D02*
X019772Y018897D01*
X019876Y018996D02*
X012320Y018996D01*
X012320Y018700D02*
X019663Y018700D01*
X019647Y018602D02*
X012320Y018602D01*
X012320Y018503D02*
X019647Y018503D01*
X019670Y018405D02*
X012320Y018405D01*
X012329Y018306D02*
X019711Y018306D01*
X019790Y018208D02*
X012403Y018208D01*
X012444Y018109D02*
X019918Y018109D01*
X020542Y017124D02*
X020585Y017124D01*
X023082Y014859D02*
X023628Y014859D01*
X023435Y014760D02*
X023275Y014760D01*
X023882Y014859D02*
X024824Y014859D01*
X024865Y014760D02*
X024075Y014760D01*
X024173Y014662D02*
X024921Y014662D01*
X025020Y014563D02*
X024221Y014563D01*
X024262Y014465D02*
X025170Y014465D01*
X025740Y014465D02*
X028790Y014465D01*
X028790Y014563D02*
X025890Y014563D01*
X025989Y014662D02*
X028790Y014662D01*
X028790Y014760D02*
X026045Y014760D01*
X026086Y014859D02*
X028790Y014859D01*
X028790Y014957D02*
X026115Y014957D01*
X026115Y015056D02*
X028790Y015056D01*
X028790Y015154D02*
X026115Y015154D01*
X026090Y015253D02*
X028790Y015253D01*
X028790Y015351D02*
X026049Y015351D01*
X026000Y015450D02*
X028790Y015450D01*
X028790Y015548D02*
X025901Y015548D01*
X025766Y015647D02*
X028790Y015647D01*
X028790Y014366D02*
X024302Y014366D01*
X024400Y014268D02*
X028790Y014268D01*
X028790Y014169D02*
X024499Y014169D01*
X024597Y014071D02*
X028790Y014071D01*
X028790Y013972D02*
X024690Y013972D01*
X024731Y013874D02*
X028790Y013874D01*
X028790Y013775D02*
X024745Y013775D01*
X024745Y013677D02*
X028790Y013677D01*
X028790Y013578D02*
X024745Y013578D01*
X024745Y013480D02*
X028790Y013480D01*
X028790Y013381D02*
X024745Y013381D01*
X024745Y013283D02*
X028790Y013283D01*
X028790Y013184D02*
X024745Y013184D01*
X024745Y013086D02*
X028790Y013086D01*
X028790Y012987D02*
X024745Y012987D01*
X024745Y012889D02*
X028790Y012889D01*
X028790Y012790D02*
X024745Y012790D01*
X024745Y012692D02*
X028790Y012692D01*
X028790Y012593D02*
X024745Y012593D01*
X025036Y012495D02*
X028790Y012495D01*
X028790Y012396D02*
X025165Y012396D01*
X025270Y012298D02*
X028790Y012298D01*
X028790Y012199D02*
X025369Y012199D01*
X025467Y012101D02*
X028790Y012101D01*
X028790Y012002D02*
X025566Y012002D01*
X025664Y011904D02*
X028790Y011904D01*
X028790Y011805D02*
X025717Y011805D01*
X025745Y011707D02*
X028790Y011707D01*
X028790Y011608D02*
X025745Y011608D01*
X025802Y011510D02*
X028790Y011510D01*
X028790Y011411D02*
X025843Y011411D01*
X025863Y011313D02*
X028790Y011313D01*
X028790Y011214D02*
X025863Y011214D01*
X025845Y011116D02*
X028790Y011116D01*
X028790Y011017D02*
X025804Y011017D01*
X025731Y010919D02*
X028790Y010919D01*
X028790Y010820D02*
X025618Y010820D01*
X025092Y010820D02*
X024745Y010820D01*
X024745Y010722D02*
X028790Y010722D01*
X028790Y010623D02*
X024745Y010623D01*
X024745Y010525D02*
X028646Y010525D01*
X028501Y010426D02*
X024745Y010426D01*
X024795Y010328D02*
X028415Y010328D01*
X028375Y010229D02*
X024835Y010229D01*
X024863Y010131D02*
X028347Y010131D01*
X028347Y010032D02*
X024863Y010032D01*
X024852Y009934D02*
X028358Y009934D01*
X028399Y009835D02*
X025338Y009835D01*
X025498Y009737D02*
X028461Y009737D01*
X028559Y009638D02*
X025590Y009638D01*
X024979Y010919D02*
X024745Y010919D01*
X024745Y011017D02*
X024906Y011017D01*
X024865Y011116D02*
X024745Y011116D01*
X024745Y011214D02*
X024847Y011214D01*
X024847Y011313D02*
X024745Y011313D01*
X024745Y011411D02*
X024867Y011411D01*
X024908Y011510D02*
X024745Y011510D01*
X023525Y009540D02*
X023520Y009540D01*
X023520Y009441D02*
X023652Y009441D01*
X023750Y009343D02*
X023520Y009343D01*
X023520Y009244D02*
X023853Y009244D01*
X022790Y009244D02*
X022554Y009244D01*
X022456Y009146D02*
X022790Y009146D01*
X022790Y009047D02*
X022357Y009047D01*
X022259Y008949D02*
X022790Y008949D01*
X022790Y008850D02*
X022160Y008850D01*
X022062Y008752D02*
X022790Y008752D01*
X020165Y006486D02*
X020036Y006486D01*
X020165Y006388D02*
X019798Y006388D01*
X019699Y006289D02*
X020165Y006289D01*
X020165Y006191D02*
X019601Y006191D01*
X019502Y006092D02*
X020165Y006092D01*
X020165Y005994D02*
X019404Y005994D01*
X019305Y005895D02*
X020165Y005895D01*
X020165Y005797D02*
X019207Y005797D01*
X019108Y005698D02*
X020165Y005698D01*
X020165Y005600D02*
X019010Y005600D01*
X018911Y005501D02*
X020165Y005501D01*
X020165Y005403D02*
X018813Y005403D01*
X018714Y005304D02*
X020165Y005304D01*
X020165Y005206D02*
X018616Y005206D01*
X018517Y005107D02*
X020165Y005107D01*
X020165Y005009D02*
X018419Y005009D01*
X018320Y004910D02*
X020152Y004910D01*
X020054Y004812D02*
X018222Y004812D01*
X018123Y004713D02*
X019955Y004713D01*
X019857Y004615D02*
X017972Y004615D01*
X017446Y004122D02*
X019372Y004122D01*
X019347Y004024D02*
X017544Y004024D01*
X017643Y003925D02*
X019347Y003925D01*
X019361Y003827D02*
X017741Y003827D01*
X017840Y003728D02*
X019402Y003728D01*
X019468Y003630D02*
X017938Y003630D01*
X018007Y003531D02*
X019566Y003531D01*
X019779Y003453D02*
X019864Y003368D01*
X020206Y003026D01*
X020671Y003026D01*
X020624Y003073D01*
X020547Y003260D01*
X020547Y003462D01*
X020624Y003649D01*
X020690Y003715D01*
X020690Y004345D01*
X020363Y004018D01*
X020363Y003860D01*
X020286Y003673D01*
X020143Y003531D01*
X019956Y003453D01*
X019779Y003453D01*
X019800Y003433D02*
X020547Y003433D01*
X020547Y003334D02*
X019898Y003334D01*
X019997Y003236D02*
X020557Y003236D01*
X020598Y003137D02*
X020095Y003137D01*
X020194Y003039D02*
X020659Y003039D01*
X020575Y003531D02*
X020144Y003531D01*
X020242Y003630D02*
X020616Y003630D01*
X020690Y003728D02*
X020308Y003728D01*
X020349Y003827D02*
X020690Y003827D01*
X020690Y003925D02*
X020363Y003925D01*
X020369Y004024D02*
X020690Y004024D01*
X020690Y004122D02*
X020468Y004122D01*
X020566Y004221D02*
X020690Y004221D01*
X020690Y004319D02*
X020665Y004319D01*
X019758Y004516D02*
X016608Y004516D01*
X016102Y004516D02*
X014884Y004516D01*
X014426Y004516D02*
X014195Y004516D01*
X014164Y004440D02*
X014250Y004648D01*
X014250Y004874D01*
X014164Y005083D01*
X014004Y005242D01*
X013795Y005329D01*
X013015Y005329D01*
X012806Y005242D01*
X012646Y005083D01*
X012560Y004874D01*
X012560Y004648D01*
X012646Y004440D01*
X012806Y004280D01*
X013015Y004194D01*
X013795Y004194D01*
X014004Y004280D01*
X014164Y004440D01*
X014142Y004418D02*
X014293Y004418D01*
X014212Y004319D02*
X014043Y004319D01*
X014171Y004221D02*
X013861Y004221D01*
X013847Y004157D02*
X013783Y004178D01*
X013716Y004189D01*
X013434Y004189D01*
X013434Y003790D01*
X014110Y003790D01*
X014110Y003795D01*
X014099Y003861D01*
X014079Y003925D01*
X014161Y003925D01*
X014079Y003925D02*
X014048Y003985D01*
X014009Y004040D01*
X013961Y004087D01*
X013907Y004127D01*
X013847Y004157D01*
X013913Y004122D02*
X014147Y004122D01*
X014147Y004024D02*
X014020Y004024D01*
X014105Y003827D02*
X014202Y003827D01*
X014269Y003728D02*
X014110Y003728D01*
X014110Y003733D01*
X013434Y003733D01*
X013434Y003790D01*
X013376Y003790D01*
X013376Y003733D01*
X012700Y003733D01*
X012700Y003728D01*
X009245Y003728D01*
X009245Y003630D02*
X011090Y003630D01*
X010870Y003531D02*
X009245Y003531D01*
X009245Y003433D02*
X010771Y003433D01*
X010673Y003334D02*
X009245Y003334D01*
X009245Y003236D02*
X010602Y003236D01*
X010562Y003137D02*
X009245Y003137D01*
X009245Y003039D02*
X010521Y003039D01*
X010482Y002940D02*
X009245Y002940D01*
X009245Y002842D02*
X010482Y002842D01*
X010482Y002743D02*
X009245Y002743D01*
X009245Y002645D02*
X010482Y002645D01*
X010495Y002546D02*
X009245Y002546D01*
X009245Y002448D02*
X010536Y002448D01*
X010577Y002349D02*
X009245Y002349D01*
X009245Y002251D02*
X010617Y002251D01*
X010709Y002152D02*
X009245Y002152D01*
X009245Y002054D02*
X010807Y002054D01*
X010939Y001955D02*
X009245Y001955D01*
X009245Y001857D02*
X011177Y001857D01*
X011633Y001857D02*
X018141Y001857D01*
X018090Y001955D02*
X011871Y001955D01*
X012003Y002054D02*
X015624Y002054D01*
X015389Y002152D02*
X012101Y002152D01*
X012193Y002251D02*
X015272Y002251D01*
X015154Y002349D02*
X012233Y002349D01*
X012274Y002448D02*
X015085Y002448D01*
X015028Y002546D02*
X012315Y002546D01*
X012328Y002645D02*
X014971Y002645D01*
X014935Y002743D02*
X012328Y002743D01*
X012328Y002842D02*
X014917Y002842D01*
X014900Y002940D02*
X012328Y002940D01*
X012289Y003039D02*
X014883Y003039D01*
X014892Y003137D02*
X012248Y003137D01*
X012208Y003236D02*
X014909Y003236D01*
X014927Y003334D02*
X013719Y003334D01*
X013716Y003334D02*
X013783Y003344D01*
X013847Y003365D01*
X013907Y003396D01*
X013961Y003435D01*
X014009Y003483D01*
X014048Y003537D01*
X014079Y003597D01*
X014099Y003661D01*
X014110Y003728D01*
X014089Y003630D02*
X014369Y003630D01*
X014044Y003531D02*
X015002Y003531D01*
X014946Y003433D02*
X013958Y003433D01*
X013716Y003334D02*
X013434Y003334D01*
X013434Y003733D01*
X013376Y003733D01*
X013376Y003334D01*
X013094Y003334D01*
X013027Y003344D01*
X012963Y003365D01*
X012903Y003396D01*
X012849Y003435D01*
X012801Y003483D01*
X012762Y003537D01*
X012731Y003597D01*
X012711Y003661D01*
X012700Y003728D01*
X012700Y003790D02*
X013376Y003790D01*
X013376Y004189D01*
X013094Y004189D01*
X013027Y004178D01*
X012963Y004157D01*
X012903Y004127D01*
X012849Y004087D01*
X012801Y004040D01*
X012762Y003985D01*
X012731Y003925D01*
X009245Y003925D01*
X009245Y003827D02*
X012705Y003827D01*
X012700Y003795D02*
X012711Y003861D01*
X012731Y003925D01*
X012790Y004024D02*
X009245Y004024D01*
X009245Y004122D02*
X012897Y004122D01*
X012949Y004221D02*
X009245Y004221D01*
X009245Y004319D02*
X012767Y004319D01*
X012668Y004418D02*
X009245Y004418D01*
X009245Y004516D02*
X012615Y004516D01*
X012574Y004615D02*
X009245Y004615D01*
X009245Y004713D02*
X012560Y004713D01*
X012560Y004812D02*
X009245Y004812D01*
X009245Y004910D02*
X012575Y004910D01*
X012616Y005009D02*
X009245Y005009D01*
X009245Y005107D02*
X012671Y005107D01*
X012769Y005206D02*
X009245Y005206D01*
X009245Y005304D02*
X012956Y005304D01*
X013854Y005304D02*
X014797Y005304D01*
X014838Y005206D02*
X014041Y005206D01*
X014139Y005107D02*
X014926Y005107D01*
X015024Y005009D02*
X014194Y005009D01*
X014235Y004910D02*
X015252Y004910D01*
X015558Y004910D02*
X015847Y004910D01*
X015847Y005009D02*
X015786Y005009D01*
X015867Y004812D02*
X014250Y004812D01*
X014250Y004713D02*
X015908Y004713D01*
X015983Y004615D02*
X014236Y004615D01*
X013434Y004122D02*
X013376Y004122D01*
X013376Y004024D02*
X013434Y004024D01*
X013434Y003925D02*
X013376Y003925D01*
X013376Y003827D02*
X013434Y003827D01*
X013434Y003728D02*
X013376Y003728D01*
X013376Y003630D02*
X013434Y003630D01*
X013434Y003531D02*
X013376Y003531D01*
X013376Y003433D02*
X013434Y003433D01*
X013434Y003334D02*
X013376Y003334D01*
X013091Y003334D02*
X012137Y003334D01*
X012039Y003433D02*
X012852Y003433D01*
X012766Y003531D02*
X011940Y003531D01*
X011720Y003630D02*
X012721Y003630D01*
X012700Y003790D02*
X012700Y003795D01*
X014941Y003630D02*
X015059Y003630D01*
X016908Y003531D02*
X016933Y003531D01*
X016964Y003433D02*
X017032Y003433D01*
X016983Y003334D02*
X017130Y003334D01*
X017229Y003236D02*
X017001Y003236D01*
X017018Y003137D02*
X017327Y003137D01*
X017426Y003039D02*
X017027Y003039D01*
X017010Y002940D02*
X017560Y002940D01*
X017673Y002842D02*
X016993Y002842D01*
X016975Y002743D02*
X018847Y002743D01*
X018853Y002645D02*
X018715Y002645D01*
X018889Y002546D02*
X018894Y002546D01*
X018395Y002645D02*
X016939Y002645D01*
X016882Y002546D02*
X018221Y002546D01*
X018124Y002448D02*
X016825Y002448D01*
X016756Y002349D02*
X018083Y002349D01*
X018047Y002251D02*
X016638Y002251D01*
X016521Y002152D02*
X018047Y002152D01*
X018050Y002054D02*
X016286Y002054D01*
X017347Y004221D02*
X019413Y004221D01*
X019494Y004319D02*
X017249Y004319D01*
X017113Y004418D02*
X019629Y004418D01*
X018174Y005797D02*
X016022Y005797D01*
X015981Y005895D02*
X018273Y005895D01*
X018371Y005994D02*
X015906Y005994D01*
X015969Y006092D02*
X018470Y006092D01*
X018568Y006191D02*
X016066Y006191D01*
X016107Y006289D02*
X018667Y006289D01*
X018765Y006388D02*
X016148Y006388D01*
X016165Y006486D02*
X018864Y006486D01*
X018962Y006585D02*
X016165Y006585D01*
X016165Y006683D02*
X019061Y006683D01*
X019159Y006782D02*
X016128Y006782D01*
X016087Y006880D02*
X019258Y006880D01*
X019347Y006979D02*
X016021Y006979D01*
X015922Y007077D02*
X019353Y007077D01*
X019394Y007176D02*
X015953Y007176D01*
X016001Y007274D02*
X019449Y007274D01*
X019548Y007373D02*
X016041Y007373D01*
X016065Y007471D02*
X019493Y007471D01*
X019395Y007570D02*
X016065Y007570D01*
X016065Y007668D02*
X019296Y007668D01*
X019198Y007767D02*
X016034Y007767D01*
X015993Y007865D02*
X019099Y007865D01*
X019001Y007964D02*
X015936Y007964D01*
X015837Y008062D02*
X018902Y008062D01*
X018804Y008161D02*
X015682Y008161D01*
X015128Y008161D02*
X009245Y008161D01*
X009245Y008259D02*
X018705Y008259D01*
X018607Y008358D02*
X009245Y008358D01*
X009245Y008456D02*
X018508Y008456D01*
X018410Y008555D02*
X009245Y008555D01*
X009245Y008653D02*
X011185Y008653D01*
X011221Y008638D02*
X011589Y008638D01*
X011928Y008779D01*
X012188Y009038D01*
X012328Y009378D01*
X012328Y009745D01*
X012188Y010084D01*
X011928Y010344D01*
X011589Y010484D01*
X011221Y010484D01*
X010882Y010344D01*
X010622Y010084D01*
X010482Y009745D01*
X010482Y009378D01*
X010622Y009038D01*
X010882Y008779D01*
X011221Y008638D01*
X010947Y008752D02*
X009245Y008752D01*
X009245Y008850D02*
X010811Y008850D01*
X010712Y008949D02*
X009245Y008949D01*
X009245Y009047D02*
X010619Y009047D01*
X010578Y009146D02*
X009245Y009146D01*
X009245Y009244D02*
X010537Y009244D01*
X010496Y009343D02*
X009245Y009343D01*
X009245Y009441D02*
X010482Y009441D01*
X010482Y009540D02*
X009245Y009540D01*
X009245Y009638D02*
X010482Y009638D01*
X010482Y009737D02*
X009245Y009737D01*
X009245Y009835D02*
X010519Y009835D01*
X010560Y009934D02*
X009245Y009934D01*
X009245Y010032D02*
X010601Y010032D01*
X010669Y010131D02*
X009245Y010131D01*
X009245Y010229D02*
X010768Y010229D01*
X010866Y010328D02*
X009245Y010328D01*
X009245Y010426D02*
X011081Y010426D01*
X011729Y010426D02*
X012722Y010426D01*
X012731Y010397D02*
X012711Y010461D01*
X012700Y010528D01*
X012700Y010533D01*
X013376Y010533D01*
X013376Y010590D01*
X012700Y010590D01*
X012700Y010595D01*
X012711Y010661D01*
X012731Y010725D01*
X012762Y010785D01*
X012801Y010840D01*
X012849Y010887D01*
X012903Y010927D01*
X012963Y010957D01*
X013027Y010978D01*
X013094Y010989D01*
X013376Y010989D01*
X013376Y010590D01*
X013434Y010590D01*
X014110Y010590D01*
X014110Y010595D01*
X014099Y010661D01*
X014079Y010725D01*
X014048Y010785D01*
X014009Y010840D01*
X013961Y010887D01*
X013907Y010927D01*
X013847Y010957D01*
X013783Y010978D01*
X013716Y010989D01*
X013434Y010989D01*
X013434Y010590D01*
X013434Y010533D01*
X014110Y010533D01*
X014110Y010528D01*
X014099Y010461D01*
X014079Y010397D01*
X014048Y010337D01*
X014009Y010283D01*
X013961Y010235D01*
X013907Y010196D01*
X013847Y010165D01*
X013783Y010144D01*
X013716Y010134D01*
X013434Y010134D01*
X013434Y010533D01*
X013376Y010533D01*
X013376Y010134D01*
X013094Y010134D01*
X013027Y010144D01*
X012963Y010165D01*
X012903Y010196D01*
X012849Y010235D01*
X012801Y010283D01*
X012762Y010337D01*
X012731Y010397D01*
X012769Y010328D02*
X011944Y010328D01*
X012042Y010229D02*
X012857Y010229D01*
X012700Y010525D02*
X009245Y010525D01*
X009245Y010623D02*
X012705Y010623D01*
X012730Y010722D02*
X009245Y010722D01*
X009245Y010820D02*
X012787Y010820D01*
X012892Y010919D02*
X009245Y010919D01*
X009245Y011017D02*
X012958Y011017D01*
X013015Y010994D02*
X012806Y011080D01*
X012646Y011240D01*
X012560Y011448D01*
X012560Y011674D01*
X012646Y011883D01*
X012806Y012042D01*
X013015Y012129D01*
X013795Y012129D01*
X014004Y012042D01*
X014164Y011883D01*
X014250Y011674D01*
X014250Y011448D01*
X014164Y011240D01*
X014004Y011080D01*
X013795Y010994D01*
X013015Y010994D01*
X012770Y011116D02*
X009245Y011116D01*
X009245Y011214D02*
X012672Y011214D01*
X012616Y011313D02*
X009245Y011313D01*
X009245Y011411D02*
X012575Y011411D01*
X012560Y011510D02*
X009245Y011510D01*
X009245Y011608D02*
X012560Y011608D01*
X012574Y011707D02*
X009245Y011707D01*
X009245Y011805D02*
X012614Y011805D01*
X012668Y011904D02*
X009245Y011904D01*
X009245Y012002D02*
X012766Y012002D01*
X012947Y012101D02*
X009245Y012101D01*
X009245Y012199D02*
X018265Y012199D01*
X018265Y012101D02*
X013863Y012101D01*
X014044Y012002D02*
X018265Y012002D01*
X018265Y011904D02*
X014142Y011904D01*
X014196Y011805D02*
X018265Y011805D01*
X018265Y011707D02*
X014236Y011707D01*
X014250Y011608D02*
X018265Y011608D01*
X018265Y011510D02*
X014250Y011510D01*
X014235Y011411D02*
X018265Y011411D01*
X018265Y011313D02*
X014194Y011313D01*
X014138Y011214D02*
X018265Y011214D01*
X018265Y011116D02*
X014040Y011116D01*
X013852Y011017D02*
X018265Y011017D01*
X018265Y010919D02*
X013918Y010919D01*
X014023Y010820D02*
X018265Y010820D01*
X018265Y010722D02*
X014080Y010722D01*
X014105Y010623D02*
X018265Y010623D01*
X018265Y010525D02*
X014110Y010525D01*
X014088Y010426D02*
X018265Y010426D01*
X018265Y010328D02*
X014041Y010328D01*
X013953Y010229D02*
X018265Y010229D01*
X018265Y010131D02*
X012141Y010131D01*
X012209Y010032D02*
X018265Y010032D01*
X018265Y009934D02*
X012250Y009934D01*
X012291Y009835D02*
X018265Y009835D01*
X018265Y009737D02*
X012328Y009737D01*
X012328Y009638D02*
X018265Y009638D01*
X018265Y009540D02*
X012328Y009540D01*
X012328Y009441D02*
X018265Y009441D01*
X018265Y009343D02*
X012314Y009343D01*
X012273Y009244D02*
X018265Y009244D01*
X018265Y009146D02*
X012232Y009146D01*
X012191Y009047D02*
X018265Y009047D01*
X018265Y008949D02*
X012098Y008949D01*
X011999Y008850D02*
X018265Y008850D01*
X018278Y008752D02*
X011863Y008752D01*
X011625Y008653D02*
X018319Y008653D01*
X019045Y009047D02*
X019736Y009047D01*
X019709Y008949D02*
X019119Y008949D01*
X019218Y008850D02*
X019660Y008850D01*
X019620Y008752D02*
X019316Y008752D01*
X019415Y008653D02*
X019595Y008653D01*
X019595Y008555D02*
X019513Y008555D01*
X019637Y009146D02*
X019045Y009146D01*
X019045Y009244D02*
X019572Y009244D01*
X019531Y009343D02*
X019045Y009343D01*
X019045Y009441D02*
X019495Y009441D01*
X019495Y009540D02*
X019045Y009540D01*
X019045Y009638D02*
X019495Y009638D01*
X019513Y009737D02*
X019045Y009737D01*
X019045Y009835D02*
X019554Y009835D01*
X019595Y009934D02*
X019045Y009934D01*
X019045Y010032D02*
X019693Y010032D01*
X019752Y010131D02*
X019045Y010131D01*
X019045Y010229D02*
X019678Y010229D01*
X019637Y010328D02*
X019045Y010328D01*
X019045Y010426D02*
X019597Y010426D01*
X019595Y010525D02*
X019045Y010525D01*
X019045Y010623D02*
X019595Y010623D01*
X019607Y010722D02*
X019045Y010722D01*
X019045Y010820D02*
X019648Y010820D01*
X019689Y010919D02*
X019045Y010919D01*
X019045Y011017D02*
X019778Y011017D01*
X019876Y011116D02*
X019045Y011116D01*
X019045Y011214D02*
X020107Y011214D01*
X018265Y012298D02*
X009245Y012298D01*
X009245Y012396D02*
X018265Y012396D01*
X018265Y012495D02*
X009245Y012495D01*
X009245Y012593D02*
X018265Y012593D01*
X019093Y012692D02*
X019428Y012692D01*
X019274Y012790D02*
X019134Y012790D01*
X019163Y012889D02*
X019176Y012889D01*
X020398Y014071D02*
X020710Y014071D01*
X020612Y014169D02*
X020496Y014169D01*
X023848Y017321D02*
X012263Y017321D01*
X012263Y017420D02*
X023889Y017420D01*
X023979Y017518D02*
X012240Y017518D01*
X012329Y017617D02*
X024077Y017617D01*
X023830Y018503D02*
X026464Y018503D01*
X026383Y018405D02*
X023595Y018405D01*
X023929Y018602D02*
X026562Y018602D01*
X026773Y018700D02*
X024020Y018700D01*
X028586Y019882D02*
X028663Y019882D01*
X028663Y019981D02*
X028586Y019981D01*
X028586Y020079D02*
X028663Y020079D01*
X028663Y020178D02*
X028586Y020178D01*
X028586Y020276D02*
X028663Y020276D01*
X028663Y020375D02*
X028586Y020375D01*
X028586Y020473D02*
X028638Y020473D01*
X028597Y020572D02*
X028586Y020572D01*
X029918Y021557D02*
X030182Y021557D01*
X030182Y021655D02*
X030021Y021655D01*
X030112Y021754D02*
X030185Y021754D01*
X030153Y021852D02*
X030226Y021852D01*
X030193Y021951D02*
X030267Y021951D01*
X030308Y022049D02*
X030196Y022049D01*
X030196Y022148D02*
X030386Y022148D01*
X030484Y022246D02*
X030172Y022246D01*
X030132Y022345D02*
X030584Y022345D01*
X030182Y021458D02*
X030030Y021458D01*
X030116Y021360D02*
X030189Y021360D01*
X030156Y021261D02*
X030230Y021261D01*
X030196Y021163D02*
X030271Y021163D01*
X030311Y021064D02*
X030196Y021064D01*
X030208Y020966D02*
X030395Y020966D01*
X030307Y020867D02*
X030493Y020867D01*
X030405Y020769D02*
X030606Y020769D01*
X030504Y020670D02*
X030843Y020670D01*
X032665Y024906D02*
X018077Y024906D01*
X017995Y025004D02*
X032665Y025004D01*
X032665Y025103D02*
X017897Y025103D01*
X017970Y025201D02*
X032665Y025201D01*
X032665Y025300D02*
X018011Y025300D01*
X018052Y025398D02*
X032665Y025398D01*
X032665Y025497D02*
X018065Y025497D01*
X018065Y025595D02*
X031010Y025595D01*
X030917Y025629D02*
X031268Y025501D01*
X031389Y025501D01*
X031642Y025501D01*
X031993Y025629D01*
X031993Y025629D01*
X032280Y025869D01*
X032280Y025869D01*
X032280Y025869D01*
X032466Y026193D01*
X032531Y026561D01*
X032466Y026929D01*
X032466Y026929D01*
X032280Y027253D01*
X031993Y027493D01*
X031642Y027621D01*
X031268Y027621D01*
X030917Y027493D01*
X030630Y027253D01*
X030444Y026929D01*
X030379Y026561D01*
X030444Y026193D01*
X030630Y025869D01*
X030917Y025629D01*
X030917Y025629D01*
X030840Y025694D02*
X018064Y025694D01*
X018024Y025792D02*
X030722Y025792D01*
X030630Y025869D02*
X030630Y025869D01*
X030618Y025891D02*
X017983Y025891D01*
X017910Y025989D02*
X030561Y025989D01*
X030504Y026088D02*
X017812Y026088D01*
X017621Y026186D02*
X030447Y026186D01*
X030444Y026193D02*
X030444Y026193D01*
X030427Y026285D02*
X013983Y026285D01*
X013966Y026193D02*
X014031Y026561D01*
X013966Y026929D01*
X013966Y026929D01*
X013780Y027253D01*
X013493Y027493D01*
X013142Y027621D01*
X012768Y027621D01*
X012417Y027493D01*
X012130Y027253D01*
X011944Y026929D01*
X011879Y026561D01*
X011944Y026193D01*
X012130Y025869D01*
X012417Y025629D01*
X012768Y025501D01*
X013021Y025501D01*
X013142Y025501D01*
X013493Y025629D01*
X013493Y025629D01*
X013780Y025869D01*
X013780Y025869D01*
X013780Y025869D01*
X013966Y026193D01*
X013966Y026193D01*
X013963Y026186D02*
X017189Y026186D01*
X016998Y026088D02*
X013906Y026088D01*
X013849Y025989D02*
X016900Y025989D01*
X016827Y025891D02*
X013792Y025891D01*
X013688Y025792D02*
X016786Y025792D01*
X016746Y025694D02*
X013570Y025694D01*
X013400Y025595D02*
X016745Y025595D01*
X016745Y025497D02*
X011294Y025497D01*
X011392Y025595D02*
X012510Y025595D01*
X012417Y025629D02*
X012417Y025629D01*
X012340Y025694D02*
X011489Y025694D01*
X011546Y025792D02*
X012222Y025792D01*
X012130Y025869D02*
X012130Y025869D01*
X012118Y025891D02*
X011603Y025891D01*
X011658Y025989D02*
X012061Y025989D01*
X012004Y026088D02*
X011685Y026088D01*
X011711Y026186D02*
X011947Y026186D01*
X011944Y026193D02*
X011944Y026193D01*
X011927Y026285D02*
X011738Y026285D01*
X011745Y026383D02*
X011910Y026383D01*
X011893Y026482D02*
X011745Y026482D01*
X011745Y026580D02*
X011882Y026580D01*
X011879Y026561D02*
X011879Y026561D01*
X011899Y026679D02*
X011738Y026679D01*
X011712Y026777D02*
X011917Y026777D01*
X011934Y026876D02*
X011685Y026876D01*
X011659Y026974D02*
X011970Y026974D01*
X011944Y026929D02*
X011944Y026929D01*
X012026Y027073D02*
X011604Y027073D01*
X011547Y027171D02*
X012083Y027171D01*
X012130Y027253D02*
X012130Y027253D01*
X012130Y027253D01*
X012150Y027270D02*
X011490Y027270D01*
X011394Y027368D02*
X012268Y027368D01*
X012385Y027467D02*
X011295Y027467D01*
X011160Y027565D02*
X012614Y027565D01*
X012417Y027493D02*
X012417Y027493D01*
X013296Y027565D02*
X031114Y027565D01*
X030917Y027493D02*
X030917Y027493D01*
X030885Y027467D02*
X013525Y027467D01*
X013493Y027493D02*
X013493Y027493D01*
X013642Y027368D02*
X030768Y027368D01*
X030650Y027270D02*
X013760Y027270D01*
X013780Y027253D02*
X013780Y027253D01*
X013827Y027171D02*
X030583Y027171D01*
X030630Y027253D02*
X030630Y027253D01*
X030630Y027253D01*
X030526Y027073D02*
X013884Y027073D01*
X013940Y026974D02*
X030470Y026974D01*
X030444Y026929D02*
X030444Y026929D01*
X030434Y026876D02*
X013976Y026876D01*
X013993Y026777D02*
X030417Y026777D01*
X030399Y026679D02*
X014011Y026679D01*
X014028Y026580D02*
X030382Y026580D01*
X030379Y026561D02*
X030379Y026561D01*
X030393Y026482D02*
X014017Y026482D01*
X014031Y026561D02*
X014031Y026561D01*
X014000Y026383D02*
X030410Y026383D01*
X031900Y025595D02*
X032665Y025595D01*
X032665Y025694D02*
X032070Y025694D01*
X032188Y025792D02*
X032665Y025792D01*
X032665Y025891D02*
X032292Y025891D01*
X032349Y025989D02*
X032665Y025989D01*
X032665Y026088D02*
X032406Y026088D01*
X032463Y026186D02*
X032665Y026186D01*
X032665Y026285D02*
X032483Y026285D01*
X032466Y026193D02*
X032466Y026193D01*
X032500Y026383D02*
X032665Y026383D01*
X032665Y026482D02*
X032517Y026482D01*
X032531Y026561D02*
X032531Y026561D01*
X032528Y026580D02*
X032665Y026580D01*
X032665Y026679D02*
X032511Y026679D01*
X032493Y026777D02*
X032665Y026777D01*
X032665Y026876D02*
X032476Y026876D01*
X032440Y026974D02*
X032665Y026974D01*
X032665Y027073D02*
X032384Y027073D01*
X032327Y027171D02*
X032665Y027171D01*
X032665Y027270D02*
X032260Y027270D01*
X032280Y027253D02*
X032280Y027253D01*
X032142Y027368D02*
X032665Y027368D01*
X032665Y027467D02*
X032025Y027467D01*
X031993Y027493D02*
X031993Y027493D01*
X031796Y027565D02*
X032665Y027565D01*
X032665Y027664D02*
X010989Y027664D01*
X010663Y027762D02*
X032505Y027762D01*
X017015Y025004D02*
X009245Y025004D01*
X009245Y024906D02*
X016933Y024906D01*
X016893Y024807D02*
X009245Y024807D01*
X009245Y024709D02*
X016852Y024709D01*
X016845Y024610D02*
X009245Y024610D01*
X009245Y024512D02*
X016845Y024512D01*
X016852Y024413D02*
X009245Y024413D01*
X009245Y024315D02*
X016893Y024315D01*
X016934Y024216D02*
X011229Y024216D01*
X011064Y024216D02*
X010964Y024216D01*
X010964Y024118D02*
X011064Y024118D01*
X011064Y024019D02*
X010964Y024019D01*
X010964Y023921D02*
X011064Y023921D01*
X011064Y023822D02*
X010964Y023822D01*
X010964Y023724D02*
X010301Y023724D01*
X010399Y023625D02*
X010506Y023625D01*
X010473Y023527D02*
X010540Y023527D01*
X010514Y023428D02*
X010599Y023428D01*
X010555Y023330D02*
X010697Y023330D01*
X010688Y023231D02*
X010556Y023231D01*
X010556Y023133D02*
X010562Y023133D01*
X010500Y023822D02*
X010106Y023822D01*
X009685Y023822D02*
X009245Y023822D01*
X009245Y023724D02*
X009491Y023724D01*
X009393Y023625D02*
X009245Y023625D01*
X009245Y023527D02*
X009319Y023527D01*
X009278Y023428D02*
X009245Y023428D01*
X009245Y023921D02*
X010525Y023921D01*
X010573Y024019D02*
X009245Y024019D01*
X009245Y024118D02*
X010654Y024118D01*
X010799Y024216D02*
X009245Y024216D01*
X009245Y025103D02*
X016930Y025103D01*
X016840Y025201D02*
X010658Y025201D01*
X010987Y025300D02*
X016799Y025300D01*
X016758Y025398D02*
X011157Y025398D01*
X010252Y025201D02*
X009245Y025201D01*
X009245Y025300D02*
X009923Y025300D01*
X009753Y025398D02*
X009245Y025398D01*
X009245Y025497D02*
X009616Y025497D01*
X009518Y025595D02*
X009245Y025595D01*
X009245Y025694D02*
X009421Y025694D01*
X009364Y025792D02*
X009245Y025792D01*
X009245Y025891D02*
X009307Y025891D01*
X009252Y025989D02*
X009245Y025989D01*
X011374Y024118D02*
X017015Y024118D01*
X016930Y024019D02*
X011456Y024019D01*
X011503Y023921D02*
X016840Y023921D01*
X016799Y023822D02*
X011528Y023822D01*
X011522Y023625D02*
X016745Y023625D01*
X016745Y023527D02*
X011488Y023527D01*
X011429Y023428D02*
X016746Y023428D01*
X016786Y023330D02*
X011331Y023330D01*
X011340Y023231D02*
X016827Y023231D01*
X016900Y023133D02*
X011466Y023133D01*
X011565Y023034D02*
X016999Y023034D01*
X016758Y023724D02*
X011064Y023724D01*
X013142Y025501D02*
X013142Y025501D01*
X029520Y013381D02*
X029586Y013381D01*
X031754Y012593D02*
X032665Y012593D01*
X032665Y012495D02*
X031955Y012495D01*
X032053Y012396D02*
X032665Y012396D01*
X032665Y012298D02*
X032130Y012298D01*
X032171Y012199D02*
X032665Y012199D01*
X032665Y012101D02*
X032212Y012101D01*
X032215Y012002D02*
X032665Y012002D01*
X032665Y011904D02*
X032215Y011904D01*
X032205Y011805D02*
X032665Y011805D01*
X032665Y011707D02*
X032164Y011707D01*
X032123Y011608D02*
X032665Y011608D01*
X032665Y011510D02*
X032037Y011510D01*
X031938Y011411D02*
X032665Y011411D01*
X032665Y011313D02*
X031714Y011313D01*
X031793Y008493D02*
X031793Y008493D01*
X031837Y008456D02*
X032665Y008456D01*
X032665Y008358D02*
X031955Y008358D01*
X032072Y008259D02*
X032665Y008259D01*
X032665Y008161D02*
X032133Y008161D01*
X032080Y008253D02*
X032080Y008253D01*
X032190Y008062D02*
X032665Y008062D01*
X032665Y007964D02*
X032247Y007964D01*
X032278Y007865D02*
X032665Y007865D01*
X032665Y007767D02*
X032295Y007767D01*
X032312Y007668D02*
X032665Y007668D01*
X032665Y007570D02*
X032330Y007570D01*
X032331Y007561D02*
X032331Y007561D01*
X032315Y007471D02*
X032665Y007471D01*
X032665Y007373D02*
X032298Y007373D01*
X032281Y007274D02*
X032665Y007274D01*
X032665Y007176D02*
X032256Y007176D01*
X032266Y007193D02*
X032266Y007193D01*
X032200Y007077D02*
X032665Y007077D01*
X032665Y006979D02*
X032143Y006979D01*
X032086Y006880D02*
X032665Y006880D01*
X032665Y006782D02*
X031975Y006782D01*
X031858Y006683D02*
X032665Y006683D01*
X032665Y006585D02*
X031671Y006585D01*
X032665Y004910D02*
X029063Y004910D01*
X029300Y004812D02*
X032665Y004812D01*
X032665Y004713D02*
X029432Y004713D01*
X029531Y004615D02*
X032665Y004615D01*
X032665Y004516D02*
X029625Y004516D01*
X029666Y004418D02*
X032665Y004418D01*
X032665Y004319D02*
X029707Y004319D01*
X029747Y004221D02*
X032665Y004221D01*
X032665Y004122D02*
X029765Y004122D01*
X029765Y004024D02*
X032665Y004024D01*
X032665Y003925D02*
X029765Y003925D01*
X029765Y003827D02*
X032665Y003827D01*
X032665Y003728D02*
X029734Y003728D01*
X029693Y003630D02*
X032665Y003630D01*
X032665Y003531D02*
X029652Y003531D01*
X029596Y003433D02*
X032665Y003433D01*
X032665Y003334D02*
X029497Y003334D01*
X029399Y003236D02*
X032665Y003236D01*
X032665Y003137D02*
X029220Y003137D01*
X028430Y003137D02*
X026020Y003137D01*
X026020Y003039D02*
X032665Y003039D01*
X032665Y002940D02*
X026020Y002940D01*
X026020Y002842D02*
X032665Y002842D01*
X032665Y002743D02*
X026020Y002743D01*
X026020Y002645D02*
X032665Y002645D01*
X032665Y002546D02*
X026020Y002546D01*
X026020Y002448D02*
X032665Y002448D01*
X032665Y002349D02*
X026020Y002349D01*
X026004Y002251D02*
X032665Y002251D01*
X032665Y002152D02*
X025962Y002152D01*
X025864Y002054D02*
X032665Y002054D01*
X032665Y001955D02*
X025765Y001955D01*
X025667Y001857D02*
X032665Y001857D01*
X028251Y003236D02*
X026020Y003236D01*
X026020Y003334D02*
X028153Y003334D01*
X028054Y003433D02*
X026020Y003433D01*
X026020Y003531D02*
X027998Y003531D01*
X027957Y003630D02*
X026020Y003630D01*
X026020Y003728D02*
X027916Y003728D01*
X027885Y003827D02*
X026020Y003827D01*
X026020Y003925D02*
X027885Y003925D01*
X027885Y004024D02*
X026020Y004024D01*
X026020Y004122D02*
X027885Y004122D01*
X027903Y004221D02*
X026020Y004221D01*
X026020Y004319D02*
X027943Y004319D01*
X026616Y004713D02*
X026490Y004713D01*
X026531Y004812D02*
X026536Y004812D01*
X026518Y006289D02*
X026392Y006289D01*
X026264Y006388D02*
X026646Y006388D01*
X025662Y006388D02*
X023340Y006388D01*
X018076Y005698D02*
X016063Y005698D01*
X016065Y005600D02*
X017977Y005600D01*
X017879Y005501D02*
X016065Y005501D01*
X016054Y005403D02*
X016093Y005403D01*
X016617Y005403D02*
X017780Y005403D01*
X015003Y006092D02*
X012041Y006092D01*
X011943Y005994D02*
X014904Y005994D01*
X014829Y005895D02*
X011726Y005895D01*
X011589Y005838D02*
X011928Y005979D01*
X012188Y006238D01*
X012328Y006578D01*
X012328Y006945D01*
X012188Y007284D01*
X011928Y007544D01*
X011589Y007684D01*
X011221Y007684D01*
X010882Y007544D01*
X010622Y007284D01*
X010482Y006945D01*
X010482Y006578D01*
X010622Y006238D01*
X010882Y005979D01*
X011221Y005838D01*
X011589Y005838D01*
X012140Y006191D02*
X014944Y006191D01*
X014903Y006289D02*
X012209Y006289D01*
X012249Y006388D02*
X014862Y006388D01*
X014845Y006486D02*
X012290Y006486D01*
X012328Y006585D02*
X014845Y006585D01*
X014845Y006683D02*
X012328Y006683D01*
X012328Y006782D02*
X014882Y006782D01*
X014923Y006880D02*
X012328Y006880D01*
X012314Y006979D02*
X014989Y006979D01*
X014956Y007077D02*
X012273Y007077D01*
X012232Y007176D02*
X014857Y007176D01*
X014809Y007274D02*
X012192Y007274D01*
X012099Y007373D02*
X014769Y007373D01*
X014745Y007471D02*
X012000Y007471D01*
X011865Y007570D02*
X014745Y007570D01*
X014745Y007668D02*
X011627Y007668D01*
X011183Y007668D02*
X009245Y007668D01*
X009245Y007570D02*
X010945Y007570D01*
X010810Y007471D02*
X009245Y007471D01*
X009245Y007373D02*
X010711Y007373D01*
X010618Y007274D02*
X009245Y007274D01*
X009245Y007176D02*
X010578Y007176D01*
X010537Y007077D02*
X009245Y007077D01*
X009245Y006979D02*
X010496Y006979D01*
X010482Y006880D02*
X009245Y006880D01*
X009245Y006782D02*
X010482Y006782D01*
X010482Y006683D02*
X009245Y006683D01*
X009245Y006585D02*
X010482Y006585D01*
X010520Y006486D02*
X009245Y006486D01*
X009245Y006388D02*
X010561Y006388D01*
X010601Y006289D02*
X009245Y006289D01*
X009245Y006191D02*
X010670Y006191D01*
X010769Y006092D02*
X009245Y006092D01*
X009245Y005994D02*
X010867Y005994D01*
X011084Y005895D02*
X009245Y005895D01*
X009245Y005797D02*
X014788Y005797D01*
X014747Y005698D02*
X009245Y005698D01*
X009245Y005600D02*
X014745Y005600D01*
X014745Y005501D02*
X009245Y005501D01*
X009245Y005403D02*
X014756Y005403D01*
X014776Y007767D02*
X009245Y007767D01*
X009245Y007865D02*
X014817Y007865D01*
X014874Y007964D02*
X009245Y007964D01*
X009245Y008062D02*
X014973Y008062D01*
X013434Y010229D02*
X013376Y010229D01*
X013376Y010328D02*
X013434Y010328D01*
X013434Y010426D02*
X013376Y010426D01*
X013376Y010525D02*
X013434Y010525D01*
X013434Y010623D02*
X013376Y010623D01*
X013376Y010722D02*
X013434Y010722D01*
X013434Y010820D02*
X013376Y010820D01*
X013376Y010919D02*
X013434Y010919D01*
D20*
X014355Y008561D03*
X018055Y006661D03*
X019855Y006961D03*
X020055Y005661D03*
X019855Y003961D03*
X020155Y003361D03*
X021055Y003361D03*
X021555Y004161D03*
X019355Y002761D03*
X018555Y002161D03*
X017655Y004361D03*
X016355Y004961D03*
X014655Y004061D03*
X010655Y004861D03*
X010055Y008161D03*
X010355Y011761D03*
X010155Y014761D03*
X011755Y017361D03*
X011955Y017961D03*
X015555Y016561D03*
X018655Y012961D03*
X020555Y013561D03*
X021055Y013061D03*
X022455Y011661D03*
X021055Y010461D03*
X022455Y010361D03*
X022555Y009761D03*
X023155Y010261D03*
X024355Y010061D03*
X025155Y009361D03*
X024155Y009061D03*
X021955Y007961D03*
X020855Y009061D03*
X023155Y006861D03*
X024155Y005461D03*
X025455Y007061D03*
X028855Y010061D03*
X027755Y010861D03*
X027855Y011861D03*
X025355Y011261D03*
X024755Y012061D03*
X022955Y013661D03*
X022955Y014361D03*
X023755Y014361D03*
X028355Y017661D03*
X026155Y020161D03*
X023455Y022061D03*
X021655Y023661D03*
X021355Y024761D03*
X020355Y023861D03*
X020655Y022661D03*
X021055Y019361D03*
X021855Y019261D03*
X020155Y018561D03*
X013255Y021761D03*
X013155Y022361D03*
X014955Y025361D03*
X025055Y026361D03*
X026755Y024761D03*
X027955Y026361D03*
X029955Y024761D03*
X031655Y019661D03*
X029755Y013861D03*
X031355Y011161D03*
X026955Y002661D03*
D21*
X020555Y004761D02*
X019855Y004061D01*
X019855Y003961D01*
X020555Y004761D02*
X020555Y007261D01*
X020155Y007661D01*
X019855Y007661D01*
X018655Y008861D01*
X018655Y012961D01*
X019555Y013061D02*
X018355Y014261D01*
X018355Y015061D01*
X019855Y016561D01*
X019955Y016561D01*
X019955Y015561D02*
X019755Y015361D01*
X019455Y015361D01*
X019055Y014961D01*
X019055Y014261D01*
X019755Y013561D01*
X020555Y013561D01*
X021055Y013061D02*
X019555Y013061D01*
X022955Y013661D02*
X022955Y010861D01*
X022455Y010361D01*
X023755Y009861D02*
X023755Y013561D01*
X022955Y014361D01*
X023755Y014361D02*
X024355Y013761D01*
X024355Y010061D01*
X025355Y011261D02*
X025355Y011661D01*
X024955Y012061D01*
X024755Y012061D01*
X020155Y018561D02*
X020955Y019361D01*
X021055Y019361D01*
X023455Y022061D02*
X021855Y023661D01*
X021655Y023661D01*
X021455Y023661D01*
X020755Y024361D01*
X020055Y024361D01*
X019255Y023561D01*
X017405Y023561D01*
X020355Y023861D02*
X020655Y023561D01*
X020655Y022661D01*
X016955Y004061D02*
X014655Y004061D01*
X016955Y004061D02*
X017655Y003361D01*
D22*
X017855Y003161D01*
X019555Y003161D01*
X020055Y002661D01*
X021155Y002661D01*
X021755Y003261D01*
X021755Y003761D01*
X021955Y003961D01*
X021955Y007961D01*
X021555Y008761D02*
X022555Y009761D01*
X023155Y010261D02*
X023155Y006861D01*
X021555Y008761D02*
X021555Y004161D01*
X021055Y003361D02*
X021055Y008861D01*
X020855Y009061D01*
X019855Y006961D02*
X017855Y004961D01*
X016355Y004961D01*
X019355Y002761D02*
X019355Y002461D01*
X019655Y002161D01*
X025055Y002161D01*
X025355Y002461D01*
X025355Y005233D01*
X025963Y005841D01*
X025963Y005061D02*
X025655Y004753D01*
X025655Y002361D01*
X025155Y001861D01*
X018855Y001861D01*
X018555Y002161D01*
X028855Y010061D02*
X029155Y010361D01*
X029155Y020461D01*
X028955Y020661D01*
X028955Y022261D01*
X029594Y022900D01*
X029609Y022900D01*
X029609Y021049D02*
X030255Y020403D01*
X030255Y019861D01*
X029755Y019361D01*
X029755Y013861D01*
X013255Y020961D02*
X013255Y021761D01*
X012955Y021361D02*
X012755Y021561D01*
X012755Y022161D01*
X012955Y022361D01*
X013155Y022361D01*
X012955Y021361D02*
X012955Y021061D01*
X011655Y019761D01*
X011655Y018461D01*
X011455Y018261D01*
X011455Y017761D01*
X011755Y017461D01*
X011755Y017361D01*
X011955Y017961D02*
X011955Y019661D01*
X013255Y020961D01*
D23*
X023755Y009861D02*
X024055Y009561D01*
X024855Y009561D01*
X025055Y009361D01*
X025155Y009361D01*
M02*
