%
M48
M72
T01C0.0236
T02C0.0315
T03C0.0354
T04C0.0360
T05C0.0400
T06C0.0866
T07C0.0900
T08C0.1300
%
T01
X10055Y8161
X10655Y4861
X14655Y4061
X16355Y4961
X17655Y4361
X19355Y2761
X18555Y2161
X20155Y3361
X21055Y3361
X21555Y4161
X19855Y3961
X20055Y5661
X19855Y6961
X18055Y6661
X20855Y9061
X21955Y7961
X23155Y6861
X24155Y5461
X25455Y7061
X24155Y9061
X24355Y10061
X25155Y9361
X25355Y11261
X24755Y12061
X23155Y10261
X22455Y10361
X22555Y9761
X21055Y10461
X22455Y11661
X21055Y13061
X20555Y13561
X18655Y12961
X22955Y13661
X22955Y14361
X23755Y14361
X27855Y11861
X27755Y10861
X28855Y10061
X31355Y11161
X29755Y13861
X28355Y17661
X26155Y20161
X23455Y22061
X21655Y23661
X20655Y22661
X20355Y23861
X21355Y24761
X25055Y26361
X26755Y24761
X27955Y26361
X29955Y24761
X31655Y19661
X21855Y19261
X21055Y19361
X20155Y18561
X15555Y16561
X11955Y17961
X11755Y17361
X10155Y14761
X10355Y11761
X14355Y8561
X26955Y2661
X13255Y21761
X13155Y22361
X14955Y25361
T02
X13405Y11561
X13405Y10561
X13405Y4761
X13405Y3761
T03
X28624Y20223
X29609Y20223
X29609Y21049
X29609Y22073
X29609Y22900
X28624Y22900
T04
X26947Y5841
X26947Y5061
X25963Y5061
X25963Y5841
T05
X20255Y8561
X20155Y9561
X20255Y10561
X19955Y14561
X20955Y14561
X20955Y15561
X19955Y15561
X19955Y16561
X20955Y16561
X23455Y19061
X24455Y17061
X25455Y15061
X26955Y18061
X31555Y11961
X17405Y19561
X17505Y20561
X17405Y21561
X17505Y22561
X17405Y23561
X17505Y24561
X17405Y25561
X11014Y23742
X9896Y23195
X11014Y22652
X9896Y22105
X11014Y21561
X9896Y21018
X11014Y20471
X9896Y19927
X11014Y19380
X15405Y7561
X15505Y6561
X15405Y5561
T06
X11405Y6761
X11405Y9561
X11405Y13561
X11405Y2761
X31105Y21561
T07
X28825Y3991
X24085Y3991
T08
X31255Y7561
X15955Y3061
X10455Y16640
X10455Y26483
X12955Y26561
X31455Y26561
M30
