G75*
G70*
%OFA0B0*%
%FSLAX24Y24*%
%IPPOS*%
%LPD*%
%AMOC8*
5,1,8,0,0,1.08239X$1,22.5*
%
%ADD10R,0.0276X0.0276*%
%ADD11R,0.0315X0.0472*%
%ADD12R,0.0315X0.0217*%
%ADD13R,0.0472X0.0315*%
%ADD14R,0.0472X0.0236*%
%ADD15R,0.0591X0.0197*%
%ADD16R,0.0197X0.0591*%
%ADD17R,0.0137X0.0550*%
%ADD18R,0.0630X0.0551*%
%ADD19R,0.0709X0.0787*%
%ADD20R,0.0394X0.0157*%
%ADD21R,0.0472X0.0118*%
%ADD22R,0.0197X0.0236*%
%ADD23R,0.0236X0.0197*%
%ADD24R,0.0870X0.0240*%
%ADD25R,0.0394X0.0551*%
%ADD26R,0.0551X0.0394*%
%ADD27R,0.0472X0.0551*%
D10*
X027391Y012105D03*
X027391Y012617D03*
X028119Y012361D03*
D11*
X028309Y010061D03*
X027601Y010061D03*
X027601Y009061D03*
X028309Y009061D03*
X031701Y010661D03*
X032409Y010661D03*
X031809Y013561D03*
X031101Y013561D03*
X024709Y007061D03*
X024001Y007061D03*
X018509Y003761D03*
X017801Y003761D03*
X017801Y002761D03*
X018509Y002761D03*
X017709Y004961D03*
X017001Y004961D03*
X017109Y009261D03*
X016401Y009261D03*
X013309Y017561D03*
X012601Y017561D03*
X012601Y018561D03*
X013309Y018561D03*
X021101Y020061D03*
X021809Y020061D03*
X021809Y021061D03*
X021101Y021061D03*
X021201Y026461D03*
X021909Y026461D03*
D12*
X029083Y013135D03*
X029083Y012761D03*
X029083Y012387D03*
X030027Y012387D03*
X030027Y012761D03*
X030027Y013135D03*
D13*
X015455Y010707D03*
X015455Y011416D03*
X021455Y007516D03*
X021455Y006807D03*
X022355Y006816D03*
X022355Y006107D03*
X026455Y007207D03*
X026455Y007916D03*
X027455Y007916D03*
X027455Y007207D03*
X028455Y007207D03*
X028455Y007916D03*
X028955Y010707D03*
X028955Y011416D03*
X029955Y011416D03*
X029955Y010707D03*
X015955Y018707D03*
X015955Y019416D03*
X015955Y020207D03*
X015955Y020916D03*
X015955Y021707D03*
X015955Y022416D03*
X018955Y024207D03*
X018955Y024916D03*
X022955Y023416D03*
X022955Y022707D03*
D14*
X014557Y022811D03*
X014557Y023311D03*
X014557Y022311D03*
X014557Y021811D03*
X014557Y021311D03*
X014557Y020811D03*
X014557Y020311D03*
X014557Y019811D03*
X012353Y019811D03*
X012353Y020311D03*
X012353Y020811D03*
X012353Y021311D03*
X012353Y021811D03*
X012353Y022311D03*
X012353Y022811D03*
X012353Y023311D03*
D15*
X021672Y012136D03*
X021672Y011821D03*
X021672Y011506D03*
X021672Y011191D03*
X021672Y010876D03*
X021672Y010561D03*
X021672Y010246D03*
X021672Y009931D03*
X021672Y009616D03*
X021672Y009301D03*
X021672Y008986D03*
X026238Y008986D03*
X026238Y009301D03*
X026238Y009616D03*
X026238Y009931D03*
X026238Y010246D03*
X026238Y010561D03*
X026238Y010876D03*
X026238Y011191D03*
X026238Y011506D03*
X026238Y011821D03*
X026238Y012136D03*
D16*
X025530Y012845D03*
X025215Y012845D03*
X024900Y012845D03*
X024585Y012845D03*
X024270Y012845D03*
X023955Y012845D03*
X023640Y012845D03*
X023325Y012845D03*
X023010Y012845D03*
X022695Y012845D03*
X022380Y012845D03*
X022380Y008278D03*
X022695Y008278D03*
X023010Y008278D03*
X023325Y008278D03*
X023640Y008278D03*
X023955Y008278D03*
X024270Y008278D03*
X024585Y008278D03*
X024900Y008278D03*
X025215Y008278D03*
X025530Y008278D03*
D17*
X022618Y005001D03*
X022362Y005001D03*
X022107Y005001D03*
X021851Y005001D03*
X021595Y005001D03*
X021339Y005001D03*
X021083Y005001D03*
X020827Y005001D03*
X020571Y005001D03*
X020315Y005001D03*
X020059Y005001D03*
X019803Y005001D03*
X019548Y005001D03*
X019292Y005001D03*
X019292Y002122D03*
X019548Y002122D03*
X019803Y002122D03*
X020059Y002122D03*
X020315Y002122D03*
X020571Y002122D03*
X020827Y002122D03*
X021083Y002122D03*
X021339Y002122D03*
X021595Y002122D03*
X021851Y002122D03*
X022107Y002122D03*
X022362Y002122D03*
X022618Y002122D03*
D18*
X015955Y013010D03*
X015955Y014112D03*
D19*
X016955Y008215D03*
X016955Y006561D03*
X018955Y006561D03*
X018955Y008215D03*
D20*
X018846Y010678D03*
X018846Y010934D03*
X018846Y011190D03*
X018846Y011446D03*
X017064Y011446D03*
X017064Y011190D03*
X017064Y010934D03*
X017064Y010678D03*
D21*
X030223Y009946D03*
X030223Y009690D03*
X030223Y009434D03*
X030223Y009178D03*
X031886Y009178D03*
X031886Y009434D03*
X031886Y009690D03*
X031886Y009946D03*
D22*
X022026Y024471D03*
X022026Y025061D03*
X022026Y025652D03*
X020884Y025652D03*
X020884Y025061D03*
X020884Y024471D03*
D23*
X021455Y025652D03*
D24*
X027425Y016311D03*
X027425Y015811D03*
X027425Y015311D03*
X027425Y014811D03*
X029485Y014811D03*
X029485Y015311D03*
X029485Y015811D03*
X029485Y016311D03*
D25*
X021829Y022128D03*
X021081Y022128D03*
X021455Y022994D03*
D26*
X019888Y022935D03*
X019888Y022187D03*
X019022Y022561D03*
D27*
X030864Y005561D03*
X032046Y005561D03*
X032046Y004061D03*
X030864Y004061D03*
X030864Y002561D03*
X032046Y002561D03*
M02*
