G75*
G70*
%OFA0B0*%
%FSLAX24Y24*%
%IPPOS*%
%LPD*%
%AMOC8*
5,1,8,0,0,1.08239X$1,22.5*
%
%ADD10C,0.0594*%
%ADD11C,0.1266*%
%ADD12C,0.0555*%
%ADD13C,0.0660*%
%ADD14C,0.1300*%
%ADD15R,0.0740X0.0740*%
%ADD16OC8,0.0740*%
%ADD17C,0.0740*%
%ADD18C,0.2000*%
%ADD19C,0.0100*%
%ADD20C,0.0436*%
%ADD21C,0.0200*%
%ADD22C,0.0160*%
%ADD23C,0.0150*%
D10*
X028624Y020223D03*
X029609Y020223D03*
X029609Y021049D03*
X029609Y022073D03*
X029609Y022900D03*
X028624Y022900D03*
D11*
X031105Y021561D03*
X011405Y013561D03*
X011405Y009561D03*
X011405Y006761D03*
X011405Y002761D03*
D12*
X013128Y003761D02*
X013682Y003761D01*
X013682Y004761D02*
X013128Y004761D01*
X013128Y010561D02*
X013682Y010561D01*
X013682Y011561D02*
X013128Y011561D01*
D13*
X025963Y005841D03*
X025963Y005061D03*
X026947Y005061D03*
X026947Y005841D03*
D14*
X028825Y003991D03*
X024085Y003991D03*
D15*
X019955Y016561D03*
X023555Y019811D03*
X013214Y019680D03*
D16*
X019955Y015561D03*
X020955Y015561D03*
X020955Y016561D03*
X020955Y014561D03*
X019955Y014561D03*
D17*
X020255Y010561D03*
X020155Y009561D03*
X020255Y008561D03*
X015405Y007561D03*
X015505Y006561D03*
X015405Y005561D03*
X028420Y017371D03*
X026555Y019711D03*
X025555Y019811D03*
X024555Y019711D03*
X031555Y011961D03*
X013214Y020771D03*
X012096Y020227D03*
X012096Y021318D03*
X013214Y021861D03*
X012096Y022405D03*
X013214Y022952D03*
X012096Y023495D03*
X013214Y024042D03*
D18*
X012655Y026783D03*
X012655Y016940D03*
D19*
X009295Y027721D02*
X009295Y001901D01*
X011069Y001901D01*
X010882Y001979D01*
X010622Y002238D01*
X010482Y002578D01*
X010482Y002945D01*
X010622Y003284D01*
X010882Y003544D01*
X011221Y003684D01*
X011589Y003684D01*
X011928Y003544D01*
X012188Y003284D01*
X012328Y002945D01*
X012328Y002578D01*
X012188Y002238D01*
X011928Y001979D01*
X011741Y001901D01*
X018113Y001901D01*
X018047Y002060D01*
X018047Y002262D01*
X018124Y002449D01*
X018267Y002592D01*
X018454Y002669D01*
X018656Y002669D01*
X018843Y002592D01*
X018898Y002537D01*
X018847Y002660D01*
X018847Y002796D01*
X017782Y002796D01*
X017648Y002852D01*
X017494Y003006D01*
X017434Y003031D01*
X016193Y004271D01*
X014977Y004271D01*
X014834Y004331D01*
X014724Y004440D01*
X014224Y004940D01*
X014165Y005084D01*
X014165Y008039D01*
X014224Y008182D01*
X014334Y008292D01*
X014565Y008523D01*
X014565Y008600D01*
X014224Y008940D01*
X014165Y009084D01*
X014165Y011243D01*
X014164Y011240D01*
X014004Y011080D01*
X013795Y010994D01*
X013015Y010994D01*
X012806Y011080D01*
X012646Y011240D01*
X012560Y011448D01*
X012560Y011674D01*
X012646Y011883D01*
X012806Y012042D01*
X013015Y012129D01*
X013795Y012129D01*
X014004Y012042D01*
X014164Y011883D01*
X014165Y011879D01*
X014165Y012133D01*
X014124Y012173D01*
X014047Y012360D01*
X014047Y012562D01*
X014124Y012749D01*
X014267Y012892D01*
X014454Y012969D01*
X014656Y012969D01*
X014843Y012892D01*
X014986Y012749D01*
X015005Y012703D01*
X015024Y012749D01*
X015167Y012892D01*
X015354Y012969D01*
X015556Y012969D01*
X015743Y012892D01*
X015886Y012749D01*
X015963Y012562D01*
X015963Y012360D01*
X015886Y012173D01*
X015845Y012133D01*
X015845Y010923D01*
X016517Y010251D01*
X017126Y010251D01*
X017167Y010292D01*
X017354Y010369D01*
X017556Y010369D01*
X017743Y010292D01*
X017886Y010149D01*
X017963Y009962D01*
X017963Y009760D01*
X017886Y009573D01*
X017743Y009431D01*
X017556Y009353D01*
X017354Y009353D01*
X017167Y009431D01*
X017126Y009471D01*
X016277Y009471D01*
X016134Y009531D01*
X015124Y010540D01*
X015065Y010684D01*
X015065Y012133D01*
X015024Y012173D01*
X015005Y012220D01*
X014986Y012173D01*
X014945Y012133D01*
X014945Y009323D01*
X015176Y009092D01*
X015286Y008982D01*
X015345Y008839D01*
X015345Y008284D01*
X015319Y008221D01*
X015536Y008221D01*
X015779Y008121D01*
X015965Y007935D01*
X016065Y007693D01*
X016065Y007430D01*
X015965Y007187D01*
X015888Y007111D01*
X016065Y006935D01*
X016165Y006693D01*
X016165Y006430D01*
X016065Y006187D01*
X015888Y006011D01*
X015965Y005935D01*
X016065Y005693D01*
X016065Y005590D01*
X016067Y005592D01*
X016254Y005669D01*
X016456Y005669D01*
X016643Y005592D01*
X016709Y005526D01*
X017769Y005526D01*
X017781Y005531D01*
X017802Y005531D01*
X019357Y007086D01*
X019424Y007249D01*
X019567Y007392D01*
X019642Y007423D01*
X018734Y008331D01*
X018624Y008440D01*
X018565Y008584D01*
X018565Y012500D01*
X017534Y013531D01*
X017424Y013640D01*
X017365Y013784D01*
X017365Y015739D01*
X017424Y015882D01*
X018565Y017023D01*
X018565Y017239D01*
X018624Y017382D01*
X019124Y017882D01*
X019234Y017992D01*
X019377Y018051D01*
X020693Y018051D01*
X021965Y019323D01*
X021965Y023926D01*
X021833Y023871D01*
X021784Y023871D01*
X021743Y023831D01*
X021556Y023753D01*
X021354Y023753D01*
X021167Y023831D01*
X021024Y023973D01*
X020947Y024160D01*
X020947Y024362D01*
X021024Y024549D01*
X021167Y024692D01*
X021354Y024769D01*
X021556Y024769D01*
X021666Y024724D01*
X022247Y025305D01*
X022247Y025362D01*
X022324Y025549D01*
X022467Y025692D01*
X022654Y025769D01*
X022712Y025769D01*
X023724Y026782D01*
X023834Y026892D01*
X023977Y026951D01*
X024792Y026951D01*
X024747Y027060D01*
X024747Y027262D01*
X024824Y027449D01*
X024967Y027592D01*
X025154Y027669D01*
X025356Y027669D01*
X025543Y027592D01*
X025584Y027551D01*
X025733Y027551D01*
X025876Y027492D01*
X025986Y027382D01*
X026886Y026482D01*
X030393Y026482D01*
X030379Y026561D02*
X030444Y026193D01*
X030630Y025869D01*
X030917Y025629D01*
X031268Y025501D01*
X031389Y025501D01*
X031642Y025501D01*
X031993Y025629D01*
X031993Y025629D01*
X032280Y025869D01*
X032280Y025869D01*
X032280Y025869D01*
X032466Y026193D01*
X032531Y026561D01*
X032466Y026929D01*
X032466Y026929D01*
X032280Y027253D01*
X031993Y027493D01*
X031642Y027621D01*
X031268Y027621D01*
X030917Y027493D01*
X030630Y027253D01*
X030444Y026929D01*
X030379Y026561D01*
X030379Y026561D01*
X030382Y026580D02*
X026787Y026580D01*
X026886Y026482D02*
X026945Y026339D01*
X026945Y025584D01*
X026886Y025440D01*
X026776Y025331D01*
X026376Y024931D01*
X026233Y024871D01*
X025484Y024871D01*
X025443Y024831D01*
X025256Y024753D01*
X025054Y024753D01*
X024867Y024831D01*
X024724Y024973D01*
X024647Y025160D01*
X024647Y025362D01*
X024724Y025549D01*
X024794Y025619D01*
X024767Y025631D01*
X024726Y025671D01*
X024317Y025671D01*
X022863Y024218D01*
X022863Y024160D01*
X022786Y023973D01*
X022745Y023933D01*
X022745Y019084D01*
X022686Y018940D01*
X022576Y018831D01*
X021076Y017331D01*
X020933Y017271D01*
X019617Y017271D01*
X019567Y017221D01*
X020383Y017221D01*
X020489Y017177D01*
X020563Y017103D01*
X020682Y017221D01*
X021228Y017221D01*
X021615Y016835D01*
X021615Y016288D01*
X021388Y016061D01*
X021615Y015835D01*
X021615Y015288D01*
X021289Y014962D01*
X021475Y014777D01*
X021475Y014611D01*
X021005Y014611D01*
X021005Y014511D01*
X021005Y014041D01*
X021170Y014041D01*
X021475Y014346D01*
X021475Y014511D01*
X021005Y014511D01*
X020905Y014511D01*
X020905Y014041D01*
X020740Y014041D01*
X020554Y014227D01*
X020356Y014029D01*
X020454Y014069D01*
X020656Y014069D01*
X020843Y013992D01*
X020986Y013849D01*
X021063Y013662D01*
X021063Y013569D01*
X021156Y013569D01*
X021343Y013492D01*
X021486Y013349D01*
X021563Y013162D01*
X021563Y012960D01*
X021486Y012773D01*
X021343Y012631D01*
X021156Y012553D01*
X020954Y012553D01*
X020767Y012631D01*
X020726Y012671D01*
X019477Y012671D01*
X019345Y012726D01*
X019345Y008823D01*
X019595Y008573D01*
X019595Y008693D01*
X019695Y008935D01*
X019772Y009011D01*
X019595Y009187D01*
X019495Y009430D01*
X019495Y009693D01*
X019595Y009935D01*
X019772Y010111D01*
X019695Y010187D01*
X019595Y010430D01*
X019595Y010693D01*
X019695Y010935D01*
X019881Y011121D01*
X020124Y011221D01*
X020386Y011221D01*
X020629Y011121D01*
X020815Y010935D01*
X020915Y010693D01*
X020915Y010430D01*
X020815Y010187D01*
X020638Y010011D01*
X020715Y009935D01*
X020815Y009693D01*
X020815Y009569D01*
X020956Y009569D01*
X021143Y009492D01*
X021286Y009349D01*
X021363Y009162D01*
X021363Y009086D01*
X022047Y009769D01*
X022047Y009862D01*
X022102Y009996D01*
X022024Y010073D01*
X021947Y010260D01*
X021947Y010462D01*
X022024Y010649D01*
X022167Y010792D01*
X022354Y010869D01*
X022412Y010869D01*
X022565Y011023D01*
X022565Y013333D01*
X022524Y013373D01*
X022447Y013560D01*
X022447Y013762D01*
X022524Y013949D01*
X022586Y014011D01*
X022524Y014073D01*
X022447Y014260D01*
X022447Y014462D01*
X022524Y014649D01*
X022667Y014792D01*
X022854Y014869D01*
X023056Y014869D01*
X023243Y014792D01*
X023355Y014680D01*
X023467Y014792D01*
X023654Y014869D01*
X023856Y014869D01*
X024043Y014792D01*
X024186Y014649D01*
X024263Y014462D01*
X024263Y014405D01*
X024576Y014092D01*
X024686Y013982D01*
X024745Y013839D01*
X024745Y012569D01*
X024856Y012569D01*
X025043Y012492D01*
X025120Y012415D01*
X025176Y012392D01*
X025286Y012282D01*
X025686Y011882D01*
X025745Y011739D01*
X025745Y011590D01*
X025786Y011549D01*
X025863Y011362D01*
X025863Y011160D01*
X025786Y010973D01*
X025643Y010831D01*
X025456Y010753D01*
X025254Y010753D01*
X025067Y010831D01*
X024924Y010973D01*
X024847Y011160D01*
X024847Y011362D01*
X024922Y011543D01*
X024895Y011569D01*
X024856Y011553D01*
X024745Y011553D01*
X024745Y010390D01*
X024786Y010349D01*
X024863Y010162D01*
X024863Y009960D01*
X024859Y009951D01*
X025033Y009951D01*
X025176Y009892D01*
X025198Y009869D01*
X025256Y009869D01*
X025443Y009792D01*
X025586Y009649D01*
X025663Y009462D01*
X025663Y009260D01*
X025586Y009073D01*
X025443Y008931D01*
X025256Y008853D01*
X025054Y008853D01*
X024867Y008931D01*
X024724Y009073D01*
X024684Y009171D01*
X023977Y009171D01*
X023834Y009231D01*
X023520Y009545D01*
X023520Y007215D01*
X023586Y007149D01*
X023663Y006962D01*
X023663Y006760D01*
X023586Y006573D01*
X023443Y006431D01*
X023256Y006353D01*
X023054Y006353D01*
X022867Y006431D01*
X022724Y006573D01*
X022647Y006760D01*
X022647Y006962D01*
X022724Y007149D01*
X022790Y007215D01*
X022790Y009309D01*
X022656Y009253D01*
X022563Y009253D01*
X021925Y008615D01*
X021925Y008469D01*
X022056Y008469D01*
X022243Y008392D01*
X022386Y008249D01*
X022463Y008062D01*
X022790Y008062D01*
X022790Y007964D02*
X022463Y007964D01*
X022463Y008062D02*
X022463Y007860D01*
X022386Y007673D01*
X022320Y007608D01*
X022320Y003889D01*
X022264Y003755D01*
X022120Y003610D01*
X022120Y003189D01*
X022064Y003055D01*
X021536Y002526D01*
X024904Y002526D01*
X024990Y002612D01*
X024990Y003720D01*
X024882Y003459D01*
X024617Y003194D01*
X024272Y003051D01*
X023898Y003051D01*
X023553Y003194D01*
X023288Y003459D01*
X023145Y003804D01*
X023145Y004178D01*
X023288Y004524D01*
X023553Y004788D01*
X023898Y004931D01*
X024272Y004931D01*
X024617Y004788D01*
X024882Y004524D01*
X024990Y004263D01*
X024990Y005306D01*
X025046Y005440D01*
X025343Y005737D01*
X025343Y005965D01*
X025437Y006192D01*
X025612Y006367D01*
X025840Y006461D01*
X026086Y006461D01*
X026314Y006367D01*
X026455Y006226D01*
X026596Y006367D01*
X026824Y006461D01*
X027070Y006461D01*
X027298Y006367D01*
X027473Y006192D01*
X027567Y005965D01*
X027567Y005718D01*
X027473Y005490D01*
X027332Y005349D01*
X027358Y005313D01*
X027392Y005246D01*
X027415Y005174D01*
X027427Y005101D01*
X026987Y005101D01*
X026987Y005021D01*
X026987Y004582D01*
X027060Y004593D01*
X027131Y004616D01*
X027199Y004651D01*
X027260Y004695D01*
X027313Y004749D01*
X027358Y004810D01*
X027392Y004877D01*
X027415Y004949D01*
X027427Y005021D01*
X026987Y005021D01*
X026907Y005021D01*
X026907Y004582D01*
X026835Y004593D01*
X026763Y004616D01*
X026696Y004651D01*
X026634Y004695D01*
X026581Y004749D01*
X026537Y004810D01*
X026533Y004817D01*
X026488Y004710D01*
X026314Y004536D01*
X026086Y004441D01*
X026020Y004441D01*
X026020Y002289D01*
X025964Y002155D01*
X025862Y002052D01*
X025711Y001901D01*
X032615Y001901D01*
X032615Y027721D01*
X013541Y027721D01*
X013687Y027575D01*
X013857Y027280D01*
X013945Y026952D01*
X013945Y026613D01*
X013857Y026285D01*
X015810Y026285D01*
X015792Y026383D02*
X013884Y026383D01*
X013857Y026285D02*
X013687Y025990D01*
X013447Y025750D01*
X013153Y025580D01*
X012825Y025493D01*
X012485Y025493D01*
X012157Y025580D01*
X011863Y025750D01*
X011623Y025990D01*
X011453Y026285D01*
X009295Y026285D01*
X009295Y026383D02*
X011426Y026383D01*
X011453Y026285D02*
X011365Y026613D01*
X011365Y026952D01*
X011453Y027280D01*
X011623Y027575D01*
X011769Y027721D01*
X009295Y027721D01*
X009295Y027664D02*
X011712Y027664D01*
X011617Y027565D02*
X009295Y027565D01*
X009295Y027467D02*
X011561Y027467D01*
X011504Y027368D02*
X009295Y027368D01*
X009295Y027270D02*
X011450Y027270D01*
X011424Y027171D02*
X009295Y027171D01*
X009295Y027073D02*
X011397Y027073D01*
X011371Y026974D02*
X009295Y026974D01*
X009295Y026876D02*
X011365Y026876D01*
X011365Y026777D02*
X009295Y026777D01*
X009295Y026679D02*
X011365Y026679D01*
X011374Y026580D02*
X009295Y026580D01*
X009295Y026482D02*
X011400Y026482D01*
X011510Y026186D02*
X009295Y026186D01*
X009295Y026088D02*
X011567Y026088D01*
X011624Y025989D02*
X009295Y025989D01*
X009295Y025891D02*
X011722Y025891D01*
X011821Y025792D02*
X009295Y025792D01*
X009295Y025694D02*
X011961Y025694D01*
X012131Y025595D02*
X009295Y025595D01*
X009295Y025497D02*
X012469Y025497D01*
X012841Y025497D02*
X016406Y025497D01*
X016317Y025529D02*
X016668Y025401D01*
X016921Y025401D01*
X017042Y025401D01*
X017393Y025529D01*
X017393Y025529D01*
X017680Y025769D01*
X017680Y025769D01*
X017680Y025769D01*
X017866Y026093D01*
X017931Y026461D01*
X017866Y026829D01*
X017866Y026829D01*
X017680Y027153D01*
X017393Y027393D01*
X017042Y027521D01*
X016668Y027521D01*
X016317Y027393D01*
X016030Y027153D01*
X015844Y026829D01*
X015779Y026461D01*
X015844Y026093D01*
X016030Y025769D01*
X016317Y025529D01*
X016317Y025529D01*
X016238Y025595D02*
X013179Y025595D01*
X013349Y025694D02*
X016121Y025694D01*
X016030Y025769D02*
X016030Y025769D01*
X016017Y025792D02*
X013489Y025792D01*
X013588Y025891D02*
X015960Y025891D01*
X015903Y025989D02*
X013686Y025989D01*
X013743Y026088D02*
X015847Y026088D01*
X015844Y026093D02*
X015844Y026093D01*
X015827Y026186D02*
X013800Y026186D01*
X013910Y026482D02*
X015782Y026482D01*
X015779Y026461D02*
X015779Y026461D01*
X015800Y026580D02*
X013936Y026580D01*
X013945Y026679D02*
X015817Y026679D01*
X015834Y026777D02*
X013945Y026777D01*
X013945Y026876D02*
X015870Y026876D01*
X015844Y026829D02*
X015844Y026829D01*
X015927Y026974D02*
X013939Y026974D01*
X013913Y027073D02*
X015984Y027073D01*
X016030Y027153D02*
X016030Y027153D01*
X016030Y027153D01*
X016052Y027171D02*
X013886Y027171D01*
X013860Y027270D02*
X016170Y027270D01*
X016287Y027368D02*
X013806Y027368D01*
X013749Y027467D02*
X016519Y027467D01*
X016317Y027393D02*
X016317Y027393D01*
X017191Y027467D02*
X024842Y027467D01*
X024791Y027368D02*
X017423Y027368D01*
X017393Y027393D02*
X017393Y027393D01*
X017540Y027270D02*
X024750Y027270D01*
X024747Y027171D02*
X017658Y027171D01*
X017680Y027153D02*
X017680Y027153D01*
X017726Y027073D02*
X024747Y027073D01*
X024782Y026974D02*
X017783Y026974D01*
X017840Y026876D02*
X023818Y026876D01*
X023720Y026777D02*
X017876Y026777D01*
X017893Y026679D02*
X023621Y026679D01*
X023523Y026580D02*
X017910Y026580D01*
X017928Y026482D02*
X023424Y026482D01*
X023326Y026383D02*
X017918Y026383D01*
X017931Y026461D02*
X017931Y026461D01*
X017900Y026285D02*
X023227Y026285D01*
X023129Y026186D02*
X017883Y026186D01*
X017866Y026093D02*
X017866Y026093D01*
X017863Y026088D02*
X023030Y026088D01*
X022932Y025989D02*
X017807Y025989D01*
X017750Y025891D02*
X022833Y025891D01*
X022735Y025792D02*
X017693Y025792D01*
X017589Y025694D02*
X022472Y025694D01*
X022370Y025595D02*
X017472Y025595D01*
X017304Y025497D02*
X022303Y025497D01*
X022262Y025398D02*
X009295Y025398D01*
X009295Y025300D02*
X022242Y025300D01*
X022144Y025201D02*
X009295Y025201D01*
X009295Y025103D02*
X022045Y025103D01*
X021947Y025004D02*
X009295Y025004D01*
X009295Y024906D02*
X021848Y024906D01*
X021750Y024807D02*
X009295Y024807D01*
X009295Y024709D02*
X021208Y024709D01*
X021085Y024610D02*
X013568Y024610D01*
X013588Y024602D02*
X013345Y024702D01*
X013083Y024702D01*
X012840Y024602D01*
X012655Y024416D01*
X012554Y024174D01*
X012554Y023970D01*
X012470Y024055D01*
X012227Y024155D01*
X011965Y024155D01*
X011722Y024055D01*
X011536Y023869D01*
X011436Y023626D01*
X011436Y023364D01*
X011536Y023121D01*
X011708Y022950D01*
X011536Y022778D01*
X011436Y022536D01*
X011436Y022273D01*
X011536Y022031D01*
X011706Y021861D01*
X011536Y021692D01*
X011436Y021449D01*
X011436Y021187D01*
X011536Y020944D01*
X011708Y020773D01*
X011536Y020601D01*
X011436Y020359D01*
X011436Y020096D01*
X011536Y019854D01*
X011722Y019668D01*
X011965Y019567D01*
X012227Y019567D01*
X012470Y019668D01*
X012655Y019854D01*
X012694Y019947D01*
X012694Y019730D01*
X013164Y019730D01*
X013164Y019630D01*
X013264Y019630D01*
X013264Y019160D01*
X013604Y019160D01*
X013642Y019170D01*
X013676Y019190D01*
X013704Y019218D01*
X013724Y019252D01*
X013734Y019290D01*
X013734Y019630D01*
X013264Y019630D01*
X013264Y019730D01*
X013734Y019730D01*
X013734Y020070D01*
X013724Y020108D01*
X013704Y020142D01*
X013676Y020170D01*
X013642Y020190D01*
X013604Y020200D01*
X013561Y020200D01*
X013588Y020211D01*
X013774Y020397D01*
X013855Y020594D01*
X013954Y020553D01*
X014156Y020553D01*
X014343Y020631D01*
X014486Y020773D01*
X014563Y020960D01*
X014563Y021162D01*
X014486Y021349D01*
X014425Y021410D01*
X014425Y022184D01*
X014369Y022320D01*
X014265Y022425D01*
X013872Y022817D01*
X013874Y022821D01*
X013874Y023083D01*
X013774Y023326D01*
X013602Y023497D01*
X013774Y023669D01*
X013874Y023911D01*
X013874Y024174D01*
X013774Y024416D01*
X013588Y024602D01*
X013678Y024512D02*
X021009Y024512D01*
X020968Y024413D02*
X013775Y024413D01*
X013816Y024315D02*
X020947Y024315D01*
X020947Y024216D02*
X013856Y024216D01*
X013874Y024118D02*
X020964Y024118D01*
X021005Y024019D02*
X013874Y024019D01*
X013874Y023921D02*
X021077Y023921D01*
X021187Y023822D02*
X013837Y023822D01*
X013796Y023724D02*
X021965Y023724D01*
X021965Y023822D02*
X021723Y023822D01*
X021952Y023921D02*
X021965Y023921D01*
X021965Y023625D02*
X013730Y023625D01*
X013632Y023527D02*
X021965Y023527D01*
X021965Y023428D02*
X016255Y023428D01*
X016343Y023392D02*
X016156Y023469D01*
X015954Y023469D01*
X015767Y023392D01*
X015624Y023249D01*
X015547Y023062D01*
X015547Y022969D01*
X015454Y022969D01*
X015267Y022892D01*
X015124Y022749D01*
X015047Y022562D01*
X015047Y022360D01*
X015124Y022173D01*
X015185Y022113D01*
X015185Y020015D01*
X014540Y019369D01*
X014454Y019369D01*
X014267Y019292D01*
X014124Y019149D01*
X014047Y018962D01*
X014047Y018760D01*
X014124Y018573D01*
X014267Y018431D01*
X014296Y018419D01*
X014047Y018169D01*
X013954Y018169D01*
X013767Y018092D01*
X013624Y017949D01*
X013579Y017840D01*
X013447Y017972D01*
X013153Y018142D01*
X012825Y018230D01*
X012485Y018230D01*
X012157Y018142D01*
X011863Y017972D01*
X011623Y017732D01*
X011453Y017438D01*
X011365Y017110D01*
X011365Y016770D01*
X011453Y016442D01*
X011623Y016148D01*
X011863Y015908D01*
X012157Y015738D01*
X012485Y015650D01*
X012825Y015650D01*
X013153Y015738D01*
X013447Y015908D01*
X013687Y016148D01*
X013857Y016442D01*
X013945Y016770D01*
X013945Y017110D01*
X013931Y017163D01*
X013954Y017153D01*
X014156Y017153D01*
X014343Y017231D01*
X014486Y017373D01*
X014563Y017560D01*
X014563Y017653D01*
X016262Y019352D01*
X016364Y019455D01*
X016420Y019589D01*
X016420Y022608D01*
X016486Y022673D01*
X016563Y022860D01*
X016563Y023062D01*
X016486Y023249D01*
X016343Y023392D01*
X016405Y023330D02*
X021965Y023330D01*
X021965Y023231D02*
X016493Y023231D01*
X016534Y023133D02*
X021965Y023133D01*
X021965Y023034D02*
X016563Y023034D01*
X016563Y022936D02*
X021965Y022936D01*
X021965Y022837D02*
X016554Y022837D01*
X016513Y022739D02*
X021965Y022739D01*
X021965Y022640D02*
X016453Y022640D01*
X016420Y022542D02*
X021965Y022542D01*
X021965Y022443D02*
X016420Y022443D01*
X016420Y022345D02*
X021965Y022345D01*
X021965Y022246D02*
X016420Y022246D01*
X016420Y022148D02*
X021965Y022148D01*
X021965Y022049D02*
X016420Y022049D01*
X016420Y021951D02*
X021965Y021951D01*
X021965Y021852D02*
X016420Y021852D01*
X016420Y021754D02*
X021965Y021754D01*
X021965Y021655D02*
X016420Y021655D01*
X016420Y021557D02*
X021965Y021557D01*
X021965Y021458D02*
X016420Y021458D01*
X016420Y021360D02*
X021965Y021360D01*
X021965Y021261D02*
X016420Y021261D01*
X016420Y021163D02*
X021965Y021163D01*
X021965Y021064D02*
X016420Y021064D01*
X016420Y020966D02*
X021965Y020966D01*
X021965Y020867D02*
X016420Y020867D01*
X016420Y020769D02*
X021965Y020769D01*
X021965Y020670D02*
X016420Y020670D01*
X016420Y020572D02*
X021965Y020572D01*
X021965Y020473D02*
X016420Y020473D01*
X016420Y020375D02*
X021965Y020375D01*
X021965Y020276D02*
X016420Y020276D01*
X016420Y020178D02*
X021965Y020178D01*
X021965Y020079D02*
X016420Y020079D01*
X016420Y019981D02*
X021965Y019981D01*
X021965Y019882D02*
X016420Y019882D01*
X016420Y019784D02*
X021965Y019784D01*
X021965Y019685D02*
X016420Y019685D01*
X016419Y019587D02*
X021965Y019587D01*
X021965Y019488D02*
X016378Y019488D01*
X016300Y019390D02*
X021965Y019390D01*
X021934Y019291D02*
X016201Y019291D01*
X016103Y019193D02*
X021835Y019193D01*
X021737Y019094D02*
X016004Y019094D01*
X015906Y018996D02*
X021638Y018996D01*
X021540Y018897D02*
X015807Y018897D01*
X015709Y018799D02*
X021441Y018799D01*
X021343Y018700D02*
X015610Y018700D01*
X015512Y018602D02*
X021244Y018602D01*
X021145Y018503D02*
X015413Y018503D01*
X015315Y018405D02*
X021047Y018405D01*
X020948Y018306D02*
X015216Y018306D01*
X015118Y018208D02*
X020850Y018208D01*
X020751Y018109D02*
X015019Y018109D01*
X014921Y018011D02*
X019280Y018011D01*
X019154Y017912D02*
X014822Y017912D01*
X014724Y017814D02*
X019056Y017814D01*
X018957Y017715D02*
X014625Y017715D01*
X014563Y017617D02*
X018859Y017617D01*
X018760Y017518D02*
X014546Y017518D01*
X014505Y017420D02*
X018662Y017420D01*
X018599Y017321D02*
X014434Y017321D01*
X014324Y017223D02*
X018565Y017223D01*
X018565Y017124D02*
X013941Y017124D01*
X013945Y017026D02*
X018565Y017026D01*
X018469Y016927D02*
X013945Y016927D01*
X013945Y016829D02*
X018371Y016829D01*
X018272Y016730D02*
X013934Y016730D01*
X013908Y016632D02*
X018174Y016632D01*
X018075Y016533D02*
X013882Y016533D01*
X013853Y016435D02*
X017977Y016435D01*
X017878Y016336D02*
X013796Y016336D01*
X013739Y016238D02*
X017780Y016238D01*
X017681Y016139D02*
X013679Y016139D01*
X013580Y016041D02*
X017583Y016041D01*
X017484Y015942D02*
X013482Y015942D01*
X013336Y015844D02*
X017408Y015844D01*
X017368Y015745D02*
X013166Y015745D01*
X012144Y015745D02*
X009295Y015745D01*
X009295Y015647D02*
X017365Y015647D01*
X017365Y015548D02*
X009295Y015548D01*
X009295Y015450D02*
X017365Y015450D01*
X017365Y015351D02*
X009295Y015351D01*
X009295Y015253D02*
X017365Y015253D01*
X017365Y015154D02*
X009295Y015154D01*
X009295Y015056D02*
X017365Y015056D01*
X017365Y014957D02*
X009295Y014957D01*
X009295Y014859D02*
X017365Y014859D01*
X017365Y014760D02*
X009295Y014760D01*
X009295Y014662D02*
X017365Y014662D01*
X017365Y014563D02*
X009295Y014563D01*
X009295Y014465D02*
X011174Y014465D01*
X011221Y014484D02*
X010882Y014344D01*
X010622Y014084D01*
X010482Y013745D01*
X010482Y013378D01*
X010622Y013038D01*
X010882Y012779D01*
X011221Y012638D01*
X011589Y012638D01*
X011928Y012779D01*
X012188Y013038D01*
X012328Y013378D01*
X012328Y013745D01*
X012188Y014084D01*
X011928Y014344D01*
X011589Y014484D01*
X011221Y014484D01*
X010936Y014366D02*
X009295Y014366D01*
X009295Y014268D02*
X010806Y014268D01*
X010708Y014169D02*
X009295Y014169D01*
X009295Y014071D02*
X010617Y014071D01*
X010576Y013972D02*
X009295Y013972D01*
X009295Y013874D02*
X010535Y013874D01*
X010495Y013775D02*
X009295Y013775D01*
X009295Y013677D02*
X010482Y013677D01*
X010482Y013578D02*
X009295Y013578D01*
X009295Y013480D02*
X010482Y013480D01*
X010482Y013381D02*
X009295Y013381D01*
X009295Y013283D02*
X010521Y013283D01*
X010562Y013184D02*
X009295Y013184D01*
X009295Y013086D02*
X010603Y013086D01*
X010674Y012987D02*
X009295Y012987D01*
X009295Y012889D02*
X010772Y012889D01*
X010871Y012790D02*
X009295Y012790D01*
X009295Y012692D02*
X011092Y012692D01*
X011718Y012692D02*
X014101Y012692D01*
X014060Y012593D02*
X009295Y012593D01*
X009295Y012495D02*
X014047Y012495D01*
X014047Y012396D02*
X009295Y012396D01*
X009295Y012298D02*
X014073Y012298D01*
X014114Y012199D02*
X009295Y012199D01*
X009295Y012101D02*
X012947Y012101D01*
X012766Y012002D02*
X009295Y012002D01*
X009295Y011904D02*
X012668Y011904D01*
X012614Y011805D02*
X009295Y011805D01*
X009295Y011707D02*
X012574Y011707D01*
X012560Y011608D02*
X009295Y011608D01*
X009295Y011510D02*
X012560Y011510D01*
X012575Y011411D02*
X009295Y011411D01*
X009295Y011313D02*
X012616Y011313D01*
X012672Y011214D02*
X009295Y011214D01*
X009295Y011116D02*
X012770Y011116D01*
X012958Y011017D02*
X009295Y011017D01*
X009295Y010919D02*
X012892Y010919D01*
X012903Y010927D02*
X012849Y010887D01*
X012801Y010840D01*
X012762Y010785D01*
X012731Y010725D01*
X012711Y010661D01*
X012700Y010595D01*
X012700Y010590D01*
X013376Y010590D01*
X013376Y010533D01*
X012700Y010533D01*
X012700Y010528D01*
X012711Y010461D01*
X012731Y010397D01*
X012762Y010337D01*
X012801Y010283D01*
X012849Y010235D01*
X012903Y010196D01*
X012963Y010165D01*
X013027Y010144D01*
X013094Y010134D01*
X013376Y010134D01*
X013376Y010533D01*
X013434Y010533D01*
X013434Y010590D01*
X014110Y010590D01*
X014110Y010595D01*
X014099Y010661D01*
X014079Y010725D01*
X014048Y010785D01*
X014009Y010840D01*
X013961Y010887D01*
X013907Y010927D01*
X013847Y010957D01*
X013783Y010978D01*
X013716Y010989D01*
X013434Y010989D01*
X013434Y010590D01*
X013376Y010590D01*
X013376Y010989D01*
X013094Y010989D01*
X013027Y010978D01*
X012963Y010957D01*
X012903Y010927D01*
X012787Y010820D02*
X009295Y010820D01*
X009295Y010722D02*
X012730Y010722D01*
X012705Y010623D02*
X009295Y010623D01*
X009295Y010525D02*
X012700Y010525D01*
X012722Y010426D02*
X011729Y010426D01*
X011589Y010484D02*
X011928Y010344D01*
X012188Y010084D01*
X012328Y009745D01*
X012328Y009378D01*
X012188Y009038D01*
X011928Y008779D01*
X011589Y008638D01*
X011221Y008638D01*
X010882Y008779D01*
X010622Y009038D01*
X010482Y009378D01*
X010482Y009745D01*
X010622Y010084D01*
X010882Y010344D01*
X011221Y010484D01*
X011589Y010484D01*
X011944Y010328D02*
X012769Y010328D01*
X012857Y010229D02*
X012042Y010229D01*
X012141Y010131D02*
X014165Y010131D01*
X014165Y010229D02*
X013953Y010229D01*
X013961Y010235D02*
X014009Y010283D01*
X014048Y010337D01*
X014079Y010397D01*
X014099Y010461D01*
X014110Y010528D01*
X014110Y010533D01*
X013434Y010533D01*
X013434Y010134D01*
X013716Y010134D01*
X013783Y010144D01*
X013847Y010165D01*
X013907Y010196D01*
X013961Y010235D01*
X014041Y010328D02*
X014165Y010328D01*
X014165Y010426D02*
X014088Y010426D01*
X014110Y010525D02*
X014165Y010525D01*
X014165Y010623D02*
X014105Y010623D01*
X014080Y010722D02*
X014165Y010722D01*
X014165Y010820D02*
X014023Y010820D01*
X013918Y010919D02*
X014165Y010919D01*
X014165Y011017D02*
X013852Y011017D01*
X014040Y011116D02*
X014165Y011116D01*
X014165Y011214D02*
X014138Y011214D01*
X013434Y010919D02*
X013376Y010919D01*
X013376Y010820D02*
X013434Y010820D01*
X013434Y010722D02*
X013376Y010722D01*
X013376Y010623D02*
X013434Y010623D01*
X013434Y010525D02*
X013376Y010525D01*
X013376Y010426D02*
X013434Y010426D01*
X013434Y010328D02*
X013376Y010328D01*
X013376Y010229D02*
X013434Y010229D01*
X014165Y010032D02*
X012209Y010032D01*
X012250Y009934D02*
X014165Y009934D01*
X014165Y009835D02*
X012291Y009835D01*
X012328Y009737D02*
X014165Y009737D01*
X014165Y009638D02*
X012328Y009638D01*
X012328Y009540D02*
X014165Y009540D01*
X014165Y009441D02*
X012328Y009441D01*
X012314Y009343D02*
X014165Y009343D01*
X014165Y009244D02*
X012273Y009244D01*
X012232Y009146D02*
X014165Y009146D01*
X014180Y009047D02*
X012191Y009047D01*
X012098Y008949D02*
X014221Y008949D01*
X014314Y008850D02*
X011999Y008850D01*
X011863Y008752D02*
X014413Y008752D01*
X014511Y008653D02*
X011625Y008653D01*
X011185Y008653D02*
X009295Y008653D01*
X009295Y008555D02*
X014565Y008555D01*
X014498Y008456D02*
X009295Y008456D01*
X009295Y008358D02*
X014400Y008358D01*
X014301Y008259D02*
X009295Y008259D01*
X009295Y008161D02*
X014216Y008161D01*
X014175Y008062D02*
X009295Y008062D01*
X009295Y007964D02*
X014165Y007964D01*
X014165Y007865D02*
X009295Y007865D01*
X009295Y007767D02*
X014165Y007767D01*
X014165Y007668D02*
X011627Y007668D01*
X011589Y007684D02*
X011221Y007684D01*
X010882Y007544D01*
X010622Y007284D01*
X010482Y006945D01*
X010482Y006578D01*
X010622Y006238D01*
X010882Y005979D01*
X011221Y005838D01*
X011589Y005838D01*
X011928Y005979D01*
X012188Y006238D01*
X012328Y006578D01*
X012328Y006945D01*
X012188Y007284D01*
X011928Y007544D01*
X011589Y007684D01*
X011865Y007570D02*
X014165Y007570D01*
X014165Y007471D02*
X012000Y007471D01*
X012099Y007373D02*
X014165Y007373D01*
X014165Y007274D02*
X012192Y007274D01*
X012232Y007176D02*
X014165Y007176D01*
X014165Y007077D02*
X012273Y007077D01*
X012314Y006979D02*
X014165Y006979D01*
X014165Y006880D02*
X012328Y006880D01*
X012328Y006782D02*
X014165Y006782D01*
X014165Y006683D02*
X012328Y006683D01*
X012328Y006585D02*
X014165Y006585D01*
X014165Y006486D02*
X012290Y006486D01*
X012249Y006388D02*
X014165Y006388D01*
X014165Y006289D02*
X012209Y006289D01*
X012140Y006191D02*
X014165Y006191D01*
X014165Y006092D02*
X012041Y006092D01*
X011943Y005994D02*
X014165Y005994D01*
X014165Y005895D02*
X011726Y005895D01*
X011084Y005895D02*
X009295Y005895D01*
X009295Y005797D02*
X014165Y005797D01*
X014165Y005698D02*
X009295Y005698D01*
X009295Y005600D02*
X014165Y005600D01*
X014165Y005501D02*
X009295Y005501D01*
X009295Y005403D02*
X014165Y005403D01*
X014165Y005304D02*
X013854Y005304D01*
X013795Y005329D02*
X013015Y005329D01*
X012806Y005242D01*
X012646Y005083D01*
X012560Y004874D01*
X012560Y004648D01*
X012646Y004440D01*
X012806Y004280D01*
X013015Y004194D01*
X013795Y004194D01*
X014004Y004280D01*
X014164Y004440D01*
X014250Y004648D01*
X014250Y004874D01*
X014164Y005083D01*
X014004Y005242D01*
X013795Y005329D01*
X014041Y005206D02*
X014165Y005206D01*
X014165Y005107D02*
X014139Y005107D01*
X014194Y005009D02*
X014196Y005009D01*
X014235Y004910D02*
X014254Y004910D01*
X014250Y004812D02*
X014353Y004812D01*
X014451Y004713D02*
X014250Y004713D01*
X014236Y004615D02*
X014550Y004615D01*
X014648Y004516D02*
X014195Y004516D01*
X014142Y004418D02*
X014747Y004418D01*
X014862Y004319D02*
X014043Y004319D01*
X013861Y004221D02*
X016244Y004221D01*
X016342Y004122D02*
X013913Y004122D01*
X013907Y004127D02*
X013847Y004157D01*
X013783Y004178D01*
X013716Y004189D01*
X013434Y004189D01*
X013434Y003790D01*
X014110Y003790D01*
X014110Y003795D01*
X014099Y003861D01*
X014079Y003925D01*
X015204Y003925D01*
X015117Y003893D02*
X015117Y003893D01*
X014830Y003653D01*
X014644Y003329D01*
X014579Y002961D01*
X014644Y002593D01*
X014830Y002269D01*
X015117Y002029D01*
X015468Y001901D01*
X015589Y001901D01*
X015842Y001901D01*
X016193Y002029D01*
X016193Y002029D01*
X016480Y002269D01*
X016480Y002269D01*
X016480Y002269D01*
X016666Y002593D01*
X016731Y002961D01*
X016666Y003329D01*
X016666Y003329D01*
X016480Y003653D01*
X016193Y003893D01*
X015842Y004021D01*
X015468Y004021D01*
X015117Y003893D01*
X015037Y003827D02*
X014105Y003827D01*
X014110Y003733D02*
X013434Y003733D01*
X013434Y003790D01*
X013376Y003790D01*
X013376Y003733D01*
X012700Y003733D01*
X012700Y003728D01*
X009295Y003728D01*
X009295Y003630D02*
X011090Y003630D01*
X010870Y003531D02*
X009295Y003531D01*
X009295Y003433D02*
X010771Y003433D01*
X010673Y003334D02*
X009295Y003334D01*
X009295Y003236D02*
X010602Y003236D01*
X010562Y003137D02*
X009295Y003137D01*
X009295Y003039D02*
X010521Y003039D01*
X010482Y002940D02*
X009295Y002940D01*
X009295Y002842D02*
X010482Y002842D01*
X010482Y002743D02*
X009295Y002743D01*
X009295Y002645D02*
X010482Y002645D01*
X010495Y002546D02*
X009295Y002546D01*
X009295Y002448D02*
X010536Y002448D01*
X010577Y002349D02*
X009295Y002349D01*
X009295Y002251D02*
X010617Y002251D01*
X010709Y002152D02*
X009295Y002152D01*
X009295Y002054D02*
X010807Y002054D01*
X010939Y001955D02*
X009295Y001955D01*
X009295Y003827D02*
X012705Y003827D01*
X012700Y003795D02*
X012711Y003861D01*
X012731Y003925D01*
X009295Y003925D01*
X009295Y004024D02*
X012790Y004024D01*
X012801Y004040D02*
X012762Y003985D01*
X012731Y003925D01*
X012700Y003795D02*
X012700Y003790D01*
X013376Y003790D01*
X013376Y004189D01*
X013094Y004189D01*
X013027Y004178D01*
X012963Y004157D01*
X012903Y004127D01*
X012849Y004087D01*
X012801Y004040D01*
X012897Y004122D02*
X009295Y004122D01*
X009295Y004221D02*
X012949Y004221D01*
X012767Y004319D02*
X009295Y004319D01*
X009295Y004418D02*
X012668Y004418D01*
X012615Y004516D02*
X009295Y004516D01*
X009295Y004615D02*
X012574Y004615D01*
X012560Y004713D02*
X009295Y004713D01*
X009295Y004812D02*
X012560Y004812D01*
X012575Y004910D02*
X009295Y004910D01*
X009295Y005009D02*
X012616Y005009D01*
X012671Y005107D02*
X009295Y005107D01*
X009295Y005206D02*
X012769Y005206D01*
X012956Y005304D02*
X009295Y005304D01*
X009295Y005994D02*
X010867Y005994D01*
X010769Y006092D02*
X009295Y006092D01*
X009295Y006191D02*
X010670Y006191D01*
X010601Y006289D02*
X009295Y006289D01*
X009295Y006388D02*
X010561Y006388D01*
X010520Y006486D02*
X009295Y006486D01*
X009295Y006585D02*
X010482Y006585D01*
X010482Y006683D02*
X009295Y006683D01*
X009295Y006782D02*
X010482Y006782D01*
X010482Y006880D02*
X009295Y006880D01*
X009295Y006979D02*
X010496Y006979D01*
X010537Y007077D02*
X009295Y007077D01*
X009295Y007176D02*
X010578Y007176D01*
X010618Y007274D02*
X009295Y007274D01*
X009295Y007373D02*
X010711Y007373D01*
X010810Y007471D02*
X009295Y007471D01*
X009295Y007570D02*
X010945Y007570D01*
X011183Y007668D02*
X009295Y007668D01*
X009295Y008752D02*
X010947Y008752D01*
X010811Y008850D02*
X009295Y008850D01*
X009295Y008949D02*
X010712Y008949D01*
X010619Y009047D02*
X009295Y009047D01*
X009295Y009146D02*
X010578Y009146D01*
X010537Y009244D02*
X009295Y009244D01*
X009295Y009343D02*
X010496Y009343D01*
X010482Y009441D02*
X009295Y009441D01*
X009295Y009540D02*
X010482Y009540D01*
X010482Y009638D02*
X009295Y009638D01*
X009295Y009737D02*
X010482Y009737D01*
X010519Y009835D02*
X009295Y009835D01*
X009295Y009934D02*
X010560Y009934D01*
X010601Y010032D02*
X009295Y010032D01*
X009295Y010131D02*
X010669Y010131D01*
X010768Y010229D02*
X009295Y010229D01*
X009295Y010328D02*
X010866Y010328D01*
X011081Y010426D02*
X009295Y010426D01*
X011939Y012790D02*
X014165Y012790D01*
X014264Y012889D02*
X012038Y012889D01*
X012136Y012987D02*
X018077Y012987D01*
X017979Y013086D02*
X012207Y013086D01*
X012248Y013184D02*
X017880Y013184D01*
X017782Y013283D02*
X012289Y013283D01*
X012328Y013381D02*
X017683Y013381D01*
X017585Y013480D02*
X012328Y013480D01*
X012328Y013578D02*
X017486Y013578D01*
X017409Y013677D02*
X012328Y013677D01*
X012315Y013775D02*
X017368Y013775D01*
X017365Y013874D02*
X012275Y013874D01*
X012234Y013972D02*
X017365Y013972D01*
X017365Y014071D02*
X012193Y014071D01*
X012102Y014169D02*
X017365Y014169D01*
X017365Y014268D02*
X012004Y014268D01*
X011874Y014366D02*
X017365Y014366D01*
X017365Y014465D02*
X011636Y014465D01*
X011974Y015844D02*
X009295Y015844D01*
X009295Y015942D02*
X011828Y015942D01*
X011730Y016041D02*
X009295Y016041D01*
X009295Y016139D02*
X011631Y016139D01*
X011571Y016238D02*
X009295Y016238D01*
X009295Y016336D02*
X011514Y016336D01*
X011457Y016435D02*
X009295Y016435D01*
X009295Y016533D02*
X011428Y016533D01*
X011402Y016632D02*
X009295Y016632D01*
X009295Y016730D02*
X011376Y016730D01*
X011365Y016829D02*
X009295Y016829D01*
X009295Y016927D02*
X011365Y016927D01*
X011365Y017026D02*
X009295Y017026D01*
X009295Y017124D02*
X011369Y017124D01*
X011395Y017223D02*
X009295Y017223D01*
X009295Y017321D02*
X011422Y017321D01*
X011448Y017420D02*
X009295Y017420D01*
X009295Y017518D02*
X011499Y017518D01*
X011556Y017617D02*
X009295Y017617D01*
X009295Y017715D02*
X011613Y017715D01*
X011704Y017814D02*
X009295Y017814D01*
X009295Y017912D02*
X011803Y017912D01*
X011930Y018011D02*
X009295Y018011D01*
X009295Y018109D02*
X012100Y018109D01*
X012402Y018208D02*
X009295Y018208D01*
X009295Y018306D02*
X014184Y018306D01*
X014085Y018208D02*
X012908Y018208D01*
X013210Y018109D02*
X013809Y018109D01*
X013686Y018011D02*
X013380Y018011D01*
X013507Y017912D02*
X013609Y017912D01*
X014194Y018503D02*
X009295Y018503D01*
X009295Y018405D02*
X014282Y018405D01*
X014112Y018602D02*
X009295Y018602D01*
X009295Y018700D02*
X014072Y018700D01*
X014047Y018799D02*
X009295Y018799D01*
X009295Y018897D02*
X014047Y018897D01*
X014061Y018996D02*
X009295Y018996D01*
X009295Y019094D02*
X014102Y019094D01*
X014168Y019193D02*
X013679Y019193D01*
X013734Y019291D02*
X014266Y019291D01*
X014560Y019390D02*
X013734Y019390D01*
X013734Y019488D02*
X014659Y019488D01*
X014757Y019587D02*
X013734Y019587D01*
X013734Y019784D02*
X014954Y019784D01*
X014856Y019685D02*
X013264Y019685D01*
X013264Y019587D02*
X013164Y019587D01*
X013164Y019630D02*
X013164Y019160D01*
X012824Y019160D01*
X012786Y019170D01*
X012752Y019190D01*
X012724Y019218D01*
X012704Y019252D01*
X012694Y019290D01*
X012694Y019630D01*
X013164Y019630D01*
X013164Y019685D02*
X012487Y019685D01*
X012586Y019784D02*
X012694Y019784D01*
X012694Y019882D02*
X012667Y019882D01*
X012694Y019587D02*
X012274Y019587D01*
X011918Y019587D02*
X009295Y019587D01*
X009295Y019685D02*
X011705Y019685D01*
X011606Y019784D02*
X009295Y019784D01*
X009295Y019882D02*
X011525Y019882D01*
X011484Y019981D02*
X009295Y019981D01*
X009295Y020079D02*
X011443Y020079D01*
X011436Y020178D02*
X009295Y020178D01*
X009295Y020276D02*
X011436Y020276D01*
X011443Y020375D02*
X009295Y020375D01*
X009295Y020473D02*
X011483Y020473D01*
X011524Y020572D02*
X009295Y020572D01*
X009295Y020670D02*
X011605Y020670D01*
X011704Y020769D02*
X009295Y020769D01*
X009295Y020867D02*
X011613Y020867D01*
X011527Y020966D02*
X009295Y020966D01*
X009295Y021064D02*
X011487Y021064D01*
X011446Y021163D02*
X009295Y021163D01*
X009295Y021261D02*
X011436Y021261D01*
X011436Y021360D02*
X009295Y021360D01*
X009295Y021458D02*
X011440Y021458D01*
X011481Y021557D02*
X009295Y021557D01*
X009295Y021655D02*
X011521Y021655D01*
X011598Y021754D02*
X009295Y021754D01*
X009295Y021852D02*
X011697Y021852D01*
X011616Y021951D02*
X009295Y021951D01*
X009295Y022049D02*
X011529Y022049D01*
X011488Y022148D02*
X009295Y022148D01*
X009295Y022246D02*
X011447Y022246D01*
X011436Y022345D02*
X009295Y022345D01*
X009295Y022443D02*
X011436Y022443D01*
X011438Y022542D02*
X009295Y022542D01*
X009295Y022640D02*
X011479Y022640D01*
X011520Y022739D02*
X009295Y022739D01*
X009295Y022837D02*
X011595Y022837D01*
X011694Y022936D02*
X009295Y022936D01*
X009295Y023034D02*
X011623Y023034D01*
X011532Y023133D02*
X009295Y023133D01*
X009295Y023231D02*
X011491Y023231D01*
X011450Y023330D02*
X009295Y023330D01*
X009295Y023428D02*
X011436Y023428D01*
X011436Y023527D02*
X009295Y023527D01*
X009295Y023625D02*
X011436Y023625D01*
X011476Y023724D02*
X009295Y023724D01*
X009295Y023822D02*
X011517Y023822D01*
X011588Y023921D02*
X009295Y023921D01*
X009295Y024019D02*
X011687Y024019D01*
X011875Y024118D02*
X009295Y024118D01*
X009295Y024216D02*
X012572Y024216D01*
X012554Y024118D02*
X012317Y024118D01*
X012505Y024019D02*
X012554Y024019D01*
X012613Y024315D02*
X009295Y024315D01*
X009295Y024413D02*
X012653Y024413D01*
X012750Y024512D02*
X009295Y024512D01*
X009295Y024610D02*
X012861Y024610D01*
X013671Y023428D02*
X015855Y023428D01*
X015705Y023330D02*
X013769Y023330D01*
X013813Y023231D02*
X015617Y023231D01*
X015576Y023133D02*
X013853Y023133D01*
X013874Y023034D02*
X015547Y023034D01*
X015373Y022936D02*
X013874Y022936D01*
X013874Y022837D02*
X015212Y022837D01*
X015120Y022739D02*
X013950Y022739D01*
X014049Y022640D02*
X015079Y022640D01*
X015047Y022542D02*
X014147Y022542D01*
X014246Y022443D02*
X015047Y022443D01*
X015053Y022345D02*
X014344Y022345D01*
X014399Y022246D02*
X015094Y022246D01*
X015150Y022148D02*
X014425Y022148D01*
X014425Y022049D02*
X015185Y022049D01*
X015185Y021951D02*
X014425Y021951D01*
X014425Y021852D02*
X015185Y021852D01*
X015185Y021754D02*
X014425Y021754D01*
X014425Y021655D02*
X015185Y021655D01*
X015185Y021557D02*
X014425Y021557D01*
X014425Y021458D02*
X015185Y021458D01*
X015185Y021360D02*
X014475Y021360D01*
X014522Y021261D02*
X015185Y021261D01*
X015185Y021163D02*
X014563Y021163D01*
X014563Y021064D02*
X015185Y021064D01*
X015185Y020966D02*
X014563Y020966D01*
X014525Y020867D02*
X015185Y020867D01*
X015185Y020769D02*
X014481Y020769D01*
X014383Y020670D02*
X015185Y020670D01*
X015185Y020572D02*
X014201Y020572D01*
X013909Y020572D02*
X013846Y020572D01*
X013805Y020473D02*
X015185Y020473D01*
X015185Y020375D02*
X013752Y020375D01*
X013653Y020276D02*
X015185Y020276D01*
X015185Y020178D02*
X013663Y020178D01*
X013732Y020079D02*
X015185Y020079D01*
X015151Y019981D02*
X013734Y019981D01*
X013734Y019882D02*
X015053Y019882D01*
X013264Y019488D02*
X013164Y019488D01*
X013164Y019390D02*
X013264Y019390D01*
X013264Y019291D02*
X013164Y019291D01*
X013164Y019193D02*
X013264Y019193D01*
X012749Y019193D02*
X009295Y019193D01*
X009295Y019291D02*
X012694Y019291D01*
X012694Y019390D02*
X009295Y019390D01*
X009295Y019488D02*
X012694Y019488D01*
X019568Y017223D02*
X027767Y017223D01*
X027760Y017240D02*
X027860Y016997D01*
X028046Y016812D01*
X028289Y016711D01*
X028551Y016711D01*
X028790Y016810D01*
X028790Y010569D01*
X028754Y010569D01*
X028567Y010492D01*
X028424Y010349D01*
X028347Y010162D01*
X028347Y009960D01*
X028424Y009773D01*
X028567Y009631D01*
X028754Y009553D01*
X028956Y009553D01*
X029143Y009631D01*
X029286Y009773D01*
X029363Y009960D01*
X029363Y010053D01*
X029464Y010155D01*
X029520Y010289D01*
X029520Y013409D01*
X029654Y013353D01*
X029856Y013353D01*
X030043Y013431D01*
X030186Y013573D01*
X030263Y013760D01*
X030263Y013962D01*
X030186Y014149D01*
X030120Y014215D01*
X030120Y019210D01*
X030462Y019552D01*
X030564Y019655D01*
X030620Y019789D01*
X030620Y020476D01*
X030564Y020610D01*
X030196Y020978D01*
X030196Y021166D01*
X030106Y021382D01*
X029941Y021547D01*
X029907Y021561D01*
X029941Y021575D01*
X030106Y021740D01*
X030196Y021956D01*
X030196Y022190D01*
X030106Y022406D01*
X030026Y022486D01*
X030106Y022567D01*
X030196Y022783D01*
X030196Y023017D01*
X030106Y023232D01*
X029941Y023398D01*
X029725Y023487D01*
X029492Y023487D01*
X029276Y023398D01*
X029111Y023232D01*
X029041Y023064D01*
X029039Y023071D01*
X029007Y023134D01*
X028965Y023191D01*
X028916Y023241D01*
X028859Y023282D01*
X028796Y023314D01*
X028729Y023336D01*
X028663Y023346D01*
X028663Y022938D01*
X028586Y022938D01*
X028586Y022861D01*
X028663Y022861D01*
X028663Y022485D01*
X028646Y022468D01*
X028590Y022334D01*
X028590Y020589D01*
X028646Y020455D01*
X028663Y020437D01*
X028663Y020261D01*
X028586Y020261D01*
X028586Y020184D01*
X028663Y020184D01*
X028663Y019776D01*
X028729Y019787D01*
X028790Y019806D01*
X028790Y017932D01*
X028551Y018031D01*
X028289Y018031D01*
X028046Y017931D01*
X027860Y017745D01*
X027760Y017503D01*
X027760Y017240D01*
X027760Y017321D02*
X021053Y017321D01*
X021165Y017420D02*
X027760Y017420D01*
X027767Y017518D02*
X021264Y017518D01*
X021362Y017617D02*
X027807Y017617D01*
X027848Y017715D02*
X021461Y017715D01*
X021559Y017814D02*
X027929Y017814D01*
X028028Y017912D02*
X021658Y017912D01*
X021756Y018011D02*
X028239Y018011D01*
X028601Y018011D02*
X028790Y018011D01*
X028790Y018109D02*
X021855Y018109D01*
X021953Y018208D02*
X028790Y018208D01*
X028790Y018306D02*
X022052Y018306D01*
X022150Y018405D02*
X028790Y018405D01*
X028790Y018503D02*
X022249Y018503D01*
X022347Y018602D02*
X028790Y018602D01*
X028790Y018700D02*
X022446Y018700D01*
X022544Y018799D02*
X028790Y018799D01*
X028790Y018897D02*
X022643Y018897D01*
X022709Y018996D02*
X028790Y018996D01*
X028790Y019094D02*
X026790Y019094D01*
X026686Y019051D02*
X026929Y019152D01*
X027115Y019337D01*
X027215Y019580D01*
X027215Y019843D01*
X027115Y020085D01*
X026929Y020271D01*
X026686Y020371D01*
X026424Y020371D01*
X026181Y020271D01*
X026105Y020195D01*
X025929Y020371D01*
X025686Y020471D01*
X025424Y020471D01*
X025181Y020371D01*
X025005Y020195D01*
X024929Y020271D01*
X024686Y020371D01*
X024424Y020371D01*
X024181Y020271D01*
X024075Y020165D01*
X024075Y020201D01*
X024065Y020239D01*
X024045Y020273D01*
X024017Y020301D01*
X023983Y020321D01*
X023945Y020331D01*
X023605Y020331D01*
X023605Y019861D01*
X023505Y019861D01*
X023505Y019761D01*
X023605Y019761D01*
X023605Y019291D01*
X023945Y019291D01*
X024042Y019291D01*
X024014Y019319D02*
X024181Y019152D01*
X024424Y019051D01*
X024686Y019051D01*
X024929Y019152D01*
X025105Y019328D01*
X025181Y019252D01*
X025424Y019151D01*
X025686Y019151D01*
X025929Y019252D01*
X026005Y019328D01*
X026181Y019152D01*
X026424Y019051D01*
X026686Y019051D01*
X026970Y019193D02*
X028790Y019193D01*
X028790Y019291D02*
X027068Y019291D01*
X027136Y019390D02*
X028790Y019390D01*
X028790Y019488D02*
X027177Y019488D01*
X027215Y019587D02*
X028790Y019587D01*
X028790Y019685D02*
X027215Y019685D01*
X027215Y019784D02*
X028537Y019784D01*
X028520Y019787D02*
X028586Y019776D01*
X028586Y020184D01*
X028178Y020184D01*
X028188Y020118D01*
X028210Y020051D01*
X028242Y019988D01*
X028283Y019931D01*
X028333Y019882D01*
X028390Y019840D01*
X028453Y019808D01*
X028520Y019787D01*
X028586Y019784D02*
X028663Y019784D01*
X028712Y019784D02*
X028790Y019784D01*
X028663Y019882D02*
X028586Y019882D01*
X028586Y019981D02*
X028663Y019981D01*
X028663Y020079D02*
X028586Y020079D01*
X028586Y020178D02*
X028663Y020178D01*
X028663Y020276D02*
X028586Y020276D01*
X028586Y020261D02*
X028586Y020669D01*
X028520Y020659D01*
X028453Y020637D01*
X028390Y020605D01*
X028333Y020564D01*
X028283Y020514D01*
X028242Y020457D01*
X028210Y020394D01*
X028188Y020327D01*
X028178Y020261D01*
X028586Y020261D01*
X028586Y020375D02*
X028663Y020375D01*
X028638Y020473D02*
X028586Y020473D01*
X028586Y020572D02*
X028597Y020572D01*
X028590Y020670D02*
X022745Y020670D01*
X022745Y020572D02*
X028344Y020572D01*
X028254Y020473D02*
X022745Y020473D01*
X022745Y020375D02*
X025191Y020375D01*
X025087Y020276D02*
X024916Y020276D01*
X024194Y020276D02*
X024042Y020276D01*
X024075Y020178D02*
X024088Y020178D01*
X023605Y020178D02*
X023505Y020178D01*
X023505Y020276D02*
X023605Y020276D01*
X023505Y020331D02*
X023165Y020331D01*
X023127Y020321D01*
X023093Y020301D01*
X023065Y020273D01*
X023045Y020239D01*
X023035Y020201D01*
X023035Y019861D01*
X023505Y019861D01*
X023505Y020331D01*
X023505Y020079D02*
X023605Y020079D01*
X023605Y019981D02*
X023505Y019981D01*
X023505Y019882D02*
X023605Y019882D01*
X023505Y019784D02*
X022745Y019784D01*
X022745Y019882D02*
X023035Y019882D01*
X023035Y019981D02*
X022745Y019981D01*
X022745Y020079D02*
X023035Y020079D01*
X023035Y020178D02*
X022745Y020178D01*
X022745Y020276D02*
X023068Y020276D01*
X023035Y019761D02*
X023035Y019422D01*
X023045Y019383D01*
X023065Y019349D01*
X023093Y019321D01*
X023127Y019301D01*
X023165Y019291D01*
X022745Y019291D01*
X022745Y019193D02*
X024140Y019193D01*
X024014Y019319D02*
X023983Y019301D01*
X023945Y019291D01*
X023605Y019291D02*
X023505Y019291D01*
X023505Y019761D01*
X023035Y019761D01*
X023035Y019685D02*
X022745Y019685D01*
X022745Y019587D02*
X023035Y019587D01*
X023035Y019488D02*
X022745Y019488D01*
X022745Y019390D02*
X023043Y019390D01*
X023165Y019291D02*
X023505Y019291D01*
X023505Y019390D02*
X023605Y019390D01*
X023605Y019488D02*
X023505Y019488D01*
X023505Y019587D02*
X023605Y019587D01*
X023605Y019685D02*
X023505Y019685D01*
X022745Y019094D02*
X024320Y019094D01*
X024790Y019094D02*
X026320Y019094D01*
X026140Y019193D02*
X025787Y019193D01*
X025968Y019291D02*
X026042Y019291D01*
X025323Y019193D02*
X024970Y019193D01*
X025068Y019291D02*
X025142Y019291D01*
X026023Y020276D02*
X026194Y020276D01*
X025919Y020375D02*
X028204Y020375D01*
X028180Y020276D02*
X026916Y020276D01*
X027022Y020178D02*
X028179Y020178D01*
X028201Y020079D02*
X027117Y020079D01*
X027158Y019981D02*
X028247Y019981D01*
X028332Y019882D02*
X027199Y019882D01*
X028590Y020769D02*
X022745Y020769D01*
X022745Y020867D02*
X028590Y020867D01*
X028590Y020966D02*
X022745Y020966D01*
X022745Y021064D02*
X028590Y021064D01*
X028590Y021163D02*
X022745Y021163D01*
X022745Y021261D02*
X028590Y021261D01*
X028590Y021360D02*
X022745Y021360D01*
X022745Y021458D02*
X028590Y021458D01*
X028590Y021557D02*
X026165Y021557D01*
X026156Y021553D02*
X026343Y021631D01*
X026486Y021773D01*
X026563Y021960D01*
X026563Y022162D01*
X026486Y022349D01*
X026343Y022492D01*
X026156Y022569D01*
X025954Y022569D01*
X025767Y022492D01*
X025706Y022431D01*
X025408Y022431D01*
X024563Y023276D01*
X024563Y023362D01*
X024486Y023549D01*
X024343Y023692D01*
X024156Y023769D01*
X023954Y023769D01*
X023767Y023692D01*
X023624Y023549D01*
X023547Y023362D01*
X023547Y023160D01*
X023624Y022973D01*
X023767Y022831D01*
X023954Y022753D01*
X024040Y022753D01*
X024941Y021852D01*
X022745Y021852D01*
X022745Y021754D02*
X025039Y021754D01*
X025045Y021748D02*
X025181Y021691D01*
X025706Y021691D01*
X025767Y021631D01*
X025954Y021553D01*
X026156Y021553D01*
X025945Y021557D02*
X022745Y021557D01*
X022745Y021655D02*
X025742Y021655D01*
X026368Y021655D02*
X028590Y021655D01*
X028590Y021754D02*
X026466Y021754D01*
X026518Y021852D02*
X028590Y021852D01*
X028590Y021951D02*
X026559Y021951D01*
X026563Y022049D02*
X028590Y022049D01*
X028590Y022148D02*
X026563Y022148D01*
X026528Y022246D02*
X028590Y022246D01*
X028595Y022345D02*
X026488Y022345D01*
X026392Y022443D02*
X028635Y022443D01*
X028586Y022453D02*
X028586Y022861D01*
X028178Y022861D01*
X028188Y022795D01*
X028210Y022728D01*
X028242Y022665D01*
X028283Y022609D01*
X028333Y022559D01*
X028390Y022517D01*
X028453Y022485D01*
X028520Y022464D01*
X028586Y022453D01*
X028586Y022542D02*
X028663Y022542D01*
X028663Y022640D02*
X028586Y022640D01*
X028586Y022739D02*
X028663Y022739D01*
X028663Y022837D02*
X028586Y022837D01*
X028586Y022936D02*
X024904Y022936D01*
X025002Y022837D02*
X028181Y022837D01*
X028206Y022739D02*
X025101Y022739D01*
X025199Y022640D02*
X028260Y022640D01*
X028356Y022542D02*
X026223Y022542D01*
X025887Y022542D02*
X025298Y022542D01*
X025396Y022443D02*
X025718Y022443D01*
X025045Y021748D02*
X024941Y021852D01*
X024842Y021951D02*
X022745Y021951D01*
X022745Y022049D02*
X024744Y022049D01*
X024645Y022148D02*
X022745Y022148D01*
X022745Y022246D02*
X024547Y022246D01*
X024448Y022345D02*
X022745Y022345D01*
X022745Y022443D02*
X024350Y022443D01*
X024251Y022542D02*
X022745Y022542D01*
X022745Y022640D02*
X024153Y022640D01*
X024054Y022739D02*
X022745Y022739D01*
X022745Y022837D02*
X023760Y022837D01*
X023662Y022936D02*
X022745Y022936D01*
X022745Y023034D02*
X023599Y023034D01*
X023558Y023133D02*
X022745Y023133D01*
X022745Y023231D02*
X023547Y023231D01*
X023547Y023330D02*
X022745Y023330D01*
X022745Y023428D02*
X023574Y023428D01*
X023615Y023527D02*
X022745Y023527D01*
X022745Y023625D02*
X023700Y023625D01*
X023844Y023724D02*
X022745Y023724D01*
X022745Y023822D02*
X032615Y023822D01*
X032615Y023724D02*
X024266Y023724D01*
X024410Y023625D02*
X032615Y023625D01*
X032615Y023527D02*
X024495Y023527D01*
X024536Y023428D02*
X029350Y023428D01*
X029208Y023330D02*
X028748Y023330D01*
X028663Y023330D02*
X028586Y023330D01*
X028586Y023346D02*
X028520Y023336D01*
X028453Y023314D01*
X028390Y023282D01*
X028333Y023241D01*
X028283Y023191D01*
X028242Y023134D01*
X028210Y023071D01*
X028188Y023005D01*
X028178Y022938D01*
X028586Y022938D01*
X028586Y023346D01*
X028501Y023330D02*
X024563Y023330D01*
X024608Y023231D02*
X028323Y023231D01*
X028241Y023133D02*
X024707Y023133D01*
X024805Y023034D02*
X028198Y023034D01*
X028586Y023034D02*
X028663Y023034D01*
X028663Y023133D02*
X028586Y023133D01*
X028586Y023231D02*
X028663Y023231D01*
X028925Y023231D02*
X029110Y023231D01*
X029070Y023133D02*
X029007Y023133D01*
X029867Y023428D02*
X032615Y023428D01*
X032615Y023330D02*
X030009Y023330D01*
X030107Y023231D02*
X032615Y023231D01*
X032615Y023133D02*
X030148Y023133D01*
X030188Y023034D02*
X032615Y023034D01*
X032615Y022936D02*
X030196Y022936D01*
X030196Y022837D02*
X032615Y022837D01*
X032615Y022739D02*
X030177Y022739D01*
X030137Y022640D02*
X032615Y022640D01*
X032615Y022542D02*
X030081Y022542D01*
X030069Y022443D02*
X030822Y022443D01*
X030921Y022484D02*
X030582Y022344D01*
X030322Y022084D01*
X030182Y021745D01*
X030182Y021378D01*
X030322Y021038D01*
X030582Y020779D01*
X030921Y020638D01*
X031288Y020638D01*
X031627Y020779D01*
X031887Y021038D01*
X032028Y021378D01*
X032028Y021745D01*
X031887Y022084D01*
X031627Y022344D01*
X031288Y022484D01*
X030921Y022484D01*
X030584Y022345D02*
X030132Y022345D01*
X030172Y022246D02*
X030484Y022246D01*
X030386Y022148D02*
X030196Y022148D01*
X030196Y022049D02*
X030308Y022049D01*
X030267Y021951D02*
X030193Y021951D01*
X030226Y021852D02*
X030153Y021852D01*
X030185Y021754D02*
X030112Y021754D01*
X030182Y021655D02*
X030021Y021655D01*
X029918Y021557D02*
X030182Y021557D01*
X030182Y021458D02*
X030030Y021458D01*
X030116Y021360D02*
X030189Y021360D01*
X030156Y021261D02*
X030230Y021261D01*
X030196Y021163D02*
X030271Y021163D01*
X030311Y021064D02*
X030196Y021064D01*
X030208Y020966D02*
X030395Y020966D01*
X030307Y020867D02*
X030493Y020867D01*
X030405Y020769D02*
X030606Y020769D01*
X030504Y020670D02*
X030843Y020670D01*
X030580Y020572D02*
X032615Y020572D01*
X032615Y020670D02*
X031366Y020670D01*
X031604Y020769D02*
X032615Y020769D01*
X032615Y020867D02*
X031716Y020867D01*
X031815Y020966D02*
X032615Y020966D01*
X032615Y021064D02*
X031898Y021064D01*
X031939Y021163D02*
X032615Y021163D01*
X032615Y021261D02*
X031979Y021261D01*
X032020Y021360D02*
X032615Y021360D01*
X032615Y021458D02*
X032028Y021458D01*
X032028Y021557D02*
X032615Y021557D01*
X032615Y021655D02*
X032028Y021655D01*
X032024Y021754D02*
X032615Y021754D01*
X032615Y021852D02*
X031983Y021852D01*
X031942Y021951D02*
X032615Y021951D01*
X032615Y022049D02*
X031902Y022049D01*
X031823Y022148D02*
X032615Y022148D01*
X032615Y022246D02*
X031725Y022246D01*
X031625Y022345D02*
X032615Y022345D01*
X032615Y022443D02*
X031387Y022443D01*
X032615Y023921D02*
X022745Y023921D01*
X022805Y024019D02*
X032615Y024019D01*
X032615Y024118D02*
X022846Y024118D01*
X022863Y024216D02*
X032615Y024216D01*
X032615Y024315D02*
X022960Y024315D01*
X023059Y024413D02*
X032615Y024413D01*
X032615Y024512D02*
X023157Y024512D01*
X023256Y024610D02*
X032615Y024610D01*
X032615Y024709D02*
X023354Y024709D01*
X023453Y024807D02*
X024923Y024807D01*
X024792Y024906D02*
X023551Y024906D01*
X023650Y025004D02*
X024711Y025004D01*
X024671Y025103D02*
X023748Y025103D01*
X023847Y025201D02*
X024647Y025201D01*
X024647Y025300D02*
X023945Y025300D01*
X024044Y025398D02*
X024662Y025398D01*
X024703Y025497D02*
X024142Y025497D01*
X024241Y025595D02*
X024770Y025595D01*
X025387Y024807D02*
X032615Y024807D01*
X032615Y024906D02*
X026316Y024906D01*
X026450Y025004D02*
X032615Y025004D01*
X032615Y025103D02*
X026548Y025103D01*
X026647Y025201D02*
X032615Y025201D01*
X032615Y025300D02*
X026745Y025300D01*
X026844Y025398D02*
X032615Y025398D01*
X032615Y025497D02*
X026909Y025497D01*
X026945Y025595D02*
X031010Y025595D01*
X030917Y025629D02*
X030917Y025629D01*
X030840Y025694D02*
X026945Y025694D01*
X026945Y025792D02*
X030722Y025792D01*
X030630Y025869D02*
X030630Y025869D01*
X030618Y025891D02*
X026945Y025891D01*
X026945Y025989D02*
X030561Y025989D01*
X030504Y026088D02*
X026945Y026088D01*
X026945Y026186D02*
X030447Y026186D01*
X030444Y026193D02*
X030444Y026193D01*
X030427Y026285D02*
X026945Y026285D01*
X026927Y026383D02*
X030410Y026383D01*
X030399Y026679D02*
X026689Y026679D01*
X026590Y026777D02*
X030417Y026777D01*
X030434Y026876D02*
X026492Y026876D01*
X026393Y026974D02*
X030470Y026974D01*
X030444Y026929D02*
X030444Y026929D01*
X030526Y027073D02*
X026295Y027073D01*
X026196Y027171D02*
X030583Y027171D01*
X030630Y027253D02*
X030630Y027253D01*
X030630Y027253D01*
X030650Y027270D02*
X026098Y027270D01*
X025999Y027368D02*
X030768Y027368D01*
X030885Y027467D02*
X025901Y027467D01*
X025570Y027565D02*
X031114Y027565D01*
X031796Y027565D02*
X032615Y027565D01*
X032615Y027467D02*
X032025Y027467D01*
X031993Y027493D02*
X031993Y027493D01*
X032142Y027368D02*
X032615Y027368D01*
X032615Y027270D02*
X032260Y027270D01*
X032280Y027253D02*
X032280Y027253D01*
X032327Y027171D02*
X032615Y027171D01*
X032615Y027073D02*
X032384Y027073D01*
X032440Y026974D02*
X032615Y026974D01*
X032615Y026876D02*
X032476Y026876D01*
X032493Y026777D02*
X032615Y026777D01*
X032615Y026679D02*
X032511Y026679D01*
X032528Y026580D02*
X032615Y026580D01*
X032531Y026561D02*
X032531Y026561D01*
X032517Y026482D02*
X032615Y026482D01*
X032615Y026383D02*
X032500Y026383D01*
X032483Y026285D02*
X032615Y026285D01*
X032615Y026186D02*
X032463Y026186D01*
X032466Y026193D02*
X032466Y026193D01*
X032406Y026088D02*
X032615Y026088D01*
X032615Y025989D02*
X032349Y025989D01*
X032292Y025891D02*
X032615Y025891D01*
X032615Y025792D02*
X032188Y025792D01*
X032070Y025694D02*
X032615Y025694D01*
X032615Y025595D02*
X031900Y025595D01*
X032615Y027664D02*
X025369Y027664D01*
X025141Y027664D02*
X013598Y027664D01*
X013693Y027565D02*
X024940Y027565D01*
X017042Y025401D02*
X017042Y025401D01*
X020542Y017124D02*
X020585Y017124D01*
X021325Y017124D02*
X027808Y017124D01*
X027849Y017026D02*
X021424Y017026D01*
X021522Y016927D02*
X027931Y016927D01*
X028029Y016829D02*
X021615Y016829D01*
X021615Y016730D02*
X028243Y016730D01*
X028597Y016730D02*
X028790Y016730D01*
X028790Y016632D02*
X021615Y016632D01*
X021615Y016533D02*
X028790Y016533D01*
X028790Y016435D02*
X021615Y016435D01*
X021615Y016336D02*
X028790Y016336D01*
X028790Y016238D02*
X021565Y016238D01*
X021466Y016139D02*
X028790Y016139D01*
X028790Y016041D02*
X021409Y016041D01*
X021507Y015942D02*
X028790Y015942D01*
X028790Y015844D02*
X021606Y015844D01*
X021615Y015745D02*
X028790Y015745D01*
X028790Y015647D02*
X021615Y015647D01*
X021615Y015548D02*
X028790Y015548D01*
X028790Y015450D02*
X021615Y015450D01*
X021615Y015351D02*
X028790Y015351D01*
X028790Y015253D02*
X021580Y015253D01*
X021481Y015154D02*
X028790Y015154D01*
X028790Y015056D02*
X021383Y015056D01*
X021294Y014957D02*
X028790Y014957D01*
X028790Y014859D02*
X023882Y014859D01*
X024075Y014760D02*
X028790Y014760D01*
X028790Y014662D02*
X024173Y014662D01*
X024221Y014563D02*
X028790Y014563D01*
X028790Y014465D02*
X024262Y014465D01*
X024302Y014366D02*
X028790Y014366D01*
X028790Y014268D02*
X024400Y014268D01*
X024499Y014169D02*
X028790Y014169D01*
X028790Y014071D02*
X024597Y014071D01*
X024690Y013972D02*
X028790Y013972D01*
X028790Y013874D02*
X024731Y013874D01*
X024745Y013775D02*
X028790Y013775D01*
X028790Y013677D02*
X024745Y013677D01*
X024745Y013578D02*
X028790Y013578D01*
X028790Y013480D02*
X024745Y013480D01*
X024745Y013381D02*
X028790Y013381D01*
X028790Y013283D02*
X024745Y013283D01*
X024745Y013184D02*
X028790Y013184D01*
X028790Y013086D02*
X024745Y013086D01*
X024745Y012987D02*
X028790Y012987D01*
X028790Y012889D02*
X024745Y012889D01*
X024745Y012790D02*
X028790Y012790D01*
X028790Y012692D02*
X024745Y012692D01*
X024745Y012593D02*
X028790Y012593D01*
X028790Y012495D02*
X025036Y012495D01*
X025165Y012396D02*
X028790Y012396D01*
X028790Y012298D02*
X025270Y012298D01*
X025369Y012199D02*
X028790Y012199D01*
X028790Y012101D02*
X025467Y012101D01*
X025566Y012002D02*
X028790Y012002D01*
X028790Y011904D02*
X025664Y011904D01*
X025717Y011805D02*
X028790Y011805D01*
X028790Y011707D02*
X025745Y011707D01*
X025745Y011608D02*
X028790Y011608D01*
X028790Y011510D02*
X025802Y011510D01*
X025843Y011411D02*
X028790Y011411D01*
X028790Y011313D02*
X025863Y011313D01*
X025863Y011214D02*
X028790Y011214D01*
X028790Y011116D02*
X025845Y011116D01*
X025804Y011017D02*
X028790Y011017D01*
X028790Y010919D02*
X025731Y010919D01*
X025618Y010820D02*
X028790Y010820D01*
X028790Y010722D02*
X024745Y010722D01*
X024745Y010820D02*
X025092Y010820D01*
X024979Y010919D02*
X024745Y010919D01*
X024745Y011017D02*
X024906Y011017D01*
X024865Y011116D02*
X024745Y011116D01*
X024745Y011214D02*
X024847Y011214D01*
X024847Y011313D02*
X024745Y011313D01*
X024745Y011411D02*
X024867Y011411D01*
X024908Y011510D02*
X024745Y011510D01*
X024745Y010623D02*
X028790Y010623D01*
X028646Y010525D02*
X024745Y010525D01*
X024745Y010426D02*
X028501Y010426D01*
X028415Y010328D02*
X024795Y010328D01*
X024835Y010229D02*
X028375Y010229D01*
X028347Y010131D02*
X024863Y010131D01*
X024863Y010032D02*
X028347Y010032D01*
X028358Y009934D02*
X025075Y009934D01*
X025338Y009835D02*
X028399Y009835D01*
X028461Y009737D02*
X025498Y009737D01*
X025590Y009638D02*
X028559Y009638D01*
X029151Y009638D02*
X032615Y009638D01*
X032615Y009540D02*
X025631Y009540D01*
X025663Y009441D02*
X032615Y009441D01*
X032615Y009343D02*
X025663Y009343D01*
X025657Y009244D02*
X032615Y009244D01*
X032615Y009146D02*
X025616Y009146D01*
X025560Y009047D02*
X032615Y009047D01*
X032615Y008949D02*
X025461Y008949D01*
X024849Y008949D02*
X023520Y008949D01*
X023520Y009047D02*
X024750Y009047D01*
X024694Y009146D02*
X023520Y009146D01*
X023520Y009244D02*
X023820Y009244D01*
X023722Y009343D02*
X023520Y009343D01*
X023520Y009441D02*
X023623Y009441D01*
X023525Y009540D02*
X023520Y009540D01*
X023520Y008850D02*
X032615Y008850D01*
X032615Y008752D02*
X023520Y008752D01*
X023520Y008653D02*
X032615Y008653D01*
X032615Y008555D02*
X031625Y008555D01*
X031793Y008493D02*
X031442Y008621D01*
X031068Y008621D01*
X030717Y008493D01*
X030430Y008253D01*
X030244Y007929D01*
X030179Y007561D01*
X030244Y007193D01*
X030430Y006869D01*
X030717Y006629D01*
X031068Y006501D01*
X031321Y006501D01*
X031442Y006501D01*
X031793Y006629D01*
X031793Y006629D01*
X032080Y006869D01*
X032080Y006869D01*
X032080Y006869D01*
X032266Y007193D01*
X032331Y007561D01*
X032266Y007929D01*
X032266Y007929D01*
X032080Y008253D01*
X031793Y008493D01*
X031793Y008493D01*
X031837Y008456D02*
X032615Y008456D01*
X032615Y008358D02*
X031955Y008358D01*
X032072Y008259D02*
X032615Y008259D01*
X032615Y008161D02*
X032133Y008161D01*
X032080Y008253D02*
X032080Y008253D01*
X032190Y008062D02*
X032615Y008062D01*
X032615Y007964D02*
X032247Y007964D01*
X032278Y007865D02*
X032615Y007865D01*
X032615Y007767D02*
X032295Y007767D01*
X032312Y007668D02*
X032615Y007668D01*
X032615Y007570D02*
X032330Y007570D01*
X032331Y007561D02*
X032331Y007561D01*
X032315Y007471D02*
X032615Y007471D01*
X032615Y007373D02*
X032298Y007373D01*
X032281Y007274D02*
X032615Y007274D01*
X032615Y007176D02*
X032256Y007176D01*
X032266Y007193D02*
X032266Y007193D01*
X032200Y007077D02*
X032615Y007077D01*
X032615Y006979D02*
X032143Y006979D01*
X032086Y006880D02*
X032615Y006880D01*
X032615Y006782D02*
X031975Y006782D01*
X031858Y006683D02*
X032615Y006683D01*
X032615Y006585D02*
X031671Y006585D01*
X031442Y006501D02*
X031442Y006501D01*
X030839Y006585D02*
X023590Y006585D01*
X023631Y006683D02*
X030652Y006683D01*
X030717Y006629D02*
X030717Y006629D01*
X030535Y006782D02*
X023663Y006782D01*
X023663Y006880D02*
X030424Y006880D01*
X030430Y006869D02*
X030430Y006869D01*
X030367Y006979D02*
X023656Y006979D01*
X023615Y007077D02*
X030310Y007077D01*
X030254Y007176D02*
X023559Y007176D01*
X023520Y007274D02*
X030229Y007274D01*
X030244Y007193D02*
X030244Y007193D01*
X030212Y007373D02*
X023520Y007373D01*
X023520Y007471D02*
X030195Y007471D01*
X030179Y007561D02*
X030179Y007561D01*
X030180Y007570D02*
X023520Y007570D01*
X023520Y007668D02*
X030198Y007668D01*
X030215Y007767D02*
X023520Y007767D01*
X023520Y007865D02*
X030232Y007865D01*
X030244Y007929D02*
X030244Y007929D01*
X030263Y007964D02*
X023520Y007964D01*
X023520Y008062D02*
X030320Y008062D01*
X030377Y008161D02*
X023520Y008161D01*
X023520Y008259D02*
X030438Y008259D01*
X030430Y008253D02*
X030430Y008253D01*
X030430Y008253D01*
X030555Y008358D02*
X023520Y008358D01*
X023520Y008456D02*
X030673Y008456D01*
X030717Y008493D02*
X030717Y008493D01*
X030885Y008555D02*
X023520Y008555D01*
X022790Y008555D02*
X021925Y008555D01*
X021963Y008653D02*
X022790Y008653D01*
X022790Y008752D02*
X022062Y008752D01*
X022160Y008850D02*
X022790Y008850D01*
X022790Y008949D02*
X022259Y008949D01*
X022357Y009047D02*
X022790Y009047D01*
X022790Y009146D02*
X022456Y009146D01*
X022554Y009244D02*
X022790Y009244D01*
X022790Y008456D02*
X022088Y008456D01*
X022277Y008358D02*
X022790Y008358D01*
X022790Y008259D02*
X022376Y008259D01*
X022422Y008161D02*
X022790Y008161D01*
X022790Y007865D02*
X022463Y007865D01*
X022424Y007767D02*
X022790Y007767D01*
X022790Y007668D02*
X022381Y007668D01*
X022320Y007570D02*
X022790Y007570D01*
X022790Y007471D02*
X022320Y007471D01*
X022320Y007373D02*
X022790Y007373D01*
X022790Y007274D02*
X022320Y007274D01*
X022320Y007176D02*
X022751Y007176D01*
X022695Y007077D02*
X022320Y007077D01*
X022320Y006979D02*
X022654Y006979D01*
X022647Y006880D02*
X022320Y006880D01*
X022320Y006782D02*
X022647Y006782D01*
X022679Y006683D02*
X022320Y006683D01*
X022320Y006585D02*
X022720Y006585D01*
X022811Y006486D02*
X022320Y006486D01*
X022320Y006388D02*
X022970Y006388D01*
X023340Y006388D02*
X025662Y006388D01*
X025534Y006289D02*
X022320Y006289D01*
X022320Y006191D02*
X025437Y006191D01*
X025396Y006092D02*
X022320Y006092D01*
X022320Y005994D02*
X025355Y005994D01*
X025343Y005895D02*
X022320Y005895D01*
X022320Y005797D02*
X025343Y005797D01*
X025304Y005698D02*
X022320Y005698D01*
X022320Y005600D02*
X025205Y005600D01*
X025107Y005501D02*
X022320Y005501D01*
X022320Y005403D02*
X025030Y005403D01*
X024990Y005304D02*
X022320Y005304D01*
X022320Y005206D02*
X024990Y005206D01*
X024990Y005107D02*
X022320Y005107D01*
X022320Y005009D02*
X024990Y005009D01*
X024990Y004910D02*
X024323Y004910D01*
X024560Y004812D02*
X024990Y004812D01*
X024990Y004713D02*
X024692Y004713D01*
X024791Y004615D02*
X024990Y004615D01*
X024990Y004516D02*
X024885Y004516D01*
X024926Y004418D02*
X024990Y004418D01*
X024990Y004319D02*
X024967Y004319D01*
X024953Y003630D02*
X024990Y003630D01*
X024990Y003531D02*
X024912Y003531D01*
X024856Y003433D02*
X024990Y003433D01*
X024990Y003334D02*
X024757Y003334D01*
X024659Y003236D02*
X024990Y003236D01*
X024990Y003137D02*
X024480Y003137D01*
X024990Y003039D02*
X022049Y003039D01*
X022099Y003137D02*
X023690Y003137D01*
X023511Y003236D02*
X022120Y003236D01*
X022120Y003334D02*
X023413Y003334D01*
X023314Y003433D02*
X022120Y003433D01*
X022120Y003531D02*
X023258Y003531D01*
X023217Y003630D02*
X022140Y003630D01*
X022238Y003728D02*
X023176Y003728D01*
X023145Y003827D02*
X022294Y003827D01*
X022320Y003925D02*
X023145Y003925D01*
X023145Y004024D02*
X022320Y004024D01*
X022320Y004122D02*
X023145Y004122D01*
X023163Y004221D02*
X022320Y004221D01*
X022320Y004319D02*
X023203Y004319D01*
X023244Y004418D02*
X022320Y004418D01*
X022320Y004516D02*
X023285Y004516D01*
X023379Y004615D02*
X022320Y004615D01*
X022320Y004713D02*
X023478Y004713D01*
X023610Y004812D02*
X022320Y004812D01*
X022320Y004910D02*
X023847Y004910D01*
X023499Y006486D02*
X032615Y006486D01*
X032615Y006388D02*
X027248Y006388D01*
X027376Y006289D02*
X032615Y006289D01*
X032615Y006191D02*
X027473Y006191D01*
X027514Y006092D02*
X032615Y006092D01*
X032615Y005994D02*
X027555Y005994D01*
X027567Y005895D02*
X032615Y005895D01*
X032615Y005797D02*
X027567Y005797D01*
X027559Y005698D02*
X032615Y005698D01*
X032615Y005600D02*
X027518Y005600D01*
X027477Y005501D02*
X032615Y005501D01*
X032615Y005403D02*
X027385Y005403D01*
X027362Y005304D02*
X032615Y005304D01*
X032615Y005206D02*
X027405Y005206D01*
X027426Y005107D02*
X032615Y005107D01*
X032615Y005009D02*
X027425Y005009D01*
X027403Y004910D02*
X028587Y004910D01*
X028638Y004931D02*
X028293Y004788D01*
X028028Y004524D01*
X027885Y004178D01*
X027885Y003804D01*
X028028Y003459D01*
X028293Y003194D01*
X028638Y003051D01*
X029012Y003051D01*
X029357Y003194D01*
X029622Y003459D01*
X029765Y003804D01*
X029765Y004178D01*
X029622Y004524D01*
X029357Y004788D01*
X029012Y004931D01*
X028638Y004931D01*
X028350Y004812D02*
X027359Y004812D01*
X027278Y004713D02*
X028218Y004713D01*
X028119Y004615D02*
X027126Y004615D01*
X026987Y004615D02*
X026907Y004615D01*
X026907Y004713D02*
X026987Y004713D01*
X026987Y004812D02*
X026907Y004812D01*
X026907Y004910D02*
X026987Y004910D01*
X026987Y005009D02*
X026907Y005009D01*
X026616Y004713D02*
X026490Y004713D01*
X026531Y004812D02*
X026536Y004812D01*
X026393Y004615D02*
X026768Y004615D01*
X026267Y004516D02*
X028025Y004516D01*
X027984Y004418D02*
X026020Y004418D01*
X026020Y004319D02*
X027943Y004319D01*
X027903Y004221D02*
X026020Y004221D01*
X026020Y004122D02*
X027885Y004122D01*
X027885Y004024D02*
X026020Y004024D01*
X026020Y003925D02*
X027885Y003925D01*
X027885Y003827D02*
X026020Y003827D01*
X026020Y003728D02*
X027916Y003728D01*
X027957Y003630D02*
X026020Y003630D01*
X026020Y003531D02*
X027998Y003531D01*
X028054Y003433D02*
X026020Y003433D01*
X026020Y003334D02*
X028153Y003334D01*
X028251Y003236D02*
X026020Y003236D01*
X026020Y003137D02*
X028430Y003137D01*
X029220Y003137D02*
X032615Y003137D01*
X032615Y003039D02*
X026020Y003039D01*
X026020Y002940D02*
X032615Y002940D01*
X032615Y002842D02*
X026020Y002842D01*
X026020Y002743D02*
X032615Y002743D01*
X032615Y002645D02*
X026020Y002645D01*
X026020Y002546D02*
X032615Y002546D01*
X032615Y002448D02*
X026020Y002448D01*
X026020Y002349D02*
X032615Y002349D01*
X032615Y002251D02*
X026004Y002251D01*
X025962Y002152D02*
X032615Y002152D01*
X032615Y002054D02*
X025864Y002054D01*
X025765Y001955D02*
X032615Y001955D01*
X032615Y003236D02*
X029399Y003236D01*
X029497Y003334D02*
X032615Y003334D01*
X032615Y003433D02*
X029596Y003433D01*
X029652Y003531D02*
X032615Y003531D01*
X032615Y003630D02*
X029693Y003630D01*
X029734Y003728D02*
X032615Y003728D01*
X032615Y003827D02*
X029765Y003827D01*
X029765Y003925D02*
X032615Y003925D01*
X032615Y004024D02*
X029765Y004024D01*
X029765Y004122D02*
X032615Y004122D01*
X032615Y004221D02*
X029747Y004221D01*
X029707Y004319D02*
X032615Y004319D01*
X032615Y004418D02*
X029666Y004418D01*
X029625Y004516D02*
X032615Y004516D01*
X032615Y004615D02*
X029531Y004615D01*
X029432Y004713D02*
X032615Y004713D01*
X032615Y004812D02*
X029300Y004812D01*
X029063Y004910D02*
X032615Y004910D01*
X032615Y009737D02*
X029249Y009737D01*
X029311Y009835D02*
X032615Y009835D01*
X032615Y009934D02*
X029352Y009934D01*
X029363Y010032D02*
X032615Y010032D01*
X032615Y010131D02*
X029441Y010131D01*
X029495Y010229D02*
X032615Y010229D01*
X032615Y010328D02*
X029520Y010328D01*
X029520Y010426D02*
X032615Y010426D01*
X032615Y010525D02*
X029520Y010525D01*
X029520Y010623D02*
X032615Y010623D01*
X032615Y010722D02*
X029520Y010722D01*
X029520Y010820D02*
X032615Y010820D01*
X032615Y010919D02*
X029520Y010919D01*
X029520Y011017D02*
X032615Y011017D01*
X032615Y011116D02*
X029520Y011116D01*
X029520Y011214D02*
X032615Y011214D01*
X032615Y011313D02*
X031714Y011313D01*
X031686Y011301D02*
X031929Y011402D01*
X032115Y011587D01*
X032215Y011830D01*
X032215Y012093D01*
X032115Y012335D01*
X031929Y012521D01*
X031686Y012621D01*
X031424Y012621D01*
X031181Y012521D01*
X030995Y012335D01*
X030895Y012093D01*
X030895Y011830D01*
X030995Y011587D01*
X031181Y011402D01*
X031424Y011301D01*
X031686Y011301D01*
X031938Y011411D02*
X032615Y011411D01*
X032615Y011510D02*
X032037Y011510D01*
X032123Y011608D02*
X032615Y011608D01*
X032615Y011707D02*
X032164Y011707D01*
X032205Y011805D02*
X032615Y011805D01*
X032615Y011904D02*
X032215Y011904D01*
X032215Y012002D02*
X032615Y012002D01*
X032615Y012101D02*
X032212Y012101D01*
X032171Y012199D02*
X032615Y012199D01*
X032615Y012298D02*
X032130Y012298D01*
X032053Y012396D02*
X032615Y012396D01*
X032615Y012495D02*
X031955Y012495D01*
X031754Y012593D02*
X032615Y012593D01*
X032615Y012692D02*
X029520Y012692D01*
X029520Y012790D02*
X032615Y012790D01*
X032615Y012889D02*
X029520Y012889D01*
X029520Y012987D02*
X032615Y012987D01*
X032615Y013086D02*
X029520Y013086D01*
X029520Y013184D02*
X032615Y013184D01*
X032615Y013283D02*
X029520Y013283D01*
X029520Y013381D02*
X029586Y013381D01*
X029924Y013381D02*
X032615Y013381D01*
X032615Y013480D02*
X030092Y013480D01*
X030188Y013578D02*
X032615Y013578D01*
X032615Y013677D02*
X030229Y013677D01*
X030263Y013775D02*
X032615Y013775D01*
X032615Y013874D02*
X030263Y013874D01*
X030259Y013972D02*
X032615Y013972D01*
X032615Y014071D02*
X030218Y014071D01*
X030166Y014169D02*
X032615Y014169D01*
X032615Y014268D02*
X030120Y014268D01*
X030120Y014366D02*
X032615Y014366D01*
X032615Y014465D02*
X030120Y014465D01*
X030120Y014563D02*
X032615Y014563D01*
X032615Y014662D02*
X030120Y014662D01*
X030120Y014760D02*
X032615Y014760D01*
X032615Y014859D02*
X030120Y014859D01*
X030120Y014957D02*
X032615Y014957D01*
X032615Y015056D02*
X030120Y015056D01*
X030120Y015154D02*
X032615Y015154D01*
X032615Y015253D02*
X030120Y015253D01*
X030120Y015351D02*
X032615Y015351D01*
X032615Y015450D02*
X030120Y015450D01*
X030120Y015548D02*
X032615Y015548D01*
X032615Y015647D02*
X030120Y015647D01*
X030120Y015745D02*
X032615Y015745D01*
X032615Y015844D02*
X030120Y015844D01*
X030120Y015942D02*
X032615Y015942D01*
X032615Y016041D02*
X030120Y016041D01*
X030120Y016139D02*
X032615Y016139D01*
X032615Y016238D02*
X030120Y016238D01*
X030120Y016336D02*
X032615Y016336D01*
X032615Y016435D02*
X030120Y016435D01*
X030120Y016533D02*
X032615Y016533D01*
X032615Y016632D02*
X030120Y016632D01*
X030120Y016730D02*
X032615Y016730D01*
X032615Y016829D02*
X030120Y016829D01*
X030120Y016927D02*
X032615Y016927D01*
X032615Y017026D02*
X030120Y017026D01*
X030120Y017124D02*
X032615Y017124D01*
X032615Y017223D02*
X030120Y017223D01*
X030120Y017321D02*
X032615Y017321D01*
X032615Y017420D02*
X030120Y017420D01*
X030120Y017518D02*
X032615Y017518D01*
X032615Y017617D02*
X030120Y017617D01*
X030120Y017715D02*
X032615Y017715D01*
X032615Y017814D02*
X030120Y017814D01*
X030120Y017912D02*
X032615Y017912D01*
X032615Y018011D02*
X030120Y018011D01*
X030120Y018109D02*
X032615Y018109D01*
X032615Y018208D02*
X030120Y018208D01*
X030120Y018306D02*
X032615Y018306D01*
X032615Y018405D02*
X030120Y018405D01*
X030120Y018503D02*
X032615Y018503D01*
X032615Y018602D02*
X030120Y018602D01*
X030120Y018700D02*
X032615Y018700D01*
X032615Y018799D02*
X030120Y018799D01*
X030120Y018897D02*
X032615Y018897D01*
X032615Y018996D02*
X030120Y018996D01*
X030120Y019094D02*
X032615Y019094D01*
X032615Y019193D02*
X030120Y019193D01*
X030201Y019291D02*
X032615Y019291D01*
X032615Y019390D02*
X030300Y019390D01*
X030398Y019488D02*
X032615Y019488D01*
X032615Y019587D02*
X030497Y019587D01*
X030577Y019685D02*
X032615Y019685D01*
X032615Y019784D02*
X030618Y019784D01*
X030620Y019882D02*
X032615Y019882D01*
X032615Y019981D02*
X030620Y019981D01*
X030620Y020079D02*
X032615Y020079D01*
X032615Y020178D02*
X030620Y020178D01*
X030620Y020276D02*
X032615Y020276D01*
X032615Y020375D02*
X030620Y020375D01*
X030620Y020473D02*
X032615Y020473D01*
X023628Y014859D02*
X023082Y014859D01*
X023275Y014760D02*
X023435Y014760D01*
X022828Y014859D02*
X021393Y014859D01*
X021475Y014760D02*
X022635Y014760D01*
X022537Y014662D02*
X021475Y014662D01*
X021475Y014465D02*
X022448Y014465D01*
X022447Y014366D02*
X021475Y014366D01*
X021397Y014268D02*
X022447Y014268D01*
X022485Y014169D02*
X021298Y014169D01*
X021200Y014071D02*
X022527Y014071D01*
X022547Y013972D02*
X020863Y013972D01*
X020905Y014071D02*
X021005Y014071D01*
X021005Y014169D02*
X020905Y014169D01*
X020905Y014268D02*
X021005Y014268D01*
X021005Y014366D02*
X020905Y014366D01*
X020905Y014465D02*
X021005Y014465D01*
X021005Y014563D02*
X022489Y014563D01*
X022493Y013874D02*
X020961Y013874D01*
X021016Y013775D02*
X022452Y013775D01*
X022447Y013677D02*
X021057Y013677D01*
X021063Y013578D02*
X022447Y013578D01*
X022480Y013480D02*
X021355Y013480D01*
X021454Y013381D02*
X022521Y013381D01*
X022565Y013283D02*
X021513Y013283D01*
X021554Y013184D02*
X022565Y013184D01*
X022565Y013086D02*
X021563Y013086D01*
X021563Y012987D02*
X022565Y012987D01*
X022565Y012889D02*
X021534Y012889D01*
X021493Y012790D02*
X022565Y012790D01*
X022565Y012692D02*
X021404Y012692D01*
X021253Y012593D02*
X022565Y012593D01*
X022565Y012495D02*
X019345Y012495D01*
X019345Y012593D02*
X020857Y012593D01*
X019428Y012692D02*
X019345Y012692D01*
X019345Y012396D02*
X022565Y012396D01*
X022565Y012298D02*
X019345Y012298D01*
X019345Y012199D02*
X022565Y012199D01*
X022565Y012101D02*
X019345Y012101D01*
X019345Y012002D02*
X022565Y012002D01*
X022565Y011904D02*
X019345Y011904D01*
X019345Y011805D02*
X022565Y011805D01*
X022565Y011707D02*
X019345Y011707D01*
X019345Y011608D02*
X022565Y011608D01*
X022565Y011510D02*
X019345Y011510D01*
X019345Y011411D02*
X022565Y011411D01*
X022565Y011313D02*
X019345Y011313D01*
X019345Y011214D02*
X020107Y011214D01*
X019876Y011116D02*
X019345Y011116D01*
X019345Y011017D02*
X019778Y011017D01*
X019689Y010919D02*
X019345Y010919D01*
X019345Y010820D02*
X019648Y010820D01*
X019607Y010722D02*
X019345Y010722D01*
X019345Y010623D02*
X019595Y010623D01*
X019595Y010525D02*
X019345Y010525D01*
X019345Y010426D02*
X019597Y010426D01*
X019637Y010328D02*
X019345Y010328D01*
X019345Y010229D02*
X019678Y010229D01*
X019752Y010131D02*
X019345Y010131D01*
X019345Y010032D02*
X019693Y010032D01*
X019595Y009934D02*
X019345Y009934D01*
X019345Y009835D02*
X019554Y009835D01*
X019513Y009737D02*
X019345Y009737D01*
X019345Y009638D02*
X019495Y009638D01*
X019495Y009540D02*
X019345Y009540D01*
X019345Y009441D02*
X019495Y009441D01*
X019531Y009343D02*
X019345Y009343D01*
X019345Y009244D02*
X019572Y009244D01*
X019637Y009146D02*
X019345Y009146D01*
X019345Y009047D02*
X019736Y009047D01*
X019709Y008949D02*
X019345Y008949D01*
X019345Y008850D02*
X019660Y008850D01*
X019620Y008752D02*
X019416Y008752D01*
X019515Y008653D02*
X019595Y008653D01*
X019002Y008062D02*
X015837Y008062D01*
X015936Y007964D02*
X019101Y007964D01*
X019199Y007865D02*
X015993Y007865D01*
X016034Y007767D02*
X019298Y007767D01*
X019396Y007668D02*
X016065Y007668D01*
X016065Y007570D02*
X019495Y007570D01*
X019593Y007471D02*
X016065Y007471D01*
X016041Y007373D02*
X019548Y007373D01*
X019449Y007274D02*
X016001Y007274D01*
X015953Y007176D02*
X019394Y007176D01*
X019348Y007077D02*
X015922Y007077D01*
X016021Y006979D02*
X019249Y006979D01*
X019151Y006880D02*
X016087Y006880D01*
X016128Y006782D02*
X019052Y006782D01*
X018954Y006683D02*
X016165Y006683D01*
X016165Y006585D02*
X018855Y006585D01*
X018757Y006486D02*
X016165Y006486D01*
X016148Y006388D02*
X018658Y006388D01*
X018560Y006289D02*
X016107Y006289D01*
X016066Y006191D02*
X018461Y006191D01*
X018363Y006092D02*
X015969Y006092D01*
X015906Y005994D02*
X018264Y005994D01*
X018166Y005895D02*
X015981Y005895D01*
X016022Y005797D02*
X018067Y005797D01*
X017969Y005698D02*
X016063Y005698D01*
X016065Y005600D02*
X016086Y005600D01*
X016624Y005600D02*
X017870Y005600D01*
X018424Y005107D02*
X020065Y005107D01*
X020065Y005009D02*
X018326Y005009D01*
X018269Y004952D02*
X019770Y006453D01*
X019956Y006453D01*
X020065Y006498D01*
X020065Y004823D01*
X019812Y004569D01*
X019654Y004569D01*
X019467Y004492D01*
X019324Y004349D01*
X019247Y004162D01*
X019247Y003960D01*
X019324Y003773D01*
X019467Y003631D01*
X019654Y003553D01*
X019856Y003553D01*
X020043Y003631D01*
X020186Y003773D01*
X020233Y003888D01*
X020547Y004202D01*
X020547Y004160D01*
X020624Y003973D01*
X020767Y003831D01*
X020814Y003811D01*
X020767Y003792D01*
X020624Y003649D01*
X020547Y003462D01*
X020547Y003260D01*
X020624Y003073D01*
X020671Y003026D01*
X020206Y003026D01*
X019864Y003368D01*
X019762Y003471D01*
X019628Y003526D01*
X018009Y003526D01*
X017986Y003582D01*
X016772Y004796D01*
X017769Y004796D01*
X017781Y004791D01*
X018029Y004791D01*
X018165Y004848D01*
X018269Y004952D01*
X018227Y004910D02*
X020065Y004910D01*
X020054Y004812D02*
X018078Y004812D01*
X018523Y005206D02*
X020065Y005206D01*
X020065Y005304D02*
X018621Y005304D01*
X018720Y005403D02*
X020065Y005403D01*
X020065Y005501D02*
X018818Y005501D01*
X018917Y005600D02*
X020065Y005600D01*
X020065Y005698D02*
X019015Y005698D01*
X019114Y005797D02*
X020065Y005797D01*
X020065Y005895D02*
X019212Y005895D01*
X019311Y005994D02*
X020065Y005994D01*
X020065Y006092D02*
X019409Y006092D01*
X019508Y006191D02*
X020065Y006191D01*
X020065Y006289D02*
X019606Y006289D01*
X019705Y006388D02*
X020065Y006388D01*
X020065Y006486D02*
X020036Y006486D01*
X019855Y006961D02*
X019755Y006961D01*
X018904Y008161D02*
X015682Y008161D01*
X015335Y008259D02*
X018805Y008259D01*
X018707Y008358D02*
X015345Y008358D01*
X015345Y008456D02*
X018618Y008456D01*
X018577Y008555D02*
X015345Y008555D01*
X015345Y008653D02*
X018565Y008653D01*
X018565Y008752D02*
X015345Y008752D01*
X015340Y008850D02*
X018565Y008850D01*
X018565Y008949D02*
X015299Y008949D01*
X015221Y009047D02*
X018565Y009047D01*
X018565Y009146D02*
X015122Y009146D01*
X015024Y009244D02*
X018565Y009244D01*
X018565Y009343D02*
X014945Y009343D01*
X014945Y009441D02*
X017156Y009441D01*
X017754Y009441D02*
X018565Y009441D01*
X018565Y009540D02*
X017852Y009540D01*
X017913Y009638D02*
X018565Y009638D01*
X018565Y009737D02*
X017953Y009737D01*
X017963Y009835D02*
X018565Y009835D01*
X018565Y009934D02*
X017963Y009934D01*
X017934Y010032D02*
X018565Y010032D01*
X018565Y010131D02*
X017893Y010131D01*
X017806Y010229D02*
X018565Y010229D01*
X018565Y010328D02*
X017656Y010328D01*
X017254Y010328D02*
X016440Y010328D01*
X016342Y010426D02*
X018565Y010426D01*
X018565Y010525D02*
X016243Y010525D01*
X016145Y010623D02*
X018565Y010623D01*
X018565Y010722D02*
X016046Y010722D01*
X015948Y010820D02*
X018565Y010820D01*
X018565Y010919D02*
X015849Y010919D01*
X015845Y011017D02*
X018565Y011017D01*
X018565Y011116D02*
X015845Y011116D01*
X015845Y011214D02*
X018565Y011214D01*
X018565Y011313D02*
X015845Y011313D01*
X015845Y011411D02*
X018565Y011411D01*
X018565Y011510D02*
X015845Y011510D01*
X015845Y011608D02*
X018565Y011608D01*
X018565Y011707D02*
X015845Y011707D01*
X015845Y011805D02*
X018565Y011805D01*
X018565Y011904D02*
X015845Y011904D01*
X015845Y012002D02*
X018565Y012002D01*
X018565Y012101D02*
X015845Y012101D01*
X015896Y012199D02*
X018565Y012199D01*
X018565Y012298D02*
X015937Y012298D01*
X015963Y012396D02*
X018565Y012396D01*
X018565Y012495D02*
X015963Y012495D01*
X015950Y012593D02*
X018471Y012593D01*
X018373Y012692D02*
X015909Y012692D01*
X015845Y012790D02*
X018274Y012790D01*
X018176Y012889D02*
X015746Y012889D01*
X015164Y012889D02*
X014846Y012889D01*
X014945Y012790D02*
X015065Y012790D01*
X015014Y012199D02*
X014996Y012199D01*
X014945Y012101D02*
X015065Y012101D01*
X015065Y012002D02*
X014945Y012002D01*
X014945Y011904D02*
X015065Y011904D01*
X015065Y011805D02*
X014945Y011805D01*
X014945Y011707D02*
X015065Y011707D01*
X015065Y011608D02*
X014945Y011608D01*
X014945Y011510D02*
X015065Y011510D01*
X015065Y011411D02*
X014945Y011411D01*
X014945Y011313D02*
X015065Y011313D01*
X015065Y011214D02*
X014945Y011214D01*
X014945Y011116D02*
X015065Y011116D01*
X015065Y011017D02*
X014945Y011017D01*
X014945Y010919D02*
X015065Y010919D01*
X015065Y010820D02*
X014945Y010820D01*
X014945Y010722D02*
X015065Y010722D01*
X015090Y010623D02*
X014945Y010623D01*
X014945Y010525D02*
X015140Y010525D01*
X015238Y010426D02*
X014945Y010426D01*
X014945Y010328D02*
X015337Y010328D01*
X015435Y010229D02*
X014945Y010229D01*
X014945Y010131D02*
X015534Y010131D01*
X015632Y010032D02*
X014945Y010032D01*
X014945Y009934D02*
X015731Y009934D01*
X015829Y009835D02*
X014945Y009835D01*
X014945Y009737D02*
X015928Y009737D01*
X016026Y009638D02*
X014945Y009638D01*
X014945Y009540D02*
X016125Y009540D01*
X014165Y011904D02*
X014142Y011904D01*
X014165Y012002D02*
X014044Y012002D01*
X014165Y012101D02*
X013863Y012101D01*
X020403Y011214D02*
X022565Y011214D01*
X022565Y011116D02*
X020634Y011116D01*
X020732Y011017D02*
X022559Y011017D01*
X022461Y010919D02*
X020821Y010919D01*
X020862Y010820D02*
X022235Y010820D01*
X022097Y010722D02*
X020903Y010722D01*
X020915Y010623D02*
X022014Y010623D01*
X021973Y010525D02*
X020915Y010525D01*
X020913Y010426D02*
X021947Y010426D01*
X021947Y010328D02*
X020873Y010328D01*
X020832Y010229D02*
X021960Y010229D01*
X022000Y010131D02*
X020758Y010131D01*
X020659Y010032D02*
X022065Y010032D01*
X022076Y009934D02*
X020715Y009934D01*
X020756Y009835D02*
X022047Y009835D01*
X022014Y009737D02*
X020797Y009737D01*
X020815Y009638D02*
X021916Y009638D01*
X021817Y009540D02*
X021028Y009540D01*
X021194Y009441D02*
X021719Y009441D01*
X021620Y009343D02*
X021288Y009343D01*
X021329Y009244D02*
X021522Y009244D01*
X021423Y009146D02*
X021363Y009146D01*
X026264Y006388D02*
X026646Y006388D01*
X026518Y006289D02*
X026392Y006289D01*
X024990Y002940D02*
X021950Y002940D01*
X021852Y002842D02*
X024990Y002842D01*
X024990Y002743D02*
X021753Y002743D01*
X021655Y002645D02*
X024990Y002645D01*
X024924Y002546D02*
X021556Y002546D01*
X020659Y003039D02*
X020194Y003039D01*
X020095Y003137D02*
X020598Y003137D01*
X020557Y003236D02*
X019997Y003236D01*
X019898Y003334D02*
X020547Y003334D01*
X020547Y003433D02*
X019800Y003433D01*
X020041Y003630D02*
X020616Y003630D01*
X020575Y003531D02*
X018007Y003531D01*
X017938Y003630D02*
X019469Y003630D01*
X019369Y003728D02*
X017840Y003728D01*
X017741Y003827D02*
X019302Y003827D01*
X019261Y003925D02*
X017643Y003925D01*
X017544Y004024D02*
X019247Y004024D01*
X019247Y004122D02*
X017446Y004122D01*
X017347Y004221D02*
X019271Y004221D01*
X019312Y004319D02*
X017249Y004319D01*
X017150Y004418D02*
X019393Y004418D01*
X019526Y004516D02*
X017052Y004516D01*
X016953Y004615D02*
X019857Y004615D01*
X019955Y004713D02*
X016855Y004713D01*
X016441Y004024D02*
X014020Y004024D01*
X014009Y004040D02*
X013961Y004087D01*
X013907Y004127D01*
X014009Y004040D02*
X014048Y003985D01*
X014079Y003925D01*
X014110Y003733D02*
X014110Y003728D01*
X014920Y003728D01*
X014830Y003653D02*
X014830Y003653D01*
X014830Y003653D01*
X014817Y003630D02*
X014089Y003630D01*
X014099Y003661D02*
X014110Y003728D01*
X014099Y003661D02*
X014079Y003597D01*
X014048Y003537D01*
X014009Y003483D01*
X013961Y003435D01*
X013907Y003396D01*
X013847Y003365D01*
X013783Y003344D01*
X013716Y003334D01*
X013434Y003334D01*
X013434Y003733D01*
X013376Y003733D01*
X013376Y003334D01*
X013094Y003334D01*
X013027Y003344D01*
X012963Y003365D01*
X012903Y003396D01*
X012849Y003435D01*
X012801Y003483D01*
X012762Y003537D01*
X012731Y003597D01*
X012711Y003661D01*
X012700Y003728D01*
X012721Y003630D02*
X011720Y003630D01*
X011940Y003531D02*
X012766Y003531D01*
X012852Y003433D02*
X012039Y003433D01*
X012137Y003334D02*
X013091Y003334D01*
X013376Y003334D02*
X013434Y003334D01*
X013434Y003433D02*
X013376Y003433D01*
X013376Y003531D02*
X013434Y003531D01*
X013434Y003630D02*
X013376Y003630D01*
X013376Y003728D02*
X013434Y003728D01*
X013434Y003827D02*
X013376Y003827D01*
X013376Y003925D02*
X013434Y003925D01*
X013434Y004024D02*
X013376Y004024D01*
X013376Y004122D02*
X013434Y004122D01*
X014044Y003531D02*
X014760Y003531D01*
X014703Y003433D02*
X013958Y003433D01*
X013719Y003334D02*
X014646Y003334D01*
X014644Y003329D02*
X014644Y003329D01*
X014627Y003236D02*
X012208Y003236D01*
X012248Y003137D02*
X014610Y003137D01*
X014592Y003039D02*
X012289Y003039D01*
X012328Y002940D02*
X014582Y002940D01*
X014579Y002961D02*
X014579Y002961D01*
X014600Y002842D02*
X012328Y002842D01*
X012328Y002743D02*
X014617Y002743D01*
X014634Y002645D02*
X012328Y002645D01*
X012315Y002546D02*
X014671Y002546D01*
X014644Y002593D02*
X014644Y002593D01*
X014727Y002448D02*
X012274Y002448D01*
X012233Y002349D02*
X014784Y002349D01*
X014830Y002269D02*
X014830Y002269D01*
X014853Y002251D02*
X012193Y002251D01*
X012101Y002152D02*
X014970Y002152D01*
X015087Y002054D02*
X012003Y002054D01*
X011871Y001955D02*
X015320Y001955D01*
X015117Y002029D02*
X015117Y002029D01*
X015990Y001955D02*
X018090Y001955D01*
X018050Y002054D02*
X016223Y002054D01*
X016340Y002152D02*
X018047Y002152D01*
X018047Y002251D02*
X016457Y002251D01*
X016526Y002349D02*
X018083Y002349D01*
X018124Y002448D02*
X016583Y002448D01*
X016639Y002546D02*
X018221Y002546D01*
X018395Y002645D02*
X016676Y002645D01*
X016666Y002593D02*
X016666Y002593D01*
X016693Y002743D02*
X018847Y002743D01*
X018853Y002645D02*
X018715Y002645D01*
X018889Y002546D02*
X018894Y002546D01*
X017673Y002842D02*
X016710Y002842D01*
X016728Y002940D02*
X017560Y002940D01*
X017426Y003039D02*
X016718Y003039D01*
X016731Y002961D02*
X016731Y002961D01*
X016700Y003137D02*
X017327Y003137D01*
X017229Y003236D02*
X016683Y003236D01*
X016664Y003334D02*
X017130Y003334D01*
X017032Y003433D02*
X016607Y003433D01*
X016550Y003531D02*
X016933Y003531D01*
X016835Y003630D02*
X016493Y003630D01*
X016480Y003653D02*
X016480Y003653D01*
X016390Y003728D02*
X016736Y003728D01*
X016638Y003827D02*
X016273Y003827D01*
X016193Y003893D02*
X016193Y003893D01*
X016106Y003925D02*
X016539Y003925D01*
X020141Y003728D02*
X020703Y003728D01*
X020776Y003827D02*
X020208Y003827D01*
X020271Y003925D02*
X020672Y003925D01*
X020603Y004024D02*
X020369Y004024D01*
X020468Y004122D02*
X020563Y004122D01*
X029520Y011313D02*
X031396Y011313D01*
X031172Y011411D02*
X029520Y011411D01*
X029520Y011510D02*
X031073Y011510D01*
X030987Y011608D02*
X029520Y011608D01*
X029520Y011707D02*
X030946Y011707D01*
X030905Y011805D02*
X029520Y011805D01*
X029520Y011904D02*
X030895Y011904D01*
X030895Y012002D02*
X029520Y012002D01*
X029520Y012101D02*
X030898Y012101D01*
X030939Y012199D02*
X029520Y012199D01*
X029520Y012298D02*
X030980Y012298D01*
X031057Y012396D02*
X029520Y012396D01*
X029520Y012495D02*
X031155Y012495D01*
X031356Y012593D02*
X029520Y012593D01*
X020710Y014071D02*
X020398Y014071D01*
X020496Y014169D02*
X020612Y014169D01*
D20*
X020555Y013561D03*
X021055Y013061D03*
X022455Y011661D03*
X022455Y010361D03*
X022555Y009761D03*
X023155Y010261D03*
X024355Y010061D03*
X024155Y009061D03*
X025155Y009361D03*
X026955Y010761D03*
X028355Y011861D03*
X027855Y013661D03*
X029755Y013861D03*
X031355Y011161D03*
X028855Y010061D03*
X025455Y007061D03*
X024155Y005461D03*
X023155Y006861D03*
X021955Y007961D03*
X020855Y009061D03*
X021055Y010461D03*
X017455Y009861D03*
X016455Y010561D03*
X015455Y012461D03*
X014555Y012461D03*
X013255Y013761D03*
X012555Y015161D03*
X010055Y015161D03*
X014055Y017661D03*
X014555Y018861D03*
X014155Y019561D03*
X014055Y021061D03*
X015555Y022461D03*
X016055Y022961D03*
X014255Y024861D03*
X014455Y027361D03*
X018655Y027361D03*
X020355Y025861D03*
X020355Y024761D03*
X021455Y024261D03*
X022355Y024261D03*
X022755Y025261D03*
X022755Y026361D03*
X023855Y027461D03*
X025255Y027161D03*
X025055Y026061D03*
X025155Y025261D03*
X025955Y025961D03*
X027155Y025661D03*
X029555Y025061D03*
X026955Y023361D03*
X026055Y022061D03*
X024555Y021261D03*
X024055Y023261D03*
X020555Y021661D03*
X020655Y018961D03*
X018055Y019061D03*
X015855Y015961D03*
X022955Y014361D03*
X022955Y013661D03*
X023755Y014361D03*
X024755Y012061D03*
X025355Y011261D03*
X019855Y006961D03*
X020055Y005661D03*
X021055Y004261D03*
X019755Y004061D03*
X020155Y003361D03*
X021055Y003361D03*
X019355Y002761D03*
X018555Y002161D03*
X017155Y004561D03*
X016355Y005161D03*
X018055Y006661D03*
X014355Y008561D03*
X013955Y007061D03*
X010055Y008161D03*
X014255Y002261D03*
X026755Y003061D03*
X025855Y016561D03*
X023640Y017571D03*
X027555Y021261D03*
X031655Y019661D03*
D21*
X026155Y025261D02*
X025155Y025261D01*
X025055Y026061D02*
X024155Y026061D01*
X022355Y024261D01*
X022355Y019161D01*
X020855Y017661D01*
X019455Y017661D01*
X018955Y017161D01*
X018955Y016861D01*
X017755Y015661D01*
X017755Y013861D01*
X018955Y012661D01*
X018955Y008661D01*
X020455Y007161D01*
X020455Y004661D01*
X019855Y004061D01*
X019755Y004061D01*
X017655Y003361D02*
X016355Y004661D01*
X015055Y004661D01*
X014555Y005161D01*
X014555Y007961D01*
X014955Y008361D01*
X014955Y008761D01*
X014555Y009161D01*
X014555Y012461D01*
X015455Y012461D02*
X015455Y010761D01*
X016355Y009861D01*
X017455Y009861D01*
X019555Y013061D02*
X018355Y014261D01*
X018355Y015061D01*
X019855Y016561D01*
X019955Y016561D01*
X019955Y015561D02*
X019755Y015361D01*
X019455Y015361D01*
X019055Y014961D01*
X019055Y014261D01*
X019755Y013561D01*
X020555Y013561D01*
X021055Y013061D02*
X019555Y013061D01*
X022955Y013661D02*
X022955Y010861D01*
X022455Y010361D01*
X023755Y009861D02*
X024055Y009561D01*
X024955Y009561D01*
X025155Y009361D01*
X024355Y010061D02*
X024355Y013761D01*
X023755Y014361D01*
X023755Y013561D02*
X022955Y014361D01*
X023755Y013561D02*
X023755Y009861D01*
X025355Y011261D02*
X025355Y011661D01*
X024955Y012061D01*
X024755Y012061D01*
X021755Y024261D02*
X021455Y024261D01*
X021755Y024261D02*
X022755Y025261D01*
X024055Y026561D01*
X025455Y026561D01*
X025955Y026061D01*
X025955Y025961D01*
X026555Y025661D02*
X026555Y026261D01*
X025655Y027161D01*
X025255Y027161D01*
X026555Y025661D02*
X026155Y025261D01*
D22*
X024055Y023261D02*
X025255Y022061D01*
X026055Y022061D01*
X015555Y022461D02*
X015555Y019861D01*
X014555Y018861D01*
X014055Y021061D02*
X014055Y022111D01*
X013214Y022952D01*
X021555Y008761D02*
X021555Y004061D01*
X021455Y003961D01*
X021455Y003561D01*
X021255Y003361D01*
X021055Y003361D01*
X017955Y005161D02*
X017855Y005161D01*
X017955Y005161D02*
X019755Y006961D01*
D23*
X021955Y007961D02*
X021955Y003961D01*
X021755Y003761D01*
X021755Y003261D01*
X021155Y002661D01*
X020055Y002661D01*
X019555Y003161D01*
X017855Y003161D01*
X017655Y003361D01*
X018555Y002161D02*
X018855Y001861D01*
X025155Y001861D01*
X025655Y002361D01*
X025655Y004753D01*
X025963Y005061D01*
X025355Y005233D02*
X025963Y005841D01*
X025355Y005233D02*
X025355Y002461D01*
X025055Y002161D01*
X019655Y002161D01*
X019355Y002461D01*
X019355Y002761D01*
X021055Y004261D02*
X021055Y008861D01*
X020855Y009061D01*
X021555Y008761D02*
X022555Y009761D01*
X023155Y010261D02*
X023155Y006861D01*
X017855Y005161D02*
X016355Y005161D01*
X028855Y010061D02*
X029155Y010361D01*
X029155Y020461D01*
X028955Y020661D01*
X028955Y022261D01*
X029594Y022900D01*
X029609Y022900D01*
X029609Y021049D02*
X030255Y020403D01*
X030255Y019861D01*
X029755Y019361D01*
X029755Y013861D01*
X016055Y019661D02*
X016055Y022961D01*
X016055Y019661D02*
X014055Y017661D01*
M02*
