%
M48
M72
T01C0.0236
T02C0.0315
T03C0.0354
T04C0.0360
T05C0.0400
T06C0.0866
T07C0.0900
T08C0.1300
%
T01
X10055Y8161
X13955Y7061
X14355Y8561
X16455Y10561
X17455Y9861
X15455Y12461
X14555Y12461
X13255Y13761
X12555Y15161
X10055Y15161
X14055Y17661
X14555Y18861
X14155Y19561
X14055Y21061
X15555Y22461
X16055Y22961
X14255Y24861
X14455Y27361
X18655Y27361
X20355Y25861
X20355Y24761
X21455Y24261
X22355Y24261
X22755Y25261
X22755Y26361
X23855Y27461
X25255Y27161
X25055Y26061
X25155Y25261
X25955Y25961
X27155Y25661
X29555Y25061
X26955Y23361
X26055Y22061
X24555Y21261
X24055Y23261
X20555Y21661
X20655Y18961
X18055Y19061
X15855Y15961
X20555Y13561
X21055Y13061
X22455Y11661
X22455Y10361
X22555Y9761
X23155Y10261
X24355Y10061
X24155Y9061
X25155Y9361
X26955Y10761
X28355Y11861
X27855Y13661
X29755Y13861
X31355Y11161
X28855Y10061
X25455Y7061
X24155Y5461
X23155Y6861
X21955Y7961
X20855Y9061
X21055Y10461
X22955Y13661
X22955Y14361
X23755Y14361
X24755Y12061
X25355Y11261
X19855Y6961
X20055Y5661
X21055Y4261
X19755Y4061
X20155Y3361
X21055Y3361
X19355Y2761
X18555Y2161
X17155Y4561
X16355Y5161
X18055Y6661
X14255Y2261
X26755Y3061
X25855Y16561
X23640Y17571
X27555Y21261
X31655Y19661
T02
X13405Y11561
X13405Y10561
X13405Y4761
X13405Y3761
T03
X28624Y20223
X29609Y20223
X29609Y21049
X29609Y22073
X29609Y22900
X28624Y22900
T04
X26947Y5841
X26947Y5061
X25963Y5061
X25963Y5841
T05
X20255Y8561
X20155Y9561
X20255Y10561
X19955Y14561
X20955Y14561
X20955Y15561
X19955Y15561
X19955Y16561
X20955Y16561
X24555Y19711
X23555Y19811
X25555Y19811
X26555Y19711
X28420Y17371
X31555Y11961
X15405Y7561
X15505Y6561
X15405Y5561
X13214Y19680
X12096Y20227
X13214Y20771
X12096Y21318
X13214Y21861
X12096Y22405
X13214Y22952
X12096Y23495
X13214Y24042
T06
X11405Y13561
X11405Y9561
X11405Y6761
X11405Y2761
X31105Y21561
T07
X28825Y3991
X24085Y3991
T08
X31255Y7561
X15655Y2961
X12655Y16940
X16855Y26461
X12655Y26783
X31455Y26561
M30
