%
T01C0.023600
X3100Y8600
X7000Y7500
X7400Y9000
X9500Y11000
X10500Y10300
X8500Y12900
X7600Y12900
X6300Y14200
X5600Y15600
X3100Y15600
X7100Y18100
X7600Y19300
X7200Y20000
X7100Y21500
X8600Y22900
X9100Y23400
X7300Y25300
X7500Y27800
X11700Y27800
X13400Y26300
X13400Y25200
X14500Y24700
X15400Y24700
X15800Y25700
X15800Y26800
X16900Y27900
X18300Y27600
X18100Y26500
X18200Y25700
X19000Y26400
X20200Y26100
X22600Y25500
X20000Y23800
X19100Y22500
X17600Y21700
X17100Y23700
X13600Y22100
X13700Y19400
X11100Y19500
X8900Y16400
X13600Y14000
X14100Y13500
X15500Y12100
X15500Y10800
X15600Y10200
X16200Y10700
X17400Y10500
X17200Y9500
X18200Y9800
X20000Y11200
X21400Y12300
X20900Y14100
X22800Y14300
X24400Y11600
X21900Y10500
X18500Y7500
X17200Y5900
X16200Y7300
X15000Y8400
X13900Y9500
X14100Y10900
X16000Y14100
X16000Y14800
X16800Y14800
X17800Y12500
X18400Y11700
X12900Y7400
X13100Y6100
X14100Y4700
X12800Y4500
X13200Y3800
X14100Y3800
X12400Y3200
X11600Y2600
X10200Y5000
X9400Y5600
X11100Y7100
X7300Y2700
X19800Y3500
X18900Y17000
X16685Y18010
X20600Y21700
X24700Y20100
X28350Y8600
X32250Y7500
X32650Y9000
X34750Y11000
X35750Y10300
X33750Y12900
X32850Y12900
X31550Y14200
X30850Y15600
X28350Y15600
X32350Y18100
X32850Y19300
X32450Y20000
X32350Y21500
X33850Y22900
X34350Y23400
X32550Y25300
X32750Y27800
X36950Y27800
X38650Y26300
X38650Y25200
X39750Y24700
X40650Y24700
X41050Y25700
X41050Y26800
X42150Y27900
X43550Y27600
X43350Y26500
X43450Y25700
X44250Y26400
X45450Y26100
X47850Y25500
X45250Y23800
X44350Y22500
X42850Y21700
X42350Y23700
X38850Y22100
X38950Y19400
X36350Y19500
X34150Y16400
X38850Y14000
X39350Y13500
X40750Y12100
X40750Y10800
X40850Y10200
X41450Y10700
X42650Y10500
X42450Y9500
X43450Y9800
X45250Y11200
X46650Y12300
X46150Y14100
X48050Y14300
X49650Y11600
X47150Y10500
X43750Y7500
X42450Y5900
X41450Y7300
X40250Y8400
X39150Y9500
X39350Y10900
X41250Y14100
X41250Y14800
X42050Y14800
X43050Y12500
X43650Y11700
X38150Y7400
X38350Y6100
X39350Y4700
X38050Y4500
X38450Y3800
X39350Y3800
X37650Y3200
X36850Y2600
X35450Y5000
X34650Y5600
X36350Y7100
X32550Y2700
X45050Y3500
X44150Y17000
X41935Y18010
X45850Y21700
X49950Y20100
X3100Y36350
X7000Y35250
X7400Y36750
X9500Y38750
X10500Y38050
X8500Y40650
X7600Y40650
X6300Y41950
X5600Y43350
X3100Y43350
X7100Y45850
X7600Y47050
X7200Y47750
X7100Y49250
X8600Y50650
X9100Y51150
X7300Y53050
X7500Y55550
X11700Y55550
X13400Y54050
X13400Y52950
X14500Y52450
X15400Y52450
X15800Y53450
X15800Y54550
X16900Y55650
X18300Y55350
X18100Y54250
X18200Y53450
X19000Y54150
X20200Y53850
X22600Y53250
X20000Y51550
X19100Y50250
X17600Y49450
X17100Y51450
X13600Y49850
X13700Y47150
X11100Y47250
X8900Y44150
X13600Y41750
X14100Y41250
X15500Y39850
X15500Y38550
X15600Y37950
X16200Y38450
X17400Y38250
X17200Y37250
X18200Y37550
X20000Y38950
X21400Y40050
X20900Y41850
X22800Y42050
X24400Y39350
X21900Y38250
X18500Y35250
X17200Y33650
X16200Y35050
X15000Y36150
X13900Y37250
X14100Y38650
X16000Y41850
X16000Y42550
X16800Y42550
X17800Y40250
X18400Y39450
X12900Y35150
X13100Y33850
X14100Y32450
X12800Y32250
X13200Y31550
X14100Y31550
X12400Y30950
X11600Y30350
X10200Y32750
X9400Y33350
X11100Y34850
X7300Y30450
X19800Y31250
X18900Y44750
X16685Y45760
X20600Y49450
X24700Y47850
X53600Y8600
X57500Y7500
X57900Y9000
X60000Y11000
X61000Y10300
X59000Y12900
X58100Y12900
X56800Y14200
X56100Y15600
X53600Y15600
X57600Y18100
X58100Y19300
X57700Y20000
X57600Y21500
X59100Y22900
X59600Y23400
X57800Y25300
X58000Y27800
X62200Y27800
X63900Y26300
X63900Y25200
X65000Y24700
X65900Y24700
X66300Y25700
X66300Y26800
X67400Y27900
X68800Y27600
X68600Y26500
X68700Y25700
X69500Y26400
X70700Y26100
X73100Y25500
X70500Y23800
X69600Y22500
X68100Y21700
X67600Y23700
X64100Y22100
X64200Y19400
X61600Y19500
X59400Y16400
X64100Y14000
X64600Y13500
X66000Y12100
X66000Y10800
X66100Y10200
X66700Y10700
X67900Y10500
X67700Y9500
X68700Y9800
X70500Y11200
X71900Y12300
X71400Y14100
X73300Y14300
X74900Y11600
X72400Y10500
X69000Y7500
X67700Y5900
X66700Y7300
X65500Y8400
X64400Y9500
X64600Y10900
X66500Y14100
X66500Y14800
X67300Y14800
X68300Y12500
X68900Y11700
X63400Y7400
X63600Y6100
X64600Y4700
X63300Y4500
X63700Y3800
X64600Y3800
X62900Y3200
X62100Y2600
X60700Y5000
X59900Y5600
X61600Y7100
X57800Y2700
X70300Y3500
X69400Y17000
X67185Y18010
X71100Y21700
X75200Y20100
X78850Y8600
X82750Y7500
X83150Y9000
X85250Y11000
X86250Y10300
X84250Y12900
X83350Y12900
X82050Y14200
X81350Y15600
X78850Y15600
X82850Y18100
X83350Y19300
X82950Y20000
X82850Y21500
X84350Y22900
X84850Y23400
X83050Y25300
X83250Y27800
X87450Y27800
X89150Y26300
X89150Y25200
X90250Y24700
X91150Y24700
X91550Y25700
X91550Y26800
X92650Y27900
X94050Y27600
X93850Y26500
X93950Y25700
X94750Y26400
X95950Y26100
X98350Y25500
X95750Y23800
X94850Y22500
X93350Y21700
X92850Y23700
X89350Y22100
X89450Y19400
X86850Y19500
X84650Y16400
X89350Y14000
X89850Y13500
X91250Y12100
X91250Y10800
X91350Y10200
X91950Y10700
X93150Y10500
X92950Y9500
X93950Y9800
X95750Y11200
X97150Y12300
X96650Y14100
X98550Y14300
X100150Y11600
X97650Y10500
X94250Y7500
X92950Y5900
X91950Y7300
X90750Y8400
X89650Y9500
X89850Y10900
X91750Y14100
X91750Y14800
X92550Y14800
X93550Y12500
X94150Y11700
X88650Y7400
X88850Y6100
X89850Y4700
X88550Y4500
X88950Y3800
X89850Y3800
X88150Y3200
X87350Y2600
X85950Y5000
X85150Y5600
X86850Y7100
X83050Y2700
X95550Y3500
X94650Y17000
X92435Y18010
X96350Y21700
X100450Y20100
X28350Y36350
X32250Y35250
X32650Y36750
X34750Y38750
X35750Y38050
X33750Y40650
X32850Y40650
X31550Y41950
X30850Y43350
X28350Y43350
X32350Y45850
X32850Y47050
X32450Y47750
X32350Y49250
X33850Y50650
X34350Y51150
X32550Y53050
X32750Y55550
X36950Y55550
X38650Y54050
X38650Y52950
X39750Y52450
X40650Y52450
X41050Y53450
X41050Y54550
X42150Y55650
X43550Y55350
X43350Y54250
X43450Y53450
X44250Y54150
X45450Y53850
X47850Y53250
X45250Y51550
X44350Y50250
X42850Y49450
X42350Y51450
X38850Y49850
X38950Y47150
X36350Y47250
X34150Y44150
X38850Y41750
X39350Y41250
X40750Y39850
X40750Y38550
X40850Y37950
X41450Y38450
X42650Y38250
X42450Y37250
X43450Y37550
X45250Y38950
X46650Y40050
X46150Y41850
X48050Y42050
X49650Y39350
X47150Y38250
X43750Y35250
X42450Y33650
X41450Y35050
X40250Y36150
X39150Y37250
X39350Y38650
X41250Y41850
X41250Y42550
X42050Y42550
X43050Y40250
X43650Y39450
X38150Y35150
X38350Y33850
X39350Y32450
X38050Y32250
X38450Y31550
X39350Y31550
X37650Y30950
X36850Y30350
X35450Y32750
X34650Y33350
X36350Y34850
X32550Y30450
X45050Y31250
X44150Y44750
X41935Y45760
X45850Y49450
X49950Y47850
X53600Y36350
X57500Y35250
X57900Y36750
X60000Y38750
X61000Y38050
X59000Y40650
X58100Y40650
X56800Y41950
X56100Y43350
X53600Y43350
X57600Y45850
X58100Y47050
X57700Y47750
X57600Y49250
X59100Y50650
X59600Y51150
X57800Y53050
X58000Y55550
X62200Y55550
X63900Y54050
X63900Y52950
X65000Y52450
X65900Y52450
X66300Y53450
X66300Y54550
X67400Y55650
X68800Y55350
X68600Y54250
X68700Y53450
X69500Y54150
X70700Y53850
X73100Y53250
X70500Y51550
X69600Y50250
X68100Y49450
X67600Y51450
X64100Y49850
X64200Y47150
X61600Y47250
X59400Y44150
X64100Y41750
X64600Y41250
X66000Y39850
X66000Y38550
X66100Y37950
X66700Y38450
X67900Y38250
X67700Y37250
X68700Y37550
X70500Y38950
X71900Y40050
X71400Y41850
X73300Y42050
X74900Y39350
X72400Y38250
X69000Y35250
X67700Y33650
X66700Y35050
X65500Y36150
X64400Y37250
X64600Y38650
X66500Y41850
X66500Y42550
X67300Y42550
X68300Y40250
X68900Y39450
X63400Y35150
X63600Y33850
X64600Y32450
X63300Y32250
X63700Y31550
X64600Y31550
X62900Y30950
X62100Y30350
X60700Y32750
X59900Y33350
X61600Y34850
X57800Y30450
X70300Y31250
X69400Y44750
X67185Y45760
X71100Y49450
X75200Y47850
X78850Y36350
X82750Y35250
X83150Y36750
X85250Y38750
X86250Y38050
X84250Y40650
X83350Y40650
X82050Y41950
X81350Y43350
X78850Y43350
X82850Y45850
X83350Y47050
X82950Y47750
X82850Y49250
X84350Y50650
X84850Y51150
X83050Y53050
X83250Y55550
X87450Y55550
X89150Y54050
X89150Y52950
X90250Y52450
X91150Y52450
X91550Y53450
X91550Y54550
X92650Y55650
X94050Y55350
X93850Y54250
X93950Y53450
X94750Y54150
X95950Y53850
X98350Y53250
X95750Y51550
X94850Y50250
X93350Y49450
X92850Y51450
X89350Y49850
X89450Y47150
X86850Y47250
X84650Y44150
X89350Y41750
X89850Y41250
X91250Y39850
X91250Y38550
X91350Y37950
X91950Y38450
X93150Y38250
X92950Y37250
X93950Y37550
X95750Y38950
X97150Y40050
X96650Y41850
X98550Y42050
X100150Y39350
X97650Y38250
X94250Y35250
X92950Y33650
X91950Y35050
X90750Y36150
X89650Y37250
X89850Y38650
X91750Y41850
X91750Y42550
X92550Y42550
X93550Y40250
X94150Y39450
X88650Y35150
X88850Y33850
X89850Y32450
X88550Y32250
X88950Y31550
X89850Y31550
X88150Y30950
X87350Y30350
X85950Y32750
X85150Y33350
X86850Y34850
X83050Y30450
X95550Y31250
X94650Y44750
X92435Y45760
X96350Y49450
X100450Y47850
T02C0.033450
X6450Y12000
X6450Y11000
X6450Y5200
X6450Y4200
X31700Y12000
X31700Y11000
X31700Y5200
X31700Y4200
X6450Y39750
X6450Y38750
X6450Y32950
X6450Y31950
X56950Y12000
X56950Y11000
X56950Y5200
X56950Y4200
X82200Y12000
X82200Y11000
X82200Y5200
X82200Y4200
X31700Y39750
X31700Y38750
X31700Y32950
X31700Y31950
X56950Y39750
X56950Y38750
X56950Y32950
X56950Y31950
X82200Y39750
X82200Y38750
X82200Y32950
X82200Y31950
T03C0.036000
X19992Y6280
X19992Y5500
X19008Y5500
X19008Y6280
X21669Y20662
X22654Y20662
X22654Y21488
X22654Y22512
X22654Y23339
X21669Y23339
X45242Y6280
X45242Y5500
X44258Y5500
X44258Y6280
X46919Y20662
X47904Y20662
X47904Y21488
X47904Y22512
X47904Y23339
X46919Y23339
X19992Y34030
X19992Y33250
X19008Y33250
X19008Y34030
X21669Y48412
X22654Y48412
X22654Y49238
X22654Y50262
X22654Y51089
X21669Y51089
X70492Y6280
X70492Y5500
X69508Y5500
X69508Y6280
X72169Y20662
X73154Y20662
X73154Y21488
X73154Y22512
X73154Y23339
X72169Y23339
X95742Y6280
X95742Y5500
X94758Y5500
X94758Y6280
X97419Y20662
X98404Y20662
X98404Y21488
X98404Y22512
X98404Y23339
X97419Y23339
X45242Y34030
X45242Y33250
X44258Y33250
X44258Y34030
X46919Y48412
X47904Y48412
X47904Y49238
X47904Y50262
X47904Y51089
X46919Y51089
X70492Y34030
X70492Y33250
X69508Y33250
X69508Y34030
X72169Y48412
X73154Y48412
X73154Y49238
X73154Y50262
X73154Y51089
X72169Y51089
X95742Y34030
X95742Y33250
X94758Y33250
X94758Y34030
X97419Y48412
X98404Y48412
X98404Y49238
X98404Y50262
X98404Y51089
X97419Y51089
T04C0.040000
X13300Y9000
X13200Y10000
X13300Y11000
X13000Y15000
X14000Y15000
X14000Y16000
X13000Y16000
X13000Y17000
X14000Y17000
X17600Y20150
X16600Y20250
X18600Y20250
X19600Y20150
X21465Y17810
X24600Y12400
X8450Y8000
X8550Y7000
X8450Y6000
X6259Y20119
X5141Y20666
X6259Y21210
X5141Y21757
X6259Y22300
X5141Y22844
X6259Y23391
X5141Y23934
X6259Y24481
X38550Y9000
X38450Y10000
X38550Y11000
X38250Y15000
X39250Y15000
X39250Y16000
X38250Y16000
X38250Y17000
X39250Y17000
X42850Y20150
X41850Y20250
X43850Y20250
X44850Y20150
X46715Y17810
X49850Y12400
X33700Y8000
X33800Y7000
X33700Y6000
X31509Y20119
X30391Y20666
X31509Y21210
X30391Y21757
X31509Y22300
X30391Y22844
X31509Y23391
X30391Y23934
X31509Y24481
X13300Y36750
X13200Y37750
X13300Y38750
X13000Y42750
X14000Y42750
X14000Y43750
X13000Y43750
X13000Y44750
X14000Y44750
X17600Y47900
X16600Y48000
X18600Y48000
X19600Y47900
X21465Y45560
X24600Y40150
X8450Y35750
X8550Y34750
X8450Y33750
X6259Y47869
X5141Y48416
X6259Y48960
X5141Y49507
X6259Y50050
X5141Y50594
X6259Y51141
X5141Y51684
X6259Y52231
X63800Y9000
X63700Y10000
X63800Y11000
X63500Y15000
X64500Y15000
X64500Y16000
X63500Y16000
X63500Y17000
X64500Y17000
X68100Y20150
X67100Y20250
X69100Y20250
X70100Y20150
X71965Y17810
X75100Y12400
X58950Y8000
X59050Y7000
X58950Y6000
X56759Y20119
X55641Y20666
X56759Y21210
X55641Y21757
X56759Y22300
X55641Y22844
X56759Y23391
X55641Y23934
X56759Y24481
X89050Y9000
X88950Y10000
X89050Y11000
X88750Y15000
X89750Y15000
X89750Y16000
X88750Y16000
X88750Y17000
X89750Y17000
X93350Y20150
X92350Y20250
X94350Y20250
X95350Y20150
X97215Y17810
X100350Y12400
X84200Y8000
X84300Y7000
X84200Y6000
X82009Y20119
X80891Y20666
X82009Y21210
X80891Y21757
X82009Y22300
X80891Y22844
X82009Y23391
X80891Y23934
X82009Y24481
X38550Y36750
X38450Y37750
X38550Y38750
X38250Y42750
X39250Y42750
X39250Y43750
X38250Y43750
X38250Y44750
X39250Y44750
X42850Y47900
X41850Y48000
X43850Y48000
X44850Y47900
X46715Y45560
X49850Y40150
X33700Y35750
X33800Y34750
X33700Y33750
X31509Y47869
X30391Y48416
X31509Y48960
X30391Y49507
X31509Y50050
X30391Y50594
X31509Y51141
X30391Y51684
X31509Y52231
X63800Y36750
X63700Y37750
X63800Y38750
X63500Y42750
X64500Y42750
X64500Y43750
X63500Y43750
X63500Y44750
X64500Y44750
X68100Y47900
X67100Y48000
X69100Y48000
X70100Y47900
X71965Y45560
X75100Y40150
X58950Y35750
X59050Y34750
X58950Y33750
X56759Y47869
X55641Y48416
X56759Y48960
X55641Y49507
X56759Y50050
X55641Y50594
X56759Y51141
X55641Y51684
X56759Y52231
X89050Y36750
X88950Y37750
X89050Y38750
X88750Y42750
X89750Y42750
X89750Y43750
X88750Y43750
X88750Y44750
X89750Y44750
X93350Y47900
X92350Y48000
X94350Y48000
X95350Y47900
X97215Y45560
X100350Y40150
X84200Y35750
X84300Y34750
X84200Y33750
X82009Y47869
X80891Y48416
X82009Y48960
X80891Y49507
X82009Y50050
X80891Y50594
X82009Y51141
X80891Y51684
X82009Y52231
T05C0.088300
X21870Y4430
X17130Y4430
X4450Y14000
X4450Y10000
X4450Y7200
X4450Y3200
X24150Y22000
X47120Y4430
X42380Y4430
X29700Y14000
X29700Y10000
X29700Y7200
X29700Y3200
X49400Y22000
X21870Y32180
X17130Y32180
X4450Y41750
X4450Y37750
X4450Y34950
X4450Y30950
X24150Y49750
X72370Y4430
X67630Y4430
X54950Y14000
X54950Y10000
X54950Y7200
X54950Y3200
X74650Y22000
X97620Y4430
X92880Y4430
X80200Y14000
X80200Y10000
X80200Y7200
X80200Y3200
X99900Y22000
X47120Y32180
X42380Y32180
X29700Y41750
X29700Y37750
X29700Y34950
X29700Y30950
X49400Y49750
X72370Y32180
X67630Y32180
X54950Y41750
X54950Y37750
X54950Y34950
X54950Y30950
X74650Y49750
X97620Y32180
X92880Y32180
X80200Y41750
X80200Y37750
X80200Y34950
X80200Y30950
X99900Y49750
T06C0.130000
X24300Y8000
X8700Y3400
X5700Y17379
X9900Y26900
X5700Y27222
X24500Y27000
X49550Y8000
X33950Y3400
X30950Y17379
X35150Y26900
X30950Y27222
X49750Y27000
X24300Y35750
X8700Y31150
X5700Y45129
X9900Y54650
X5700Y54972
X24500Y54750
X74800Y8000
X59200Y3400
X56200Y17379
X60400Y26900
X56200Y27222
X75000Y27000
X100050Y8000
X84450Y3400
X81450Y17379
X85650Y26900
X81450Y27222
X100250Y27000
X49550Y35750
X33950Y31150
X30950Y45129
X35150Y54650
X30950Y54972
X49750Y54750
X74800Y35750
X59200Y31150
X56200Y45129
X60400Y54650
X56200Y54972
X75000Y54750
X100050Y35750
X84450Y31150
X81450Y45129
X85650Y54650
X81450Y54972
X100250Y54750
M30
