G75*
G70*
%OFA0B0*%
%FSLAX25Y25*%
%IPPOS*%
%LPD*%
%AMOC8*
5,1,8,0,0,1.08239X$1,22.5*
%
%ADD101R,0.05520X0.03950*%
%ADD105R,0.03160X0.02770*%
%ADD117R,0.06710X0.02770*%
%ADD121R,0.04740X0.06310*%
%ADD129R,0.02770X0.02180*%
%ADD133R,0.03950X0.02970*%
%ADD138R,0.02170X0.06300*%
%ADD139R,0.03300X0.05800*%
%ADD141C,0.20800*%
%ADD143C,0.08200*%
%ADD148R,0.03560X0.03560*%
%ADD150C,0.07400*%
%ADD158C,0.06350*%
%ADD164R,0.05520X0.03160*%
%ADD17R,0.03950X0.05520*%
%ADD20R,0.05520X0.06310*%
%ADD24C,0.13800*%
%ADD26R,0.02770X0.06710*%
%ADD28R,0.05520X0.01980*%
%ADD39R,0.09500X0.03200*%
%ADD48R,0.04740X0.02370*%
%ADD55R,0.02770X0.03160*%
%ADD56R,0.05800X0.03300*%
%ADD60OC8,0.08200*%
%ADD62C,0.13460*%
%ADD65R,0.07890X0.08670*%
%ADD68R,0.06310X0.07100*%
%ADD73C,0.06740*%
%ADD90R,0.08200X0.08200*%
X0020000Y0020000D02*
G75*
%LPD*%
D148*
X0204360Y0125440D03*
X0204360Y0130560D03*
X0211640Y0128000D03*
D17*
X0213540Y0105000D03*
X0206460Y0105000D03*
X0206460Y0095000D03*
X0213540Y0095000D03*
X0247460Y0111000D03*
X0254540Y0111000D03*
X0248540Y0140000D03*
X0241460Y0140000D03*
X0177540Y0075000D03*
X0170460Y0075000D03*
X0114540Y0049000D03*
X0107460Y0049000D03*
X0107540Y0056000D03*
X0100460Y0056000D03*
X0104460Y0031000D03*
X0111540Y0031000D03*
X0101540Y0097000D03*
X0094460Y0097000D03*
X0092540Y0183000D03*
X0085460Y0183000D03*
X0085460Y0192000D03*
X0092540Y0192000D03*
X0122460Y0257000D03*
X0129540Y0257000D03*
X0129540Y0268000D03*
X0122460Y0268000D03*
X0213460Y0272000D03*
X0220540Y0272000D03*
D133*
X0221280Y0135740D03*
X0221280Y0132000D03*
X0221280Y0128260D03*
X0230720Y0128260D03*
X0230720Y0132000D03*
X0230720Y0135740D03*
D73*
X0226540Y0206620D03*
X0226540Y0214880D03*
X0216690Y0206620D03*
X0226540Y0225120D03*
X0226540Y0233390D03*
X0216690Y0233390D03*
D62*
X0044500Y0032000D03*
X0044500Y0072000D03*
X0044500Y0100000D03*
X0044500Y0140000D03*
X0241500Y0220000D03*
D101*
X0186000Y0228460D03*
X0186000Y0235550D03*
X0162000Y0237550D03*
X0162000Y0230460D03*
X0165000Y0258460D03*
X0165000Y0265550D03*
X0174000Y0265550D03*
X0174000Y0258460D03*
X0114000Y0213550D03*
X0109000Y0221460D03*
X0109000Y0228550D03*
X0109000Y0237460D03*
X0109000Y0244550D03*
X0114000Y0206460D03*
X0085000Y0118550D03*
X0085000Y0111460D03*
X0145000Y0079550D03*
X0145000Y0072460D03*
X0154000Y0072550D03*
X0154000Y0065460D03*
X0195000Y0076460D03*
X0195000Y0083550D03*
X0205000Y0083550D03*
X0205000Y0076460D03*
X0215000Y0076460D03*
X0215000Y0083550D03*
X0220000Y0111460D03*
X0220000Y0118550D03*
X0230000Y0118550D03*
X0230000Y0111460D03*
D164*
X0099020Y0206500D03*
X0099020Y0211500D03*
X0099020Y0216500D03*
X0099020Y0221500D03*
X0099020Y0226500D03*
X0099020Y0231500D03*
X0099020Y0236500D03*
X0099020Y0241500D03*
X0076980Y0241500D03*
X0076980Y0236500D03*
X0076980Y0231500D03*
X0076980Y0226500D03*
X0076980Y0221500D03*
X0076980Y0216500D03*
X0076980Y0211500D03*
X0076980Y0206500D03*
D158*
X0067270Y0120000D02*
X0061730Y0120000D01*
X0061730Y0110000D02*
X0067270Y0110000D01*
X0067270Y0052000D02*
X0061730Y0052000D01*
X0061730Y0042000D02*
X0067270Y0042000D01*
D117*
X0147170Y0094250D03*
X0147170Y0097400D03*
X0147170Y0100550D03*
X0147170Y0103700D03*
X0147170Y0106850D03*
X0147170Y0110000D03*
X0147170Y0113150D03*
X0147170Y0116300D03*
X0147170Y0119450D03*
X0147170Y0122600D03*
X0147170Y0125750D03*
X0192830Y0125750D03*
X0192830Y0122600D03*
X0192830Y0119450D03*
X0192830Y0116300D03*
X0192830Y0113150D03*
X0192830Y0110000D03*
X0192830Y0106850D03*
X0192830Y0103700D03*
X0192830Y0100550D03*
X0192830Y0097400D03*
X0192830Y0094250D03*
D26*
X0185750Y0087170D03*
X0182600Y0087170D03*
X0179450Y0087170D03*
X0176300Y0087170D03*
X0173150Y0087170D03*
X0170000Y0087170D03*
X0166850Y0087170D03*
X0163700Y0087170D03*
X0160550Y0087170D03*
X0157400Y0087170D03*
X0154250Y0087170D03*
X0154250Y0132840D03*
X0157400Y0132840D03*
X0160550Y0132840D03*
X0163700Y0132840D03*
X0166850Y0132840D03*
X0170000Y0132840D03*
X0173150Y0132840D03*
X0176300Y0132840D03*
X0179450Y0132840D03*
X0182600Y0132840D03*
X0185750Y0132840D03*
D138*
X0156630Y0054400D03*
X0154070Y0054400D03*
X0151520Y0054400D03*
X0148960Y0054400D03*
X0146400Y0054400D03*
X0143840Y0054400D03*
X0141280Y0054400D03*
X0138720Y0054400D03*
X0136160Y0054400D03*
X0133600Y0054400D03*
X0131040Y0054400D03*
X0128480Y0054400D03*
X0125930Y0054400D03*
X0123370Y0054400D03*
X0123370Y0025610D03*
X0125930Y0025610D03*
X0128480Y0025610D03*
X0131040Y0025610D03*
X0133600Y0025610D03*
X0136160Y0025610D03*
X0138720Y0025610D03*
X0141280Y0025610D03*
X0143840Y0025610D03*
X0146400Y0025610D03*
X0148960Y0025610D03*
X0151520Y0025610D03*
X0154070Y0025610D03*
X0156630Y0025610D03*
D150*
X0190080Y0055000D03*
X0190080Y0062800D03*
X0199920Y0062800D03*
X0199920Y0055000D03*
D24*
X0218700Y0044300D03*
X0243000Y0080000D03*
X0171300Y0044300D03*
X0087000Y0034000D03*
X0099000Y0269000D03*
X0245000Y0270000D03*
D68*
X0113510Y0040000D03*
X0102490Y0040000D03*
D90*
X0130000Y0170000D03*
X0166000Y0202500D03*
X0062590Y0201190D03*
D60*
X0130000Y0160000D03*
X0140000Y0160000D03*
X0140000Y0170000D03*
X0140000Y0150000D03*
X0130000Y0150000D03*
D65*
X0120000Y0086540D03*
X0120000Y0070000D03*
X0100000Y0070000D03*
X0100000Y0086540D03*
D143*
X0084500Y0080000D03*
X0085500Y0070000D03*
X0084500Y0060000D03*
X0133000Y0090000D03*
X0132000Y0100000D03*
X0133000Y0110000D03*
X0214650Y0178100D03*
X0196000Y0201500D03*
X0186000Y0202500D03*
X0176000Y0201500D03*
X0246000Y0124000D03*
X0062590Y0212100D03*
X0051410Y0206660D03*
X0051410Y0217570D03*
X0062590Y0223000D03*
X0051410Y0228440D03*
X0062590Y0233910D03*
X0051410Y0239340D03*
X0062590Y0244810D03*
D48*
X0101090Y0118850D03*
X0101090Y0116290D03*
X0101090Y0113730D03*
X0101090Y0111170D03*
X0118910Y0111170D03*
X0118910Y0113730D03*
X0118910Y0116290D03*
X0118910Y0118850D03*
D28*
X0232680Y0103850D03*
X0232680Y0101290D03*
X0232680Y0098730D03*
X0232680Y0096170D03*
X0249310Y0096170D03*
X0249310Y0098730D03*
X0249310Y0101290D03*
X0249310Y0103850D03*
D39*
X0225300Y0152500D03*
X0225300Y0157500D03*
X0225300Y0162500D03*
X0225300Y0167500D03*
X0204700Y0167500D03*
X0204700Y0162500D03*
X0204700Y0157500D03*
X0204700Y0152500D03*
D139*
X0196770Y0140000D03*
X0193230Y0140000D03*
X0243230Y0155000D03*
X0246770Y0155000D03*
D56*
X0245000Y0168230D03*
X0245000Y0171770D03*
D121*
X0186000Y0241670D03*
X0182260Y0250330D03*
X0189740Y0250330D03*
X0152740Y0239330D03*
X0145260Y0239330D03*
X0149000Y0230670D03*
D20*
X0239090Y0060000D03*
X0250910Y0060000D03*
X0250910Y0045000D03*
X0239090Y0045000D03*
X0239090Y0030000D03*
X0250910Y0030000D03*
D141*
X0057000Y0173790D03*
X0057000Y0272220D03*
D129*
X0141960Y0263840D03*
X0141960Y0261280D03*
X0141960Y0258720D03*
X0141960Y0256160D03*
X0150040Y0256160D03*
X0150040Y0258720D03*
X0150040Y0261280D03*
X0150040Y0263840D03*
D55*
X0196290Y0266100D03*
X0196290Y0272000D03*
X0196290Y0277910D03*
X0207710Y0277910D03*
X0207710Y0272000D03*
X0207710Y0266100D03*
D105*
X0202000Y0266100D03*
X0272500Y0020000D02*
G75*
%LPD*%
D148*
X0456860Y0125440D03*
X0456860Y0130560D03*
X0464140Y0128000D03*
D17*
X0466040Y0105000D03*
X0458960Y0105000D03*
X0458960Y0095000D03*
X0466040Y0095000D03*
X0499960Y0111000D03*
X0507040Y0111000D03*
X0501040Y0140000D03*
X0493960Y0140000D03*
X0430040Y0075000D03*
X0422960Y0075000D03*
X0367040Y0049000D03*
X0359960Y0049000D03*
X0360040Y0056000D03*
X0352960Y0056000D03*
X0356960Y0031000D03*
X0364040Y0031000D03*
X0354040Y0097000D03*
X0346960Y0097000D03*
X0345040Y0183000D03*
X0337960Y0183000D03*
X0337960Y0192000D03*
X0345040Y0192000D03*
X0374960Y0257000D03*
X0382040Y0257000D03*
X0382040Y0268000D03*
X0374960Y0268000D03*
X0465960Y0272000D03*
X0473040Y0272000D03*
D133*
X0473780Y0135740D03*
X0473780Y0132000D03*
X0473780Y0128260D03*
X0483220Y0128260D03*
X0483220Y0132000D03*
X0483220Y0135740D03*
D73*
X0479040Y0206620D03*
X0479040Y0214880D03*
X0469190Y0206620D03*
X0479040Y0225120D03*
X0479040Y0233390D03*
X0469190Y0233390D03*
D62*
X0297000Y0032000D03*
X0297000Y0072000D03*
X0297000Y0100000D03*
X0297000Y0140000D03*
X0494000Y0220000D03*
D101*
X0438500Y0228460D03*
X0438500Y0235550D03*
X0414500Y0237550D03*
X0414500Y0230460D03*
X0417500Y0258460D03*
X0417500Y0265550D03*
X0426500Y0265550D03*
X0426500Y0258460D03*
X0366500Y0213550D03*
X0361500Y0221460D03*
X0361500Y0228550D03*
X0361500Y0237460D03*
X0361500Y0244550D03*
X0366500Y0206460D03*
X0337500Y0118550D03*
X0337500Y0111460D03*
X0397500Y0079550D03*
X0397500Y0072460D03*
X0406500Y0072550D03*
X0406500Y0065460D03*
X0447500Y0076460D03*
X0447500Y0083550D03*
X0457500Y0083550D03*
X0457500Y0076460D03*
X0467500Y0076460D03*
X0467500Y0083550D03*
X0472500Y0111460D03*
X0472500Y0118550D03*
X0482500Y0118550D03*
X0482500Y0111460D03*
D164*
X0351520Y0206500D03*
X0351520Y0211500D03*
X0351520Y0216500D03*
X0351520Y0221500D03*
X0351520Y0226500D03*
X0351520Y0231500D03*
X0351520Y0236500D03*
X0351520Y0241500D03*
X0329480Y0241500D03*
X0329480Y0236500D03*
X0329480Y0231500D03*
X0329480Y0226500D03*
X0329480Y0221500D03*
X0329480Y0216500D03*
X0329480Y0211500D03*
X0329480Y0206500D03*
D158*
X0319770Y0120000D02*
X0314230Y0120000D01*
X0314230Y0110000D02*
X0319770Y0110000D01*
X0319770Y0052000D02*
X0314230Y0052000D01*
X0314230Y0042000D02*
X0319770Y0042000D01*
D117*
X0399670Y0094250D03*
X0399670Y0097400D03*
X0399670Y0100550D03*
X0399670Y0103700D03*
X0399670Y0106850D03*
X0399670Y0110000D03*
X0399670Y0113150D03*
X0399670Y0116300D03*
X0399670Y0119450D03*
X0399670Y0122600D03*
X0399670Y0125750D03*
X0445330Y0125750D03*
X0445330Y0122600D03*
X0445330Y0119450D03*
X0445330Y0116300D03*
X0445330Y0113150D03*
X0445330Y0110000D03*
X0445330Y0106850D03*
X0445330Y0103700D03*
X0445330Y0100550D03*
X0445330Y0097400D03*
X0445330Y0094250D03*
D26*
X0438250Y0087170D03*
X0435100Y0087170D03*
X0431950Y0087170D03*
X0428800Y0087170D03*
X0425650Y0087170D03*
X0422500Y0087170D03*
X0419350Y0087170D03*
X0416200Y0087170D03*
X0413050Y0087170D03*
X0409900Y0087170D03*
X0406750Y0087170D03*
X0406750Y0132840D03*
X0409900Y0132840D03*
X0413050Y0132840D03*
X0416200Y0132840D03*
X0419350Y0132840D03*
X0422500Y0132840D03*
X0425650Y0132840D03*
X0428800Y0132840D03*
X0431950Y0132840D03*
X0435100Y0132840D03*
X0438250Y0132840D03*
D138*
X0409130Y0054400D03*
X0406570Y0054400D03*
X0404020Y0054400D03*
X0401460Y0054400D03*
X0398900Y0054400D03*
X0396340Y0054400D03*
X0393780Y0054400D03*
X0391220Y0054400D03*
X0388660Y0054400D03*
X0386100Y0054400D03*
X0383540Y0054400D03*
X0380980Y0054400D03*
X0378430Y0054400D03*
X0375870Y0054400D03*
X0375870Y0025610D03*
X0378430Y0025610D03*
X0380980Y0025610D03*
X0383540Y0025610D03*
X0386100Y0025610D03*
X0388660Y0025610D03*
X0391220Y0025610D03*
X0393780Y0025610D03*
X0396340Y0025610D03*
X0398900Y0025610D03*
X0401460Y0025610D03*
X0404020Y0025610D03*
X0406570Y0025610D03*
X0409130Y0025610D03*
D150*
X0442580Y0055000D03*
X0442580Y0062800D03*
X0452420Y0062800D03*
X0452420Y0055000D03*
D24*
X0471200Y0044300D03*
X0495500Y0080000D03*
X0423800Y0044300D03*
X0339500Y0034000D03*
X0351500Y0269000D03*
X0497500Y0270000D03*
D68*
X0366010Y0040000D03*
X0354990Y0040000D03*
D90*
X0382500Y0170000D03*
X0418500Y0202500D03*
X0315090Y0201190D03*
D60*
X0382500Y0160000D03*
X0392500Y0160000D03*
X0392500Y0170000D03*
X0392500Y0150000D03*
X0382500Y0150000D03*
D65*
X0372500Y0086540D03*
X0372500Y0070000D03*
X0352500Y0070000D03*
X0352500Y0086540D03*
D143*
X0337000Y0080000D03*
X0338000Y0070000D03*
X0337000Y0060000D03*
X0385500Y0090000D03*
X0384500Y0100000D03*
X0385500Y0110000D03*
X0467150Y0178100D03*
X0448500Y0201500D03*
X0438500Y0202500D03*
X0428500Y0201500D03*
X0498500Y0124000D03*
X0315090Y0212100D03*
X0303910Y0206660D03*
X0303910Y0217570D03*
X0315090Y0223000D03*
X0303910Y0228440D03*
X0315090Y0233910D03*
X0303910Y0239340D03*
X0315090Y0244810D03*
D48*
X0353590Y0118850D03*
X0353590Y0116290D03*
X0353590Y0113730D03*
X0353590Y0111170D03*
X0371410Y0111170D03*
X0371410Y0113730D03*
X0371410Y0116290D03*
X0371410Y0118850D03*
D28*
X0485180Y0103850D03*
X0485180Y0101290D03*
X0485180Y0098730D03*
X0485180Y0096170D03*
X0501810Y0096170D03*
X0501810Y0098730D03*
X0501810Y0101290D03*
X0501810Y0103850D03*
D39*
X0477800Y0152500D03*
X0477800Y0157500D03*
X0477800Y0162500D03*
X0477800Y0167500D03*
X0457200Y0167500D03*
X0457200Y0162500D03*
X0457200Y0157500D03*
X0457200Y0152500D03*
D139*
X0449270Y0140000D03*
X0445730Y0140000D03*
X0495730Y0155000D03*
X0499270Y0155000D03*
D56*
X0497500Y0168230D03*
X0497500Y0171770D03*
D121*
X0438500Y0241670D03*
X0434760Y0250330D03*
X0442240Y0250330D03*
X0405240Y0239330D03*
X0397760Y0239330D03*
X0401500Y0230670D03*
D20*
X0491590Y0060000D03*
X0503410Y0060000D03*
X0503410Y0045000D03*
X0491590Y0045000D03*
X0491590Y0030000D03*
X0503410Y0030000D03*
D141*
X0309500Y0173790D03*
X0309500Y0272220D03*
D129*
X0394460Y0263840D03*
X0394460Y0261280D03*
X0394460Y0258720D03*
X0394460Y0256160D03*
X0402540Y0256160D03*
X0402540Y0258720D03*
X0402540Y0261280D03*
X0402540Y0263840D03*
D55*
X0448790Y0266100D03*
X0448790Y0272000D03*
X0448790Y0277910D03*
X0460210Y0277910D03*
X0460210Y0272000D03*
X0460210Y0266100D03*
D105*
X0454500Y0266100D03*
X0020000Y0297500D02*
G75*
%LPD*%
D148*
X0204360Y0402940D03*
X0204360Y0408060D03*
X0211640Y0405500D03*
D17*
X0213540Y0382500D03*
X0206460Y0382500D03*
X0206460Y0372500D03*
X0213540Y0372500D03*
X0247460Y0388500D03*
X0254540Y0388500D03*
X0248540Y0417500D03*
X0241460Y0417500D03*
X0177540Y0352500D03*
X0170460Y0352500D03*
X0114540Y0326500D03*
X0107460Y0326500D03*
X0107540Y0333500D03*
X0100460Y0333500D03*
X0104460Y0308500D03*
X0111540Y0308500D03*
X0101540Y0374500D03*
X0094460Y0374500D03*
X0092540Y0460500D03*
X0085460Y0460500D03*
X0085460Y0469500D03*
X0092540Y0469500D03*
X0122460Y0534500D03*
X0129540Y0534500D03*
X0129540Y0545500D03*
X0122460Y0545500D03*
X0213460Y0549500D03*
X0220540Y0549500D03*
D133*
X0221280Y0413240D03*
X0221280Y0409500D03*
X0221280Y0405760D03*
X0230720Y0405760D03*
X0230720Y0409500D03*
X0230720Y0413240D03*
D73*
X0226540Y0484120D03*
X0226540Y0492380D03*
X0216690Y0484120D03*
X0226540Y0502620D03*
X0226540Y0510890D03*
X0216690Y0510890D03*
D62*
X0044500Y0309500D03*
X0044500Y0349500D03*
X0044500Y0377500D03*
X0044500Y0417500D03*
X0241500Y0497500D03*
D101*
X0186000Y0505960D03*
X0186000Y0513050D03*
X0162000Y0515050D03*
X0162000Y0507960D03*
X0165000Y0535960D03*
X0165000Y0543050D03*
X0174000Y0543050D03*
X0174000Y0535960D03*
X0114000Y0491050D03*
X0109000Y0498960D03*
X0109000Y0506050D03*
X0109000Y0514960D03*
X0109000Y0522050D03*
X0114000Y0483960D03*
X0085000Y0396050D03*
X0085000Y0388960D03*
X0145000Y0357050D03*
X0145000Y0349960D03*
X0154000Y0350050D03*
X0154000Y0342960D03*
X0195000Y0353960D03*
X0195000Y0361050D03*
X0205000Y0361050D03*
X0205000Y0353960D03*
X0215000Y0353960D03*
X0215000Y0361050D03*
X0220000Y0388960D03*
X0220000Y0396050D03*
X0230000Y0396050D03*
X0230000Y0388960D03*
D164*
X0099020Y0484000D03*
X0099020Y0489000D03*
X0099020Y0494000D03*
X0099020Y0499000D03*
X0099020Y0504000D03*
X0099020Y0509000D03*
X0099020Y0514000D03*
X0099020Y0519000D03*
X0076980Y0519000D03*
X0076980Y0514000D03*
X0076980Y0509000D03*
X0076980Y0504000D03*
X0076980Y0499000D03*
X0076980Y0494000D03*
X0076980Y0489000D03*
X0076980Y0484000D03*
D158*
X0067270Y0397500D02*
X0061730Y0397500D01*
X0061730Y0387500D02*
X0067270Y0387500D01*
X0067270Y0329500D02*
X0061730Y0329500D01*
X0061730Y0319500D02*
X0067270Y0319500D01*
D117*
X0147170Y0371750D03*
X0147170Y0374900D03*
X0147170Y0378050D03*
X0147170Y0381200D03*
X0147170Y0384350D03*
X0147170Y0387500D03*
X0147170Y0390650D03*
X0147170Y0393800D03*
X0147170Y0396950D03*
X0147170Y0400100D03*
X0147170Y0403250D03*
X0192830Y0403250D03*
X0192830Y0400100D03*
X0192830Y0396950D03*
X0192830Y0393800D03*
X0192830Y0390650D03*
X0192830Y0387500D03*
X0192830Y0384350D03*
X0192830Y0381200D03*
X0192830Y0378050D03*
X0192830Y0374900D03*
X0192830Y0371750D03*
D26*
X0185750Y0364670D03*
X0182600Y0364670D03*
X0179450Y0364670D03*
X0176300Y0364670D03*
X0173150Y0364670D03*
X0170000Y0364670D03*
X0166850Y0364670D03*
X0163700Y0364670D03*
X0160550Y0364670D03*
X0157400Y0364670D03*
X0154250Y0364670D03*
X0154250Y0410340D03*
X0157400Y0410340D03*
X0160550Y0410340D03*
X0163700Y0410340D03*
X0166850Y0410340D03*
X0170000Y0410340D03*
X0173150Y0410340D03*
X0176300Y0410340D03*
X0179450Y0410340D03*
X0182600Y0410340D03*
X0185750Y0410340D03*
D138*
X0156630Y0331900D03*
X0154070Y0331900D03*
X0151520Y0331900D03*
X0148960Y0331900D03*
X0146400Y0331900D03*
X0143840Y0331900D03*
X0141280Y0331900D03*
X0138720Y0331900D03*
X0136160Y0331900D03*
X0133600Y0331900D03*
X0131040Y0331900D03*
X0128480Y0331900D03*
X0125930Y0331900D03*
X0123370Y0331900D03*
X0123370Y0303110D03*
X0125930Y0303110D03*
X0128480Y0303110D03*
X0131040Y0303110D03*
X0133600Y0303110D03*
X0136160Y0303110D03*
X0138720Y0303110D03*
X0141280Y0303110D03*
X0143840Y0303110D03*
X0146400Y0303110D03*
X0148960Y0303110D03*
X0151520Y0303110D03*
X0154070Y0303110D03*
X0156630Y0303110D03*
D150*
X0190080Y0332500D03*
X0190080Y0340300D03*
X0199920Y0340300D03*
X0199920Y0332500D03*
D24*
X0218700Y0321800D03*
X0243000Y0357500D03*
X0171300Y0321800D03*
X0087000Y0311500D03*
X0099000Y0546500D03*
X0245000Y0547500D03*
D68*
X0113510Y0317500D03*
X0102490Y0317500D03*
D90*
X0130000Y0447500D03*
X0166000Y0480000D03*
X0062590Y0478690D03*
D60*
X0130000Y0437500D03*
X0140000Y0437500D03*
X0140000Y0447500D03*
X0140000Y0427500D03*
X0130000Y0427500D03*
D65*
X0120000Y0364040D03*
X0120000Y0347500D03*
X0100000Y0347500D03*
X0100000Y0364040D03*
D143*
X0084500Y0357500D03*
X0085500Y0347500D03*
X0084500Y0337500D03*
X0133000Y0367500D03*
X0132000Y0377500D03*
X0133000Y0387500D03*
X0214650Y0455600D03*
X0196000Y0479000D03*
X0186000Y0480000D03*
X0176000Y0479000D03*
X0246000Y0401500D03*
X0062590Y0489600D03*
X0051410Y0484160D03*
X0051410Y0495070D03*
X0062590Y0500500D03*
X0051410Y0505940D03*
X0062590Y0511410D03*
X0051410Y0516840D03*
X0062590Y0522310D03*
D48*
X0101090Y0396350D03*
X0101090Y0393790D03*
X0101090Y0391230D03*
X0101090Y0388670D03*
X0118910Y0388670D03*
X0118910Y0391230D03*
X0118910Y0393790D03*
X0118910Y0396350D03*
D28*
X0232680Y0381350D03*
X0232680Y0378790D03*
X0232680Y0376230D03*
X0232680Y0373670D03*
X0249310Y0373670D03*
X0249310Y0376230D03*
X0249310Y0378790D03*
X0249310Y0381350D03*
D39*
X0225300Y0430000D03*
X0225300Y0435000D03*
X0225300Y0440000D03*
X0225300Y0445000D03*
X0204700Y0445000D03*
X0204700Y0440000D03*
X0204700Y0435000D03*
X0204700Y0430000D03*
D139*
X0196770Y0417500D03*
X0193230Y0417500D03*
X0243230Y0432500D03*
X0246770Y0432500D03*
D56*
X0245000Y0445730D03*
X0245000Y0449270D03*
D121*
X0186000Y0519170D03*
X0182260Y0527830D03*
X0189740Y0527830D03*
X0152740Y0516830D03*
X0145260Y0516830D03*
X0149000Y0508170D03*
D20*
X0239090Y0337500D03*
X0250910Y0337500D03*
X0250910Y0322500D03*
X0239090Y0322500D03*
X0239090Y0307500D03*
X0250910Y0307500D03*
D141*
X0057000Y0451290D03*
X0057000Y0549720D03*
D129*
X0141960Y0541340D03*
X0141960Y0538780D03*
X0141960Y0536220D03*
X0141960Y0533660D03*
X0150040Y0533660D03*
X0150040Y0536220D03*
X0150040Y0538780D03*
X0150040Y0541340D03*
D55*
X0196290Y0543600D03*
X0196290Y0549500D03*
X0196290Y0555410D03*
X0207710Y0555410D03*
X0207710Y0549500D03*
X0207710Y0543600D03*
D105*
X0202000Y0543600D03*
X0525000Y0020000D02*
G75*
%LPD*%
D148*
X0709360Y0125440D03*
X0709360Y0130560D03*
X0716640Y0128000D03*
D17*
X0718540Y0105000D03*
X0711460Y0105000D03*
X0711460Y0095000D03*
X0718540Y0095000D03*
X0752460Y0111000D03*
X0759540Y0111000D03*
X0753540Y0140000D03*
X0746460Y0140000D03*
X0682540Y0075000D03*
X0675460Y0075000D03*
X0619540Y0049000D03*
X0612460Y0049000D03*
X0612540Y0056000D03*
X0605460Y0056000D03*
X0609460Y0031000D03*
X0616540Y0031000D03*
X0606540Y0097000D03*
X0599460Y0097000D03*
X0597540Y0183000D03*
X0590460Y0183000D03*
X0590460Y0192000D03*
X0597540Y0192000D03*
X0627460Y0257000D03*
X0634540Y0257000D03*
X0634540Y0268000D03*
X0627460Y0268000D03*
X0718460Y0272000D03*
X0725540Y0272000D03*
D133*
X0726280Y0135740D03*
X0726280Y0132000D03*
X0726280Y0128260D03*
X0735720Y0128260D03*
X0735720Y0132000D03*
X0735720Y0135740D03*
D73*
X0731540Y0206620D03*
X0731540Y0214880D03*
X0721690Y0206620D03*
X0731540Y0225120D03*
X0731540Y0233390D03*
X0721690Y0233390D03*
D62*
X0549500Y0032000D03*
X0549500Y0072000D03*
X0549500Y0100000D03*
X0549500Y0140000D03*
X0746500Y0220000D03*
D101*
X0691000Y0228460D03*
X0691000Y0235550D03*
X0667000Y0237550D03*
X0667000Y0230460D03*
X0670000Y0258460D03*
X0670000Y0265550D03*
X0679000Y0265550D03*
X0679000Y0258460D03*
X0619000Y0213550D03*
X0614000Y0221460D03*
X0614000Y0228550D03*
X0614000Y0237460D03*
X0614000Y0244550D03*
X0619000Y0206460D03*
X0590000Y0118550D03*
X0590000Y0111460D03*
X0650000Y0079550D03*
X0650000Y0072460D03*
X0659000Y0072550D03*
X0659000Y0065460D03*
X0700000Y0076460D03*
X0700000Y0083550D03*
X0710000Y0083550D03*
X0710000Y0076460D03*
X0720000Y0076460D03*
X0720000Y0083550D03*
X0725000Y0111460D03*
X0725000Y0118550D03*
X0735000Y0118550D03*
X0735000Y0111460D03*
D164*
X0604020Y0206500D03*
X0604020Y0211500D03*
X0604020Y0216500D03*
X0604020Y0221500D03*
X0604020Y0226500D03*
X0604020Y0231500D03*
X0604020Y0236500D03*
X0604020Y0241500D03*
X0581980Y0241500D03*
X0581980Y0236500D03*
X0581980Y0231500D03*
X0581980Y0226500D03*
X0581980Y0221500D03*
X0581980Y0216500D03*
X0581980Y0211500D03*
X0581980Y0206500D03*
D158*
X0572270Y0120000D02*
X0566730Y0120000D01*
X0566730Y0110000D02*
X0572270Y0110000D01*
X0572270Y0052000D02*
X0566730Y0052000D01*
X0566730Y0042000D02*
X0572270Y0042000D01*
D117*
X0652170Y0094250D03*
X0652170Y0097400D03*
X0652170Y0100550D03*
X0652170Y0103700D03*
X0652170Y0106850D03*
X0652170Y0110000D03*
X0652170Y0113150D03*
X0652170Y0116300D03*
X0652170Y0119450D03*
X0652170Y0122600D03*
X0652170Y0125750D03*
X0697830Y0125750D03*
X0697830Y0122600D03*
X0697830Y0119450D03*
X0697830Y0116300D03*
X0697830Y0113150D03*
X0697830Y0110000D03*
X0697830Y0106850D03*
X0697830Y0103700D03*
X0697830Y0100550D03*
X0697830Y0097400D03*
X0697830Y0094250D03*
D26*
X0690750Y0087170D03*
X0687600Y0087170D03*
X0684450Y0087170D03*
X0681300Y0087170D03*
X0678150Y0087170D03*
X0675000Y0087170D03*
X0671850Y0087170D03*
X0668700Y0087170D03*
X0665550Y0087170D03*
X0662400Y0087170D03*
X0659250Y0087170D03*
X0659250Y0132840D03*
X0662400Y0132840D03*
X0665550Y0132840D03*
X0668700Y0132840D03*
X0671850Y0132840D03*
X0675000Y0132840D03*
X0678150Y0132840D03*
X0681300Y0132840D03*
X0684450Y0132840D03*
X0687600Y0132840D03*
X0690750Y0132840D03*
D138*
X0661630Y0054400D03*
X0659070Y0054400D03*
X0656520Y0054400D03*
X0653960Y0054400D03*
X0651400Y0054400D03*
X0648840Y0054400D03*
X0646280Y0054400D03*
X0643720Y0054400D03*
X0641160Y0054400D03*
X0638600Y0054400D03*
X0636040Y0054400D03*
X0633480Y0054400D03*
X0630930Y0054400D03*
X0628370Y0054400D03*
X0628370Y0025610D03*
X0630930Y0025610D03*
X0633480Y0025610D03*
X0636040Y0025610D03*
X0638600Y0025610D03*
X0641160Y0025610D03*
X0643720Y0025610D03*
X0646280Y0025610D03*
X0648840Y0025610D03*
X0651400Y0025610D03*
X0653960Y0025610D03*
X0656520Y0025610D03*
X0659070Y0025610D03*
X0661630Y0025610D03*
D150*
X0695080Y0055000D03*
X0695080Y0062800D03*
X0704920Y0062800D03*
X0704920Y0055000D03*
D24*
X0723700Y0044300D03*
X0748000Y0080000D03*
X0676300Y0044300D03*
X0592000Y0034000D03*
X0604000Y0269000D03*
X0750000Y0270000D03*
D68*
X0618510Y0040000D03*
X0607490Y0040000D03*
D90*
X0635000Y0170000D03*
X0671000Y0202500D03*
X0567590Y0201190D03*
D60*
X0635000Y0160000D03*
X0645000Y0160000D03*
X0645000Y0170000D03*
X0645000Y0150000D03*
X0635000Y0150000D03*
D65*
X0625000Y0086540D03*
X0625000Y0070000D03*
X0605000Y0070000D03*
X0605000Y0086540D03*
D143*
X0589500Y0080000D03*
X0590500Y0070000D03*
X0589500Y0060000D03*
X0638000Y0090000D03*
X0637000Y0100000D03*
X0638000Y0110000D03*
X0719650Y0178100D03*
X0701000Y0201500D03*
X0691000Y0202500D03*
X0681000Y0201500D03*
X0751000Y0124000D03*
X0567590Y0212100D03*
X0556410Y0206660D03*
X0556410Y0217570D03*
X0567590Y0223000D03*
X0556410Y0228440D03*
X0567590Y0233910D03*
X0556410Y0239340D03*
X0567590Y0244810D03*
D48*
X0606090Y0118850D03*
X0606090Y0116290D03*
X0606090Y0113730D03*
X0606090Y0111170D03*
X0623910Y0111170D03*
X0623910Y0113730D03*
X0623910Y0116290D03*
X0623910Y0118850D03*
D28*
X0737680Y0103850D03*
X0737680Y0101290D03*
X0737680Y0098730D03*
X0737680Y0096170D03*
X0754310Y0096170D03*
X0754310Y0098730D03*
X0754310Y0101290D03*
X0754310Y0103850D03*
D39*
X0730300Y0152500D03*
X0730300Y0157500D03*
X0730300Y0162500D03*
X0730300Y0167500D03*
X0709700Y0167500D03*
X0709700Y0162500D03*
X0709700Y0157500D03*
X0709700Y0152500D03*
D139*
X0701770Y0140000D03*
X0698230Y0140000D03*
X0748230Y0155000D03*
X0751770Y0155000D03*
D56*
X0750000Y0168230D03*
X0750000Y0171770D03*
D121*
X0691000Y0241670D03*
X0687260Y0250330D03*
X0694740Y0250330D03*
X0657740Y0239330D03*
X0650260Y0239330D03*
X0654000Y0230670D03*
D20*
X0744090Y0060000D03*
X0755910Y0060000D03*
X0755910Y0045000D03*
X0744090Y0045000D03*
X0744090Y0030000D03*
X0755910Y0030000D03*
D141*
X0562000Y0173790D03*
X0562000Y0272220D03*
D129*
X0646960Y0263840D03*
X0646960Y0261280D03*
X0646960Y0258720D03*
X0646960Y0256160D03*
X0655040Y0256160D03*
X0655040Y0258720D03*
X0655040Y0261280D03*
X0655040Y0263840D03*
D55*
X0701290Y0266100D03*
X0701290Y0272000D03*
X0701290Y0277910D03*
X0712710Y0277910D03*
X0712710Y0272000D03*
X0712710Y0266100D03*
D105*
X0707000Y0266100D03*
X0777500Y0020000D02*
G75*
%LPD*%
D148*
X0961860Y0125440D03*
X0961860Y0130560D03*
X0969140Y0128000D03*
D17*
X0971040Y0105000D03*
X0963960Y0105000D03*
X0963960Y0095000D03*
X0971040Y0095000D03*
X1004960Y0111000D03*
X1012040Y0111000D03*
X1006040Y0140000D03*
X0998960Y0140000D03*
X0935040Y0075000D03*
X0927960Y0075000D03*
X0872040Y0049000D03*
X0864960Y0049000D03*
X0865040Y0056000D03*
X0857960Y0056000D03*
X0861960Y0031000D03*
X0869040Y0031000D03*
X0859040Y0097000D03*
X0851960Y0097000D03*
X0850040Y0183000D03*
X0842960Y0183000D03*
X0842960Y0192000D03*
X0850040Y0192000D03*
X0879960Y0257000D03*
X0887040Y0257000D03*
X0887040Y0268000D03*
X0879960Y0268000D03*
X0970960Y0272000D03*
X0978040Y0272000D03*
D133*
X0978780Y0135740D03*
X0978780Y0132000D03*
X0978780Y0128260D03*
X0988220Y0128260D03*
X0988220Y0132000D03*
X0988220Y0135740D03*
D73*
X0984040Y0206620D03*
X0984040Y0214880D03*
X0974190Y0206620D03*
X0984040Y0225120D03*
X0984040Y0233390D03*
X0974190Y0233390D03*
D62*
X0802000Y0032000D03*
X0802000Y0072000D03*
X0802000Y0100000D03*
X0802000Y0140000D03*
X0999000Y0220000D03*
D101*
X0943500Y0228460D03*
X0943500Y0235550D03*
X0919500Y0237550D03*
X0919500Y0230460D03*
X0922500Y0258460D03*
X0922500Y0265550D03*
X0931500Y0265550D03*
X0931500Y0258460D03*
X0871500Y0213550D03*
X0866500Y0221460D03*
X0866500Y0228550D03*
X0866500Y0237460D03*
X0866500Y0244550D03*
X0871500Y0206460D03*
X0842500Y0118550D03*
X0842500Y0111460D03*
X0902500Y0079550D03*
X0902500Y0072460D03*
X0911500Y0072550D03*
X0911500Y0065460D03*
X0952500Y0076460D03*
X0952500Y0083550D03*
X0962500Y0083550D03*
X0962500Y0076460D03*
X0972500Y0076460D03*
X0972500Y0083550D03*
X0977500Y0111460D03*
X0977500Y0118550D03*
X0987500Y0118550D03*
X0987500Y0111460D03*
D164*
X0856520Y0206500D03*
X0856520Y0211500D03*
X0856520Y0216500D03*
X0856520Y0221500D03*
X0856520Y0226500D03*
X0856520Y0231500D03*
X0856520Y0236500D03*
X0856520Y0241500D03*
X0834480Y0241500D03*
X0834480Y0236500D03*
X0834480Y0231500D03*
X0834480Y0226500D03*
X0834480Y0221500D03*
X0834480Y0216500D03*
X0834480Y0211500D03*
X0834480Y0206500D03*
D158*
X0824770Y0120000D02*
X0819230Y0120000D01*
X0819230Y0110000D02*
X0824770Y0110000D01*
X0824770Y0052000D02*
X0819230Y0052000D01*
X0819230Y0042000D02*
X0824770Y0042000D01*
D117*
X0904670Y0094250D03*
X0904670Y0097400D03*
X0904670Y0100550D03*
X0904670Y0103700D03*
X0904670Y0106850D03*
X0904670Y0110000D03*
X0904670Y0113150D03*
X0904670Y0116300D03*
X0904670Y0119450D03*
X0904670Y0122600D03*
X0904670Y0125750D03*
X0950330Y0125750D03*
X0950330Y0122600D03*
X0950330Y0119450D03*
X0950330Y0116300D03*
X0950330Y0113150D03*
X0950330Y0110000D03*
X0950330Y0106850D03*
X0950330Y0103700D03*
X0950330Y0100550D03*
X0950330Y0097400D03*
X0950330Y0094250D03*
D26*
X0943250Y0087170D03*
X0940100Y0087170D03*
X0936950Y0087170D03*
X0933800Y0087170D03*
X0930650Y0087170D03*
X0927500Y0087170D03*
X0924350Y0087170D03*
X0921200Y0087170D03*
X0918050Y0087170D03*
X0914900Y0087170D03*
X0911750Y0087170D03*
X0911750Y0132840D03*
X0914900Y0132840D03*
X0918050Y0132840D03*
X0921200Y0132840D03*
X0924350Y0132840D03*
X0927500Y0132840D03*
X0930650Y0132840D03*
X0933800Y0132840D03*
X0936950Y0132840D03*
X0940100Y0132840D03*
X0943250Y0132840D03*
D138*
X0914130Y0054400D03*
X0911570Y0054400D03*
X0909020Y0054400D03*
X0906460Y0054400D03*
X0903900Y0054400D03*
X0901340Y0054400D03*
X0898780Y0054400D03*
X0896220Y0054400D03*
X0893660Y0054400D03*
X0891100Y0054400D03*
X0888540Y0054400D03*
X0885980Y0054400D03*
X0883430Y0054400D03*
X0880870Y0054400D03*
X0880870Y0025610D03*
X0883430Y0025610D03*
X0885980Y0025610D03*
X0888540Y0025610D03*
X0891100Y0025610D03*
X0893660Y0025610D03*
X0896220Y0025610D03*
X0898780Y0025610D03*
X0901340Y0025610D03*
X0903900Y0025610D03*
X0906460Y0025610D03*
X0909020Y0025610D03*
X0911570Y0025610D03*
X0914130Y0025610D03*
D150*
X0947580Y0055000D03*
X0947580Y0062800D03*
X0957420Y0062800D03*
X0957420Y0055000D03*
D24*
X0976200Y0044300D03*
X1000500Y0080000D03*
X0928800Y0044300D03*
X0844500Y0034000D03*
X0856500Y0269000D03*
X1002500Y0270000D03*
D68*
X0871010Y0040000D03*
X0859990Y0040000D03*
D90*
X0887500Y0170000D03*
X0923500Y0202500D03*
X0820090Y0201190D03*
D60*
X0887500Y0160000D03*
X0897500Y0160000D03*
X0897500Y0170000D03*
X0897500Y0150000D03*
X0887500Y0150000D03*
D65*
X0877500Y0086540D03*
X0877500Y0070000D03*
X0857500Y0070000D03*
X0857500Y0086540D03*
D143*
X0842000Y0080000D03*
X0843000Y0070000D03*
X0842000Y0060000D03*
X0890500Y0090000D03*
X0889500Y0100000D03*
X0890500Y0110000D03*
X0972150Y0178100D03*
X0953500Y0201500D03*
X0943500Y0202500D03*
X0933500Y0201500D03*
X1003500Y0124000D03*
X0820090Y0212100D03*
X0808910Y0206660D03*
X0808910Y0217570D03*
X0820090Y0223000D03*
X0808910Y0228440D03*
X0820090Y0233910D03*
X0808910Y0239340D03*
X0820090Y0244810D03*
D48*
X0858590Y0118850D03*
X0858590Y0116290D03*
X0858590Y0113730D03*
X0858590Y0111170D03*
X0876410Y0111170D03*
X0876410Y0113730D03*
X0876410Y0116290D03*
X0876410Y0118850D03*
D28*
X0990180Y0103850D03*
X0990180Y0101290D03*
X0990180Y0098730D03*
X0990180Y0096170D03*
X1006810Y0096170D03*
X1006810Y0098730D03*
X1006810Y0101290D03*
X1006810Y0103850D03*
D39*
X0982800Y0152500D03*
X0982800Y0157500D03*
X0982800Y0162500D03*
X0982800Y0167500D03*
X0962200Y0167500D03*
X0962200Y0162500D03*
X0962200Y0157500D03*
X0962200Y0152500D03*
D139*
X0954270Y0140000D03*
X0950730Y0140000D03*
X1000730Y0155000D03*
X1004270Y0155000D03*
D56*
X1002500Y0168230D03*
X1002500Y0171770D03*
D121*
X0943500Y0241670D03*
X0939760Y0250330D03*
X0947240Y0250330D03*
X0910240Y0239330D03*
X0902760Y0239330D03*
X0906500Y0230670D03*
D20*
X0996590Y0060000D03*
X1008410Y0060000D03*
X1008410Y0045000D03*
X0996590Y0045000D03*
X0996590Y0030000D03*
X1008410Y0030000D03*
D141*
X0814500Y0173790D03*
X0814500Y0272220D03*
D129*
X0899460Y0263840D03*
X0899460Y0261280D03*
X0899460Y0258720D03*
X0899460Y0256160D03*
X0907540Y0256160D03*
X0907540Y0258720D03*
X0907540Y0261280D03*
X0907540Y0263840D03*
D55*
X0953790Y0266100D03*
X0953790Y0272000D03*
X0953790Y0277910D03*
X0965210Y0277910D03*
X0965210Y0272000D03*
X0965210Y0266100D03*
D105*
X0959500Y0266100D03*
X0272500Y0297500D02*
G75*
%LPD*%
D148*
X0456860Y0402940D03*
X0456860Y0408060D03*
X0464140Y0405500D03*
D17*
X0466040Y0382500D03*
X0458960Y0382500D03*
X0458960Y0372500D03*
X0466040Y0372500D03*
X0499960Y0388500D03*
X0507040Y0388500D03*
X0501040Y0417500D03*
X0493960Y0417500D03*
X0430040Y0352500D03*
X0422960Y0352500D03*
X0367040Y0326500D03*
X0359960Y0326500D03*
X0360040Y0333500D03*
X0352960Y0333500D03*
X0356960Y0308500D03*
X0364040Y0308500D03*
X0354040Y0374500D03*
X0346960Y0374500D03*
X0345040Y0460500D03*
X0337960Y0460500D03*
X0337960Y0469500D03*
X0345040Y0469500D03*
X0374960Y0534500D03*
X0382040Y0534500D03*
X0382040Y0545500D03*
X0374960Y0545500D03*
X0465960Y0549500D03*
X0473040Y0549500D03*
D133*
X0473780Y0413240D03*
X0473780Y0409500D03*
X0473780Y0405760D03*
X0483220Y0405760D03*
X0483220Y0409500D03*
X0483220Y0413240D03*
D73*
X0479040Y0484120D03*
X0479040Y0492380D03*
X0469190Y0484120D03*
X0479040Y0502620D03*
X0479040Y0510890D03*
X0469190Y0510890D03*
D62*
X0297000Y0309500D03*
X0297000Y0349500D03*
X0297000Y0377500D03*
X0297000Y0417500D03*
X0494000Y0497500D03*
D101*
X0438500Y0505960D03*
X0438500Y0513050D03*
X0414500Y0515050D03*
X0414500Y0507960D03*
X0417500Y0535960D03*
X0417500Y0543050D03*
X0426500Y0543050D03*
X0426500Y0535960D03*
X0366500Y0491050D03*
X0361500Y0498960D03*
X0361500Y0506050D03*
X0361500Y0514960D03*
X0361500Y0522050D03*
X0366500Y0483960D03*
X0337500Y0396050D03*
X0337500Y0388960D03*
X0397500Y0357050D03*
X0397500Y0349960D03*
X0406500Y0350050D03*
X0406500Y0342960D03*
X0447500Y0353960D03*
X0447500Y0361050D03*
X0457500Y0361050D03*
X0457500Y0353960D03*
X0467500Y0353960D03*
X0467500Y0361050D03*
X0472500Y0388960D03*
X0472500Y0396050D03*
X0482500Y0396050D03*
X0482500Y0388960D03*
D164*
X0351520Y0484000D03*
X0351520Y0489000D03*
X0351520Y0494000D03*
X0351520Y0499000D03*
X0351520Y0504000D03*
X0351520Y0509000D03*
X0351520Y0514000D03*
X0351520Y0519000D03*
X0329480Y0519000D03*
X0329480Y0514000D03*
X0329480Y0509000D03*
X0329480Y0504000D03*
X0329480Y0499000D03*
X0329480Y0494000D03*
X0329480Y0489000D03*
X0329480Y0484000D03*
D158*
X0319770Y0397500D02*
X0314230Y0397500D01*
X0314230Y0387500D02*
X0319770Y0387500D01*
X0319770Y0329500D02*
X0314230Y0329500D01*
X0314230Y0319500D02*
X0319770Y0319500D01*
D117*
X0399670Y0371750D03*
X0399670Y0374900D03*
X0399670Y0378050D03*
X0399670Y0381200D03*
X0399670Y0384350D03*
X0399670Y0387500D03*
X0399670Y0390650D03*
X0399670Y0393800D03*
X0399670Y0396950D03*
X0399670Y0400100D03*
X0399670Y0403250D03*
X0445330Y0403250D03*
X0445330Y0400100D03*
X0445330Y0396950D03*
X0445330Y0393800D03*
X0445330Y0390650D03*
X0445330Y0387500D03*
X0445330Y0384350D03*
X0445330Y0381200D03*
X0445330Y0378050D03*
X0445330Y0374900D03*
X0445330Y0371750D03*
D26*
X0438250Y0364670D03*
X0435100Y0364670D03*
X0431950Y0364670D03*
X0428800Y0364670D03*
X0425650Y0364670D03*
X0422500Y0364670D03*
X0419350Y0364670D03*
X0416200Y0364670D03*
X0413050Y0364670D03*
X0409900Y0364670D03*
X0406750Y0364670D03*
X0406750Y0410340D03*
X0409900Y0410340D03*
X0413050Y0410340D03*
X0416200Y0410340D03*
X0419350Y0410340D03*
X0422500Y0410340D03*
X0425650Y0410340D03*
X0428800Y0410340D03*
X0431950Y0410340D03*
X0435100Y0410340D03*
X0438250Y0410340D03*
D138*
X0409130Y0331900D03*
X0406570Y0331900D03*
X0404020Y0331900D03*
X0401460Y0331900D03*
X0398900Y0331900D03*
X0396340Y0331900D03*
X0393780Y0331900D03*
X0391220Y0331900D03*
X0388660Y0331900D03*
X0386100Y0331900D03*
X0383540Y0331900D03*
X0380980Y0331900D03*
X0378430Y0331900D03*
X0375870Y0331900D03*
X0375870Y0303110D03*
X0378430Y0303110D03*
X0380980Y0303110D03*
X0383540Y0303110D03*
X0386100Y0303110D03*
X0388660Y0303110D03*
X0391220Y0303110D03*
X0393780Y0303110D03*
X0396340Y0303110D03*
X0398900Y0303110D03*
X0401460Y0303110D03*
X0404020Y0303110D03*
X0406570Y0303110D03*
X0409130Y0303110D03*
D150*
X0442580Y0332500D03*
X0442580Y0340300D03*
X0452420Y0340300D03*
X0452420Y0332500D03*
D24*
X0471200Y0321800D03*
X0495500Y0357500D03*
X0423800Y0321800D03*
X0339500Y0311500D03*
X0351500Y0546500D03*
X0497500Y0547500D03*
D68*
X0366010Y0317500D03*
X0354990Y0317500D03*
D90*
X0382500Y0447500D03*
X0418500Y0480000D03*
X0315090Y0478690D03*
D60*
X0382500Y0437500D03*
X0392500Y0437500D03*
X0392500Y0447500D03*
X0392500Y0427500D03*
X0382500Y0427500D03*
D65*
X0372500Y0364040D03*
X0372500Y0347500D03*
X0352500Y0347500D03*
X0352500Y0364040D03*
D143*
X0337000Y0357500D03*
X0338000Y0347500D03*
X0337000Y0337500D03*
X0385500Y0367500D03*
X0384500Y0377500D03*
X0385500Y0387500D03*
X0467150Y0455600D03*
X0448500Y0479000D03*
X0438500Y0480000D03*
X0428500Y0479000D03*
X0498500Y0401500D03*
X0315090Y0489600D03*
X0303910Y0484160D03*
X0303910Y0495070D03*
X0315090Y0500500D03*
X0303910Y0505940D03*
X0315090Y0511410D03*
X0303910Y0516840D03*
X0315090Y0522310D03*
D48*
X0353590Y0396350D03*
X0353590Y0393790D03*
X0353590Y0391230D03*
X0353590Y0388670D03*
X0371410Y0388670D03*
X0371410Y0391230D03*
X0371410Y0393790D03*
X0371410Y0396350D03*
D28*
X0485180Y0381350D03*
X0485180Y0378790D03*
X0485180Y0376230D03*
X0485180Y0373670D03*
X0501810Y0373670D03*
X0501810Y0376230D03*
X0501810Y0378790D03*
X0501810Y0381350D03*
D39*
X0477800Y0430000D03*
X0477800Y0435000D03*
X0477800Y0440000D03*
X0477800Y0445000D03*
X0457200Y0445000D03*
X0457200Y0440000D03*
X0457200Y0435000D03*
X0457200Y0430000D03*
D139*
X0449270Y0417500D03*
X0445730Y0417500D03*
X0495730Y0432500D03*
X0499270Y0432500D03*
D56*
X0497500Y0445730D03*
X0497500Y0449270D03*
D121*
X0438500Y0519170D03*
X0434760Y0527830D03*
X0442240Y0527830D03*
X0405240Y0516830D03*
X0397760Y0516830D03*
X0401500Y0508170D03*
D20*
X0491590Y0337500D03*
X0503410Y0337500D03*
X0503410Y0322500D03*
X0491590Y0322500D03*
X0491590Y0307500D03*
X0503410Y0307500D03*
D141*
X0309500Y0451290D03*
X0309500Y0549720D03*
D129*
X0394460Y0541340D03*
X0394460Y0538780D03*
X0394460Y0536220D03*
X0394460Y0533660D03*
X0402540Y0533660D03*
X0402540Y0536220D03*
X0402540Y0538780D03*
X0402540Y0541340D03*
D55*
X0448790Y0543600D03*
X0448790Y0549500D03*
X0448790Y0555410D03*
X0460210Y0555410D03*
X0460210Y0549500D03*
X0460210Y0543600D03*
D105*
X0454500Y0543600D03*
X0525000Y0297500D02*
G75*
%LPD*%
D148*
X0709360Y0402940D03*
X0709360Y0408060D03*
X0716640Y0405500D03*
D17*
X0718540Y0382500D03*
X0711460Y0382500D03*
X0711460Y0372500D03*
X0718540Y0372500D03*
X0752460Y0388500D03*
X0759540Y0388500D03*
X0753540Y0417500D03*
X0746460Y0417500D03*
X0682540Y0352500D03*
X0675460Y0352500D03*
X0619540Y0326500D03*
X0612460Y0326500D03*
X0612540Y0333500D03*
X0605460Y0333500D03*
X0609460Y0308500D03*
X0616540Y0308500D03*
X0606540Y0374500D03*
X0599460Y0374500D03*
X0597540Y0460500D03*
X0590460Y0460500D03*
X0590460Y0469500D03*
X0597540Y0469500D03*
X0627460Y0534500D03*
X0634540Y0534500D03*
X0634540Y0545500D03*
X0627460Y0545500D03*
X0718460Y0549500D03*
X0725540Y0549500D03*
D133*
X0726280Y0413240D03*
X0726280Y0409500D03*
X0726280Y0405760D03*
X0735720Y0405760D03*
X0735720Y0409500D03*
X0735720Y0413240D03*
D73*
X0731540Y0484120D03*
X0731540Y0492380D03*
X0721690Y0484120D03*
X0731540Y0502620D03*
X0731540Y0510890D03*
X0721690Y0510890D03*
D62*
X0549500Y0309500D03*
X0549500Y0349500D03*
X0549500Y0377500D03*
X0549500Y0417500D03*
X0746500Y0497500D03*
D101*
X0691000Y0505960D03*
X0691000Y0513050D03*
X0667000Y0515050D03*
X0667000Y0507960D03*
X0670000Y0535960D03*
X0670000Y0543050D03*
X0679000Y0543050D03*
X0679000Y0535960D03*
X0619000Y0491050D03*
X0614000Y0498960D03*
X0614000Y0506050D03*
X0614000Y0514960D03*
X0614000Y0522050D03*
X0619000Y0483960D03*
X0590000Y0396050D03*
X0590000Y0388960D03*
X0650000Y0357050D03*
X0650000Y0349960D03*
X0659000Y0350050D03*
X0659000Y0342960D03*
X0700000Y0353960D03*
X0700000Y0361050D03*
X0710000Y0361050D03*
X0710000Y0353960D03*
X0720000Y0353960D03*
X0720000Y0361050D03*
X0725000Y0388960D03*
X0725000Y0396050D03*
X0735000Y0396050D03*
X0735000Y0388960D03*
D164*
X0604020Y0484000D03*
X0604020Y0489000D03*
X0604020Y0494000D03*
X0604020Y0499000D03*
X0604020Y0504000D03*
X0604020Y0509000D03*
X0604020Y0514000D03*
X0604020Y0519000D03*
X0581980Y0519000D03*
X0581980Y0514000D03*
X0581980Y0509000D03*
X0581980Y0504000D03*
X0581980Y0499000D03*
X0581980Y0494000D03*
X0581980Y0489000D03*
X0581980Y0484000D03*
D158*
X0572270Y0397500D02*
X0566730Y0397500D01*
X0566730Y0387500D02*
X0572270Y0387500D01*
X0572270Y0329500D02*
X0566730Y0329500D01*
X0566730Y0319500D02*
X0572270Y0319500D01*
D117*
X0652170Y0371750D03*
X0652170Y0374900D03*
X0652170Y0378050D03*
X0652170Y0381200D03*
X0652170Y0384350D03*
X0652170Y0387500D03*
X0652170Y0390650D03*
X0652170Y0393800D03*
X0652170Y0396950D03*
X0652170Y0400100D03*
X0652170Y0403250D03*
X0697830Y0403250D03*
X0697830Y0400100D03*
X0697830Y0396950D03*
X0697830Y0393800D03*
X0697830Y0390650D03*
X0697830Y0387500D03*
X0697830Y0384350D03*
X0697830Y0381200D03*
X0697830Y0378050D03*
X0697830Y0374900D03*
X0697830Y0371750D03*
D26*
X0690750Y0364670D03*
X0687600Y0364670D03*
X0684450Y0364670D03*
X0681300Y0364670D03*
X0678150Y0364670D03*
X0675000Y0364670D03*
X0671850Y0364670D03*
X0668700Y0364670D03*
X0665550Y0364670D03*
X0662400Y0364670D03*
X0659250Y0364670D03*
X0659250Y0410340D03*
X0662400Y0410340D03*
X0665550Y0410340D03*
X0668700Y0410340D03*
X0671850Y0410340D03*
X0675000Y0410340D03*
X0678150Y0410340D03*
X0681300Y0410340D03*
X0684450Y0410340D03*
X0687600Y0410340D03*
X0690750Y0410340D03*
D138*
X0661630Y0331900D03*
X0659070Y0331900D03*
X0656520Y0331900D03*
X0653960Y0331900D03*
X0651400Y0331900D03*
X0648840Y0331900D03*
X0646280Y0331900D03*
X0643720Y0331900D03*
X0641160Y0331900D03*
X0638600Y0331900D03*
X0636040Y0331900D03*
X0633480Y0331900D03*
X0630930Y0331900D03*
X0628370Y0331900D03*
X0628370Y0303110D03*
X0630930Y0303110D03*
X0633480Y0303110D03*
X0636040Y0303110D03*
X0638600Y0303110D03*
X0641160Y0303110D03*
X0643720Y0303110D03*
X0646280Y0303110D03*
X0648840Y0303110D03*
X0651400Y0303110D03*
X0653960Y0303110D03*
X0656520Y0303110D03*
X0659070Y0303110D03*
X0661630Y0303110D03*
D150*
X0695080Y0332500D03*
X0695080Y0340300D03*
X0704920Y0340300D03*
X0704920Y0332500D03*
D24*
X0723700Y0321800D03*
X0748000Y0357500D03*
X0676300Y0321800D03*
X0592000Y0311500D03*
X0604000Y0546500D03*
X0750000Y0547500D03*
D68*
X0618510Y0317500D03*
X0607490Y0317500D03*
D90*
X0635000Y0447500D03*
X0671000Y0480000D03*
X0567590Y0478690D03*
D60*
X0635000Y0437500D03*
X0645000Y0437500D03*
X0645000Y0447500D03*
X0645000Y0427500D03*
X0635000Y0427500D03*
D65*
X0625000Y0364040D03*
X0625000Y0347500D03*
X0605000Y0347500D03*
X0605000Y0364040D03*
D143*
X0589500Y0357500D03*
X0590500Y0347500D03*
X0589500Y0337500D03*
X0638000Y0367500D03*
X0637000Y0377500D03*
X0638000Y0387500D03*
X0719650Y0455600D03*
X0701000Y0479000D03*
X0691000Y0480000D03*
X0681000Y0479000D03*
X0751000Y0401500D03*
X0567590Y0489600D03*
X0556410Y0484160D03*
X0556410Y0495070D03*
X0567590Y0500500D03*
X0556410Y0505940D03*
X0567590Y0511410D03*
X0556410Y0516840D03*
X0567590Y0522310D03*
D48*
X0606090Y0396350D03*
X0606090Y0393790D03*
X0606090Y0391230D03*
X0606090Y0388670D03*
X0623910Y0388670D03*
X0623910Y0391230D03*
X0623910Y0393790D03*
X0623910Y0396350D03*
D28*
X0737680Y0381350D03*
X0737680Y0378790D03*
X0737680Y0376230D03*
X0737680Y0373670D03*
X0754310Y0373670D03*
X0754310Y0376230D03*
X0754310Y0378790D03*
X0754310Y0381350D03*
D39*
X0730300Y0430000D03*
X0730300Y0435000D03*
X0730300Y0440000D03*
X0730300Y0445000D03*
X0709700Y0445000D03*
X0709700Y0440000D03*
X0709700Y0435000D03*
X0709700Y0430000D03*
D139*
X0701770Y0417500D03*
X0698230Y0417500D03*
X0748230Y0432500D03*
X0751770Y0432500D03*
D56*
X0750000Y0445730D03*
X0750000Y0449270D03*
D121*
X0691000Y0519170D03*
X0687260Y0527830D03*
X0694740Y0527830D03*
X0657740Y0516830D03*
X0650260Y0516830D03*
X0654000Y0508170D03*
D20*
X0744090Y0337500D03*
X0755910Y0337500D03*
X0755910Y0322500D03*
X0744090Y0322500D03*
X0744090Y0307500D03*
X0755910Y0307500D03*
D141*
X0562000Y0451290D03*
X0562000Y0549720D03*
D129*
X0646960Y0541340D03*
X0646960Y0538780D03*
X0646960Y0536220D03*
X0646960Y0533660D03*
X0655040Y0533660D03*
X0655040Y0536220D03*
X0655040Y0538780D03*
X0655040Y0541340D03*
D55*
X0701290Y0543600D03*
X0701290Y0549500D03*
X0701290Y0555410D03*
X0712710Y0555410D03*
X0712710Y0549500D03*
X0712710Y0543600D03*
D105*
X0707000Y0543600D03*
X0777500Y0297500D02*
G75*
%LPD*%
D148*
X0961860Y0402940D03*
X0961860Y0408060D03*
X0969140Y0405500D03*
D17*
X0971040Y0382500D03*
X0963960Y0382500D03*
X0963960Y0372500D03*
X0971040Y0372500D03*
X1004960Y0388500D03*
X1012040Y0388500D03*
X1006040Y0417500D03*
X0998960Y0417500D03*
X0935040Y0352500D03*
X0927960Y0352500D03*
X0872040Y0326500D03*
X0864960Y0326500D03*
X0865040Y0333500D03*
X0857960Y0333500D03*
X0861960Y0308500D03*
X0869040Y0308500D03*
X0859040Y0374500D03*
X0851960Y0374500D03*
X0850040Y0460500D03*
X0842960Y0460500D03*
X0842960Y0469500D03*
X0850040Y0469500D03*
X0879960Y0534500D03*
X0887040Y0534500D03*
X0887040Y0545500D03*
X0879960Y0545500D03*
X0970960Y0549500D03*
X0978040Y0549500D03*
D133*
X0978780Y0413240D03*
X0978780Y0409500D03*
X0978780Y0405760D03*
X0988220Y0405760D03*
X0988220Y0409500D03*
X0988220Y0413240D03*
D73*
X0984040Y0484120D03*
X0984040Y0492380D03*
X0974190Y0484120D03*
X0984040Y0502620D03*
X0984040Y0510890D03*
X0974190Y0510890D03*
D62*
X0802000Y0309500D03*
X0802000Y0349500D03*
X0802000Y0377500D03*
X0802000Y0417500D03*
X0999000Y0497500D03*
D101*
X0943500Y0505960D03*
X0943500Y0513050D03*
X0919500Y0515050D03*
X0919500Y0507960D03*
X0922500Y0535960D03*
X0922500Y0543050D03*
X0931500Y0543050D03*
X0931500Y0535960D03*
X0871500Y0491050D03*
X0866500Y0498960D03*
X0866500Y0506050D03*
X0866500Y0514960D03*
X0866500Y0522050D03*
X0871500Y0483960D03*
X0842500Y0396050D03*
X0842500Y0388960D03*
X0902500Y0357050D03*
X0902500Y0349960D03*
X0911500Y0350050D03*
X0911500Y0342960D03*
X0952500Y0353960D03*
X0952500Y0361050D03*
X0962500Y0361050D03*
X0962500Y0353960D03*
X0972500Y0353960D03*
X0972500Y0361050D03*
X0977500Y0388960D03*
X0977500Y0396050D03*
X0987500Y0396050D03*
X0987500Y0388960D03*
D164*
X0856520Y0484000D03*
X0856520Y0489000D03*
X0856520Y0494000D03*
X0856520Y0499000D03*
X0856520Y0504000D03*
X0856520Y0509000D03*
X0856520Y0514000D03*
X0856520Y0519000D03*
X0834480Y0519000D03*
X0834480Y0514000D03*
X0834480Y0509000D03*
X0834480Y0504000D03*
X0834480Y0499000D03*
X0834480Y0494000D03*
X0834480Y0489000D03*
X0834480Y0484000D03*
D158*
X0824770Y0397500D02*
X0819230Y0397500D01*
X0819230Y0387500D02*
X0824770Y0387500D01*
X0824770Y0329500D02*
X0819230Y0329500D01*
X0819230Y0319500D02*
X0824770Y0319500D01*
D117*
X0904670Y0371750D03*
X0904670Y0374900D03*
X0904670Y0378050D03*
X0904670Y0381200D03*
X0904670Y0384350D03*
X0904670Y0387500D03*
X0904670Y0390650D03*
X0904670Y0393800D03*
X0904670Y0396950D03*
X0904670Y0400100D03*
X0904670Y0403250D03*
X0950330Y0403250D03*
X0950330Y0400100D03*
X0950330Y0396950D03*
X0950330Y0393800D03*
X0950330Y0390650D03*
X0950330Y0387500D03*
X0950330Y0384350D03*
X0950330Y0381200D03*
X0950330Y0378050D03*
X0950330Y0374900D03*
X0950330Y0371750D03*
D26*
X0943250Y0364670D03*
X0940100Y0364670D03*
X0936950Y0364670D03*
X0933800Y0364670D03*
X0930650Y0364670D03*
X0927500Y0364670D03*
X0924350Y0364670D03*
X0921200Y0364670D03*
X0918050Y0364670D03*
X0914900Y0364670D03*
X0911750Y0364670D03*
X0911750Y0410340D03*
X0914900Y0410340D03*
X0918050Y0410340D03*
X0921200Y0410340D03*
X0924350Y0410340D03*
X0927500Y0410340D03*
X0930650Y0410340D03*
X0933800Y0410340D03*
X0936950Y0410340D03*
X0940100Y0410340D03*
X0943250Y0410340D03*
D138*
X0914130Y0331900D03*
X0911570Y0331900D03*
X0909020Y0331900D03*
X0906460Y0331900D03*
X0903900Y0331900D03*
X0901340Y0331900D03*
X0898780Y0331900D03*
X0896220Y0331900D03*
X0893660Y0331900D03*
X0891100Y0331900D03*
X0888540Y0331900D03*
X0885980Y0331900D03*
X0883430Y0331900D03*
X0880870Y0331900D03*
X0880870Y0303110D03*
X0883430Y0303110D03*
X0885980Y0303110D03*
X0888540Y0303110D03*
X0891100Y0303110D03*
X0893660Y0303110D03*
X0896220Y0303110D03*
X0898780Y0303110D03*
X0901340Y0303110D03*
X0903900Y0303110D03*
X0906460Y0303110D03*
X0909020Y0303110D03*
X0911570Y0303110D03*
X0914130Y0303110D03*
D150*
X0947580Y0332500D03*
X0947580Y0340300D03*
X0957420Y0340300D03*
X0957420Y0332500D03*
D24*
X0976200Y0321800D03*
X1000500Y0357500D03*
X0928800Y0321800D03*
X0844500Y0311500D03*
X0856500Y0546500D03*
X1002500Y0547500D03*
D68*
X0871010Y0317500D03*
X0859990Y0317500D03*
D90*
X0887500Y0447500D03*
X0923500Y0480000D03*
X0820090Y0478690D03*
D60*
X0887500Y0437500D03*
X0897500Y0437500D03*
X0897500Y0447500D03*
X0897500Y0427500D03*
X0887500Y0427500D03*
D65*
X0877500Y0364040D03*
X0877500Y0347500D03*
X0857500Y0347500D03*
X0857500Y0364040D03*
D143*
X0842000Y0357500D03*
X0843000Y0347500D03*
X0842000Y0337500D03*
X0890500Y0367500D03*
X0889500Y0377500D03*
X0890500Y0387500D03*
X0972150Y0455600D03*
X0953500Y0479000D03*
X0943500Y0480000D03*
X0933500Y0479000D03*
X1003500Y0401500D03*
X0820090Y0489600D03*
X0808910Y0484160D03*
X0808910Y0495070D03*
X0820090Y0500500D03*
X0808910Y0505940D03*
X0820090Y0511410D03*
X0808910Y0516840D03*
X0820090Y0522310D03*
D48*
X0858590Y0396350D03*
X0858590Y0393790D03*
X0858590Y0391230D03*
X0858590Y0388670D03*
X0876410Y0388670D03*
X0876410Y0391230D03*
X0876410Y0393790D03*
X0876410Y0396350D03*
D28*
X0990180Y0381350D03*
X0990180Y0378790D03*
X0990180Y0376230D03*
X0990180Y0373670D03*
X1006810Y0373670D03*
X1006810Y0376230D03*
X1006810Y0378790D03*
X1006810Y0381350D03*
D39*
X0982800Y0430000D03*
X0982800Y0435000D03*
X0982800Y0440000D03*
X0982800Y0445000D03*
X0962200Y0445000D03*
X0962200Y0440000D03*
X0962200Y0435000D03*
X0962200Y0430000D03*
D139*
X0954270Y0417500D03*
X0950730Y0417500D03*
X1000730Y0432500D03*
X1004270Y0432500D03*
D56*
X1002500Y0445730D03*
X1002500Y0449270D03*
D121*
X0943500Y0519170D03*
X0939760Y0527830D03*
X0947240Y0527830D03*
X0910240Y0516830D03*
X0902760Y0516830D03*
X0906500Y0508170D03*
D20*
X0996590Y0337500D03*
X1008410Y0337500D03*
X1008410Y0322500D03*
X0996590Y0322500D03*
X0996590Y0307500D03*
X1008410Y0307500D03*
D141*
X0814500Y0451290D03*
X0814500Y0549720D03*
D129*
X0899460Y0541340D03*
X0899460Y0538780D03*
X0899460Y0536220D03*
X0899460Y0533660D03*
X0907540Y0533660D03*
X0907540Y0536220D03*
X0907540Y0538780D03*
X0907540Y0541340D03*
D55*
X0953790Y0543600D03*
X0953790Y0549500D03*
X0953790Y0555410D03*
X0965210Y0555410D03*
X0965210Y0549500D03*
X0965210Y0543600D03*
D105*
X0959500Y0543600D03*
M02*
